<?xml version="1.0" encoding="UTF-8" standalone="no"?>
<!DOCTYPE svg PUBLIC "-//W3C//DTD SVG 1.1//EN"
 "http://www.w3.org/Graphics/SVG/1.1/DTD/svg11.dtd">
<!-- Generated by graphviz version 2.47.0 (20210316.0004)
 -->
<!-- Title: dependencies Pages: 1 -->
<svg width="2666pt" height="284pt"
 viewBox="0.00 0.00 2666.00 284.00" xmlns="http://www.w3.org/2000/svg" xmlns:xlink="http://www.w3.org/1999/xlink">
<g id="graph0" class="graph" transform="scale(1 1) rotate(0) translate(4 280)">
<title>dependencies</title>
<polygon fill="white" stroke="transparent" points="-4,4 -4,-280 2662,-280 2662,4 -4,4"/>
<text text-anchor="start" x="1308.01" y="-42.4" font-family="Times-12" font-weight="bold" font-size="14.00">Legend</text>
<polygon fill="#ffffb3" stroke="transparent" points="1095,-10 1095,-30 1115,-30 1115,-10 1095,-10"/>
<text text-anchor="start" x="1118.63" y="-15.4" font-family="Times-12" font-size="14.00"> &#160;Declarations</text>
<polygon fill="#8dd3c7" stroke="transparent" points="1208,-10 1208,-30 1228,-30 1228,-10 1208,-10"/>
<text text-anchor="start" x="1231.73" y="-15.4" font-family="Times-12" font-size="14.00"> &#160;Module</text>
<polygon fill="#80b1d3" stroke="transparent" points="1294,-10 1294,-30 1314,-30 1314,-10 1294,-10"/>
<text text-anchor="start" x="1317.78" y="-15.4" font-family="Times-12" font-size="14.00"> &#160;Bootstrap</text>
<polygon fill="#fdb462" stroke="transparent" points="1391,-10 1391,-30 1411,-30 1411,-10 1391,-10"/>
<text text-anchor="start" x="1414.67" y="-15.4" font-family="Times-12" font-size="14.00"> &#160;Providers</text>
<polygon fill="#fb8072" stroke="transparent" points="1487,-10 1487,-30 1507,-30 1507,-10 1487,-10"/>
<text text-anchor="start" x="1510.73" y="-15.4" font-family="Times-12" font-size="14.00"> &#160;Exports</text>
<g id="clust1" class="cluster">
<title>cluster_CoreModule</title>
<polygon fill="none" stroke="black" stroke-dasharray="1,5" points="8,-70 8,-268 2650,-268 2650,-70 8,-70"/>
</g>
<g id="clust20" class="cluster">
<title>cluster_CoreModule_providers</title>
<polygon fill="none" stroke="black" points="1897,-78 1897,-130 2642,-130 2642,-78 1897,-78"/>
</g>
<g id="clust2" class="cluster">
<title>cluster_CoreModule_declarations</title>
<polygon fill="none" stroke="black" points="16,-78 16,-130 1889,-130 1889,-78 16,-78"/>
</g>
<g id="clust18" class="cluster">
<title>cluster_CoreModule_exports</title>
<polygon fill="none" stroke="black" points="672,-208 672,-260 1892,-260 1892,-208 672,-208"/>
</g>
<!-- AboutModal -->
<g id="node1" class="node">
<title>AboutModal</title>
<polygon fill="#ffffb3" stroke="black" points="1880.55,-122 1793.45,-122 1793.45,-86 1880.55,-86 1880.55,-122"/>
<text text-anchor="middle" x="1837" y="-99.8" font-family="Times,serif" font-size="14.00">AboutModal</text>
</g>
<!-- CoreModule -->
<g id="node15" class="node">
<title>CoreModule</title>
<polygon fill="#8dd3c7" stroke="black" points="1332.26,-187 1329.26,-191 1308.26,-191 1305.26,-187 1245.74,-187 1245.74,-151 1332.26,-151 1332.26,-187"/>
<text text-anchor="middle" x="1289" y="-164.8" font-family="Times,serif" font-size="14.00">CoreModule</text>
</g>
<!-- AboutModal&#45;&gt;CoreModule -->
<g id="edge1" class="edge">
<title>AboutModal&#45;&gt;CoreModule</title>
<path fill="none" stroke="black" d="M1851.59,-122.03C1851.59,-138.4 1851.59,-160 1851.59,-160 1851.59,-160 1342.68,-160 1342.68,-160"/>
<polygon fill="black" stroke="black" points="1342.68,-156.5 1332.68,-160 1342.68,-163.5 1342.68,-156.5"/>
</g>
<!-- BlankdraftModal -->
<g id="node2" class="node">
<title>BlankdraftModal</title>
<polygon fill="#ffffb3" stroke="black" points="1775.42,-122 1662.58,-122 1662.58,-86 1775.42,-86 1775.42,-122"/>
<text text-anchor="middle" x="1719" y="-99.8" font-family="Times,serif" font-size="14.00">BlankdraftModal</text>
</g>
<!-- BlankdraftModal&#45;&gt;CoreModule -->
<g id="edge2" class="edge">
<title>BlankdraftModal&#45;&gt;CoreModule</title>
<path fill="none" stroke="black" d="M1718.41,-122.24C1718.41,-137.57 1718.41,-157 1718.41,-157 1718.41,-157 1342.54,-157 1342.54,-157"/>
<polygon fill="black" stroke="black" points="1342.54,-153.5 1332.54,-157 1342.54,-160.5 1342.54,-153.5"/>
</g>
<!-- ExamplesComponent -->
<g id="node3" class="node">
<title>ExamplesComponent</title>
<polygon fill="#ffffb3" stroke="black" points="1645.04,-122 1508.96,-122 1508.96,-86 1645.04,-86 1645.04,-122"/>
<text text-anchor="middle" x="1577" y="-99.8" font-family="Times,serif" font-size="14.00">ExamplesComponent</text>
</g>
<!-- ExamplesComponent&#45;&gt;CoreModule -->
<g id="edge3" class="edge">
<title>ExamplesComponent&#45;&gt;CoreModule</title>
<path fill="none" stroke="black" d="M1562.29,-122.05C1562.29,-136.37 1562.29,-154 1562.29,-154 1562.29,-154 1342.3,-154 1342.3,-154"/>
<polygon fill="black" stroke="black" points="1342.3,-150.5 1332.3,-154 1342.3,-157.5 1342.3,-150.5"/>
</g>
<!-- FilebrowserComponent -->
<g id="node4" class="node">
<title>FilebrowserComponent</title>
<polygon fill="#ffffb3" stroke="black" points="1491.2,-122 1342.8,-122 1342.8,-86 1491.2,-86 1491.2,-122"/>
<text text-anchor="middle" x="1417" y="-99.8" font-family="Times,serif" font-size="14.00">FilebrowserComponent</text>
</g>
<!-- FilebrowserComponent&#45;&gt;CoreModule -->
<g id="edge4" class="edge">
<title>FilebrowserComponent&#45;&gt;CoreModule</title>
<path fill="none" stroke="black" d="M1342.88,-104C1334.38,-104 1328.69,-104 1328.69,-104 1328.69,-104 1328.69,-140.89 1328.69,-140.89"/>
<polygon fill="black" stroke="black" points="1325.19,-140.89 1328.69,-150.89 1332.19,-140.89 1325.19,-140.89"/>
</g>
<!-- InitModal -->
<g id="node5" class="node">
<title>InitModal</title>
<polygon fill="#ffffb3" stroke="black" points="1324.99,-122 1253.01,-122 1253.01,-86 1324.99,-86 1324.99,-122"/>
<text text-anchor="middle" x="1289" y="-99.8" font-family="Times,serif" font-size="14.00">InitModal</text>
</g>
<!-- InitModal&#45;&gt;CoreModule -->
<g id="edge5" class="edge">
<title>InitModal&#45;&gt;CoreModule</title>
<path fill="none" stroke="black" d="M1289,-122.11C1289,-122.11 1289,-140.99 1289,-140.99"/>
<polygon fill="black" stroke="black" points="1285.5,-140.99 1289,-150.99 1292.5,-140.99 1285.5,-140.99"/>
</g>
<!-- KeycodesDirective -->
<g id="node6" class="node">
<title>KeycodesDirective</title>
<polygon fill="#ffffb3" stroke="black" points="1234.78,-122 1111.22,-122 1111.22,-86 1234.78,-86 1234.78,-122"/>
<text text-anchor="middle" x="1173" y="-99.8" font-family="Times,serif" font-size="14.00">KeycodesDirective</text>
</g>
<!-- KeycodesDirective&#45;&gt;CoreModule -->
<g id="edge6" class="edge">
<title>KeycodesDirective&#45;&gt;CoreModule</title>
<path fill="none" stroke="black" d="M1234.96,-104C1243.44,-104 1249.31,-104 1249.31,-104 1249.31,-104 1249.31,-140.89 1249.31,-140.89"/>
<polygon fill="black" stroke="black" points="1245.81,-140.89 1249.31,-150.89 1252.81,-140.89 1245.81,-140.89"/>
</g>
<!-- LoadfileComponent -->
<g id="node7" class="node">
<title>LoadfileComponent</title>
<polygon fill="#ffffb3" stroke="black" points="1093.26,-122 964.74,-122 964.74,-86 1093.26,-86 1093.26,-122"/>
<text text-anchor="middle" x="1029" y="-99.8" font-family="Times,serif" font-size="14.00">LoadfileComponent</text>
</g>
<!-- LoadfileComponent&#45;&gt;CoreModule -->
<g id="edge7" class="edge">
<title>LoadfileComponent&#45;&gt;CoreModule</title>
<path fill="none" stroke="black" d="M1045.32,-122.05C1045.32,-136.37 1045.32,-154 1045.32,-154 1045.32,-154 1235.72,-154 1235.72,-154"/>
<polygon fill="black" stroke="black" points="1235.72,-157.5 1245.72,-154 1235.72,-150.5 1235.72,-157.5"/>
</g>
<!-- LoginComponent -->
<g id="node8" class="node">
<title>LoginComponent</title>
<polygon fill="#ffffb3" stroke="black" points="946.28,-122 831.72,-122 831.72,-86 946.28,-86 946.28,-122"/>
<text text-anchor="middle" x="889" y="-99.8" font-family="Times,serif" font-size="14.00">LoginComponent</text>
</g>
<!-- LoginComponent&#45;&gt;CoreModule -->
<g id="edge8" class="edge">
<title>LoginComponent&#45;&gt;CoreModule</title>
<path fill="none" stroke="black" d="M900.38,-122.24C900.38,-137.57 900.38,-157 900.38,-157 900.38,-157 1235.55,-157 1235.55,-157"/>
<polygon fill="black" stroke="black" points="1235.55,-160.5 1245.55,-157 1235.55,-153.5 1235.55,-160.5"/>
</g>
<!-- LoomModal -->
<g id="node9" class="node">
<title>LoomModal</title>
<polygon fill="#ffffb3" stroke="black" points="813.99,-122 728.01,-122 728.01,-86 813.99,-86 813.99,-122"/>
<text text-anchor="middle" x="771" y="-99.8" font-family="Times,serif" font-size="14.00">LoomModal</text>
</g>
<!-- LoomModal&#45;&gt;CoreModule -->
<g id="edge9" class="edge">
<title>LoomModal&#45;&gt;CoreModule</title>
<path fill="none" stroke="black" d="M771,-122.03C771,-138.4 771,-160 771,-160 771,-160 1235.73,-160 1235.73,-160"/>
<polygon fill="black" stroke="black" points="1235.73,-163.5 1245.73,-160 1235.73,-156.5 1235.73,-163.5"/>
</g>
<!-- MaterialModal -->
<g id="node10" class="node">
<title>MaterialModal</title>
<polygon fill="#ffffb3" stroke="black" points="709.97,-122 610.03,-122 610.03,-86 709.97,-86 709.97,-122"/>
<text text-anchor="middle" x="660" y="-99.8" font-family="Times,serif" font-size="14.00">MaterialModal</text>
</g>
<!-- MaterialModal&#45;&gt;CoreModule -->
<g id="edge10" class="edge">
<title>MaterialModal&#45;&gt;CoreModule</title>
<path fill="none" stroke="black" d="M694.9,-122.02C694.9,-139.37 694.9,-163 694.9,-163 694.9,-163 1235.31,-163 1235.31,-163"/>
<polygon fill="black" stroke="black" points="1235.31,-166.5 1245.31,-163 1235.31,-159.5 1235.31,-166.5"/>
</g>
<!-- ProfileComponent -->
<g id="node11" class="node">
<title>ProfileComponent</title>
<polygon fill="#ffffb3" stroke="black" points="591.93,-122 472.07,-122 472.07,-86 591.93,-86 591.93,-122"/>
<text text-anchor="middle" x="532" y="-99.8" font-family="Times,serif" font-size="14.00">ProfileComponent</text>
</g>
<!-- ProfileComponent&#45;&gt;CoreModule -->
<g id="edge11" class="edge">
<title>ProfileComponent&#45;&gt;CoreModule</title>
<path fill="none" stroke="black" d="M532,-122.3C532,-140.27 532,-165 532,-165 532,-165 1235.58,-165 1235.58,-165"/>
<polygon fill="black" stroke="black" points="1235.58,-168.5 1245.58,-165 1235.58,-161.5 1235.58,-168.5"/>
</g>
<!-- SignupComponent -->
<g id="node12" class="node">
<title>SignupComponent</title>
<polygon fill="#ffffb3" stroke="black" points="454.51,-122 333.49,-122 333.49,-86 454.51,-86 454.51,-122"/>
<text text-anchor="middle" x="394" y="-99.8" font-family="Times,serif" font-size="14.00">SignupComponent</text>
</g>
<!-- SignupComponent&#45;&gt;CoreModule -->
<g id="edge12" class="edge">
<title>SignupComponent&#45;&gt;CoreModule</title>
<path fill="none" stroke="black" d="M394,-122.17C394,-141.09 394,-168 394,-168 394,-168 1235.53,-168 1235.53,-168"/>
<polygon fill="black" stroke="black" points="1235.53,-171.5 1245.53,-168 1235.53,-164.5 1235.53,-171.5"/>
</g>
<!-- TopbarComponent -->
<g id="node13" class="node">
<title>TopbarComponent</title>
<polygon fill="#ffffb3" stroke="black" points="315.76,-122 194.24,-122 194.24,-86 315.76,-86 315.76,-122"/>
<text text-anchor="middle" x="255" y="-99.8" font-family="Times,serif" font-size="14.00">TopbarComponent</text>
</g>
<!-- TopbarComponent&#45;&gt;CoreModule -->
<g id="edge13" class="edge">
<title>TopbarComponent&#45;&gt;CoreModule</title>
<path fill="none" stroke="black" d="M255,-122.31C255,-142.15 255,-171 255,-171 255,-171 1235.56,-171 1235.56,-171"/>
<polygon fill="black" stroke="black" points="1235.56,-174.5 1245.56,-171 1235.56,-167.5 1235.56,-174.5"/>
</g>
<!-- UploadFormComponent -->
<g id="node14" class="node">
<title>UploadFormComponent</title>
<polygon fill="#ffffb3" stroke="black" points="176.38,-122 23.62,-122 23.62,-86 176.38,-86 176.38,-122"/>
<text text-anchor="middle" x="100" y="-99.8" font-family="Times,serif" font-size="14.00">UploadFormComponent</text>
</g>
<!-- UploadFormComponent&#45;&gt;CoreModule -->
<g id="edge14" class="edge">
<title>UploadFormComponent&#45;&gt;CoreModule</title>
<path fill="none" stroke="black" d="M100,-122.03C100,-142.77 100,-174 100,-174 100,-174 1235.63,-174 1235.63,-174"/>
<polygon fill="black" stroke="black" points="1235.63,-177.5 1245.63,-174 1235.63,-170.5 1235.63,-177.5"/>
</g>
<!-- AboutModal  -->
<g id="node16" class="node">
<title>AboutModal </title>
<polygon fill="#fb8072" stroke="black" points="1883.55,-252 1792.45,-252 1792.45,-216 1883.55,-216 1883.55,-252"/>
<text text-anchor="middle" x="1838" y="-229.8" font-family="Times,serif" font-size="14.00">AboutModal </text>
</g>
<!-- CoreModule&#45;&gt;AboutModal  -->
<g id="edge15" class="edge">
<title>CoreModule&#45;&gt;AboutModal </title>
<path fill="none" stroke="black" stroke-dasharray="5,2" d="M1332.65,-176C1460.04,-176 1822.41,-176 1822.41,-176 1822.41,-176 1822.41,-205.97 1822.41,-205.97"/>
<polygon fill="black" stroke="black" points="1818.91,-205.97 1822.41,-215.97 1825.91,-205.97 1818.91,-205.97"/>
</g>
<!-- ExamplesComponent  -->
<g id="node17" class="node">
<title>ExamplesComponent </title>
<polygon fill="#fb8072" stroke="black" points="1774.04,-252 1633.96,-252 1633.96,-216 1774.04,-216 1774.04,-252"/>
<text text-anchor="middle" x="1704" y="-229.8" font-family="Times,serif" font-size="14.00">ExamplesComponent </text>
</g>
<!-- CoreModule&#45;&gt;ExamplesComponent  -->
<g id="edge16" class="edge">
<title>CoreModule&#45;&gt;ExamplesComponent </title>
<path fill="none" stroke="black" stroke-dasharray="5,2" d="M1332.35,-179C1426.16,-179 1639.62,-179 1639.62,-179 1639.62,-179 1639.62,-205.99 1639.62,-205.99"/>
<polygon fill="black" stroke="black" points="1636.13,-205.99 1639.62,-215.99 1643.13,-205.99 1636.13,-205.99"/>
</g>
<!-- FilebrowserComponent  -->
<g id="node18" class="node">
<title>FilebrowserComponent </title>
<polygon fill="#fb8072" stroke="black" points="1615.7,-252 1464.3,-252 1464.3,-216 1615.7,-216 1615.7,-252"/>
<text text-anchor="middle" x="1540" y="-229.8" font-family="Times,serif" font-size="14.00">FilebrowserComponent </text>
</g>
<!-- CoreModule&#45;&gt;FilebrowserComponent  -->
<g id="edge17" class="edge">
<title>CoreModule&#45;&gt;FilebrowserComponent </title>
<path fill="none" stroke="black" stroke-dasharray="5,2" d="M1332.27,-182C1387.96,-182 1477.62,-182 1477.62,-182 1477.62,-182 1477.62,-205.81 1477.62,-205.81"/>
<polygon fill="black" stroke="black" points="1474.13,-205.81 1477.62,-215.81 1481.13,-205.81 1474.13,-205.81"/>
</g>
<!-- InitModal  -->
<g id="node19" class="node">
<title>InitModal </title>
<polygon fill="#fb8072" stroke="black" points="1445.99,-252 1370.01,-252 1370.01,-216 1445.99,-216 1445.99,-252"/>
<text text-anchor="middle" x="1408" y="-229.8" font-family="Times,serif" font-size="14.00">InitModal </text>
</g>
<!-- CoreModule&#45;&gt;InitModal  -->
<g id="edge18" class="edge">
<title>CoreModule&#45;&gt;InitModal </title>
<path fill="none" stroke="black" stroke-dasharray="5,2" d="M1332.3,-185C1366.32,-185 1408,-185 1408,-185 1408,-185 1408,-205.75 1408,-205.75"/>
<polygon fill="black" stroke="black" points="1404.5,-205.75 1408,-215.75 1411.5,-205.75 1404.5,-205.75"/>
</g>
<!-- KeycodesDirective  -->
<g id="node20" class="node">
<title>KeycodesDirective </title>
<polygon fill="#fb8072" stroke="black" points="1352.28,-252 1225.72,-252 1225.72,-216 1352.28,-216 1352.28,-252"/>
<text text-anchor="middle" x="1289" y="-229.8" font-family="Times,serif" font-size="14.00">KeycodesDirective </text>
</g>
<!-- CoreModule&#45;&gt;KeycodesDirective  -->
<g id="edge19" class="edge">
<title>CoreModule&#45;&gt;KeycodesDirective </title>
<path fill="none" stroke="black" stroke-dasharray="5,2" d="M1289,-187.11C1289,-187.11 1289,-205.99 1289,-205.99"/>
<polygon fill="black" stroke="black" points="1285.5,-205.99 1289,-215.99 1292.5,-205.99 1285.5,-205.99"/>
</g>
<!-- LoomModal  -->
<g id="node21" class="node">
<title>LoomModal </title>
<polygon fill="#fb8072" stroke="black" points="1207.99,-252 1118.01,-252 1118.01,-216 1207.99,-216 1207.99,-252"/>
<text text-anchor="middle" x="1163" y="-229.8" font-family="Times,serif" font-size="14.00">LoomModal </text>
</g>
<!-- CoreModule&#45;&gt;LoomModal  -->
<g id="edge20" class="edge">
<title>CoreModule&#45;&gt;LoomModal </title>
<path fill="none" stroke="black" stroke-dasharray="5,2" d="M1245.64,-185C1209.19,-185 1163,-185 1163,-185 1163,-185 1163,-205.75 1163,-205.75"/>
<polygon fill="black" stroke="black" points="1159.5,-205.75 1163,-215.75 1166.5,-205.75 1159.5,-205.75"/>
</g>
<!-- MaterialModal  -->
<g id="node22" class="node">
<title>MaterialModal </title>
<polygon fill="#fb8072" stroke="black" points="1100.97,-252 997.03,-252 997.03,-216 1100.97,-216 1100.97,-252"/>
<text text-anchor="middle" x="1049" y="-229.8" font-family="Times,serif" font-size="14.00">MaterialModal </text>
</g>
<!-- CoreModule&#45;&gt;MaterialModal  -->
<g id="edge21" class="edge">
<title>CoreModule&#45;&gt;MaterialModal </title>
<path fill="none" stroke="black" stroke-dasharray="5,2" d="M1245.45,-182C1188.81,-182 1097.06,-182 1097.06,-182 1097.06,-182 1097.06,-205.81 1097.06,-205.81"/>
<polygon fill="black" stroke="black" points="1093.56,-205.81 1097.06,-215.81 1100.56,-205.81 1093.56,-205.81"/>
</g>
<!-- TopbarComponent  -->
<g id="node23" class="node">
<title>TopbarComponent </title>
<polygon fill="#fb8072" stroke="black" points="979.76,-252 854.24,-252 854.24,-216 979.76,-216 979.76,-252"/>
<text text-anchor="middle" x="917" y="-229.8" font-family="Times,serif" font-size="14.00">TopbarComponent </text>
</g>
<!-- CoreModule&#45;&gt;TopbarComponent  -->
<g id="edge22" class="edge">
<title>CoreModule&#45;&gt;TopbarComponent </title>
<path fill="none" stroke="black" stroke-dasharray="5,2" d="M1245.6,-179C1158.82,-179 972.13,-179 972.13,-179 972.13,-179 972.13,-205.99 972.13,-205.99"/>
<polygon fill="black" stroke="black" points="968.63,-205.99 972.13,-215.99 975.63,-205.99 968.63,-205.99"/>
</g>
<!-- UploadFormComponent  -->
<g id="node24" class="node">
<title>UploadFormComponent </title>
<polygon fill="#fb8072" stroke="black" points="836.38,-252 679.62,-252 679.62,-216 836.38,-216 836.38,-252"/>
<text text-anchor="middle" x="758" y="-229.8" font-family="Times,serif" font-size="14.00">UploadFormComponent </text>
</g>
<!-- CoreModule&#45;&gt;UploadFormComponent  -->
<g id="edge23" class="edge">
<title>CoreModule&#45;&gt;UploadFormComponent </title>
<path fill="none" stroke="black" stroke-dasharray="5,2" d="M1245.56,-176C1129.83,-176 822.8,-176 822.8,-176 822.8,-176 822.8,-205.97 822.8,-205.97"/>
<polygon fill="black" stroke="black" points="819.3,-205.97 822.8,-215.97 826.3,-205.97 819.3,-205.97"/>
</g>
<!-- AuthService -->
<g id="node25" class="node">
<title>AuthService</title>
<ellipse fill="#fdb462" stroke="black" cx="2575" cy="-104" rx="59.11" ry="18"/>
<text text-anchor="middle" x="2575" y="-99.8" font-family="Times,serif" font-size="14.00">AuthService</text>
</g>
<!-- AuthService&#45;&gt;CoreModule -->
<g id="edge24" class="edge">
<title>AuthService&#45;&gt;CoreModule</title>
<path fill="none" stroke="black" d="M2575,-122.03C2575,-142.77 2575,-174 2575,-174 2575,-174 1342.52,-174 1342.52,-174"/>
<polygon fill="black" stroke="black" points="1342.52,-170.5 1332.52,-174 1342.52,-177.5 1342.52,-170.5"/>
</g>
<!-- FileService -->
<g id="node26" class="node">
<title>FileService</title>
<ellipse fill="#fdb462" stroke="black" cx="2443" cy="-104" rx="55.03" ry="18"/>
<text text-anchor="middle" x="2443" y="-99.8" font-family="Times,serif" font-size="14.00">FileService</text>
</g>
<!-- FileService&#45;&gt;CoreModule -->
<g id="edge25" class="edge">
<title>FileService&#45;&gt;CoreModule</title>
<path fill="none" stroke="black" d="M2443,-122.31C2443,-142.15 2443,-171 2443,-171 2443,-171 1342.48,-171 1342.48,-171"/>
<polygon fill="black" stroke="black" points="1342.48,-167.5 1332.48,-171 1342.48,-174.5 1342.48,-167.5"/>
</g>
<!-- PatternfinderService -->
<g id="node27" class="node">
<title>PatternfinderService</title>
<ellipse fill="#fdb462" stroke="black" cx="2280" cy="-104" rx="90.3" ry="18"/>
<text text-anchor="middle" x="2280" y="-99.8" font-family="Times,serif" font-size="14.00">PatternfinderService</text>
</g>
<!-- PatternfinderService&#45;&gt;CoreModule -->
<g id="edge26" class="edge">
<title>PatternfinderService&#45;&gt;CoreModule</title>
<path fill="none" stroke="black" d="M2280,-122.17C2280,-141.09 2280,-168 2280,-168 2280,-168 1342.54,-168 1342.54,-168"/>
<polygon fill="black" stroke="black" points="1342.54,-164.5 1332.54,-168 1342.54,-171.5 1342.54,-164.5"/>
</g>
<!-- UploadService -->
<g id="node28" class="node">
<title>UploadService</title>
<ellipse fill="#fdb462" stroke="black" cx="2103" cy="-104" rx="68.34" ry="18"/>
<text text-anchor="middle" x="2103" y="-99.8" font-family="Times,serif" font-size="14.00">UploadService</text>
</g>
<!-- UploadService&#45;&gt;CoreModule -->
<g id="edge27" class="edge">
<title>UploadService&#45;&gt;CoreModule</title>
<path fill="none" stroke="black" d="M2103,-122.3C2103,-140.27 2103,-165 2103,-165 2103,-165 1342.48,-165 1342.48,-165"/>
<polygon fill="black" stroke="black" points="1342.48,-161.5 1332.48,-165 1342.48,-168.5 1342.48,-161.5"/>
</g>
<!-- VaeService -->
<g id="node29" class="node">
<title>VaeService</title>
<ellipse fill="#fdb462" stroke="black" cx="1961" cy="-104" rx="55.57" ry="18"/>
<text text-anchor="middle" x="1961" y="-99.8" font-family="Times,serif" font-size="14.00">VaeService</text>
</g>
<!-- VaeService&#45;&gt;CoreModule -->
<g id="edge28" class="edge">
<title>VaeService&#45;&gt;CoreModule</title>
<path fill="none" stroke="black" d="M1961,-122.02C1961,-139.37 1961,-163 1961,-163 1961,-163 1342.32,-163 1342.32,-163"/>
<polygon fill="black" stroke="black" points="1342.32,-159.5 1332.32,-163 1342.32,-166.5 1342.32,-159.5"/>
</g>
</g>
</svg>
