<?xml version="1.0" encoding="UTF-8" standalone="no"?>
<!DOCTYPE svg PUBLIC "-//W3C//DTD SVG 1.1//EN"
 "http://www.w3.org/Graphics/SVG/1.1/DTD/svg11.dtd">
<!-- Generated by graphviz version 2.47.0 (20210316.0004)
 -->
<!-- Title: dependencies Pages: 1 -->
<svg width="1074pt" height="284pt"
 viewBox="0.00 0.00 1074.00 284.00" xmlns="http://www.w3.org/2000/svg" xmlns:xlink="http://www.w3.org/1999/xlink">
<g id="graph0" class="graph" transform="scale(1 1) rotate(0) translate(4 280)">
<title>dependencies</title>
<polygon fill="white" stroke="transparent" points="-4,4 -4,-280 1070,-280 1070,4 -4,4"/>
<text text-anchor="start" x="512.01" y="-42.4" font-family="sans-serif" font-weight="bold" font-size="14.00">Legend</text>
<polygon fill="#ffffb3" stroke="transparent" points="299,-10 299,-30 319,-30 319,-10 299,-10"/>
<text text-anchor="start" x="322.63" y="-15.4" font-family="sans-serif" font-size="14.00"> &#160;Declarations</text>
<polygon fill="#8dd3c7" stroke="transparent" points="412,-10 412,-30 432,-30 432,-10 412,-10"/>
<text text-anchor="start" x="435.73" y="-15.4" font-family="sans-serif" font-size="14.00"> &#160;Module</text>
<polygon fill="#80b1d3" stroke="transparent" points="498,-10 498,-30 518,-30 518,-10 498,-10"/>
<text text-anchor="start" x="521.78" y="-15.4" font-family="sans-serif" font-size="14.00"> &#160;Bootstrap</text>
<polygon fill="#fdb462" stroke="transparent" points="595,-10 595,-30 615,-30 615,-10 595,-10"/>
<text text-anchor="start" x="618.67" y="-15.4" font-family="sans-serif" font-size="14.00"> &#160;Providers</text>
<polygon fill="#fb8072" stroke="transparent" points="691,-10 691,-30 711,-30 711,-10 691,-10"/>
<text text-anchor="start" x="714.73" y="-15.4" font-family="sans-serif" font-size="14.00"> &#160;Exports</text>
<g id="clust1" class="cluster">
<title>cluster_CoreModule</title>
<polygon fill="none" stroke="black" stroke-dasharray="1,5" points="8,-70 8,-268 1058,-268 1058,-70 8,-70"/>
</g>
<g id="clust2" class="cluster">
<title>cluster_CoreModule_declarations</title>
<polygon fill="none" stroke="black" points="668,-78 668,-130 1050,-130 1050,-78 668,-78"/>
</g>
<g id="clust9" class="cluster">
<title>cluster_CoreModule_providers</title>
<polygon fill="none" stroke="black" points="152,-78 152,-130 660,-130 660,-78 152,-78"/>
</g>
<g id="clust7" class="cluster">
<title>cluster_CoreModule_exports</title>
<polygon fill="none" stroke="black" points="365,-208 365,-260 759,-260 759,-208 365,-208"/>
</g>
<g id="clust6" class="cluster">
<title>cluster_CoreModule_imports</title>
<polygon fill="none" stroke="black" points="16,-78 16,-130 144,-130 144,-78 16,-78"/>
</g>
<!-- WeaveDirective -->
<g id="node1" class="node">
<title>WeaveDirective</title>
<polygon fill="#ffffb3" stroke="black" points="1042.44,-122 935.56,-122 935.56,-86 1042.44,-86 1042.44,-122"/>
<text text-anchor="middle" x="989" y="-99.8" font-family="Times,serif" font-size="14.00">WeaveDirective</text>
</g>
<!-- CoreModule -->
<g id="node4" class="node">
<title>CoreModule</title>
<polygon fill="#8dd3c7" stroke="black" points="628.26,-187 625.26,-191 604.26,-191 601.26,-187 541.74,-187 541.74,-151 628.26,-151 628.26,-187"/>
<text text-anchor="middle" x="585" y="-164.8" font-family="Times,serif" font-size="14.00">CoreModule</text>
</g>
<!-- WeaveDirective&#45;&gt;CoreModule -->
<g id="edge1" class="edge">
<title>WeaveDirective&#45;&gt;CoreModule</title>
<path fill="none" stroke="black" d="M989,-122.13C989,-142.57 989,-173 989,-173 989,-173 638.62,-173 638.62,-173"/>
<polygon fill="black" stroke="black" points="638.62,-169.5 628.62,-173 638.62,-176.5 638.62,-169.5"/>
</g>
<!-- FilterPipe -->
<g id="node2" class="node">
<title>FilterPipe</title>
<polygon fill="#ffffb3" stroke="black" points="917.72,-122 846.28,-122 846.28,-86 917.72,-86 917.72,-122"/>
<text text-anchor="middle" x="882" y="-99.8" font-family="Times,serif" font-size="14.00">FilterPipe</text>
</g>
<!-- FilterPipe&#45;&gt;CoreModule -->
<g id="edge2" class="edge">
<title>FilterPipe&#45;&gt;CoreModule</title>
<path fill="none" stroke="black" d="M882,-122.27C882,-140.56 882,-166 882,-166 882,-166 638.5,-166 638.5,-166"/>
<polygon fill="black" stroke="black" points="638.5,-162.5 628.5,-166 638.5,-169.5 638.5,-162.5"/>
</g>
<!-- UploadFormComponent -->
<g id="node3" class="node">
<title>UploadFormComponent</title>
<polygon fill="#ffffb3" stroke="black" points="828.38,-122 675.62,-122 675.62,-86 828.38,-86 828.38,-122"/>
<text text-anchor="middle" x="752" y="-99.8" font-family="Times,serif" font-size="14.00">UploadFormComponent</text>
</g>
<!-- UploadFormComponent&#45;&gt;CoreModule -->
<g id="edge3" class="edge">
<title>UploadFormComponent&#45;&gt;CoreModule</title>
<path fill="none" stroke="black" d="M713.39,-122.01C713.39,-138.05 713.39,-159 713.39,-159 713.39,-159 638.47,-159 638.47,-159"/>
<polygon fill="black" stroke="black" points="638.47,-155.5 628.47,-159 638.47,-162.5 638.47,-155.5"/>
</g>
<!-- WeaveDirective  -->
<g id="node6" class="node">
<title>WeaveDirective </title>
<polygon fill="#fb8072" stroke="black" points="751.44,-252 640.56,-252 640.56,-216 751.44,-216 751.44,-252"/>
<text text-anchor="middle" x="696" y="-229.8" font-family="Times,serif" font-size="14.00">WeaveDirective </text>
</g>
<!-- CoreModule&#45;&gt;WeaveDirective  -->
<g id="edge5" class="edge">
<title>CoreModule&#45;&gt;WeaveDirective </title>
<path fill="none" stroke="black" stroke-dasharray="5,2" d="M628.42,-180C638.61,-180 646.56,-180 646.56,-180 646.56,-180 646.56,-205.72 646.56,-205.72"/>
<polygon fill="black" stroke="black" points="643.06,-205.72 646.56,-215.72 650.06,-205.72 643.06,-205.72"/>
</g>
<!-- FilterPipe  -->
<g id="node7" class="node">
<title>FilterPipe </title>
<polygon fill="#fb8072" stroke="black" points="622.22,-252 547.78,-252 547.78,-216 622.22,-216 622.22,-252"/>
<text text-anchor="middle" x="585" y="-229.8" font-family="Times,serif" font-size="14.00">FilterPipe </text>
</g>
<!-- CoreModule&#45;&gt;FilterPipe  -->
<g id="edge6" class="edge">
<title>CoreModule&#45;&gt;FilterPipe </title>
<path fill="none" stroke="black" stroke-dasharray="5,2" d="M585,-187.11C585,-187.11 585,-205.99 585,-205.99"/>
<polygon fill="black" stroke="black" points="581.5,-205.99 585,-215.99 588.5,-205.99 581.5,-205.99"/>
</g>
<!-- UploadFormComponent  -->
<g id="node8" class="node">
<title>UploadFormComponent </title>
<polygon fill="#fb8072" stroke="black" points="529.38,-252 372.62,-252 372.62,-216 529.38,-216 529.38,-252"/>
<text text-anchor="middle" x="451" y="-229.8" font-family="Times,serif" font-size="14.00">UploadFormComponent </text>
</g>
<!-- CoreModule&#45;&gt;UploadFormComponent  -->
<g id="edge7" class="edge">
<title>CoreModule&#45;&gt;UploadFormComponent </title>
<path fill="none" stroke="black" stroke-dasharray="5,2" d="M541.56,-180C531.38,-180 523.42,-180 523.42,-180 523.42,-180 523.42,-205.72 523.42,-205.72"/>
<polygon fill="black" stroke="black" points="519.92,-205.72 523.42,-215.72 526.92,-205.72 519.92,-205.72"/>
</g>
<!-- CommonModule -->
<g id="node5" class="node">
<title>CommonModule</title>
<polygon fill="#8dd3c7" stroke="black" points="135.67,-122 132.67,-126 111.67,-126 108.67,-122 24.33,-122 24.33,-86 135.67,-86 135.67,-122"/>
<text text-anchor="middle" x="80" y="-99.8" font-family="Times,serif" font-size="14.00">CommonModule</text>
</g>
<!-- CommonModule&#45;&gt;CoreModule -->
<g id="edge4" class="edge">
<title>CommonModule&#45;&gt;CoreModule</title>
<path fill="none" stroke="black" d="M80,-122.13C80,-142.57 80,-173 80,-173 80,-173 531.51,-173 531.51,-173"/>
<polygon fill="black" stroke="black" points="531.51,-176.5 541.51,-173 531.51,-169.5 531.51,-176.5"/>
</g>
<!-- PatternService -->
<g id="node9" class="node">
<title>PatternService</title>
<ellipse fill="#fdb462" stroke="black" cx="585" cy="-104" rx="67.19" ry="18"/>
<text text-anchor="middle" x="585" y="-99.8" font-family="Times,serif" font-size="14.00">PatternService</text>
</g>
<!-- PatternService&#45;&gt;CoreModule -->
<g id="edge8" class="edge">
<title>PatternService&#45;&gt;CoreModule</title>
<path fill="none" stroke="black" d="M585,-122.11C585,-122.11 585,-140.99 585,-140.99"/>
<polygon fill="black" stroke="black" points="581.5,-140.99 585,-150.99 588.5,-140.99 581.5,-140.99"/>
</g>
<!-- DesignmodesService -->
<g id="node10" class="node">
<title>DesignmodesService</title>
<ellipse fill="#fdb462" stroke="black" cx="407" cy="-104" rx="92.62" ry="18"/>
<text text-anchor="middle" x="407" y="-99.8" font-family="Times,serif" font-size="14.00">DesignmodesService</text>
</g>
<!-- DesignmodesService&#45;&gt;CoreModule -->
<g id="edge9" class="edge">
<title>DesignmodesService&#45;&gt;CoreModule</title>
<path fill="none" stroke="black" d="M436.18,-121.1C436.18,-137.25 436.18,-159 436.18,-159 436.18,-159 531.56,-159 531.56,-159"/>
<polygon fill="black" stroke="black" points="531.56,-162.5 541.56,-159 531.56,-155.5 531.56,-162.5"/>
</g>
<!-- UploadService -->
<g id="node11" class="node">
<title>UploadService</title>
<ellipse fill="#fdb462" stroke="black" cx="228" cy="-104" rx="68.34" ry="18"/>
<text text-anchor="middle" x="228" y="-99.8" font-family="Times,serif" font-size="14.00">UploadService</text>
</g>
<!-- UploadService&#45;&gt;CoreModule -->
<g id="edge10" class="edge">
<title>UploadService&#45;&gt;CoreModule</title>
<path fill="none" stroke="black" d="M228,-122.27C228,-140.56 228,-166 228,-166 228,-166 531.58,-166 531.58,-166"/>
<polygon fill="black" stroke="black" points="531.58,-169.5 541.58,-166 531.58,-162.5 531.58,-169.5"/>
</g>
</g>
</svg>
