<?xml version="1.0" encoding="UTF-8" standalone="no"?>
<!DOCTYPE svg PUBLIC "-//W3C//DTD SVG 1.1//EN"
 "http://www.w3.org/Graphics/SVG/1.1/DTD/svg11.dtd">
<!-- Generated by graphviz version 2.47.0 (20210316.0004)
 -->
<!-- Title: dependencies Pages: 1 -->
<svg width="5350pt" height="211pt"
 viewBox="0.00 0.00 5350.00 211.00" xmlns="http://www.w3.org/2000/svg" xmlns:xlink="http://www.w3.org/1999/xlink">
<g id="graph0" class="graph" transform="scale(1 1) rotate(0) translate(4 207)">
<title>dependencies</title>
<polygon fill="white" stroke="transparent" points="-4,4 -4,-207 5346,-207 5346,4 -4,4"/>
<text text-anchor="start" x="2650.01" y="-42.4" font-family="sans-serif" font-weight="bold" font-size="14.00">Legend</text>
<polygon fill="#ffffb3" stroke="transparent" points="2437,-10 2437,-30 2457,-30 2457,-10 2437,-10"/>
<text text-anchor="start" x="2460.63" y="-15.4" font-family="sans-serif" font-size="14.00"> &#160;Declarations</text>
<polygon fill="#8dd3c7" stroke="transparent" points="2550,-10 2550,-30 2570,-30 2570,-10 2550,-10"/>
<text text-anchor="start" x="2573.73" y="-15.4" font-family="sans-serif" font-size="14.00"> &#160;Module</text>
<polygon fill="#80b1d3" stroke="transparent" points="2636,-10 2636,-30 2656,-30 2656,-10 2636,-10"/>
<text text-anchor="start" x="2659.78" y="-15.4" font-family="sans-serif" font-size="14.00"> &#160;Bootstrap</text>
<polygon fill="#fdb462" stroke="transparent" points="2733,-10 2733,-30 2753,-30 2753,-10 2733,-10"/>
<text text-anchor="start" x="2756.67" y="-15.4" font-family="sans-serif" font-size="14.00"> &#160;Providers</text>
<polygon fill="#fb8072" stroke="transparent" points="2829,-10 2829,-30 2849,-30 2849,-10 2829,-10"/>
<text text-anchor="start" x="2852.73" y="-15.4" font-family="sans-serif" font-size="14.00"> &#160;Exports</text>
<g id="clust1" class="cluster">
<title>cluster_WeaverModule</title>
<polygon fill="none" stroke="black" stroke-dasharray="1,5" points="8,-70 8,-195 5334,-195 5334,-70 8,-70"/>
</g>
<g id="clust2" class="cluster">
<title>cluster_WeaverModule_declarations</title>
<polygon fill="none" stroke="black" points="3955,-78 3955,-130 5326,-130 5326,-78 3955,-78"/>
</g>
<g id="clust12" class="cluster">
<title>cluster_WeaverModule_imports</title>
<polygon fill="none" stroke="black" points="16,-78 16,-130 3947,-130 3947,-78 16,-78"/>
</g>
<!-- WeaveDirective -->
<g id="node1" class="node">
<title>WeaveDirective</title>
<polygon fill="#ffffb3" stroke="black" points="5318.44,-122 5211.56,-122 5211.56,-86 5318.44,-86 5318.44,-122"/>
<text text-anchor="middle" x="5265" y="-99.8" font-family="Times,serif" font-size="14.00">WeaveDirective</text>
</g>
<!-- WeaverModule -->
<g id="node10" class="node">
<title>WeaverModule</title>
<polygon fill="#8dd3c7" stroke="black" points="2619.57,-187 2616.57,-191 2595.57,-191 2592.57,-187 2516.43,-187 2516.43,-151 2619.57,-151 2619.57,-187"/>
<text text-anchor="middle" x="2568" y="-164.8" font-family="Times,serif" font-size="14.00">WeaverModule</text>
</g>
<!-- WeaveDirective&#45;&gt;WeaverModule -->
<g id="edge1" class="edge">
<title>WeaveDirective&#45;&gt;WeaverModule</title>
<path fill="none" stroke="black" d="M5265,-122.2C5265,-146.36 5265,-186 5265,-186 5265,-186 2629.77,-186 2629.77,-186"/>
<polygon fill="black" stroke="black" points="2629.77,-182.5 2619.77,-186 2629.77,-189.5 2629.77,-182.5"/>
</g>
<!-- WeaverComponent -->
<g id="node2" class="node">
<title>WeaverComponent</title>
<polygon fill="#ffffb3" stroke="black" points="5193.35,-122 5068.65,-122 5068.65,-86 5193.35,-86 5193.35,-122"/>
<text text-anchor="middle" x="5131" y="-99.8" font-family="Times,serif" font-size="14.00">WeaverComponent</text>
</g>
<!-- WeaverComponent&#45;&gt;WeaverModule -->
<g id="edge2" class="edge">
<title>WeaverComponent&#45;&gt;WeaverModule</title>
<path fill="none" stroke="black" d="M5131,-122.15C5131,-145.76 5131,-184 5131,-184 5131,-184 2629.78,-184 2629.78,-184"/>
<polygon fill="black" stroke="black" points="2629.78,-180.5 2619.78,-184 2629.78,-187.5 2629.78,-180.5"/>
</g>
<!-- WeaverDesignComponent -->
<g id="node3" class="node">
<title>WeaverDesignComponent</title>
<polygon fill="#ffffb3" stroke="black" points="5050.01,-122 4885.99,-122 4885.99,-86 5050.01,-86 5050.01,-122"/>
<text text-anchor="middle" x="4968" y="-99.8" font-family="Times,serif" font-size="14.00">WeaverDesignComponent</text>
</g>
<!-- WeaverDesignComponent&#45;&gt;WeaverModule -->
<g id="edge3" class="edge">
<title>WeaverDesignComponent&#45;&gt;WeaverModule</title>
<path fill="none" stroke="black" d="M4968,-122.09C4968,-145.13 4968,-182 4968,-182 4968,-182 2629.8,-182 2629.8,-182"/>
<polygon fill="black" stroke="black" points="2629.8,-178.5 2619.8,-182 2629.8,-185.5 2629.8,-178.5"/>
</g>
<!-- WeaverPatternsComponent -->
<g id="node4" class="node">
<title>WeaverPatternsComponent</title>
<polygon fill="#ffffb3" stroke="black" points="4867.95,-122 4698.05,-122 4698.05,-86 4867.95,-86 4867.95,-122"/>
<text text-anchor="middle" x="4783" y="-99.8" font-family="Times,serif" font-size="14.00">WeaverPatternsComponent</text>
</g>
<!-- WeaverPatternsComponent&#45;&gt;WeaverModule -->
<g id="edge4" class="edge">
<title>WeaverPatternsComponent&#45;&gt;WeaverModule</title>
<path fill="none" stroke="black" d="M4783,-122.01C4783,-144.49 4783,-180 4783,-180 4783,-180 2629.76,-180 2629.76,-180"/>
<polygon fill="black" stroke="black" points="2629.76,-176.5 2619.76,-180 2629.76,-183.5 2629.76,-176.5"/>
</g>
<!-- ConnectionModal -->
<g id="node5" class="node">
<title>ConnectionModal</title>
<polygon fill="#ffffb3" stroke="black" points="4679.6,-122 4562.4,-122 4562.4,-86 4679.6,-86 4679.6,-122"/>
<text text-anchor="middle" x="4621" y="-99.8" font-family="Times,serif" font-size="14.00">ConnectionModal</text>
</g>
<!-- ConnectionModal&#45;&gt;WeaverModule -->
<g id="edge5" class="edge">
<title>ConnectionModal&#45;&gt;WeaverModule</title>
<path fill="none" stroke="black" d="M4621,-122.29C4621,-144.21 4621,-178 4621,-178 4621,-178 2629.78,-178 2629.78,-178"/>
<polygon fill="black" stroke="black" points="2629.78,-174.5 2619.78,-178 2629.78,-181.5 2629.78,-174.5"/>
</g>
<!-- LoomComponent -->
<g id="node6" class="node">
<title>LoomComponent</title>
<polygon fill="#ffffb3" stroke="black" points="4544.28,-122 4429.72,-122 4429.72,-86 4544.28,-86 4544.28,-122"/>
<text text-anchor="middle" x="4487" y="-99.8" font-family="Times,serif" font-size="14.00">LoomComponent</text>
</g>
<!-- LoomComponent&#45;&gt;WeaverModule -->
<g id="edge6" class="edge">
<title>LoomComponent&#45;&gt;WeaverModule</title>
<path fill="none" stroke="black" d="M4487,-122.17C4487,-143.5 4487,-176 4487,-176 4487,-176 2629.83,-176 2629.83,-176"/>
<polygon fill="black" stroke="black" points="2629.83,-172.5 2619.83,-176 2629.83,-179.5 2629.83,-172.5"/>
</g>
<!-- MasksComponent -->
<g id="node7" class="node">
<title>MasksComponent</title>
<polygon fill="#ffffb3" stroke="black" points="4411.88,-122 4294.12,-122 4294.12,-86 4411.88,-86 4411.88,-122"/>
<text text-anchor="middle" x="4353" y="-99.8" font-family="Times,serif" font-size="14.00">MasksComponent</text>
</g>
<!-- MasksComponent&#45;&gt;WeaverModule -->
<g id="edge7" class="edge">
<title>MasksComponent&#45;&gt;WeaverModule</title>
<path fill="none" stroke="black" d="M4353,-122.03C4353,-142.77 4353,-174 4353,-174 4353,-174 2629.97,-174 2629.97,-174"/>
<polygon fill="black" stroke="black" points="2629.97,-170.5 2619.97,-174 2629.97,-177.5 2629.97,-170.5"/>
</g>
<!-- SchematicComponent -->
<g id="node8" class="node">
<title>SchematicComponent</title>
<polygon fill="#ffffb3" stroke="black" points="4275.65,-122 4136.35,-122 4136.35,-86 4275.65,-86 4275.65,-122"/>
<text text-anchor="middle" x="4206" y="-99.8" font-family="Times,serif" font-size="14.00">SchematicComponent</text>
</g>
<!-- SchematicComponent&#45;&gt;WeaverModule -->
<g id="edge8" class="edge">
<title>SchematicComponent&#45;&gt;WeaverModule</title>
<path fill="none" stroke="black" d="M4206,-122.22C4206,-142.37 4206,-172 4206,-172 4206,-172 2629.73,-172 2629.73,-172"/>
<polygon fill="black" stroke="black" points="2629.73,-168.5 2619.73,-172 2629.73,-175.5 2629.73,-168.5"/>
</g>
<!-- WeaverViewComponent -->
<g id="node9" class="node">
<title>WeaverViewComponent</title>
<polygon fill="#ffffb3" stroke="black" points="4118.67,-122 3963.33,-122 3963.33,-86 4118.67,-86 4118.67,-122"/>
<text text-anchor="middle" x="4041" y="-99.8" font-family="Times,serif" font-size="14.00">WeaverViewComponent</text>
</g>
<!-- WeaverViewComponent&#45;&gt;WeaverModule -->
<g id="edge9" class="edge">
<title>WeaverViewComponent&#45;&gt;WeaverModule</title>
<path fill="none" stroke="black" d="M4041,-122.03C4041,-141.58 4041,-170 4041,-170 4041,-170 2629.56,-170 2629.56,-170"/>
<polygon fill="black" stroke="black" points="2629.56,-166.5 2619.56,-170 2629.56,-173.5 2629.56,-166.5"/>
</g>
<!-- CommonModule -->
<g id="node11" class="node">
<title>CommonModule</title>
<polygon fill="#8dd3c7" stroke="black" points="3938.67,-122 3935.67,-126 3914.67,-126 3911.67,-122 3827.33,-122 3827.33,-86 3938.67,-86 3938.67,-122"/>
<text text-anchor="middle" x="3883" y="-99.8" font-family="Times,serif" font-size="14.00">CommonModule</text>
</g>
<!-- CommonModule&#45;&gt;WeaverModule -->
<g id="edge10" class="edge">
<title>CommonModule&#45;&gt;WeaverModule</title>
<path fill="none" stroke="black" d="M3883,-122.11C3883,-141.34 3883,-169 3883,-169 3883,-169 2629.55,-169 2629.55,-169"/>
<polygon fill="black" stroke="black" points="2629.55,-165.5 2619.55,-169 2629.55,-172.5 2629.55,-165.5"/>
</g>
<!-- CoreModule -->
<g id="node12" class="node">
<title>CoreModule</title>
<polygon fill="#8dd3c7" stroke="black" points="3809.26,-122 3806.26,-126 3785.26,-126 3782.26,-122 3722.74,-122 3722.74,-86 3809.26,-86 3809.26,-122"/>
<text text-anchor="middle" x="3766" y="-99.8" font-family="Times,serif" font-size="14.00">CoreModule</text>
</g>
<!-- CoreModule&#45;&gt;WeaverModule -->
<g id="edge11" class="edge">
<title>CoreModule&#45;&gt;WeaverModule</title>
<path fill="none" stroke="black" d="M3766,-122.22C3766,-140.83 3766,-167 3766,-167 3766,-167 2629.86,-167 2629.86,-167"/>
<polygon fill="black" stroke="black" points="2629.86,-163.5 2619.86,-167 2629.86,-170.5 2629.86,-163.5"/>
</g>
<!-- FormsModule -->
<g id="node13" class="node">
<title>FormsModule</title>
<polygon fill="#8dd3c7" stroke="black" points="3704.83,-122 3701.83,-126 3680.83,-126 3677.83,-122 3609.17,-122 3609.17,-86 3704.83,-86 3704.83,-122"/>
<text text-anchor="middle" x="3657" y="-99.8" font-family="Times,serif" font-size="14.00">FormsModule</text>
</g>
<!-- FormsModule&#45;&gt;WeaverModule -->
<g id="edge12" class="edge">
<title>FormsModule&#45;&gt;WeaverModule</title>
<path fill="none" stroke="black" d="M3657,-122.3C3657,-140.27 3657,-165 3657,-165 3657,-165 2629.79,-165 2629.79,-165"/>
<polygon fill="black" stroke="black" points="2629.79,-161.5 2619.79,-165 2629.79,-168.5 2629.79,-161.5"/>
</g>
<!-- ReactiveFormsModule -->
<g id="node14" class="node">
<title>ReactiveFormsModule</title>
<polygon fill="#8dd3c7" stroke="black" points="3591.3,-122 3588.3,-126 3567.3,-126 3564.3,-122 3446.7,-122 3446.7,-86 3591.3,-86 3591.3,-122"/>
<text text-anchor="middle" x="3519" y="-99.8" font-family="Times,serif" font-size="14.00">ReactiveFormsModule</text>
</g>
<!-- ReactiveFormsModule&#45;&gt;WeaverModule -->
<g id="edge13" class="edge">
<title>ReactiveFormsModule&#45;&gt;WeaverModule</title>
<path fill="none" stroke="black" d="M3519,-122.02C3519,-139.37 3519,-163 3519,-163 3519,-163 2629.81,-163 2629.81,-163"/>
<polygon fill="black" stroke="black" points="2629.81,-159.5 2619.81,-163 2629.81,-166.5 2629.81,-159.5"/>
</g>
<!-- MatAutocompleteModule -->
<g id="node15" class="node">
<title>MatAutocompleteModule</title>
<polygon fill="#8dd3c7" stroke="black" points="3428.91,-122 3425.91,-126 3404.91,-126 3401.91,-122 3267.09,-122 3267.09,-86 3428.91,-86 3428.91,-122"/>
<text text-anchor="middle" x="3348" y="-99.8" font-family="Times,serif" font-size="14.00">MatAutocompleteModule</text>
</g>
<!-- MatAutocompleteModule&#45;&gt;WeaverModule -->
<g id="edge14" class="edge">
<title>MatAutocompleteModule&#45;&gt;WeaverModule</title>
<path fill="none" stroke="black" d="M3348,-122.04C3348,-138.73 3348,-161 3348,-161 3348,-161 2629.78,-161 2629.78,-161"/>
<polygon fill="black" stroke="black" points="2629.78,-157.5 2619.78,-161 2629.78,-164.5 2629.78,-157.5"/>
</g>
<!-- MatButtonModule -->
<g id="node16" class="node">
<title>MatButtonModule</title>
<polygon fill="#8dd3c7" stroke="black" points="3249.22,-122 3246.22,-126 3225.22,-126 3222.22,-122 3128.78,-122 3128.78,-86 3249.22,-86 3249.22,-122"/>
<text text-anchor="middle" x="3189" y="-99.8" font-family="Times,serif" font-size="14.00">MatButtonModule</text>
</g>
<!-- MatButtonModule&#45;&gt;WeaverModule -->
<g id="edge15" class="edge">
<title>MatButtonModule&#45;&gt;WeaverModule</title>
<path fill="none" stroke="black" d="M3189,-122.01C3189,-138.05 3189,-159 3189,-159 3189,-159 2629.61,-159 2629.61,-159"/>
<polygon fill="black" stroke="black" points="2629.61,-155.5 2619.61,-159 2629.61,-162.5 2629.61,-155.5"/>
</g>
<!-- MatButtonToggleModule -->
<g id="node17" class="node">
<title>MatButtonToggleModule</title>
<polygon fill="#8dd3c7" stroke="black" points="3110.88,-122 3107.88,-126 3086.88,-126 3083.88,-122 2951.12,-122 2951.12,-86 3110.88,-86 3110.88,-122"/>
<text text-anchor="middle" x="3031" y="-99.8" font-family="Times,serif" font-size="14.00">MatButtonToggleModule</text>
</g>
<!-- MatButtonToggleModule&#45;&gt;WeaverModule -->
<g id="edge16" class="edge">
<title>MatButtonToggleModule&#45;&gt;WeaverModule</title>
<path fill="none" stroke="black" d="M3031,-122.24C3031,-137.57 3031,-157 3031,-157 3031,-157 2629.76,-157 2629.76,-157"/>
<polygon fill="black" stroke="black" points="2629.76,-153.5 2619.76,-157 2629.76,-160.5 2629.76,-153.5"/>
</g>
<!-- MatSlideToggleModule -->
<g id="node18" class="node">
<title>MatSlideToggleModule</title>
<polygon fill="#8dd3c7" stroke="black" points="2933.04,-122 2930.04,-126 2909.04,-126 2906.04,-122 2782.96,-122 2782.96,-86 2933.04,-86 2933.04,-122"/>
<text text-anchor="middle" x="2858" y="-99.8" font-family="Times,serif" font-size="14.00">MatSlideToggleModule</text>
</g>
<!-- MatSlideToggleModule&#45;&gt;WeaverModule -->
<g id="edge17" class="edge">
<title>MatSlideToggleModule&#45;&gt;WeaverModule</title>
<path fill="none" stroke="black" d="M2858,-122.12C2858,-136.78 2858,-155 2858,-155 2858,-155 2629.85,-155 2629.85,-155"/>
<polygon fill="black" stroke="black" points="2629.85,-151.5 2619.85,-155 2629.85,-158.5 2629.85,-151.5"/>
</g>
<!-- MatCardModule -->
<g id="node19" class="node">
<title>MatCardModule</title>
<polygon fill="#8dd3c7" stroke="black" points="2764.81,-122 2761.81,-126 2740.81,-126 2737.81,-122 2655.19,-122 2655.19,-86 2764.81,-86 2764.81,-122"/>
<text text-anchor="middle" x="2710" y="-99.8" font-family="Times,serif" font-size="14.00">MatCardModule</text>
</g>
<!-- MatCardModule&#45;&gt;WeaverModule -->
<g id="edge18" class="edge">
<title>MatCardModule&#45;&gt;WeaverModule</title>
<path fill="none" stroke="black" d="M2710,-122.25C2710,-136.18 2710,-153 2710,-153 2710,-153 2629.67,-153 2629.67,-153"/>
<polygon fill="black" stroke="black" points="2629.67,-149.5 2619.67,-153 2629.67,-156.5 2629.67,-149.5"/>
</g>
<!-- MatCheckboxModule -->
<g id="node20" class="node">
<title>MatCheckboxModule</title>
<polygon fill="#8dd3c7" stroke="black" points="2637.37,-122 2634.37,-126 2613.37,-126 2610.37,-122 2498.63,-122 2498.63,-86 2637.37,-86 2637.37,-122"/>
<text text-anchor="middle" x="2568" y="-99.8" font-family="Times,serif" font-size="14.00">MatCheckboxModule</text>
</g>
<!-- MatCheckboxModule&#45;&gt;WeaverModule -->
<g id="edge19" class="edge">
<title>MatCheckboxModule&#45;&gt;WeaverModule</title>
<path fill="none" stroke="black" d="M2568,-122.11C2568,-122.11 2568,-140.99 2568,-140.99"/>
<polygon fill="black" stroke="black" points="2564.5,-140.99 2568,-150.99 2571.5,-140.99 2564.5,-140.99"/>
</g>
<!-- MatDialogModule -->
<g id="node21" class="node">
<title>MatDialogModule</title>
<polygon fill="#8dd3c7" stroke="black" points="2480.2,-122 2477.2,-126 2456.2,-126 2453.2,-122 2359.8,-122 2359.8,-86 2480.2,-86 2480.2,-122"/>
<text text-anchor="middle" x="2420" y="-99.8" font-family="Times,serif" font-size="14.00">MatDialogModule</text>
</g>
<!-- MatDialogModule&#45;&gt;WeaverModule -->
<g id="edge20" class="edge">
<title>MatDialogModule&#45;&gt;WeaverModule</title>
<path fill="none" stroke="black" d="M2420,-122.25C2420,-136.18 2420,-153 2420,-153 2420,-153 2506.24,-153 2506.24,-153"/>
<polygon fill="black" stroke="black" points="2506.24,-156.5 2516.24,-153 2506.24,-149.5 2506.24,-156.5"/>
</g>
<!-- MatDividerModule -->
<g id="node22" class="node">
<title>MatDividerModule</title>
<polygon fill="#8dd3c7" stroke="black" points="2341.36,-122 2338.36,-126 2317.36,-126 2314.36,-122 2216.64,-122 2216.64,-86 2341.36,-86 2341.36,-122"/>
<text text-anchor="middle" x="2279" y="-99.8" font-family="Times,serif" font-size="14.00">MatDividerModule</text>
</g>
<!-- MatDividerModule&#45;&gt;WeaverModule -->
<g id="edge21" class="edge">
<title>MatDividerModule&#45;&gt;WeaverModule</title>
<path fill="none" stroke="black" d="M2279,-122.12C2279,-136.78 2279,-155 2279,-155 2279,-155 2506.33,-155 2506.33,-155"/>
<polygon fill="black" stroke="black" points="2506.33,-158.5 2516.33,-155 2506.33,-151.5 2506.33,-158.5"/>
</g>
<!-- MatExpansionModule -->
<g id="node23" class="node">
<title>MatExpansionModule</title>
<polygon fill="#8dd3c7" stroke="black" points="2198.7,-122 2195.7,-126 2174.7,-126 2171.7,-122 2057.3,-122 2057.3,-86 2198.7,-86 2198.7,-122"/>
<text text-anchor="middle" x="2128" y="-99.8" font-family="Times,serif" font-size="14.00">MatExpansionModule</text>
</g>
<!-- MatExpansionModule&#45;&gt;WeaverModule -->
<g id="edge22" class="edge">
<title>MatExpansionModule&#45;&gt;WeaverModule</title>
<path fill="none" stroke="black" d="M2128,-122.24C2128,-137.57 2128,-157 2128,-157 2128,-157 2506.23,-157 2506.23,-157"/>
<polygon fill="black" stroke="black" points="2506.23,-160.5 2516.23,-157 2506.23,-153.5 2506.23,-160.5"/>
</g>
<!-- MatFormFieldModule -->
<g id="node24" class="node">
<title>MatFormFieldModule</title>
<polygon fill="#8dd3c7" stroke="black" points="2039.71,-122 2036.71,-126 2015.71,-126 2012.71,-122 1898.29,-122 1898.29,-86 2039.71,-86 2039.71,-122"/>
<text text-anchor="middle" x="1969" y="-99.8" font-family="Times,serif" font-size="14.00">MatFormFieldModule</text>
</g>
<!-- MatFormFieldModule&#45;&gt;WeaverModule -->
<g id="edge23" class="edge">
<title>MatFormFieldModule&#45;&gt;WeaverModule</title>
<path fill="none" stroke="black" d="M1969,-122.01C1969,-138.05 1969,-159 1969,-159 1969,-159 2506.41,-159 2506.41,-159"/>
<polygon fill="black" stroke="black" points="2506.41,-162.5 2516.41,-159 2506.41,-155.5 2506.41,-162.5"/>
</g>
<!-- MatIconModule -->
<g id="node25" class="node">
<title>MatIconModule</title>
<polygon fill="#8dd3c7" stroke="black" points="1880.47,-122 1877.47,-126 1856.47,-126 1853.47,-122 1773.53,-122 1773.53,-86 1880.47,-86 1880.47,-122"/>
<text text-anchor="middle" x="1827" y="-99.8" font-family="Times,serif" font-size="14.00">MatIconModule</text>
</g>
<!-- MatIconModule&#45;&gt;WeaverModule -->
<g id="edge24" class="edge">
<title>MatIconModule&#45;&gt;WeaverModule</title>
<path fill="none" stroke="black" d="M1827,-122.04C1827,-138.73 1827,-161 1827,-161 1827,-161 2506.19,-161 2506.19,-161"/>
<polygon fill="black" stroke="black" points="2506.19,-164.5 2516.19,-161 2506.19,-157.5 2506.19,-164.5"/>
</g>
<!-- MatInputModule -->
<g id="node26" class="node">
<title>MatInputModule</title>
<polygon fill="#8dd3c7" stroke="black" points="1755.65,-122 1752.65,-126 1731.65,-126 1728.65,-122 1644.35,-122 1644.35,-86 1755.65,-86 1755.65,-122"/>
<text text-anchor="middle" x="1700" y="-99.8" font-family="Times,serif" font-size="14.00">MatInputModule</text>
</g>
<!-- MatInputModule&#45;&gt;WeaverModule -->
<g id="edge25" class="edge">
<title>MatInputModule&#45;&gt;WeaverModule</title>
<path fill="none" stroke="black" d="M1700,-122.02C1700,-139.37 1700,-163 1700,-163 1700,-163 2506.3,-163 2506.3,-163"/>
<polygon fill="black" stroke="black" points="2506.3,-166.5 2516.3,-163 2506.3,-159.5 2506.3,-166.5"/>
</g>
<!-- MatListModule -->
<g id="node27" class="node">
<title>MatListModule</title>
<polygon fill="#8dd3c7" stroke="black" points="1625.88,-122 1622.88,-126 1601.88,-126 1598.88,-122 1522.12,-122 1522.12,-86 1625.88,-86 1625.88,-122"/>
<text text-anchor="middle" x="1574" y="-99.8" font-family="Times,serif" font-size="14.00">MatListModule</text>
</g>
<!-- MatListModule&#45;&gt;WeaverModule -->
<g id="edge26" class="edge">
<title>MatListModule&#45;&gt;WeaverModule</title>
<path fill="none" stroke="black" d="M1574,-122.3C1574,-140.27 1574,-165 1574,-165 1574,-165 2506.31,-165 2506.31,-165"/>
<polygon fill="black" stroke="black" points="2506.31,-168.5 2516.31,-165 2506.31,-161.5 2506.31,-168.5"/>
</g>
<!-- MatMenuModule -->
<g id="node28" class="node">
<title>MatMenuModule</title>
<polygon fill="#8dd3c7" stroke="black" points="1504.26,-122 1501.26,-126 1480.26,-126 1477.26,-122 1389.74,-122 1389.74,-86 1504.26,-86 1504.26,-122"/>
<text text-anchor="middle" x="1447" y="-99.8" font-family="Times,serif" font-size="14.00">MatMenuModule</text>
</g>
<!-- MatMenuModule&#45;&gt;WeaverModule -->
<g id="edge27" class="edge">
<title>MatMenuModule&#45;&gt;WeaverModule</title>
<path fill="none" stroke="black" d="M1447,-122.22C1447,-140.83 1447,-167 1447,-167 1447,-167 2506.18,-167 2506.18,-167"/>
<polygon fill="black" stroke="black" points="2506.18,-170.5 2516.18,-167 2506.18,-163.5 2506.18,-170.5"/>
</g>
<!-- MatRadioModule -->
<g id="node29" class="node">
<title>MatRadioModule</title>
<polygon fill="#8dd3c7" stroke="black" points="1371.54,-122 1368.54,-126 1347.54,-126 1344.54,-122 1256.46,-122 1256.46,-86 1371.54,-86 1371.54,-122"/>
<text text-anchor="middle" x="1314" y="-99.8" font-family="Times,serif" font-size="14.00">MatRadioModule</text>
</g>
<!-- MatRadioModule&#45;&gt;WeaverModule -->
<g id="edge28" class="edge">
<title>MatRadioModule&#45;&gt;WeaverModule</title>
<path fill="none" stroke="black" d="M1314,-122.11C1314,-141.34 1314,-169 1314,-169 1314,-169 2506.11,-169 2506.11,-169"/>
<polygon fill="black" stroke="black" points="2506.11,-172.5 2516.11,-169 2506.11,-165.5 2506.11,-172.5"/>
</g>
<!-- MatSelectModule -->
<g id="node30" class="node">
<title>MatSelectModule</title>
<polygon fill="#8dd3c7" stroke="black" points="1238.31,-122 1235.31,-126 1214.31,-126 1211.31,-122 1121.69,-122 1121.69,-86 1238.31,-86 1238.31,-122"/>
<text text-anchor="middle" x="1180" y="-99.8" font-family="Times,serif" font-size="14.00">MatSelectModule</text>
</g>
<!-- MatSelectModule&#45;&gt;WeaverModule -->
<g id="edge29" class="edge">
<title>MatSelectModule&#45;&gt;WeaverModule</title>
<path fill="none" stroke="black" d="M1180,-122.03C1180,-141.58 1180,-170 1180,-170 1180,-170 2506.12,-170 2506.12,-170"/>
<polygon fill="black" stroke="black" points="2506.12,-173.5 2516.12,-170 2506.12,-166.5 2506.12,-173.5"/>
</g>
<!-- MatSidenavModule -->
<g id="node31" class="node">
<title>MatSidenavModule</title>
<polygon fill="#8dd3c7" stroke="black" points="1103.7,-122 1100.7,-126 1079.7,-126 1076.7,-122 976.3,-122 976.3,-86 1103.7,-86 1103.7,-122"/>
<text text-anchor="middle" x="1040" y="-99.8" font-family="Times,serif" font-size="14.00">MatSidenavModule</text>
</g>
<!-- MatSidenavModule&#45;&gt;WeaverModule -->
<g id="edge30" class="edge">
<title>MatSidenavModule&#45;&gt;WeaverModule</title>
<path fill="none" stroke="black" d="M1040,-122.22C1040,-142.37 1040,-172 1040,-172 1040,-172 2506.29,-172 2506.29,-172"/>
<polygon fill="black" stroke="black" points="2506.29,-175.5 2516.29,-172 2506.29,-168.5 2506.29,-175.5"/>
</g>
<!-- MatSliderModule -->
<g id="node32" class="node">
<title>MatSliderModule</title>
<polygon fill="#8dd3c7" stroke="black" points="958.54,-122 955.54,-126 934.54,-126 931.54,-122 843.46,-122 843.46,-86 958.54,-86 958.54,-122"/>
<text text-anchor="middle" x="901" y="-99.8" font-family="Times,serif" font-size="14.00">MatSliderModule</text>
</g>
<!-- MatSliderModule&#45;&gt;WeaverModule -->
<g id="edge31" class="edge">
<title>MatSliderModule&#45;&gt;WeaverModule</title>
<path fill="none" stroke="black" d="M901,-122.03C901,-142.77 901,-174 901,-174 901,-174 2506.28,-174 2506.28,-174"/>
<polygon fill="black" stroke="black" points="2506.28,-177.5 2516.28,-174 2506.28,-170.5 2506.28,-177.5"/>
</g>
<!-- MatTabsModule -->
<g id="node33" class="node">
<title>MatTabsModule</title>
<polygon fill="#8dd3c7" stroke="black" points="825.81,-122 822.81,-126 801.81,-126 798.81,-122 716.19,-122 716.19,-86 825.81,-86 825.81,-122"/>
<text text-anchor="middle" x="771" y="-99.8" font-family="Times,serif" font-size="14.00">MatTabsModule</text>
</g>
<!-- MatTabsModule&#45;&gt;WeaverModule -->
<g id="edge32" class="edge">
<title>MatTabsModule&#45;&gt;WeaverModule</title>
<path fill="none" stroke="black" d="M771,-122.17C771,-143.5 771,-176 771,-176 771,-176 2506.16,-176 2506.16,-176"/>
<polygon fill="black" stroke="black" points="2506.16,-179.5 2516.16,-176 2506.16,-172.5 2506.16,-179.5"/>
</g>
<!-- MatToolbarModule -->
<g id="node34" class="node">
<title>MatToolbarModule</title>
<polygon fill="#8dd3c7" stroke="black" points="698.42,-122 695.42,-126 674.42,-126 671.42,-122 571.58,-122 571.58,-86 698.42,-86 698.42,-122"/>
<text text-anchor="middle" x="635" y="-99.8" font-family="Times,serif" font-size="14.00">MatToolbarModule</text>
</g>
<!-- MatToolbarModule&#45;&gt;WeaverModule -->
<g id="edge33" class="edge">
<title>MatToolbarModule&#45;&gt;WeaverModule</title>
<path fill="none" stroke="black" d="M635,-122.29C635,-144.21 635,-178 635,-178 635,-178 2506.3,-178 2506.3,-178"/>
<polygon fill="black" stroke="black" points="2506.3,-181.5 2516.3,-178 2506.3,-174.5 2506.3,-181.5"/>
</g>
<!-- MatTooltipModule -->
<g id="node35" class="node">
<title>MatTooltipModule</title>
<polygon fill="#8dd3c7" stroke="black" points="553.82,-122 550.82,-126 529.82,-126 526.82,-122 430.18,-122 430.18,-86 553.82,-86 553.82,-122"/>
<text text-anchor="middle" x="492" y="-99.8" font-family="Times,serif" font-size="14.00">MatTooltipModule</text>
</g>
<!-- MatTooltipModule&#45;&gt;WeaverModule -->
<g id="edge34" class="edge">
<title>MatTooltipModule&#45;&gt;WeaverModule</title>
<path fill="none" stroke="black" d="M492,-122.01C492,-144.49 492,-180 492,-180 492,-180 2506.42,-180 2506.42,-180"/>
<polygon fill="black" stroke="black" points="2506.42,-183.5 2516.42,-180 2506.42,-176.5 2506.42,-183.5"/>
</g>
<!-- ColorPickerModule -->
<g id="node36" class="node">
<title>ColorPickerModule</title>
<polygon fill="#8dd3c7" stroke="black" points="412.7,-122 409.7,-126 388.7,-126 385.7,-122 285.3,-122 285.3,-86 412.7,-86 412.7,-122"/>
<text text-anchor="middle" x="349" y="-99.8" font-family="Times,serif" font-size="14.00">ColorPickerModule</text>
</g>
<!-- ColorPickerModule&#45;&gt;WeaverModule -->
<g id="edge35" class="edge">
<title>ColorPickerModule&#45;&gt;WeaverModule</title>
<path fill="none" stroke="black" d="M349,-122.09C349,-145.13 349,-182 349,-182 349,-182 2506.42,-182 2506.42,-182"/>
<polygon fill="black" stroke="black" points="2506.42,-185.5 2516.42,-182 2506.42,-178.5 2506.42,-185.5"/>
</g>
<!-- MatChipsModule -->
<g id="node37" class="node">
<title>MatChipsModule</title>
<polygon fill="#8dd3c7" stroke="black" points="267.27,-122 264.27,-126 243.27,-126 240.27,-122 152.73,-122 152.73,-86 267.27,-86 267.27,-122"/>
<text text-anchor="middle" x="210" y="-99.8" font-family="Times,serif" font-size="14.00">MatChipsModule</text>
</g>
<!-- MatChipsModule&#45;&gt;WeaverModule -->
<g id="edge36" class="edge">
<title>MatChipsModule&#45;&gt;WeaverModule</title>
<path fill="none" stroke="black" d="M210,-122.15C210,-145.76 210,-184 210,-184 210,-184 2506.28,-184 2506.28,-184"/>
<polygon fill="black" stroke="black" points="2506.28,-187.5 2516.28,-184 2506.28,-180.5 2506.28,-187.5"/>
</g>
<!-- ScrollingModule -->
<g id="node38" class="node">
<title>ScrollingModule</title>
<polygon fill="#8dd3c7" stroke="black" points="134.38,-122 131.38,-126 110.38,-126 107.38,-122 23.62,-122 23.62,-86 134.38,-86 134.38,-122"/>
<text text-anchor="middle" x="79" y="-99.8" font-family="Times,serif" font-size="14.00">ScrollingModule</text>
</g>
<!-- ScrollingModule&#45;&gt;WeaverModule -->
<g id="edge37" class="edge">
<title>ScrollingModule&#45;&gt;WeaverModule</title>
<path fill="none" stroke="black" d="M79,-122.2C79,-146.36 79,-186 79,-186 79,-186 2506.3,-186 2506.3,-186"/>
<polygon fill="black" stroke="black" points="2506.3,-189.5 2516.3,-186 2506.3,-182.5 2506.3,-189.5"/>
</g>
</g>
</svg>
