<?xml version="1.0" encoding="UTF-8" standalone="no"?>
<!DOCTYPE svg PUBLIC "-//W3C//DTD SVG 1.1//EN"
 "http://www.w3.org/Graphics/SVG/1.1/DTD/svg11.dtd">
<!-- Generated by graphviz version 2.47.0 (20210316.0004)
 -->
<!-- Title: dependencies Pages: 1 -->
<svg width="1703pt" height="211pt"
 viewBox="0.00 0.00 1703.00 211.00" xmlns="http://www.w3.org/2000/svg" xmlns:xlink="http://www.w3.org/1999/xlink">
<g id="graph0" class="graph" transform="scale(1 1) rotate(0) translate(4 207)">
<title>dependencies</title>
<polygon fill="white" stroke="transparent" points="-4,4 -4,-207 1699,-207 1699,4 -4,4"/>
<text text-anchor="start" x="826.51" y="-42.4" font-family="sans-serif" font-weight="bold" font-size="14.00">Legend</text>
<polygon fill="#ffffb3" stroke="transparent" points="613.5,-10 613.5,-30 633.5,-30 633.5,-10 613.5,-10"/>
<text text-anchor="start" x="637.13" y="-15.4" font-family="sans-serif" font-size="14.00"> &#160;Declarations</text>
<polygon fill="#8dd3c7" stroke="transparent" points="726.5,-10 726.5,-30 746.5,-30 746.5,-10 726.5,-10"/>
<text text-anchor="start" x="750.23" y="-15.4" font-family="sans-serif" font-size="14.00"> &#160;Module</text>
<polygon fill="#80b1d3" stroke="transparent" points="812.5,-10 812.5,-30 832.5,-30 832.5,-10 812.5,-10"/>
<text text-anchor="start" x="836.28" y="-15.4" font-family="sans-serif" font-size="14.00"> &#160;Bootstrap</text>
<polygon fill="#fdb462" stroke="transparent" points="909.5,-10 909.5,-30 929.5,-30 929.5,-10 909.5,-10"/>
<text text-anchor="start" x="933.17" y="-15.4" font-family="sans-serif" font-size="14.00"> &#160;Providers</text>
<polygon fill="#fb8072" stroke="transparent" points="1005.5,-10 1005.5,-30 1025.5,-30 1025.5,-10 1005.5,-10"/>
<text text-anchor="start" x="1029.23" y="-15.4" font-family="sans-serif" font-size="14.00"> &#160;Exports</text>
<g id="clust1" class="cluster">
<title>cluster_MixerModule</title>
<polygon fill="none" stroke="black" stroke-dasharray="1,5" points="8,-70 8,-195 1687,-195 1687,-70 8,-70"/>
</g>
<g id="clust2" class="cluster">
<title>cluster_MixerModule_declarations</title>
<polygon fill="none" stroke="black" points="126,-78 126,-130 1679,-130 1679,-78 126,-78"/>
</g>
<g id="clust13" class="cluster">
<title>cluster_MixerModule_imports</title>
<polygon fill="none" stroke="black" points="16,-78 16,-130 118,-130 118,-78 16,-78"/>
</g>
<!-- MixerDesignComponent -->
<g id="node1" class="node">
<title>MixerDesignComponent</title>
<polygon fill="#ffffb3" stroke="black" points="1670.7,-122 1515.3,-122 1515.3,-86 1670.7,-86 1670.7,-122"/>
<text text-anchor="middle" x="1593" y="-99.8" font-family="Times,serif" font-size="14.00">MixerDesignComponent</text>
</g>
<!-- MixerModule -->
<g id="node11" class="node">
<title>MixerModule</title>
<polygon fill="#8dd3c7" stroke="black" points="861.76,-187 858.76,-191 837.76,-191 834.76,-187 768.24,-187 768.24,-151 861.76,-151 861.76,-187"/>
<text text-anchor="middle" x="815" y="-164.8" font-family="Times,serif" font-size="14.00">MixerModule</text>
</g>
<!-- MixerDesignComponent&#45;&gt;MixerModule -->
<g id="edge1" class="edge">
<title>MixerDesignComponent&#45;&gt;MixerModule</title>
<path fill="none" stroke="black" d="M1593,-122.09C1593,-145.13 1593,-182 1593,-182 1593,-182 871.92,-182 871.92,-182"/>
<polygon fill="black" stroke="black" points="871.92,-178.5 861.92,-182 871.92,-185.5 871.92,-178.5"/>
</g>
<!-- MixerComponent -->
<g id="node2" class="node">
<title>MixerComponent</title>
<polygon fill="#ffffb3" stroke="black" points="1497.54,-122 1382.46,-122 1382.46,-86 1497.54,-86 1497.54,-122"/>
<text text-anchor="middle" x="1440" y="-99.8" font-family="Times,serif" font-size="14.00">MixerComponent</text>
</g>
<!-- MixerComponent&#45;&gt;MixerModule -->
<g id="edge2" class="edge">
<title>MixerComponent&#45;&gt;MixerModule</title>
<path fill="none" stroke="black" d="M1440,-122.28C1440,-143.32 1440,-175 1440,-175 1440,-175 871.98,-175 871.98,-175"/>
<polygon fill="black" stroke="black" points="871.98,-171.5 861.98,-175 871.98,-178.5 871.98,-171.5"/>
</g>
<!-- MixerPatternsComponent -->
<g id="node3" class="node">
<title>MixerPatternsComponent</title>
<polygon fill="#ffffb3" stroke="black" points="1364.14,-122 1203.86,-122 1203.86,-86 1364.14,-86 1364.14,-122"/>
<text text-anchor="middle" x="1284" y="-99.8" font-family="Times,serif" font-size="14.00">MixerPatternsComponent</text>
</g>
<!-- MixerPatternsComponent&#45;&gt;MixerModule -->
<g id="edge3" class="edge">
<title>MixerPatternsComponent&#45;&gt;MixerModule</title>
<path fill="none" stroke="black" d="M1284,-122.11C1284,-141.34 1284,-169 1284,-169 1284,-169 872.12,-169 872.12,-169"/>
<polygon fill="black" stroke="black" points="872.12,-165.5 862.12,-169 872.12,-172.5 872.12,-165.5"/>
</g>
<!-- MixerViewComponent -->
<g id="node4" class="node">
<title>MixerViewComponent</title>
<polygon fill="#ffffb3" stroke="black" points="1185.86,-122 1040.14,-122 1040.14,-86 1185.86,-86 1185.86,-122"/>
<text text-anchor="middle" x="1113" y="-99.8" font-family="Times,serif" font-size="14.00">MixerViewComponent</text>
</g>
<!-- MixerViewComponent&#45;&gt;MixerModule -->
<g id="edge4" class="edge">
<title>MixerViewComponent&#45;&gt;MixerModule</title>
<path fill="none" stroke="black" d="M1113,-122.02C1113,-139.37 1113,-163 1113,-163 1113,-163 871.89,-163 871.89,-163"/>
<polygon fill="black" stroke="black" points="871.89,-159.5 861.89,-163 871.89,-166.5 871.89,-159.5"/>
</g>
<!-- SubdraftComponent -->
<g id="node5" class="node">
<title>SubdraftComponent</title>
<polygon fill="#ffffb3" stroke="black" points="1021.54,-122 892.46,-122 892.46,-86 1021.54,-86 1021.54,-122"/>
<text text-anchor="middle" x="957" y="-99.8" font-family="Times,serif" font-size="14.00">SubdraftComponent</text>
</g>
<!-- SubdraftComponent&#45;&gt;MixerModule -->
<g id="edge5" class="edge">
<title>SubdraftComponent&#45;&gt;MixerModule</title>
<path fill="none" stroke="black" d="M957,-122.24C957,-137.57 957,-157 957,-157 957,-157 871.89,-157 871.89,-157"/>
<polygon fill="black" stroke="black" points="871.89,-153.5 861.89,-157 871.89,-160.5 871.89,-153.5"/>
</g>
<!-- PaletteComponent -->
<g id="node6" class="node">
<title>PaletteComponent</title>
<polygon fill="#ffffb3" stroke="black" points="874.93,-122 755.07,-122 755.07,-86 874.93,-86 874.93,-122"/>
<text text-anchor="middle" x="815" y="-99.8" font-family="Times,serif" font-size="14.00">PaletteComponent</text>
</g>
<!-- PaletteComponent&#45;&gt;MixerModule -->
<g id="edge6" class="edge">
<title>PaletteComponent&#45;&gt;MixerModule</title>
<path fill="none" stroke="black" d="M815,-122.11C815,-122.11 815,-140.99 815,-140.99"/>
<polygon fill="black" stroke="black" points="811.5,-140.99 815,-150.99 818.5,-140.99 811.5,-140.99"/>
</g>
<!-- SnackbarComponent -->
<g id="node7" class="node">
<title>SnackbarComponent</title>
<polygon fill="#ffffb3" stroke="black" points="737.92,-122 604.08,-122 604.08,-86 737.92,-86 737.92,-122"/>
<text text-anchor="middle" x="671" y="-99.8" font-family="Times,serif" font-size="14.00">SnackbarComponent</text>
</g>
<!-- SnackbarComponent&#45;&gt;MixerModule -->
<g id="edge7" class="edge">
<title>SnackbarComponent&#45;&gt;MixerModule</title>
<path fill="none" stroke="black" d="M671,-122.24C671,-137.57 671,-157 671,-157 671,-157 757.85,-157 757.85,-157"/>
<polygon fill="black" stroke="black" points="757.85,-160.5 767.85,-157 757.85,-153.5 757.85,-160.5"/>
</g>
<!-- SelectionComponent -->
<g id="node8" class="node">
<title>SelectionComponent</title>
<polygon fill="#ffffb3" stroke="black" points="586.93,-122 453.07,-122 453.07,-86 586.93,-86 586.93,-122"/>
<text text-anchor="middle" x="520" y="-99.8" font-family="Times,serif" font-size="14.00">SelectionComponent</text>
</g>
<!-- SelectionComponent&#45;&gt;MixerModule -->
<g id="edge8" class="edge">
<title>SelectionComponent&#45;&gt;MixerModule</title>
<path fill="none" stroke="black" d="M520,-122.02C520,-139.37 520,-163 520,-163 520,-163 757.93,-163 757.93,-163"/>
<polygon fill="black" stroke="black" points="757.93,-166.5 767.93,-163 757.93,-159.5 757.93,-166.5"/>
</g>
<!-- OperationComponent -->
<g id="node9" class="node">
<title>OperationComponent</title>
<polygon fill="#ffffb3" stroke="black" points="435.81,-122 298.19,-122 298.19,-86 435.81,-86 435.81,-122"/>
<text text-anchor="middle" x="367" y="-99.8" font-family="Times,serif" font-size="14.00">OperationComponent</text>
</g>
<!-- OperationComponent&#45;&gt;MixerModule -->
<g id="edge9" class="edge">
<title>OperationComponent&#45;&gt;MixerModule</title>
<path fill="none" stroke="black" d="M367,-122.11C367,-141.34 367,-169 367,-169 367,-169 757.9,-169 757.9,-169"/>
<polygon fill="black" stroke="black" points="757.9,-172.5 767.9,-169 757.9,-165.5 757.9,-172.5"/>
</g>
<!-- ConnectionComponent -->
<g id="node10" class="node">
<title>ConnectionComponent</title>
<polygon fill="#ffffb3" stroke="black" points="279.88,-122 134.12,-122 134.12,-86 279.88,-86 279.88,-122"/>
<text text-anchor="middle" x="207" y="-99.8" font-family="Times,serif" font-size="14.00">ConnectionComponent</text>
</g>
<!-- ConnectionComponent&#45;&gt;MixerModule -->
<g id="edge10" class="edge">
<title>ConnectionComponent&#45;&gt;MixerModule</title>
<path fill="none" stroke="black" d="M207,-122.28C207,-143.32 207,-175 207,-175 207,-175 758.05,-175 758.05,-175"/>
<polygon fill="black" stroke="black" points="758.05,-178.5 768.05,-175 758.05,-171.5 758.05,-178.5"/>
</g>
<!-- CoreModule -->
<g id="node12" class="node">
<title>CoreModule</title>
<polygon fill="#8dd3c7" stroke="black" points="110.26,-122 107.26,-126 86.26,-126 83.26,-122 23.74,-122 23.74,-86 110.26,-86 110.26,-122"/>
<text text-anchor="middle" x="67" y="-99.8" font-family="Times,serif" font-size="14.00">CoreModule</text>
</g>
<!-- CoreModule&#45;&gt;MixerModule -->
<g id="edge11" class="edge">
<title>CoreModule&#45;&gt;MixerModule</title>
<path fill="none" stroke="black" d="M67,-122.09C67,-145.13 67,-182 67,-182 67,-182 758.21,-182 758.21,-182"/>
<polygon fill="black" stroke="black" points="758.21,-185.5 768.21,-182 758.21,-178.5 758.21,-185.5"/>
</g>
</g>
</svg>
