<?xml version="1.0" encoding="UTF-8" standalone="no"?>
<!DOCTYPE svg PUBLIC "-//W3C//DTD SVG 1.1//EN"
 "http://www.w3.org/Graphics/SVG/1.1/DTD/svg11.dtd">
<!-- Generated by graphviz version 2.47.0 (20210316.0004)
 -->
<!-- Title: dependencies Pages: 1 -->
<svg width="3188pt" height="276pt"
 viewBox="0.00 0.00 3188.00 276.00" xmlns="http://www.w3.org/2000/svg" xmlns:xlink="http://www.w3.org/1999/xlink">
<g id="graph0" class="graph" transform="scale(1 1) rotate(0) translate(4 272)">
<title>dependencies</title>
<polygon fill="white" stroke="transparent" points="-4,4 -4,-272 3184,-272 3184,4 -4,4"/>
<text text-anchor="start" x="1569.01" y="-42.4" font-family="Times-12" font-weight="bold" font-size="14.00">Legend</text>
<polygon fill="#ffffb3" stroke="transparent" points="1356,-10 1356,-30 1376,-30 1376,-10 1356,-10"/>
<text text-anchor="start" x="1379.63" y="-15.4" font-family="Times-12" font-size="14.00"> &#160;Declarations</text>
<polygon fill="#8dd3c7" stroke="transparent" points="1469,-10 1469,-30 1489,-30 1489,-10 1469,-10"/>
<text text-anchor="start" x="1492.73" y="-15.4" font-family="Times-12" font-size="14.00"> &#160;Module</text>
<polygon fill="#80b1d3" stroke="transparent" points="1555,-10 1555,-30 1575,-30 1575,-10 1555,-10"/>
<text text-anchor="start" x="1578.78" y="-15.4" font-family="Times-12" font-size="14.00"> &#160;Bootstrap</text>
<polygon fill="#fdb462" stroke="transparent" points="1652,-10 1652,-30 1672,-30 1672,-10 1652,-10"/>
<text text-anchor="start" x="1675.67" y="-15.4" font-family="Times-12" font-size="14.00"> &#160;Providers</text>
<polygon fill="#fb8072" stroke="transparent" points="1748,-10 1748,-30 1768,-30 1768,-10 1748,-10"/>
<text text-anchor="start" x="1771.73" y="-15.4" font-family="Times-12" font-size="14.00"> &#160;Exports</text>
<g id="clust1" class="cluster">
<title>cluster_MixerModule</title>
<polygon fill="none" stroke="black" stroke-dasharray="1,5" points="8,-70 8,-260 3172,-260 3172,-70 8,-70"/>
</g>
<g id="clust8" class="cluster">
<title>cluster_MixerModule_MixerComponent_providers</title>
<polygon fill="none" stroke="black" points="2408,-78 2408,-195 3164,-195 3164,-78 2408,-78"/>
</g>
<g id="clust19" class="cluster">
<title>cluster_MixerModule_imports</title>
<polygon fill="none" stroke="black" points="2156,-143 2156,-195 2400,-195 2400,-143 2156,-143"/>
</g>
<g id="clust2" class="cluster">
<title>cluster_MixerModule_declarations</title>
<polygon fill="none" stroke="black" points="16,-143 16,-195 2148,-195 2148,-143 16,-143"/>
</g>
<!-- ConnectionComponent -->
<g id="node1" class="node">
<title>ConnectionComponent</title>
<polygon fill="#ffffb3" stroke="black" points="2139.88,-187 1994.12,-187 1994.12,-151 2139.88,-151 2139.88,-187"/>
<text text-anchor="middle" x="2067" y="-164.8" font-family="Times,serif" font-size="14.00">ConnectionComponent</text>
</g>
<!-- MixerModule -->
<g id="node17" class="node">
<title>MixerModule</title>
<polygon fill="#8dd3c7" stroke="black" points="1329.76,-252 1326.76,-256 1305.76,-256 1302.76,-252 1236.24,-252 1236.24,-216 1329.76,-216 1329.76,-252"/>
<text text-anchor="middle" x="1283" y="-229.8" font-family="Times,serif" font-size="14.00">MixerModule</text>
</g>
<!-- ConnectionComponent&#45;&gt;MixerModule -->
<g id="edge1" class="edge">
<title>ConnectionComponent&#45;&gt;MixerModule</title>
<path fill="none" stroke="black" d="M2067,-187.31C2067,-207.15 2067,-236 2067,-236 2067,-236 1339.99,-236 1339.99,-236"/>
<polygon fill="black" stroke="black" points="1339.99,-232.5 1329.99,-236 1339.99,-239.5 1339.99,-232.5"/>
</g>
<!-- DesignComponent -->
<g id="node2" class="node">
<title>DesignComponent</title>
<polygon fill="#ffffb3" stroke="black" points="1976.49,-187 1855.51,-187 1855.51,-151 1976.49,-151 1976.49,-187"/>
<text text-anchor="middle" x="1916" y="-164.8" font-family="Times,serif" font-size="14.00">DesignComponent</text>
</g>
<!-- DesignComponent&#45;&gt;MixerModule -->
<g id="edge2" class="edge">
<title>DesignComponent&#45;&gt;MixerModule</title>
<path fill="none" stroke="black" d="M1916,-187.22C1916,-205.83 1916,-232 1916,-232 1916,-232 1339.8,-232 1339.8,-232"/>
<polygon fill="black" stroke="black" points="1339.8,-228.5 1329.8,-232 1339.8,-235.5 1339.8,-228.5"/>
</g>
<!-- ImageComponent -->
<g id="node3" class="node">
<title>ImageComponent</title>
<polygon fill="#ffffb3" stroke="black" points="1837.31,-187 1720.69,-187 1720.69,-151 1837.31,-151 1837.31,-187"/>
<text text-anchor="middle" x="1779" y="-164.8" font-family="Times,serif" font-size="14.00">ImageComponent</text>
</g>
<!-- ImageComponent&#45;&gt;MixerModule -->
<g id="edge3" class="edge">
<title>ImageComponent&#45;&gt;MixerModule</title>
<path fill="none" stroke="black" d="M1779,-187.02C1779,-204.37 1779,-228 1779,-228 1779,-228 1340.11,-228 1340.11,-228"/>
<polygon fill="black" stroke="black" points="1340.11,-224.5 1330.11,-228 1340.11,-231.5 1340.11,-224.5"/>
</g>
<!-- InletComponent -->
<g id="node4" class="node">
<title>InletComponent</title>
<polygon fill="#ffffb3" stroke="black" points="1702.49,-187 1595.51,-187 1595.51,-151 1702.49,-151 1702.49,-187"/>
<text text-anchor="middle" x="1649" y="-164.8" font-family="Times,serif" font-size="14.00">InletComponent</text>
</g>
<!-- InletComponent&#45;&gt;MixerModule -->
<g id="edge4" class="edge">
<title>InletComponent&#45;&gt;MixerModule</title>
<path fill="none" stroke="black" d="M1649,-187.01C1649,-203.05 1649,-224 1649,-224 1649,-224 1340.1,-224 1340.1,-224"/>
<polygon fill="black" stroke="black" points="1340.1,-220.5 1330.1,-224 1340.1,-227.5 1340.1,-220.5"/>
</g>
<!-- MarqueeComponent -->
<g id="node5" class="node">
<title>MarqueeComponent</title>
<polygon fill="#ffffb3" stroke="black" points="1577.58,-187 1446.42,-187 1446.42,-151 1577.58,-151 1577.58,-187"/>
<text text-anchor="middle" x="1512" y="-164.8" font-family="Times,serif" font-size="14.00">MarqueeComponent</text>
</g>
<!-- MarqueeComponent&#45;&gt;MixerModule -->
<g id="edge5" class="edge">
<title>MarqueeComponent&#45;&gt;MixerModule</title>
<path fill="none" stroke="black" d="M1512,-187.12C1512,-201.78 1512,-220 1512,-220 1512,-220 1339.89,-220 1339.89,-220"/>
<polygon fill="black" stroke="black" points="1339.89,-216.5 1329.89,-220 1339.89,-223.5 1339.89,-216.5"/>
</g>
<!-- MixerComponent -->
<g id="node6" class="node">
<title>MixerComponent</title>
<polygon fill="#ffffb3" stroke="black" points="2687.54,-187 2572.46,-187 2572.46,-151 2687.54,-151 2687.54,-187"/>
<text text-anchor="middle" x="2630" y="-164.8" font-family="Times,serif" font-size="14.00">MixerComponent</text>
</g>
<!-- MixerComponent&#45;&gt;MixerModule -->
<g id="edge6" class="edge">
<title>MixerComponent&#45;&gt;MixerModule</title>
<path fill="none" stroke="black" d="M2630,-187.32C2630,-210.66 2630,-248 2630,-248 2630,-248 1340.15,-248 1340.15,-248"/>
<polygon fill="black" stroke="black" points="1340.15,-244.5 1330.15,-248 1340.15,-251.5 1340.15,-244.5"/>
</g>
<!-- MixerViewComponent -->
<g id="node7" class="node">
<title>MixerViewComponent</title>
<polygon fill="#ffffb3" stroke="black" points="1428.86,-187 1283.14,-187 1283.14,-151 1428.86,-151 1428.86,-187"/>
<text text-anchor="middle" x="1356" y="-164.8" font-family="Times,serif" font-size="14.00">MixerViewComponent</text>
</g>
<!-- MixerViewComponent&#45;&gt;MixerModule -->
<g id="edge8" class="edge">
<title>MixerViewComponent&#45;&gt;MixerModule</title>
<path fill="none" stroke="black" d="M1306.47,-187.11C1306.47,-187.11 1306.47,-205.99 1306.47,-205.99"/>
<polygon fill="black" stroke="black" points="1302.97,-205.99 1306.47,-215.99 1309.97,-205.99 1302.97,-205.99"/>
</g>
<!-- NoteComponent -->
<g id="node8" class="node">
<title>NoteComponent</title>
<polygon fill="#ffffb3" stroke="black" points="1265.05,-187 1156.95,-187 1156.95,-151 1265.05,-151 1265.05,-187"/>
<text text-anchor="middle" x="1211" y="-164.8" font-family="Times,serif" font-size="14.00">NoteComponent</text>
</g>
<!-- NoteComponent&#45;&gt;MixerModule -->
<g id="edge9" class="edge">
<title>NoteComponent&#45;&gt;MixerModule</title>
<path fill="none" stroke="black" d="M1250.7,-187.11C1250.7,-187.11 1250.7,-205.99 1250.7,-205.99"/>
<polygon fill="black" stroke="black" points="1247.2,-205.99 1250.7,-215.99 1254.2,-205.99 1247.2,-205.99"/>
</g>
<!-- OpHelpModal -->
<g id="node9" class="node">
<title>OpHelpModal</title>
<polygon fill="#ffffb3" stroke="black" points="1138.37,-187 1041.63,-187 1041.63,-151 1138.37,-151 1138.37,-187"/>
<text text-anchor="middle" x="1090" y="-164.8" font-family="Times,serif" font-size="14.00">OpHelpModal</text>
</g>
<!-- OpHelpModal&#45;&gt;MixerModule -->
<g id="edge10" class="edge">
<title>OpHelpModal&#45;&gt;MixerModule</title>
<path fill="none" stroke="black" d="M1090,-187.12C1090,-201.78 1090,-220 1090,-220 1090,-220 1225.79,-220 1225.79,-220"/>
<polygon fill="black" stroke="black" points="1225.79,-223.5 1235.79,-220 1225.79,-216.5 1225.79,-223.5"/>
</g>
<!-- OperationComponent -->
<g id="node10" class="node">
<title>OperationComponent</title>
<polygon fill="#ffffb3" stroke="black" points="1023.81,-187 886.19,-187 886.19,-151 1023.81,-151 1023.81,-187"/>
<text text-anchor="middle" x="955" y="-164.8" font-family="Times,serif" font-size="14.00">OperationComponent</text>
</g>
<!-- OperationComponent&#45;&gt;MixerModule -->
<g id="edge11" class="edge">
<title>OperationComponent&#45;&gt;MixerModule</title>
<path fill="none" stroke="black" d="M955,-187.01C955,-203.05 955,-224 955,-224 955,-224 1226.01,-224 1226.01,-224"/>
<polygon fill="black" stroke="black" points="1226.01,-227.5 1236.01,-224 1226.01,-220.5 1226.01,-227.5"/>
</g>
<!-- OpsComponent -->
<g id="node11" class="node">
<title>OpsComponent</title>
<polygon fill="#ffffb3" stroke="black" points="867.88,-187 764.12,-187 764.12,-151 867.88,-151 867.88,-187"/>
<text text-anchor="middle" x="816" y="-164.8" font-family="Times,serif" font-size="14.00">OpsComponent</text>
</g>
<!-- OpsComponent&#45;&gt;MixerModule -->
<g id="edge12" class="edge">
<title>OpsComponent&#45;&gt;MixerModule</title>
<path fill="none" stroke="black" d="M816,-187.02C816,-204.37 816,-228 816,-228 816,-228 1226.08,-228 1226.08,-228"/>
<polygon fill="black" stroke="black" points="1226.08,-231.5 1236.08,-228 1226.08,-224.5 1226.08,-231.5"/>
</g>
<!-- PaletteComponent -->
<g id="node12" class="node">
<title>PaletteComponent</title>
<polygon fill="#ffffb3" stroke="black" points="745.93,-187 626.07,-187 626.07,-151 745.93,-151 745.93,-187"/>
<text text-anchor="middle" x="686" y="-164.8" font-family="Times,serif" font-size="14.00">PaletteComponent</text>
</g>
<!-- PaletteComponent&#45;&gt;MixerModule -->
<g id="edge13" class="edge">
<title>PaletteComponent&#45;&gt;MixerModule</title>
<path fill="none" stroke="black" d="M686,-187.22C686,-205.83 686,-232 686,-232 686,-232 1226.15,-232 1226.15,-232"/>
<polygon fill="black" stroke="black" points="1226.15,-235.5 1236.15,-232 1226.15,-228.5 1226.15,-235.5"/>
</g>
<!-- ParameterComponent -->
<g id="node13" class="node">
<title>ParameterComponent</title>
<polygon fill="#ffffb3" stroke="black" points="608.08,-187 469.92,-187 469.92,-151 608.08,-151 608.08,-187"/>
<text text-anchor="middle" x="539" y="-164.8" font-family="Times,serif" font-size="14.00">ParameterComponent</text>
</g>
<!-- ParameterComponent&#45;&gt;MixerModule -->
<g id="edge14" class="edge">
<title>ParameterComponent&#45;&gt;MixerModule</title>
<path fill="none" stroke="black" d="M539,-187.31C539,-207.15 539,-236 539,-236 539,-236 1226.18,-236 1226.18,-236"/>
<polygon fill="black" stroke="black" points="1226.18,-239.5 1236.18,-236 1226.18,-232.5 1226.18,-239.5"/>
</g>
<!-- QuickopComponent -->
<g id="node14" class="node">
<title>QuickopComponent</title>
<polygon fill="#ffffb3" stroke="black" points="451.54,-187 322.46,-187 322.46,-151 451.54,-151 451.54,-187"/>
<text text-anchor="middle" x="387" y="-164.8" font-family="Times,serif" font-size="14.00">QuickopComponent</text>
</g>
<!-- QuickopComponent&#45;&gt;MixerModule -->
<g id="edge15" class="edge">
<title>QuickopComponent&#45;&gt;MixerModule</title>
<path fill="none" stroke="black" d="M387,-187.28C387,-208.32 387,-240 387,-240 387,-240 1226.09,-240 1226.09,-240"/>
<polygon fill="black" stroke="black" points="1226.09,-243.5 1236.09,-240 1226.09,-236.5 1226.09,-243.5"/>
</g>
<!-- SnackbarComponent -->
<g id="node15" class="node">
<title>SnackbarComponent</title>
<polygon fill="#ffffb3" stroke="black" points="304.92,-187 171.08,-187 171.08,-151 304.92,-151 304.92,-187"/>
<text text-anchor="middle" x="238" y="-164.8" font-family="Times,serif" font-size="14.00">SnackbarComponent</text>
</g>
<!-- SnackbarComponent&#45;&gt;MixerModule -->
<g id="edge16" class="edge">
<title>SnackbarComponent&#45;&gt;MixerModule</title>
<path fill="none" stroke="black" d="M238,-187.16C238,-209.35 238,-244 238,-244 238,-244 1226.07,-244 1226.07,-244"/>
<polygon fill="black" stroke="black" points="1226.07,-247.5 1236.07,-244 1226.07,-240.5 1226.07,-247.5"/>
</g>
<!-- SubdraftComponent -->
<g id="node16" class="node">
<title>SubdraftComponent</title>
<polygon fill="#ffffb3" stroke="black" points="153.54,-187 24.46,-187 24.46,-151 153.54,-151 153.54,-187"/>
<text text-anchor="middle" x="89" y="-164.8" font-family="Times,serif" font-size="14.00">SubdraftComponent</text>
</g>
<!-- SubdraftComponent&#45;&gt;MixerModule -->
<g id="edge17" class="edge">
<title>SubdraftComponent&#45;&gt;MixerModule</title>
<path fill="none" stroke="black" d="M89,-187.32C89,-210.66 89,-248 89,-248 89,-248 1226.19,-248 1226.19,-248"/>
<polygon fill="black" stroke="black" points="1226.19,-251.5 1236.19,-248 1226.19,-244.5 1226.19,-251.5"/>
</g>
<!-- { provide: MAT_TOOLTIP_DEFAULT_OPTIONS, useValue: myCustomTooltipDefaults } -->
<g id="node18" class="node">
<title>{ provide: MAT_TOOLTIP_DEFAULT_OPTIONS, useValue: myCustomTooltipDefaults }</title>
<ellipse fill="#fdb462" stroke="black" cx="2786" cy="-104" rx="370.06" ry="18"/>
<text text-anchor="middle" x="2786" y="-99.8" font-family="Times,serif" font-size="14.00">{ provide: MAT_TOOLTIP_DEFAULT_OPTIONS, useValue: myCustomTooltipDefaults }</text>
</g>
<!-- { provide: MAT_TOOLTIP_DEFAULT_OPTIONS, useValue: myCustomTooltipDefaults }&#45;&gt;MixerComponent -->
<g id="edge7" class="edge">
<title>{ provide: MAT_TOOLTIP_DEFAULT_OPTIONS, useValue: myCustomTooltipDefaults }&#45;&gt;MixerComponent</title>
<path fill="none" stroke="black" d="M2630,-120.4C2630,-120.4 2630,-140.54 2630,-140.54"/>
<polygon fill="black" stroke="black" points="2626.5,-140.54 2630,-150.54 2633.5,-140.54 2626.5,-140.54"/>
</g>
<!-- CoreModule -->
<g id="node19" class="node">
<title>CoreModule</title>
<polygon fill="#8dd3c7" stroke="black" points="2392.26,-187 2389.26,-191 2368.26,-191 2365.26,-187 2305.74,-187 2305.74,-151 2392.26,-151 2392.26,-187"/>
<text text-anchor="middle" x="2349" y="-164.8" font-family="Times,serif" font-size="14.00">CoreModule</text>
</g>
<!-- CoreModule&#45;&gt;MixerModule -->
<g id="edge18" class="edge">
<title>CoreModule&#45;&gt;MixerModule</title>
<path fill="none" stroke="black" d="M2349,-187.16C2349,-209.35 2349,-244 2349,-244 2349,-244 1339.83,-244 1339.83,-244"/>
<polygon fill="black" stroke="black" points="1339.83,-240.5 1329.83,-244 1339.83,-247.5 1339.83,-240.5"/>
</g>
<!-- DraftDetailModule -->
<g id="node20" class="node">
<title>DraftDetailModule</title>
<polygon fill="#8dd3c7" stroke="black" points="2287.79,-187 2284.79,-191 2263.79,-191 2260.79,-187 2164.21,-187 2164.21,-151 2287.79,-151 2287.79,-187"/>
<text text-anchor="middle" x="2226" y="-164.8" font-family="Times,serif" font-size="14.00">DraftDetailModule</text>
</g>
<!-- DraftDetailModule&#45;&gt;MixerModule -->
<g id="edge19" class="edge">
<title>DraftDetailModule&#45;&gt;MixerModule</title>
<path fill="none" stroke="black" d="M2226,-187.28C2226,-208.32 2226,-240 2226,-240 2226,-240 1339.76,-240 1339.76,-240"/>
<polygon fill="black" stroke="black" points="1339.76,-236.5 1329.76,-240 1339.76,-243.5 1339.76,-236.5"/>
</g>
</g>
</svg>
