<?xml version="1.0" encoding="UTF-8" standalone="no"?>
<!DOCTYPE svg PUBLIC "-//W3C//DTD SVG 1.1//EN"
 "http://www.w3.org/Graphics/SVG/1.1/DTD/svg11.dtd">
<!-- Generated by graphviz version 2.47.0 (20210316.0004)
 -->
<!-- Title: dependencies Pages: 1 -->
<svg width="1956pt" height="211pt"
 viewBox="0.00 0.00 1956.00 211.00" xmlns="http://www.w3.org/2000/svg" xmlns:xlink="http://www.w3.org/1999/xlink">
<g id="graph0" class="graph" transform="scale(1 1) rotate(0) translate(4 207)">
<title>dependencies</title>
<polygon fill="white" stroke="transparent" points="-4,4 -4,-207 1952,-207 1952,4 -4,4"/>
<text text-anchor="start" x="953.01" y="-42.4" font-family="sans-serif" font-weight="bold" font-size="14.00">Legend</text>
<polygon fill="#ffffb3" stroke="transparent" points="740,-10 740,-30 760,-30 760,-10 740,-10"/>
<text text-anchor="start" x="763.63" y="-15.4" font-family="sans-serif" font-size="14.00"> &#160;Declarations</text>
<polygon fill="#8dd3c7" stroke="transparent" points="853,-10 853,-30 873,-30 873,-10 853,-10"/>
<text text-anchor="start" x="876.73" y="-15.4" font-family="sans-serif" font-size="14.00"> &#160;Module</text>
<polygon fill="#80b1d3" stroke="transparent" points="939,-10 939,-30 959,-30 959,-10 939,-10"/>
<text text-anchor="start" x="962.78" y="-15.4" font-family="sans-serif" font-size="14.00"> &#160;Bootstrap</text>
<polygon fill="#fdb462" stroke="transparent" points="1036,-10 1036,-30 1056,-30 1056,-10 1036,-10"/>
<text text-anchor="start" x="1059.67" y="-15.4" font-family="sans-serif" font-size="14.00"> &#160;Providers</text>
<polygon fill="#fb8072" stroke="transparent" points="1132,-10 1132,-30 1152,-30 1152,-10 1132,-10"/>
<text text-anchor="start" x="1155.73" y="-15.4" font-family="sans-serif" font-size="14.00"> &#160;Exports</text>
<g id="clust1" class="cluster">
<title>cluster_MixerModule</title>
<polygon fill="none" stroke="black" stroke-dasharray="1,5" points="8,-70 8,-195 1940,-195 1940,-70 8,-70"/>
</g>
<g id="clust2" class="cluster">
<title>cluster_MixerModule_declarations</title>
<polygon fill="none" stroke="black" points="126,-78 126,-130 1932,-130 1932,-78 126,-78"/>
</g>
<g id="clust15" class="cluster">
<title>cluster_MixerModule_imports</title>
<polygon fill="none" stroke="black" points="16,-78 16,-130 118,-130 118,-78 16,-78"/>
</g>
<!-- MixerDesignComponent -->
<g id="node1" class="node">
<title>MixerDesignComponent</title>
<polygon fill="#ffffb3" stroke="black" points="1923.7,-122 1768.3,-122 1768.3,-86 1923.7,-86 1923.7,-122"/>
<text text-anchor="middle" x="1846" y="-99.8" font-family="Times,serif" font-size="14.00">MixerDesignComponent</text>
</g>
<!-- MixerModule -->
<g id="node13" class="node">
<title>MixerModule</title>
<polygon fill="#8dd3c7" stroke="black" points="970.76,-187 967.76,-191 946.76,-191 943.76,-187 877.24,-187 877.24,-151 970.76,-151 970.76,-187"/>
<text text-anchor="middle" x="924" y="-164.8" font-family="Times,serif" font-size="14.00">MixerModule</text>
</g>
<!-- MixerDesignComponent&#45;&gt;MixerModule -->
<g id="edge1" class="edge">
<title>MixerDesignComponent&#45;&gt;MixerModule</title>
<path fill="none" stroke="black" d="M1846,-122.09C1846,-145.13 1846,-182 1846,-182 1846,-182 980.99,-182 980.99,-182"/>
<polygon fill="black" stroke="black" points="980.99,-178.5 970.99,-182 980.99,-185.5 980.99,-178.5"/>
</g>
<!-- MixerComponent -->
<g id="node2" class="node">
<title>MixerComponent</title>
<polygon fill="#ffffb3" stroke="black" points="1750.54,-122 1635.46,-122 1635.46,-86 1750.54,-86 1750.54,-122"/>
<text text-anchor="middle" x="1693" y="-99.8" font-family="Times,serif" font-size="14.00">MixerComponent</text>
</g>
<!-- MixerComponent&#45;&gt;MixerModule -->
<g id="edge2" class="edge">
<title>MixerComponent&#45;&gt;MixerModule</title>
<path fill="none" stroke="black" d="M1693,-122.04C1693,-143.66 1693,-177 1693,-177 1693,-177 980.95,-177 980.95,-177"/>
<polygon fill="black" stroke="black" points="980.95,-173.5 970.95,-177 980.95,-180.5 980.95,-173.5"/>
</g>
<!-- MixerPatternsComponent -->
<g id="node3" class="node">
<title>MixerPatternsComponent</title>
<polygon fill="#ffffb3" stroke="black" points="1617.14,-122 1456.86,-122 1456.86,-86 1617.14,-86 1617.14,-122"/>
<text text-anchor="middle" x="1537" y="-99.8" font-family="Times,serif" font-size="14.00">MixerPatternsComponent</text>
</g>
<!-- MixerPatternsComponent&#45;&gt;MixerModule -->
<g id="edge3" class="edge">
<title>MixerPatternsComponent&#45;&gt;MixerModule</title>
<path fill="none" stroke="black" d="M1537,-122.22C1537,-142.37 1537,-172 1537,-172 1537,-172 980.83,-172 980.83,-172"/>
<polygon fill="black" stroke="black" points="980.83,-168.5 970.83,-172 980.83,-175.5 980.83,-168.5"/>
</g>
<!-- MixerViewComponent -->
<g id="node4" class="node">
<title>MixerViewComponent</title>
<polygon fill="#ffffb3" stroke="black" points="1438.86,-122 1293.14,-122 1293.14,-86 1438.86,-86 1438.86,-122"/>
<text text-anchor="middle" x="1366" y="-99.8" font-family="Times,serif" font-size="14.00">MixerViewComponent</text>
</g>
<!-- MixerViewComponent&#45;&gt;MixerModule -->
<g id="edge4" class="edge">
<title>MixerViewComponent&#45;&gt;MixerModule</title>
<path fill="none" stroke="black" d="M1366,-122.22C1366,-140.83 1366,-167 1366,-167 1366,-167 980.88,-167 980.88,-167"/>
<polygon fill="black" stroke="black" points="980.88,-163.5 970.88,-167 980.88,-170.5 980.88,-163.5"/>
</g>
<!-- SubdraftComponent -->
<g id="node5" class="node">
<title>SubdraftComponent</title>
<polygon fill="#ffffb3" stroke="black" points="1274.54,-122 1145.46,-122 1145.46,-86 1274.54,-86 1274.54,-122"/>
<text text-anchor="middle" x="1210" y="-99.8" font-family="Times,serif" font-size="14.00">SubdraftComponent</text>
</g>
<!-- SubdraftComponent&#45;&gt;MixerModule -->
<g id="edge5" class="edge">
<title>SubdraftComponent&#45;&gt;MixerModule</title>
<path fill="none" stroke="black" d="M1210,-122.03C1210,-139.06 1210,-162 1210,-162 1210,-162 980.91,-162 980.91,-162"/>
<polygon fill="black" stroke="black" points="980.91,-158.5 970.91,-162 980.91,-165.5 980.91,-158.5"/>
</g>
<!-- PaletteComponent -->
<g id="node6" class="node">
<title>PaletteComponent</title>
<polygon fill="#ffffb3" stroke="black" points="1127.93,-122 1008.07,-122 1008.07,-86 1127.93,-86 1127.93,-122"/>
<text text-anchor="middle" x="1068" y="-99.8" font-family="Times,serif" font-size="14.00">PaletteComponent</text>
</g>
<!-- PaletteComponent&#45;&gt;MixerModule -->
<g id="edge6" class="edge">
<title>PaletteComponent&#45;&gt;MixerModule</title>
<path fill="none" stroke="black" d="M1068,-122.24C1068,-137.57 1068,-157 1068,-157 1068,-157 981.15,-157 981.15,-157"/>
<polygon fill="black" stroke="black" points="981.15,-153.5 971.15,-157 981.15,-160.5 981.15,-153.5"/>
</g>
<!-- SnackbarComponent -->
<g id="node7" class="node">
<title>SnackbarComponent</title>
<polygon fill="#ffffb3" stroke="black" points="990.92,-122 857.08,-122 857.08,-86 990.92,-86 990.92,-122"/>
<text text-anchor="middle" x="924" y="-99.8" font-family="Times,serif" font-size="14.00">SnackbarComponent</text>
</g>
<!-- SnackbarComponent&#45;&gt;MixerModule -->
<g id="edge7" class="edge">
<title>SnackbarComponent&#45;&gt;MixerModule</title>
<path fill="none" stroke="black" d="M924,-122.11C924,-122.11 924,-140.99 924,-140.99"/>
<polygon fill="black" stroke="black" points="920.5,-140.99 924,-150.99 927.5,-140.99 920.5,-140.99"/>
</g>
<!-- SelectionComponent -->
<g id="node8" class="node">
<title>SelectionComponent</title>
<polygon fill="#ffffb3" stroke="black" points="839.93,-122 706.07,-122 706.07,-86 839.93,-86 839.93,-122"/>
<text text-anchor="middle" x="773" y="-99.8" font-family="Times,serif" font-size="14.00">SelectionComponent</text>
</g>
<!-- SelectionComponent&#45;&gt;MixerModule -->
<g id="edge8" class="edge">
<title>SelectionComponent&#45;&gt;MixerModule</title>
<path fill="none" stroke="black" d="M773,-122.24C773,-137.57 773,-157 773,-157 773,-157 867.05,-157 867.05,-157"/>
<polygon fill="black" stroke="black" points="867.05,-160.5 877.05,-157 867.05,-153.5 867.05,-160.5"/>
</g>
<!-- OperationComponent -->
<g id="node9" class="node">
<title>OperationComponent</title>
<polygon fill="#ffffb3" stroke="black" points="688.81,-122 551.19,-122 551.19,-86 688.81,-86 688.81,-122"/>
<text text-anchor="middle" x="620" y="-99.8" font-family="Times,serif" font-size="14.00">OperationComponent</text>
</g>
<!-- OperationComponent&#45;&gt;MixerModule -->
<g id="edge9" class="edge">
<title>OperationComponent&#45;&gt;MixerModule</title>
<path fill="none" stroke="black" d="M620,-122.03C620,-139.06 620,-162 620,-162 620,-162 867.17,-162 867.17,-162"/>
<polygon fill="black" stroke="black" points="867.17,-165.5 877.17,-162 867.17,-158.5 867.17,-165.5"/>
</g>
<!-- ConnectionComponent -->
<g id="node10" class="node">
<title>ConnectionComponent</title>
<polygon fill="#ffffb3" stroke="black" points="532.88,-122 387.12,-122 387.12,-86 532.88,-86 532.88,-122"/>
<text text-anchor="middle" x="460" y="-99.8" font-family="Times,serif" font-size="14.00">ConnectionComponent</text>
</g>
<!-- ConnectionComponent&#45;&gt;MixerModule -->
<g id="edge10" class="edge">
<title>ConnectionComponent&#45;&gt;MixerModule</title>
<path fill="none" stroke="black" d="M460,-122.22C460,-140.83 460,-167 460,-167 460,-167 866.96,-167 866.96,-167"/>
<polygon fill="black" stroke="black" points="866.96,-170.5 876.96,-167 866.96,-163.5 866.96,-170.5"/>
</g>
<!-- TreeComponent -->
<g id="node11" class="node">
<title>TreeComponent</title>
<polygon fill="#ffffb3" stroke="black" points="369.47,-122 262.53,-122 262.53,-86 369.47,-86 369.47,-122"/>
<text text-anchor="middle" x="316" y="-99.8" font-family="Times,serif" font-size="14.00">TreeComponent</text>
</g>
<!-- TreeComponent&#45;&gt;MixerModule -->
<g id="edge11" class="edge">
<title>TreeComponent&#45;&gt;MixerModule</title>
<path fill="none" stroke="black" d="M316,-122.22C316,-142.37 316,-172 316,-172 316,-172 867.05,-172 867.05,-172"/>
<polygon fill="black" stroke="black" points="867.05,-175.5 877.05,-172 867.05,-168.5 867.05,-175.5"/>
</g>
<!-- FlowComponent -->
<g id="node12" class="node">
<title>FlowComponent</title>
<polygon fill="#ffffb3" stroke="black" points="244.11,-122 133.89,-122 133.89,-86 244.11,-86 244.11,-122"/>
<text text-anchor="middle" x="189" y="-99.8" font-family="Times,serif" font-size="14.00">FlowComponent</text>
</g>
<!-- FlowComponent&#45;&gt;MixerModule -->
<g id="edge12" class="edge">
<title>FlowComponent&#45;&gt;MixerModule</title>
<path fill="none" stroke="black" d="M189,-122.04C189,-143.66 189,-177 189,-177 189,-177 867.18,-177 867.18,-177"/>
<polygon fill="black" stroke="black" points="867.19,-180.5 877.18,-177 867.18,-173.5 867.19,-180.5"/>
</g>
<!-- CoreModule -->
<g id="node14" class="node">
<title>CoreModule</title>
<polygon fill="#8dd3c7" stroke="black" points="110.26,-122 107.26,-126 86.26,-126 83.26,-122 23.74,-122 23.74,-86 110.26,-86 110.26,-122"/>
<text text-anchor="middle" x="67" y="-99.8" font-family="Times,serif" font-size="14.00">CoreModule</text>
</g>
<!-- CoreModule&#45;&gt;MixerModule -->
<g id="edge13" class="edge">
<title>CoreModule&#45;&gt;MixerModule</title>
<path fill="none" stroke="black" d="M67,-122.09C67,-145.13 67,-182 67,-182 67,-182 867.01,-182 867.01,-182"/>
<polygon fill="black" stroke="black" points="867.01,-185.5 877.01,-182 867.01,-178.5 867.01,-185.5"/>
</g>
</g>
</svg>
