<?xml version="1.0" encoding="UTF-8" standalone="no"?>
<!DOCTYPE svg PUBLIC "-//W3C//DTD SVG 1.1//EN"
 "http://www.w3.org/Graphics/SVG/1.1/DTD/svg11.dtd">
<!-- Generated by graphviz version 2.47.0 (20210316.0004)
 -->
<!-- Title: dependencies Pages: 1 -->
<svg width="7493pt" height="211pt"
 viewBox="0.00 0.00 7493.00 211.00" xmlns="http://www.w3.org/2000/svg" xmlns:xlink="http://www.w3.org/1999/xlink">
<g id="graph0" class="graph" transform="scale(1 1) rotate(0) translate(4 207)">
<title>dependencies</title>
<polygon fill="white" stroke="transparent" points="-4,4 -4,-207 7489,-207 7489,4 -4,4"/>
<text text-anchor="start" x="3721.51" y="-42.4" font-family="sans-serif" font-weight="bold" font-size="14.00">Legend</text>
<polygon fill="#ffffb3" stroke="transparent" points="3508.5,-10 3508.5,-30 3528.5,-30 3528.5,-10 3508.5,-10"/>
<text text-anchor="start" x="3532.13" y="-15.4" font-family="sans-serif" font-size="14.00"> &#160;Declarations</text>
<polygon fill="#8dd3c7" stroke="transparent" points="3621.5,-10 3621.5,-30 3641.5,-30 3641.5,-10 3621.5,-10"/>
<text text-anchor="start" x="3645.23" y="-15.4" font-family="sans-serif" font-size="14.00"> &#160;Module</text>
<polygon fill="#80b1d3" stroke="transparent" points="3707.5,-10 3707.5,-30 3727.5,-30 3727.5,-10 3707.5,-10"/>
<text text-anchor="start" x="3731.28" y="-15.4" font-family="sans-serif" font-size="14.00"> &#160;Bootstrap</text>
<polygon fill="#fdb462" stroke="transparent" points="3804.5,-10 3804.5,-30 3824.5,-30 3824.5,-10 3804.5,-10"/>
<text text-anchor="start" x="3828.17" y="-15.4" font-family="sans-serif" font-size="14.00"> &#160;Providers</text>
<polygon fill="#fb8072" stroke="transparent" points="3900.5,-10 3900.5,-30 3920.5,-30 3920.5,-10 3900.5,-10"/>
<text text-anchor="start" x="3924.23" y="-15.4" font-family="sans-serif" font-size="14.00"> &#160;Exports</text>
<g id="clust1" class="cluster">
<title>cluster_MixerModule</title>
<polygon fill="none" stroke="black" stroke-dasharray="1,5" points="8,-70 8,-195 7477,-195 7477,-70 8,-70"/>
</g>
<g id="clust27" class="cluster">
<title>cluster_MixerModule_imports</title>
<polygon fill="none" stroke="black" points="3248,-78 3248,-130 7469,-130 7469,-78 3248,-78"/>
</g>
<g id="clust2" class="cluster">
<title>cluster_MixerModule_declarations</title>
<polygon fill="none" stroke="black" points="16,-78 16,-130 3240,-130 3240,-78 16,-78"/>
</g>
<!-- TopbarComponent -->
<g id="node1" class="node">
<title>TopbarComponent</title>
<polygon fill="#ffffb3" stroke="black" points="3231.76,-122 3110.24,-122 3110.24,-86 3231.76,-86 3231.76,-122"/>
<text text-anchor="middle" x="3171" y="-99.8" font-family="Times,serif" font-size="14.00">TopbarComponent</text>
</g>
<!-- MixerModule -->
<g id="node25" class="node">
<title>MixerModule</title>
<polygon fill="#8dd3c7" stroke="black" points="3706.76,-187 3703.76,-191 3682.76,-191 3679.76,-187 3613.24,-187 3613.24,-151 3706.76,-151 3706.76,-187"/>
<text text-anchor="middle" x="3660" y="-164.8" font-family="Times,serif" font-size="14.00">MixerModule</text>
</g>
<!-- TopbarComponent&#45;&gt;MixerModule -->
<g id="edge1" class="edge">
<title>TopbarComponent&#45;&gt;MixerModule</title>
<path fill="none" stroke="black" d="M3171,-122.12C3171,-136.78 3171,-155 3171,-155 3171,-155 3603.11,-155 3603.11,-155"/>
<polygon fill="black" stroke="black" points="3603.11,-158.5 3613.11,-155 3603.11,-151.5 3603.11,-158.5"/>
</g>
<!-- DesignComponent -->
<g id="node2" class="node">
<title>DesignComponent</title>
<polygon fill="#ffffb3" stroke="black" points="3092.49,-122 2971.51,-122 2971.51,-86 3092.49,-86 3092.49,-122"/>
<text text-anchor="middle" x="3032" y="-99.8" font-family="Times,serif" font-size="14.00">DesignComponent</text>
</g>
<!-- DesignComponent&#45;&gt;MixerModule -->
<g id="edge2" class="edge">
<title>DesignComponent&#45;&gt;MixerModule</title>
<path fill="none" stroke="black" d="M3032,-122.24C3032,-137.57 3032,-157 3032,-157 3032,-157 3603.05,-157 3603.05,-157"/>
<polygon fill="black" stroke="black" points="3603.05,-160.5 3613.05,-157 3603.05,-153.5 3603.05,-160.5"/>
</g>
<!-- MixerComponent -->
<g id="node3" class="node">
<title>MixerComponent</title>
<polygon fill="#ffffb3" stroke="black" points="2953.54,-122 2838.46,-122 2838.46,-86 2953.54,-86 2953.54,-122"/>
<text text-anchor="middle" x="2896" y="-99.8" font-family="Times,serif" font-size="14.00">MixerComponent</text>
</g>
<!-- MixerComponent&#45;&gt;MixerModule -->
<g id="edge3" class="edge">
<title>MixerComponent&#45;&gt;MixerModule</title>
<path fill="none" stroke="black" d="M2896,-122.28C2896,-137.95 2896,-158 2896,-158 2896,-158 3603.07,-158 3603.07,-158"/>
<polygon fill="black" stroke="black" points="3603.07,-161.5 3613.07,-158 3603.07,-154.5 3603.07,-161.5"/>
</g>
<!-- PatternsComponent -->
<g id="node4" class="node">
<title>PatternsComponent</title>
<polygon fill="#ffffb3" stroke="black" points="2820.43,-122 2693.57,-122 2693.57,-86 2820.43,-86 2820.43,-122"/>
<text text-anchor="middle" x="2757" y="-99.8" font-family="Times,serif" font-size="14.00">PatternsComponent</text>
</g>
<!-- PatternsComponent&#45;&gt;MixerModule -->
<g id="edge4" class="edge">
<title>PatternsComponent&#45;&gt;MixerModule</title>
<path fill="none" stroke="black" d="M2757,-122.01C2757,-138.05 2757,-159 2757,-159 2757,-159 3603.04,-159 3603.04,-159"/>
<polygon fill="black" stroke="black" points="3603.04,-162.5 3613.04,-159 3603.04,-155.5 3603.04,-162.5"/>
</g>
<!-- ShuttlesModal -->
<g id="node5" class="node">
<title>ShuttlesModal</title>
<polygon fill="#ffffb3" stroke="black" points="2675.66,-122 2578.34,-122 2578.34,-86 2675.66,-86 2675.66,-122"/>
<text text-anchor="middle" x="2627" y="-99.8" font-family="Times,serif" font-size="14.00">ShuttlesModal</text>
</g>
<!-- ShuttlesModal&#45;&gt;MixerModule -->
<g id="edge5" class="edge">
<title>ShuttlesModal&#45;&gt;MixerModule</title>
<path fill="none" stroke="black" d="M2627,-122.04C2627,-138.73 2627,-161 2627,-161 2627,-161 3602.93,-161 3602.93,-161"/>
<polygon fill="black" stroke="black" points="3602.93,-164.5 3612.93,-161 3602.93,-157.5 3602.93,-164.5"/>
</g>
<!-- AboutModal -->
<g id="node6" class="node">
<title>AboutModal</title>
<polygon fill="#ffffb3" stroke="black" points="2559.55,-122 2472.45,-122 2472.45,-86 2559.55,-86 2559.55,-122"/>
<text text-anchor="middle" x="2516" y="-99.8" font-family="Times,serif" font-size="14.00">AboutModal</text>
</g>
<!-- AboutModal&#45;&gt;MixerModule -->
<g id="edge6" class="edge">
<title>AboutModal&#45;&gt;MixerModule</title>
<path fill="none" stroke="black" d="M2516,-122.03C2516,-139.06 2516,-162 2516,-162 2516,-162 3603.02,-162 3603.02,-162"/>
<polygon fill="black" stroke="black" points="3603.02,-165.5 3613.02,-162 3603.02,-158.5 3603.02,-165.5"/>
</g>
<!-- PatternModal -->
<g id="node7" class="node">
<title>PatternModal</title>
<polygon fill="#ffffb3" stroke="black" points="2454.2,-122 2361.8,-122 2361.8,-86 2454.2,-86 2454.2,-122"/>
<text text-anchor="middle" x="2408" y="-99.8" font-family="Times,serif" font-size="14.00">PatternModal</text>
</g>
<!-- PatternModal&#45;&gt;MixerModule -->
<g id="edge7" class="edge">
<title>PatternModal&#45;&gt;MixerModule</title>
<path fill="none" stroke="black" d="M2408,-122.02C2408,-139.37 2408,-163 2408,-163 2408,-163 3603.21,-163 3603.21,-163"/>
<polygon fill="black" stroke="black" points="3603.21,-166.5 3613.21,-163 3603.21,-159.5 3603.21,-166.5"/>
</g>
<!-- ConnectionModal -->
<g id="node8" class="node">
<title>ConnectionModal</title>
<polygon fill="#ffffb3" stroke="black" points="2343.6,-122 2226.4,-122 2226.4,-86 2343.6,-86 2343.6,-122"/>
<text text-anchor="middle" x="2285" y="-99.8" font-family="Times,serif" font-size="14.00">ConnectionModal</text>
</g>
<!-- ConnectionModal&#45;&gt;MixerModule -->
<g id="edge8" class="edge">
<title>ConnectionModal&#45;&gt;MixerModule</title>
<path fill="none" stroke="black" d="M2285,-122.3C2285,-140.27 2285,-165 2285,-165 2285,-165 3603.07,-165 3603.07,-165"/>
<polygon fill="black" stroke="black" points="3603.07,-168.5 3613.07,-165 3603.07,-161.5 3603.07,-168.5"/>
</g>
<!-- InitModal -->
<g id="node9" class="node">
<title>InitModal</title>
<polygon fill="#ffffb3" stroke="black" points="2207.99,-122 2136.01,-122 2136.01,-86 2207.99,-86 2207.99,-122"/>
<text text-anchor="middle" x="2172" y="-99.8" font-family="Times,serif" font-size="14.00">InitModal</text>
</g>
<!-- InitModal&#45;&gt;MixerModule -->
<g id="edge9" class="edge">
<title>InitModal&#45;&gt;MixerModule</title>
<path fill="none" stroke="black" d="M2172,-122.27C2172,-140.56 2172,-166 2172,-166 2172,-166 3603.01,-166 3603.01,-166"/>
<polygon fill="black" stroke="black" points="3603.01,-169.5 3613.01,-166 3603.01,-162.5 3603.01,-169.5"/>
</g>
<!-- LabelModal -->
<g id="node10" class="node">
<title>LabelModal</title>
<polygon fill="#ffffb3" stroke="black" points="2118.42,-122 2033.58,-122 2033.58,-86 2118.42,-86 2118.42,-122"/>
<text text-anchor="middle" x="2076" y="-99.8" font-family="Times,serif" font-size="14.00">LabelModal</text>
</g>
<!-- LabelModal&#45;&gt;MixerModule -->
<g id="edge10" class="edge">
<title>LabelModal&#45;&gt;MixerModule</title>
<path fill="none" stroke="black" d="M2076,-122.22C2076,-140.83 2076,-167 2076,-167 2076,-167 3603.02,-167 3603.02,-167"/>
<polygon fill="black" stroke="black" points="3603.02,-170.5 3613.02,-167 3603.02,-163.5 3603.02,-170.5"/>
</g>
<!-- MaterialModal -->
<g id="node11" class="node">
<title>MaterialModal</title>
<polygon fill="#ffffb3" stroke="black" points="2015.97,-122 1916.03,-122 1916.03,-86 2015.97,-86 2015.97,-122"/>
<text text-anchor="middle" x="1966" y="-99.8" font-family="Times,serif" font-size="14.00">MaterialModal</text>
</g>
<!-- MaterialModal&#45;&gt;MixerModule -->
<g id="edge11" class="edge">
<title>MaterialModal&#45;&gt;MixerModule</title>
<path fill="none" stroke="black" d="M1966,-122.11C1966,-141.34 1966,-169 1966,-169 1966,-169 3602.92,-169 3602.92,-169"/>
<polygon fill="black" stroke="black" points="3602.92,-172.5 3612.92,-169 3602.92,-165.5 3602.92,-172.5"/>
</g>
<!-- SystemsComponent -->
<g id="node12" class="node">
<title>SystemsComponent</title>
<polygon fill="#ffffb3" stroke="black" points="1898,-122 1770,-122 1770,-86 1898,-86 1898,-122"/>
<text text-anchor="middle" x="1834" y="-99.8" font-family="Times,serif" font-size="14.00">SystemsComponent</text>
</g>
<!-- SystemsComponent&#45;&gt;MixerModule -->
<g id="edge12" class="edge">
<title>SystemsComponent&#45;&gt;MixerModule</title>
<path fill="none" stroke="black" d="M1834,-122.03C1834,-141.58 1834,-170 1834,-170 1834,-170 3603.03,-170 3603.03,-170"/>
<polygon fill="black" stroke="black" points="3603.03,-173.5 3613.03,-170 3603.03,-166.5 3603.03,-173.5"/>
</g>
<!-- LoomComponent -->
<g id="node13" class="node">
<title>LoomComponent</title>
<polygon fill="#ffffb3" stroke="black" points="1752.28,-122 1637.72,-122 1637.72,-86 1752.28,-86 1752.28,-122"/>
<text text-anchor="middle" x="1695" y="-99.8" font-family="Times,serif" font-size="14.00">LoomComponent</text>
</g>
<!-- LoomComponent&#45;&gt;MixerModule -->
<g id="edge13" class="edge">
<title>LoomComponent&#45;&gt;MixerModule</title>
<path fill="none" stroke="black" d="M1695,-122.31C1695,-142.15 1695,-171 1695,-171 1695,-171 3602.88,-171 3602.88,-171"/>
<polygon fill="black" stroke="black" points="3602.88,-174.5 3612.88,-171 3602.88,-167.5 3602.88,-174.5"/>
</g>
<!-- MaterialsComponent -->
<g id="node14" class="node">
<title>MaterialsComponent</title>
<polygon fill="#ffffb3" stroke="black" points="1620.2,-122 1485.8,-122 1485.8,-86 1620.2,-86 1620.2,-122"/>
<text text-anchor="middle" x="1553" y="-99.8" font-family="Times,serif" font-size="14.00">MaterialsComponent</text>
</g>
<!-- MaterialsComponent&#45;&gt;MixerModule -->
<g id="edge14" class="edge">
<title>MaterialsComponent&#45;&gt;MixerModule</title>
<path fill="none" stroke="black" d="M1553,-122.13C1553,-142.57 1553,-173 1553,-173 1553,-173 3603.04,-173 3603.04,-173"/>
<polygon fill="black" stroke="black" points="3603.04,-176.5 3613.04,-173 3603.04,-169.5 3603.04,-176.5"/>
</g>
<!-- MasksComponent -->
<g id="node15" class="node">
<title>MasksComponent</title>
<polygon fill="#ffffb3" stroke="black" points="1467.88,-122 1350.12,-122 1350.12,-86 1467.88,-86 1467.88,-122"/>
<text text-anchor="middle" x="1409" y="-99.8" font-family="Times,serif" font-size="14.00">MasksComponent</text>
</g>
<!-- MasksComponent&#45;&gt;MixerModule -->
<g id="edge15" class="edge">
<title>MasksComponent&#45;&gt;MixerModule</title>
<path fill="none" stroke="black" d="M1409,-122.03C1409,-142.77 1409,-174 1409,-174 1409,-174 3602.98,-174 3602.98,-174"/>
<polygon fill="black" stroke="black" points="3602.98,-177.5 3612.98,-174 3602.98,-170.5 3602.98,-177.5"/>
</g>
<!-- SchematicComponent -->
<g id="node16" class="node">
<title>SchematicComponent</title>
<polygon fill="#ffffb3" stroke="black" points="1331.65,-122 1192.35,-122 1192.35,-86 1331.65,-86 1331.65,-122"/>
<text text-anchor="middle" x="1262" y="-99.8" font-family="Times,serif" font-size="14.00">SchematicComponent</text>
</g>
<!-- SchematicComponent&#45;&gt;MixerModule -->
<g id="edge16" class="edge">
<title>SchematicComponent&#45;&gt;MixerModule</title>
<path fill="none" stroke="black" d="M1262,-122.28C1262,-143.32 1262,-175 1262,-175 1262,-175 3603.17,-175 3603.17,-175"/>
<polygon fill="black" stroke="black" points="3603.17,-178.5 3613.17,-175 3603.17,-171.5 3603.17,-178.5"/>
</g>
<!-- ViewComponent -->
<g id="node17" class="node">
<title>ViewComponent</title>
<polygon fill="#ffffb3" stroke="black" points="1173.65,-122 1062.35,-122 1062.35,-86 1173.65,-86 1173.65,-122"/>
<text text-anchor="middle" x="1118" y="-99.8" font-family="Times,serif" font-size="14.00">ViewComponent</text>
</g>
<!-- ViewComponent&#45;&gt;MixerModule -->
<g id="edge17" class="edge">
<title>ViewComponent&#45;&gt;MixerModule</title>
<path fill="none" stroke="black" d="M1118,-122.04C1118,-143.66 1118,-177 1118,-177 1118,-177 3603.16,-177 3603.16,-177"/>
<polygon fill="black" stroke="black" points="3603.16,-180.5 3613.16,-177 3603.16,-173.5 3603.16,-180.5"/>
</g>
<!-- NotesComponent -->
<g id="node18" class="node">
<title>NotesComponent</title>
<polygon fill="#ffffb3" stroke="black" points="1043.99,-122 930.01,-122 930.01,-86 1043.99,-86 1043.99,-122"/>
<text text-anchor="middle" x="987" y="-99.8" font-family="Times,serif" font-size="14.00">NotesComponent</text>
</g>
<!-- NotesComponent&#45;&gt;MixerModule -->
<g id="edge18" class="edge">
<title>NotesComponent&#45;&gt;MixerModule</title>
<path fill="none" stroke="black" d="M987,-122.29C987,-144.21 987,-178 987,-178 987,-178 3603.04,-178 3603.04,-178"/>
<polygon fill="black" stroke="black" points="3603.04,-181.5 3613.04,-178 3603.04,-174.5 3603.04,-181.5"/>
</g>
<!-- SubdraftComponent -->
<g id="node19" class="node">
<title>SubdraftComponent</title>
<polygon fill="#ffffb3" stroke="black" points="911.54,-122 782.46,-122 782.46,-86 911.54,-86 911.54,-122"/>
<text text-anchor="middle" x="847" y="-99.8" font-family="Times,serif" font-size="14.00">SubdraftComponent</text>
</g>
<!-- SubdraftComponent&#45;&gt;MixerModule -->
<g id="edge19" class="edge">
<title>SubdraftComponent&#45;&gt;MixerModule</title>
<path fill="none" stroke="black" d="M847,-122.16C847,-144.35 847,-179 847,-179 847,-179 3603.23,-179 3603.23,-179"/>
<polygon fill="black" stroke="black" points="3603.23,-182.5 3613.23,-179 3603.23,-175.5 3603.23,-182.5"/>
</g>
<!-- PaletteComponent -->
<g id="node20" class="node">
<title>PaletteComponent</title>
<polygon fill="#ffffb3" stroke="black" points="764.93,-122 645.07,-122 645.07,-86 764.93,-86 764.93,-122"/>
<text text-anchor="middle" x="705" y="-99.8" font-family="Times,serif" font-size="14.00">PaletteComponent</text>
</g>
<!-- PaletteComponent&#45;&gt;MixerModule -->
<g id="edge20" class="edge">
<title>PaletteComponent&#45;&gt;MixerModule</title>
<path fill="none" stroke="black" d="M705,-122.25C705,-145.02 705,-181 705,-181 705,-181 3602.99,-181 3602.99,-181"/>
<polygon fill="black" stroke="black" points="3602.99,-184.5 3612.99,-181 3602.99,-177.5 3602.99,-184.5"/>
</g>
<!-- SnackbarComponent -->
<g id="node21" class="node">
<title>SnackbarComponent</title>
<polygon fill="#ffffb3" stroke="black" points="627.92,-122 494.08,-122 494.08,-86 627.92,-86 627.92,-122"/>
<text text-anchor="middle" x="561" y="-99.8" font-family="Times,serif" font-size="14.00">SnackbarComponent</text>
</g>
<!-- SnackbarComponent&#45;&gt;MixerModule -->
<g id="edge21" class="edge">
<title>SnackbarComponent&#45;&gt;MixerModule</title>
<path fill="none" stroke="black" d="M561,-122.09C561,-145.13 561,-182 561,-182 561,-182 3603.18,-182 3603.18,-182"/>
<polygon fill="black" stroke="black" points="3603.18,-185.5 3613.18,-182 3603.18,-178.5 3603.18,-185.5"/>
</g>
<!-- SelectionComponent -->
<g id="node22" class="node">
<title>SelectionComponent</title>
<polygon fill="#ffffb3" stroke="black" points="476.93,-122 343.07,-122 343.07,-86 476.93,-86 476.93,-122"/>
<text text-anchor="middle" x="410" y="-99.8" font-family="Times,serif" font-size="14.00">SelectionComponent</text>
</g>
<!-- SelectionComponent&#45;&gt;MixerModule -->
<g id="edge22" class="edge">
<title>SelectionComponent&#45;&gt;MixerModule</title>
<path fill="none" stroke="black" d="M410,-122.32C410,-145.66 410,-183 410,-183 410,-183 3603.12,-183 3603.12,-183"/>
<polygon fill="black" stroke="black" points="3603.12,-186.5 3613.12,-183 3603.12,-179.5 3603.12,-186.5"/>
</g>
<!-- OperationComponent -->
<g id="node23" class="node">
<title>OperationComponent</title>
<polygon fill="#ffffb3" stroke="black" points="325.81,-122 188.19,-122 188.19,-86 325.81,-86 325.81,-122"/>
<text text-anchor="middle" x="257" y="-99.8" font-family="Times,serif" font-size="14.00">OperationComponent</text>
</g>
<!-- OperationComponent&#45;&gt;MixerModule -->
<g id="edge23" class="edge">
<title>OperationComponent&#45;&gt;MixerModule</title>
<path fill="none" stroke="black" d="M257,-122.38C257,-146.28 257,-185 257,-185 257,-185 3603.19,-185 3603.19,-185"/>
<polygon fill="black" stroke="black" points="3603.19,-188.5 3613.19,-185 3603.19,-181.5 3603.19,-188.5"/>
</g>
<!-- ConnectionComponent -->
<g id="node24" class="node">
<title>ConnectionComponent</title>
<polygon fill="#ffffb3" stroke="black" points="169.88,-122 24.12,-122 24.12,-86 169.88,-86 169.88,-122"/>
<text text-anchor="middle" x="97" y="-99.8" font-family="Times,serif" font-size="14.00">ConnectionComponent</text>
</g>
<!-- ConnectionComponent&#45;&gt;MixerModule -->
<g id="edge24" class="edge">
<title>ConnectionComponent&#45;&gt;MixerModule</title>
<path fill="none" stroke="black" d="M97,-122.2C97,-146.36 97,-186 97,-186 97,-186 3602.99,-186 3602.99,-186"/>
<polygon fill="black" stroke="black" points="3602.99,-189.5 3612.99,-186 3602.99,-182.5 3602.99,-189.5"/>
</g>
<!-- CommonModule -->
<g id="node26" class="node">
<title>CommonModule</title>
<polygon fill="#8dd3c7" stroke="black" points="7460.67,-122 7457.67,-126 7436.67,-126 7433.67,-122 7349.33,-122 7349.33,-86 7460.67,-86 7460.67,-122"/>
<text text-anchor="middle" x="7405" y="-99.8" font-family="Times,serif" font-size="14.00">CommonModule</text>
</g>
<!-- CommonModule&#45;&gt;MixerModule -->
<g id="edge25" class="edge">
<title>CommonModule&#45;&gt;MixerModule</title>
<path fill="none" stroke="black" d="M7405,-122.2C7405,-146.36 7405,-186 7405,-186 7405,-186 3717.01,-186 3717.01,-186"/>
<polygon fill="black" stroke="black" points="3717.01,-182.5 3707.01,-186 3717.01,-189.5 3717.01,-182.5"/>
</g>
<!-- CoreModule -->
<g id="node27" class="node">
<title>CoreModule</title>
<polygon fill="#8dd3c7" stroke="black" points="7331.26,-122 7328.26,-126 7307.26,-126 7304.26,-122 7244.74,-122 7244.74,-86 7331.26,-86 7331.26,-122"/>
<text text-anchor="middle" x="7288" y="-99.8" font-family="Times,serif" font-size="14.00">CoreModule</text>
</g>
<!-- CoreModule&#45;&gt;MixerModule -->
<g id="edge26" class="edge">
<title>CoreModule&#45;&gt;MixerModule</title>
<path fill="none" stroke="black" d="M7288,-122.38C7288,-146.28 7288,-185 7288,-185 7288,-185 3716.86,-185 3716.86,-185"/>
<polygon fill="black" stroke="black" points="3716.86,-181.5 3706.86,-185 3716.86,-188.5 3716.86,-181.5"/>
</g>
<!-- FormsModule -->
<g id="node28" class="node">
<title>FormsModule</title>
<polygon fill="#8dd3c7" stroke="black" points="7226.83,-122 7223.83,-126 7202.83,-126 7199.83,-122 7131.17,-122 7131.17,-86 7226.83,-86 7226.83,-122"/>
<text text-anchor="middle" x="7179" y="-99.8" font-family="Times,serif" font-size="14.00">FormsModule</text>
</g>
<!-- FormsModule&#45;&gt;MixerModule -->
<g id="edge27" class="edge">
<title>FormsModule&#45;&gt;MixerModule</title>
<path fill="none" stroke="black" d="M7179,-122.32C7179,-145.66 7179,-183 7179,-183 7179,-183 3717.08,-183 3717.08,-183"/>
<polygon fill="black" stroke="black" points="3717.08,-179.5 3707.08,-183 3717.08,-186.5 3717.08,-179.5"/>
</g>
<!-- ReactiveFormsModule -->
<g id="node29" class="node">
<title>ReactiveFormsModule</title>
<polygon fill="#8dd3c7" stroke="black" points="7113.3,-122 7110.3,-126 7089.3,-126 7086.3,-122 6968.7,-122 6968.7,-86 7113.3,-86 7113.3,-122"/>
<text text-anchor="middle" x="7041" y="-99.8" font-family="Times,serif" font-size="14.00">ReactiveFormsModule</text>
</g>
<!-- ReactiveFormsModule&#45;&gt;MixerModule -->
<g id="edge28" class="edge">
<title>ReactiveFormsModule&#45;&gt;MixerModule</title>
<path fill="none" stroke="black" d="M7041,-122.09C7041,-145.13 7041,-182 7041,-182 7041,-182 3716.83,-182 3716.83,-182"/>
<polygon fill="black" stroke="black" points="3716.83,-178.5 3706.83,-182 3716.83,-185.5 3716.83,-178.5"/>
</g>
<!-- MatAutocompleteModule -->
<g id="node30" class="node">
<title>MatAutocompleteModule</title>
<polygon fill="#8dd3c7" stroke="black" points="6950.91,-122 6947.91,-126 6926.91,-126 6923.91,-122 6789.09,-122 6789.09,-86 6950.91,-86 6950.91,-122"/>
<text text-anchor="middle" x="6870" y="-99.8" font-family="Times,serif" font-size="14.00">MatAutocompleteModule</text>
</g>
<!-- MatAutocompleteModule&#45;&gt;MixerModule -->
<g id="edge29" class="edge">
<title>MatAutocompleteModule&#45;&gt;MixerModule</title>
<path fill="none" stroke="black" d="M6870,-122.25C6870,-145.02 6870,-181 6870,-181 6870,-181 3716.93,-181 3716.93,-181"/>
<polygon fill="black" stroke="black" points="3716.93,-177.5 3706.93,-181 3716.93,-184.5 3716.93,-177.5"/>
</g>
<!-- MatButtonModule -->
<g id="node31" class="node">
<title>MatButtonModule</title>
<polygon fill="#8dd3c7" stroke="black" points="6771.22,-122 6768.22,-126 6747.22,-126 6744.22,-122 6650.78,-122 6650.78,-86 6771.22,-86 6771.22,-122"/>
<text text-anchor="middle" x="6711" y="-99.8" font-family="Times,serif" font-size="14.00">MatButtonModule</text>
</g>
<!-- MatButtonModule&#45;&gt;MixerModule -->
<g id="edge30" class="edge">
<title>MatButtonModule&#45;&gt;MixerModule</title>
<path fill="none" stroke="black" d="M6711,-122.16C6711,-144.35 6711,-179 6711,-179 6711,-179 3717.01,-179 3717.01,-179"/>
<polygon fill="black" stroke="black" points="3717.01,-175.5 3707.01,-179 3717.01,-182.5 3717.01,-175.5"/>
</g>
<!-- MatButtonToggleModule -->
<g id="node32" class="node">
<title>MatButtonToggleModule</title>
<polygon fill="#8dd3c7" stroke="black" points="6632.88,-122 6629.88,-126 6608.88,-126 6605.88,-122 6473.12,-122 6473.12,-86 6632.88,-86 6632.88,-122"/>
<text text-anchor="middle" x="6553" y="-99.8" font-family="Times,serif" font-size="14.00">MatButtonToggleModule</text>
</g>
<!-- MatButtonToggleModule&#45;&gt;MixerModule -->
<g id="edge31" class="edge">
<title>MatButtonToggleModule&#45;&gt;MixerModule</title>
<path fill="none" stroke="black" d="M6553,-122.29C6553,-144.21 6553,-178 6553,-178 6553,-178 3716.91,-178 3716.91,-178"/>
<polygon fill="black" stroke="black" points="3716.91,-174.5 3706.91,-178 3716.91,-181.5 3716.91,-174.5"/>
</g>
<!-- MatSlideToggleModule -->
<g id="node33" class="node">
<title>MatSlideToggleModule</title>
<polygon fill="#8dd3c7" stroke="black" points="6455.04,-122 6452.04,-126 6431.04,-126 6428.04,-122 6304.96,-122 6304.96,-86 6455.04,-86 6455.04,-122"/>
<text text-anchor="middle" x="6380" y="-99.8" font-family="Times,serif" font-size="14.00">MatSlideToggleModule</text>
</g>
<!-- MatSlideToggleModule&#45;&gt;MixerModule -->
<g id="edge32" class="edge">
<title>MatSlideToggleModule&#45;&gt;MixerModule</title>
<path fill="none" stroke="black" d="M6380,-122.04C6380,-143.66 6380,-177 6380,-177 6380,-177 3716.92,-177 3716.92,-177"/>
<polygon fill="black" stroke="black" points="3716.92,-173.5 3706.92,-177 3716.92,-180.5 3716.92,-173.5"/>
</g>
<!-- MatCardModule -->
<g id="node34" class="node">
<title>MatCardModule</title>
<polygon fill="#8dd3c7" stroke="black" points="6286.81,-122 6283.81,-126 6262.81,-126 6259.81,-122 6177.19,-122 6177.19,-86 6286.81,-86 6286.81,-122"/>
<text text-anchor="middle" x="6232" y="-99.8" font-family="Times,serif" font-size="14.00">MatCardModule</text>
</g>
<!-- MatCardModule&#45;&gt;MixerModule -->
<g id="edge33" class="edge">
<title>MatCardModule&#45;&gt;MixerModule</title>
<path fill="none" stroke="black" d="M6232,-122.28C6232,-143.32 6232,-175 6232,-175 6232,-175 3716.84,-175 3716.84,-175"/>
<polygon fill="black" stroke="black" points="3716.84,-171.5 3706.84,-175 3716.84,-178.5 3716.84,-171.5"/>
</g>
<!-- MatCheckboxModule -->
<g id="node35" class="node">
<title>MatCheckboxModule</title>
<polygon fill="#8dd3c7" stroke="black" points="6159.37,-122 6156.37,-126 6135.37,-126 6132.37,-122 6020.63,-122 6020.63,-86 6159.37,-86 6159.37,-122"/>
<text text-anchor="middle" x="6090" y="-99.8" font-family="Times,serif" font-size="14.00">MatCheckboxModule</text>
</g>
<!-- MatCheckboxModule&#45;&gt;MixerModule -->
<g id="edge34" class="edge">
<title>MatCheckboxModule&#45;&gt;MixerModule</title>
<path fill="none" stroke="black" d="M6090,-122.03C6090,-142.77 6090,-174 6090,-174 6090,-174 3716.91,-174 3716.91,-174"/>
<polygon fill="black" stroke="black" points="3716.91,-170.5 3706.91,-174 3716.91,-177.5 3716.91,-170.5"/>
</g>
<!-- MatDialogModule -->
<g id="node36" class="node">
<title>MatDialogModule</title>
<polygon fill="#8dd3c7" stroke="black" points="6002.2,-122 5999.2,-126 5978.2,-126 5975.2,-122 5881.8,-122 5881.8,-86 6002.2,-86 6002.2,-122"/>
<text text-anchor="middle" x="5942" y="-99.8" font-family="Times,serif" font-size="14.00">MatDialogModule</text>
</g>
<!-- MatDialogModule&#45;&gt;MixerModule -->
<g id="edge35" class="edge">
<title>MatDialogModule&#45;&gt;MixerModule</title>
<path fill="none" stroke="black" d="M5942,-122.13C5942,-142.57 5942,-173 5942,-173 5942,-173 3716.88,-173 3716.88,-173"/>
<polygon fill="black" stroke="black" points="3716.88,-169.5 3706.88,-173 3716.88,-176.5 3716.88,-169.5"/>
</g>
<!-- MatDividerModule -->
<g id="node37" class="node">
<title>MatDividerModule</title>
<polygon fill="#8dd3c7" stroke="black" points="5863.36,-122 5860.36,-126 5839.36,-126 5836.36,-122 5738.64,-122 5738.64,-86 5863.36,-86 5863.36,-122"/>
<text text-anchor="middle" x="5801" y="-99.8" font-family="Times,serif" font-size="14.00">MatDividerModule</text>
</g>
<!-- MatDividerModule&#45;&gt;MixerModule -->
<g id="edge36" class="edge">
<title>MatDividerModule&#45;&gt;MixerModule</title>
<path fill="none" stroke="black" d="M5801,-122.31C5801,-142.15 5801,-171 5801,-171 5801,-171 3716.96,-171 3716.96,-171"/>
<polygon fill="black" stroke="black" points="3716.96,-167.5 3706.96,-171 3716.96,-174.5 3716.96,-167.5"/>
</g>
<!-- MatExpansionModule -->
<g id="node38" class="node">
<title>MatExpansionModule</title>
<polygon fill="#8dd3c7" stroke="black" points="5720.7,-122 5717.7,-126 5696.7,-126 5693.7,-122 5579.3,-122 5579.3,-86 5720.7,-86 5720.7,-122"/>
<text text-anchor="middle" x="5650" y="-99.8" font-family="Times,serif" font-size="14.00">MatExpansionModule</text>
</g>
<!-- MatExpansionModule&#45;&gt;MixerModule -->
<g id="edge37" class="edge">
<title>MatExpansionModule&#45;&gt;MixerModule</title>
<path fill="none" stroke="black" d="M5650,-122.03C5650,-141.58 5650,-170 5650,-170 5650,-170 3717.23,-170 3717.23,-170"/>
<polygon fill="black" stroke="black" points="3717.23,-166.5 3707.23,-170 3717.23,-173.5 3717.23,-166.5"/>
</g>
<!-- MatFormFieldModule -->
<g id="node39" class="node">
<title>MatFormFieldModule</title>
<polygon fill="#8dd3c7" stroke="black" points="5561.71,-122 5558.71,-126 5537.71,-126 5534.71,-122 5420.29,-122 5420.29,-86 5561.71,-86 5561.71,-122"/>
<text text-anchor="middle" x="5491" y="-99.8" font-family="Times,serif" font-size="14.00">MatFormFieldModule</text>
</g>
<!-- MatFormFieldModule&#45;&gt;MixerModule -->
<g id="edge38" class="edge">
<title>MatFormFieldModule&#45;&gt;MixerModule</title>
<path fill="none" stroke="black" d="M5491,-122.11C5491,-141.34 5491,-169 5491,-169 5491,-169 3717.1,-169 3717.1,-169"/>
<polygon fill="black" stroke="black" points="3717.1,-165.5 3707.1,-169 3717.1,-172.5 3717.1,-165.5"/>
</g>
<!-- MatIconModule -->
<g id="node40" class="node">
<title>MatIconModule</title>
<polygon fill="#8dd3c7" stroke="black" points="5402.47,-122 5399.47,-126 5378.47,-126 5375.47,-122 5295.53,-122 5295.53,-86 5402.47,-86 5402.47,-122"/>
<text text-anchor="middle" x="5349" y="-99.8" font-family="Times,serif" font-size="14.00">MatIconModule</text>
</g>
<!-- MatIconModule&#45;&gt;MixerModule -->
<g id="edge39" class="edge">
<title>MatIconModule&#45;&gt;MixerModule</title>
<path fill="none" stroke="black" d="M5349,-122.22C5349,-140.83 5349,-167 5349,-167 5349,-167 3716.94,-167 3716.94,-167"/>
<polygon fill="black" stroke="black" points="3716.94,-163.5 3706.94,-167 3716.94,-170.5 3716.94,-163.5"/>
</g>
<!-- MatInputModule -->
<g id="node41" class="node">
<title>MatInputModule</title>
<polygon fill="#8dd3c7" stroke="black" points="5277.65,-122 5274.65,-126 5253.65,-126 5250.65,-122 5166.35,-122 5166.35,-86 5277.65,-86 5277.65,-122"/>
<text text-anchor="middle" x="5222" y="-99.8" font-family="Times,serif" font-size="14.00">MatInputModule</text>
</g>
<!-- MatInputModule&#45;&gt;MixerModule -->
<g id="edge40" class="edge">
<title>MatInputModule&#45;&gt;MixerModule</title>
<path fill="none" stroke="black" d="M5222,-122.27C5222,-140.56 5222,-166 5222,-166 5222,-166 3717.17,-166 3717.17,-166"/>
<polygon fill="black" stroke="black" points="3717.17,-162.5 3707.17,-166 3717.17,-169.5 3717.17,-162.5"/>
</g>
<!-- MatListModule -->
<g id="node42" class="node">
<title>MatListModule</title>
<polygon fill="#8dd3c7" stroke="black" points="5147.88,-122 5144.88,-126 5123.88,-126 5120.88,-122 5044.12,-122 5044.12,-86 5147.88,-86 5147.88,-122"/>
<text text-anchor="middle" x="5096" y="-99.8" font-family="Times,serif" font-size="14.00">MatListModule</text>
</g>
<!-- MatListModule&#45;&gt;MixerModule -->
<g id="edge41" class="edge">
<title>MatListModule&#45;&gt;MixerModule</title>
<path fill="none" stroke="black" d="M5096,-122.3C5096,-140.27 5096,-165 5096,-165 5096,-165 3716.96,-165 3716.96,-165"/>
<polygon fill="black" stroke="black" points="3716.96,-161.5 3706.96,-165 3716.96,-168.5 3716.96,-161.5"/>
</g>
<!-- MatMenuModule -->
<g id="node43" class="node">
<title>MatMenuModule</title>
<polygon fill="#8dd3c7" stroke="black" points="5026.26,-122 5023.26,-126 5002.26,-126 4999.26,-122 4911.74,-122 4911.74,-86 5026.26,-86 5026.26,-122"/>
<text text-anchor="middle" x="4969" y="-99.8" font-family="Times,serif" font-size="14.00">MatMenuModule</text>
</g>
<!-- MatMenuModule&#45;&gt;MixerModule -->
<g id="edge42" class="edge">
<title>MatMenuModule&#45;&gt;MixerModule</title>
<path fill="none" stroke="black" d="M4969,-122.02C4969,-139.37 4969,-163 4969,-163 4969,-163 3716.97,-163 3716.97,-163"/>
<polygon fill="black" stroke="black" points="3716.97,-159.5 3706.97,-163 3716.97,-166.5 3716.97,-159.5"/>
</g>
<!-- MatRadioModule -->
<g id="node44" class="node">
<title>MatRadioModule</title>
<polygon fill="#8dd3c7" stroke="black" points="4893.54,-122 4890.54,-126 4869.54,-126 4866.54,-122 4778.46,-122 4778.46,-86 4893.54,-86 4893.54,-122"/>
<text text-anchor="middle" x="4836" y="-99.8" font-family="Times,serif" font-size="14.00">MatRadioModule</text>
</g>
<!-- MatRadioModule&#45;&gt;MixerModule -->
<g id="edge43" class="edge">
<title>MatRadioModule&#45;&gt;MixerModule</title>
<path fill="none" stroke="black" d="M4836,-122.03C4836,-139.06 4836,-162 4836,-162 4836,-162 3716.83,-162 3716.83,-162"/>
<polygon fill="black" stroke="black" points="3716.83,-158.5 3706.83,-162 3716.83,-165.5 3716.83,-158.5"/>
</g>
<!-- MatSelectModule -->
<g id="node45" class="node">
<title>MatSelectModule</title>
<polygon fill="#8dd3c7" stroke="black" points="4760.31,-122 4757.31,-126 4736.31,-126 4733.31,-122 4643.69,-122 4643.69,-86 4760.31,-86 4760.31,-122"/>
<text text-anchor="middle" x="4702" y="-99.8" font-family="Times,serif" font-size="14.00">MatSelectModule</text>
</g>
<!-- MatSelectModule&#45;&gt;MixerModule -->
<g id="edge44" class="edge">
<title>MatSelectModule&#45;&gt;MixerModule</title>
<path fill="none" stroke="black" d="M4702,-122.04C4702,-138.73 4702,-161 4702,-161 4702,-161 3716.8,-161 3716.8,-161"/>
<polygon fill="black" stroke="black" points="3716.8,-157.5 3706.8,-161 3716.8,-164.5 3716.8,-157.5"/>
</g>
<!-- MatSidenavModule -->
<g id="node46" class="node">
<title>MatSidenavModule</title>
<polygon fill="#8dd3c7" stroke="black" points="4625.7,-122 4622.7,-126 4601.7,-126 4598.7,-122 4498.3,-122 4498.3,-86 4625.7,-86 4625.7,-122"/>
<text text-anchor="middle" x="4562" y="-99.8" font-family="Times,serif" font-size="14.00">MatSidenavModule</text>
</g>
<!-- MatSidenavModule&#45;&gt;MixerModule -->
<g id="edge45" class="edge">
<title>MatSidenavModule&#45;&gt;MixerModule</title>
<path fill="none" stroke="black" d="M4562,-122.01C4562,-138.05 4562,-159 4562,-159 4562,-159 3716.91,-159 3716.91,-159"/>
<polygon fill="black" stroke="black" points="3716.91,-155.5 3706.91,-159 3716.91,-162.5 3716.91,-155.5"/>
</g>
<!-- MatSliderModule -->
<g id="node47" class="node">
<title>MatSliderModule</title>
<polygon fill="#8dd3c7" stroke="black" points="4480.54,-122 4477.54,-126 4456.54,-126 4453.54,-122 4365.46,-122 4365.46,-86 4480.54,-86 4480.54,-122"/>
<text text-anchor="middle" x="4423" y="-99.8" font-family="Times,serif" font-size="14.00">MatSliderModule</text>
</g>
<!-- MatSliderModule&#45;&gt;MixerModule -->
<g id="edge46" class="edge">
<title>MatSliderModule&#45;&gt;MixerModule</title>
<path fill="none" stroke="black" d="M4423,-122.28C4423,-137.95 4423,-158 4423,-158 4423,-158 3716.87,-158 3716.87,-158"/>
<polygon fill="black" stroke="black" points="3716.87,-154.5 3706.87,-158 3716.87,-161.5 3716.87,-154.5"/>
</g>
<!-- MatTabsModule -->
<g id="node48" class="node">
<title>MatTabsModule</title>
<polygon fill="#8dd3c7" stroke="black" points="4347.81,-122 4344.81,-126 4323.81,-126 4320.81,-122 4238.19,-122 4238.19,-86 4347.81,-86 4347.81,-122"/>
<text text-anchor="middle" x="4293" y="-99.8" font-family="Times,serif" font-size="14.00">MatTabsModule</text>
</g>
<!-- MatTabsModule&#45;&gt;MixerModule -->
<g id="edge47" class="edge">
<title>MatTabsModule&#45;&gt;MixerModule</title>
<path fill="none" stroke="black" d="M4293,-122.24C4293,-137.57 4293,-157 4293,-157 4293,-157 3716.8,-157 3716.8,-157"/>
<polygon fill="black" stroke="black" points="3716.8,-153.5 3706.8,-157 3716.8,-160.5 3716.8,-153.5"/>
</g>
<!-- MatToolbarModule -->
<g id="node49" class="node">
<title>MatToolbarModule</title>
<polygon fill="#8dd3c7" stroke="black" points="4220.42,-122 4217.42,-126 4196.42,-126 4193.42,-122 4093.58,-122 4093.58,-86 4220.42,-86 4220.42,-122"/>
<text text-anchor="middle" x="4157" y="-99.8" font-family="Times,serif" font-size="14.00">MatToolbarModule</text>
</g>
<!-- MatToolbarModule&#45;&gt;MixerModule -->
<g id="edge48" class="edge">
<title>MatToolbarModule&#45;&gt;MixerModule</title>
<path fill="none" stroke="black" d="M4157,-122.12C4157,-136.78 4157,-155 4157,-155 4157,-155 3717.2,-155 3717.2,-155"/>
<polygon fill="black" stroke="black" points="3717.2,-151.5 3707.2,-155 3717.2,-158.5 3717.2,-151.5"/>
</g>
<!-- MatTooltipModule -->
<g id="node50" class="node">
<title>MatTooltipModule</title>
<polygon fill="#8dd3c7" stroke="black" points="4075.82,-122 4072.82,-126 4051.82,-126 4048.82,-122 3952.18,-122 3952.18,-86 4075.82,-86 4075.82,-122"/>
<text text-anchor="middle" x="4014" y="-99.8" font-family="Times,serif" font-size="14.00">MatTooltipModule</text>
</g>
<!-- MatTooltipModule&#45;&gt;MixerModule -->
<g id="edge49" class="edge">
<title>MatTooltipModule&#45;&gt;MixerModule</title>
<path fill="none" stroke="black" d="M4014,-122.05C4014,-136.37 4014,-154 4014,-154 4014,-154 3717.01,-154 3717.01,-154"/>
<polygon fill="black" stroke="black" points="3717.01,-150.5 3707.01,-154 3717.01,-157.5 3717.01,-150.5"/>
</g>
<!-- ColorPickerModule -->
<g id="node51" class="node">
<title>ColorPickerModule</title>
<polygon fill="#8dd3c7" stroke="black" points="3934.7,-122 3931.7,-126 3910.7,-126 3907.7,-122 3807.3,-122 3807.3,-86 3934.7,-86 3934.7,-122"/>
<text text-anchor="middle" x="3871" y="-99.8" font-family="Times,serif" font-size="14.00">ColorPickerModule</text>
</g>
<!-- ColorPickerModule&#45;&gt;MixerModule -->
<g id="edge50" class="edge">
<title>ColorPickerModule&#45;&gt;MixerModule</title>
<path fill="none" stroke="black" d="M3871,-122.25C3871,-136.18 3871,-153 3871,-153 3871,-153 3716.83,-153 3716.83,-153"/>
<polygon fill="black" stroke="black" points="3716.83,-149.5 3706.83,-153 3716.83,-156.5 3716.83,-149.5"/>
</g>
<!-- MatChipsModule -->
<g id="node52" class="node">
<title>MatChipsModule</title>
<polygon fill="#8dd3c7" stroke="black" points="3789.27,-122 3786.27,-126 3765.27,-126 3762.27,-122 3674.73,-122 3674.73,-86 3789.27,-86 3789.27,-122"/>
<text text-anchor="middle" x="3732" y="-99.8" font-family="Times,serif" font-size="14.00">MatChipsModule</text>
</g>
<!-- MatChipsModule&#45;&gt;MixerModule -->
<g id="edge51" class="edge">
<title>MatChipsModule&#45;&gt;MixerModule</title>
<path fill="none" stroke="black" d="M3690.75,-122.11C3690.75,-122.11 3690.75,-140.99 3690.75,-140.99"/>
<polygon fill="black" stroke="black" points="3687.25,-140.99 3690.75,-150.99 3694.25,-140.99 3687.25,-140.99"/>
</g>
<!-- MatSnackBarModule -->
<g id="node53" class="node">
<title>MatSnackBarModule</title>
<polygon fill="#8dd3c7" stroke="black" points="3656.02,-122 3653.02,-126 3632.02,-126 3629.02,-122 3519.98,-122 3519.98,-86 3656.02,-86 3656.02,-122"/>
<text text-anchor="middle" x="3588" y="-99.8" font-family="Times,serif" font-size="14.00">MatSnackBarModule</text>
</g>
<!-- MatSnackBarModule&#45;&gt;MixerModule -->
<g id="edge52" class="edge">
<title>MatSnackBarModule&#45;&gt;MixerModule</title>
<path fill="none" stroke="black" d="M3634.69,-122.11C3634.69,-122.11 3634.69,-140.99 3634.69,-140.99"/>
<polygon fill="black" stroke="black" points="3631.19,-140.99 3634.69,-150.99 3638.19,-140.99 3631.19,-140.99"/>
</g>
<!-- ScrollingModule -->
<g id="node54" class="node">
<title>ScrollingModule</title>
<polygon fill="#8dd3c7" stroke="black" points="3501.38,-122 3498.38,-126 3477.38,-126 3474.38,-122 3390.62,-122 3390.62,-86 3501.38,-86 3501.38,-122"/>
<text text-anchor="middle" x="3446" y="-99.8" font-family="Times,serif" font-size="14.00">ScrollingModule</text>
</g>
<!-- ScrollingModule&#45;&gt;MixerModule -->
<g id="edge53" class="edge">
<title>ScrollingModule&#45;&gt;MixerModule</title>
<path fill="none" stroke="black" d="M3446,-122.25C3446,-136.18 3446,-153 3446,-153 3446,-153 3603.04,-153 3603.04,-153"/>
<polygon fill="black" stroke="black" points="3603.04,-156.5 3613.04,-153 3603.04,-149.5 3603.04,-156.5"/>
</g>
<!-- DragDropModule -->
<g id="node55" class="node">
<title>DragDropModule</title>
<polygon fill="#8dd3c7" stroke="black" points="3372.3,-122 3369.3,-126 3348.3,-126 3345.3,-122 3255.7,-122 3255.7,-86 3372.3,-86 3372.3,-122"/>
<text text-anchor="middle" x="3314" y="-99.8" font-family="Times,serif" font-size="14.00">DragDropModule</text>
</g>
<!-- DragDropModule&#45;&gt;MixerModule -->
<g id="edge54" class="edge">
<title>DragDropModule&#45;&gt;MixerModule</title>
<path fill="none" stroke="black" d="M3314,-122.05C3314,-136.37 3314,-154 3314,-154 3314,-154 3602.98,-154 3602.98,-154"/>
<polygon fill="black" stroke="black" points="3602.98,-157.5 3612.98,-154 3602.98,-150.5 3602.98,-157.5"/>
</g>
</g>
</svg>
