<?xml version="1.0" encoding="UTF-8" standalone="no"?>
<!DOCTYPE svg PUBLIC "-//W3C//DTD SVG 1.1//EN"
 "http://www.w3.org/Graphics/SVG/1.1/DTD/svg11.dtd">
<!-- Generated by graphviz version 2.47.0 (20210316.0004)
 -->
<!-- Title: dependencies Pages: 1 -->
<svg width="3187pt" height="276pt"
 viewBox="0.00 0.00 3187.00 276.00" xmlns="http://www.w3.org/2000/svg" xmlns:xlink="http://www.w3.org/1999/xlink">
<g id="graph0" class="graph" transform="scale(1 1) rotate(0) translate(4 272)">
<title>dependencies</title>
<polygon fill="white" stroke="transparent" points="-4,4 -4,-272 3183,-272 3183,4 -4,4"/>
<text text-anchor="start" x="1568.51" y="-42.4" font-family="Times-12" font-weight="bold" font-size="14.00">Legend</text>
<polygon fill="#ffffb3" stroke="transparent" points="1355.5,-10 1355.5,-30 1375.5,-30 1375.5,-10 1355.5,-10"/>
<text text-anchor="start" x="1379.13" y="-15.4" font-family="Times-12" font-size="14.00"> &#160;Declarations</text>
<polygon fill="#8dd3c7" stroke="transparent" points="1468.5,-10 1468.5,-30 1488.5,-30 1488.5,-10 1468.5,-10"/>
<text text-anchor="start" x="1492.23" y="-15.4" font-family="Times-12" font-size="14.00"> &#160;Module</text>
<polygon fill="#80b1d3" stroke="transparent" points="1554.5,-10 1554.5,-30 1574.5,-30 1574.5,-10 1554.5,-10"/>
<text text-anchor="start" x="1578.28" y="-15.4" font-family="Times-12" font-size="14.00"> &#160;Bootstrap</text>
<polygon fill="#fdb462" stroke="transparent" points="1651.5,-10 1651.5,-30 1671.5,-30 1671.5,-10 1651.5,-10"/>
<text text-anchor="start" x="1675.17" y="-15.4" font-family="Times-12" font-size="14.00"> &#160;Providers</text>
<polygon fill="#fb8072" stroke="transparent" points="1747.5,-10 1747.5,-30 1767.5,-30 1767.5,-10 1747.5,-10"/>
<text text-anchor="start" x="1771.23" y="-15.4" font-family="Times-12" font-size="14.00"> &#160;Exports</text>
<g id="clust1" class="cluster">
<title>cluster_MixerModule</title>
<polygon fill="none" stroke="black" stroke-dasharray="1,5" points="8,-70 8,-260 3171,-260 3171,-70 8,-70"/>
</g>
<g id="clust3" class="cluster">
<title>cluster_MixerModule_MixerComponent_providers</title>
<polygon fill="none" stroke="black" points="2407,-78 2407,-195 3163,-195 3163,-78 2407,-78"/>
</g>
<g id="clust2" class="cluster">
<title>cluster_MixerModule_declarations</title>
<polygon fill="none" stroke="black" points="268,-143 268,-195 2399,-195 2399,-143 268,-143"/>
</g>
<g id="clust19" class="cluster">
<title>cluster_MixerModule_imports</title>
<polygon fill="none" stroke="black" points="16,-143 16,-195 260,-195 260,-143 16,-143"/>
</g>
<!-- MixerComponent -->
<g id="node1" class="node">
<title>MixerComponent</title>
<polygon fill="#ffffb3" stroke="black" points="2686.54,-187 2571.46,-187 2571.46,-151 2686.54,-151 2686.54,-187"/>
<text text-anchor="middle" x="2629" y="-164.8" font-family="Times,serif" font-size="14.00">MixerComponent</text>
</g>
<!-- MixerModule -->
<g id="node17" class="node">
<title>MixerModule</title>
<polygon fill="#8dd3c7" stroke="black" points="1258.76,-252 1255.76,-256 1234.76,-256 1231.76,-252 1165.24,-252 1165.24,-216 1258.76,-216 1258.76,-252"/>
<text text-anchor="middle" x="1212" y="-229.8" font-family="Times,serif" font-size="14.00">MixerModule</text>
</g>
<!-- MixerComponent&#45;&gt;MixerModule -->
<g id="edge1" class="edge">
<title>MixerComponent&#45;&gt;MixerModule</title>
<path fill="none" stroke="black" d="M2629,-187.32C2629,-210.66 2629,-248 2629,-248 2629,-248 1269.15,-248 1269.15,-248"/>
<polygon fill="black" stroke="black" points="1269.15,-244.5 1259.15,-248 1269.15,-251.5 1269.15,-244.5"/>
</g>
<!-- MixerViewComponent -->
<g id="node2" class="node">
<title>MixerViewComponent</title>
<polygon fill="#ffffb3" stroke="black" points="2390.86,-187 2245.14,-187 2245.14,-151 2390.86,-151 2390.86,-187"/>
<text text-anchor="middle" x="2318" y="-164.8" font-family="Times,serif" font-size="14.00">MixerViewComponent</text>
</g>
<!-- MixerViewComponent&#45;&gt;MixerModule -->
<g id="edge3" class="edge">
<title>MixerViewComponent&#45;&gt;MixerModule</title>
<path fill="none" stroke="black" d="M2318,-187.16C2318,-209.35 2318,-244 2318,-244 2318,-244 1268.82,-244 1268.82,-244"/>
<polygon fill="black" stroke="black" points="1268.82,-240.5 1258.82,-244 1268.82,-247.5 1268.82,-240.5"/>
</g>
<!-- SubdraftComponent -->
<g id="node3" class="node">
<title>SubdraftComponent</title>
<polygon fill="#ffffb3" stroke="black" points="2226.54,-187 2097.46,-187 2097.46,-151 2226.54,-151 2226.54,-187"/>
<text text-anchor="middle" x="2162" y="-164.8" font-family="Times,serif" font-size="14.00">SubdraftComponent</text>
</g>
<!-- SubdraftComponent&#45;&gt;MixerModule -->
<g id="edge4" class="edge">
<title>SubdraftComponent&#45;&gt;MixerModule</title>
<path fill="none" stroke="black" d="M2162,-187.28C2162,-208.32 2162,-240 2162,-240 2162,-240 1268.79,-240 1268.79,-240"/>
<polygon fill="black" stroke="black" points="1268.79,-236.5 1258.79,-240 1268.79,-243.5 1268.79,-236.5"/>
</g>
<!-- PaletteComponent -->
<g id="node4" class="node">
<title>PaletteComponent</title>
<polygon fill="#ffffb3" stroke="black" points="2079.93,-187 1960.07,-187 1960.07,-151 2079.93,-151 2079.93,-187"/>
<text text-anchor="middle" x="2020" y="-164.8" font-family="Times,serif" font-size="14.00">PaletteComponent</text>
</g>
<!-- PaletteComponent&#45;&gt;MixerModule -->
<g id="edge5" class="edge">
<title>PaletteComponent&#45;&gt;MixerModule</title>
<path fill="none" stroke="black" d="M2020,-187.31C2020,-207.15 2020,-236 2020,-236 2020,-236 1268.93,-236 1268.93,-236"/>
<polygon fill="black" stroke="black" points="1268.93,-232.5 1258.93,-236 1268.93,-239.5 1268.93,-232.5"/>
</g>
<!-- SnackbarComponent -->
<g id="node5" class="node">
<title>SnackbarComponent</title>
<polygon fill="#ffffb3" stroke="black" points="1942.92,-187 1809.08,-187 1809.08,-151 1942.92,-151 1942.92,-187"/>
<text text-anchor="middle" x="1876" y="-164.8" font-family="Times,serif" font-size="14.00">SnackbarComponent</text>
</g>
<!-- SnackbarComponent&#45;&gt;MixerModule -->
<g id="edge6" class="edge">
<title>SnackbarComponent&#45;&gt;MixerModule</title>
<path fill="none" stroke="black" d="M1876,-187.22C1876,-205.83 1876,-232 1876,-232 1876,-232 1268.96,-232 1268.96,-232"/>
<polygon fill="black" stroke="black" points="1268.96,-228.5 1258.96,-232 1268.96,-235.5 1268.96,-228.5"/>
</g>
<!-- MarqueeComponent -->
<g id="node6" class="node">
<title>MarqueeComponent</title>
<polygon fill="#ffffb3" stroke="black" points="1791.58,-187 1660.42,-187 1660.42,-151 1791.58,-151 1791.58,-187"/>
<text text-anchor="middle" x="1726" y="-164.8" font-family="Times,serif" font-size="14.00">MarqueeComponent</text>
</g>
<!-- MarqueeComponent&#45;&gt;MixerModule -->
<g id="edge7" class="edge">
<title>MarqueeComponent&#45;&gt;MixerModule</title>
<path fill="none" stroke="black" d="M1726,-187.02C1726,-204.37 1726,-228 1726,-228 1726,-228 1268.98,-228 1268.98,-228"/>
<polygon fill="black" stroke="black" points="1268.98,-224.5 1258.98,-228 1268.98,-231.5 1268.98,-224.5"/>
</g>
<!-- OperationComponent -->
<g id="node7" class="node">
<title>OperationComponent</title>
<polygon fill="#ffffb3" stroke="black" points="1642.81,-187 1505.19,-187 1505.19,-151 1642.81,-151 1642.81,-187"/>
<text text-anchor="middle" x="1574" y="-164.8" font-family="Times,serif" font-size="14.00">OperationComponent</text>
</g>
<!-- OperationComponent&#45;&gt;MixerModule -->
<g id="edge8" class="edge">
<title>OperationComponent&#45;&gt;MixerModule</title>
<path fill="none" stroke="black" d="M1574,-187.01C1574,-203.05 1574,-224 1574,-224 1574,-224 1268.95,-224 1268.95,-224"/>
<polygon fill="black" stroke="black" points="1268.95,-220.5 1258.95,-224 1268.95,-227.5 1268.95,-220.5"/>
</g>
<!-- ConnectionComponent -->
<g id="node8" class="node">
<title>ConnectionComponent</title>
<polygon fill="#ffffb3" stroke="black" points="1486.88,-187 1341.12,-187 1341.12,-151 1486.88,-151 1486.88,-187"/>
<text text-anchor="middle" x="1414" y="-164.8" font-family="Times,serif" font-size="14.00">ConnectionComponent</text>
</g>
<!-- ConnectionComponent&#45;&gt;MixerModule -->
<g id="edge9" class="edge">
<title>ConnectionComponent&#45;&gt;MixerModule</title>
<path fill="none" stroke="black" d="M1414,-187.12C1414,-201.78 1414,-220 1414,-220 1414,-220 1268.85,-220 1268.85,-220"/>
<polygon fill="black" stroke="black" points="1268.85,-216.5 1258.85,-220 1268.85,-223.5 1268.85,-216.5"/>
</g>
<!-- OpsComponent -->
<g id="node9" class="node">
<title>OpsComponent</title>
<polygon fill="#ffffb3" stroke="black" points="1322.88,-187 1219.12,-187 1219.12,-151 1322.88,-151 1322.88,-187"/>
<text text-anchor="middle" x="1271" y="-164.8" font-family="Times,serif" font-size="14.00">OpsComponent</text>
</g>
<!-- OpsComponent&#45;&gt;MixerModule -->
<g id="edge10" class="edge">
<title>OpsComponent&#45;&gt;MixerModule</title>
<path fill="none" stroke="black" d="M1238.97,-187.11C1238.97,-187.11 1238.97,-205.99 1238.97,-205.99"/>
<polygon fill="black" stroke="black" points="1235.47,-205.99 1238.97,-215.99 1242.47,-205.99 1235.47,-205.99"/>
</g>
<!-- OpHelpModal -->
<g id="node10" class="node">
<title>OpHelpModal</title>
<polygon fill="#ffffb3" stroke="black" points="1201.37,-187 1104.63,-187 1104.63,-151 1201.37,-151 1201.37,-187"/>
<text text-anchor="middle" x="1153" y="-164.8" font-family="Times,serif" font-size="14.00">OpHelpModal</text>
</g>
<!-- OpHelpModal&#45;&gt;MixerModule -->
<g id="edge11" class="edge">
<title>OpHelpModal&#45;&gt;MixerModule</title>
<path fill="none" stroke="black" d="M1183.28,-187.11C1183.28,-187.11 1183.28,-205.99 1183.28,-205.99"/>
<polygon fill="black" stroke="black" points="1179.78,-205.99 1183.28,-215.99 1186.78,-205.99 1179.78,-205.99"/>
</g>
<!-- ImageComponent -->
<g id="node11" class="node">
<title>ImageComponent</title>
<polygon fill="#ffffb3" stroke="black" points="1086.31,-187 969.69,-187 969.69,-151 1086.31,-151 1086.31,-187"/>
<text text-anchor="middle" x="1028" y="-164.8" font-family="Times,serif" font-size="14.00">ImageComponent</text>
</g>
<!-- ImageComponent&#45;&gt;MixerModule -->
<g id="edge12" class="edge">
<title>ImageComponent&#45;&gt;MixerModule</title>
<path fill="none" stroke="black" d="M1028,-187.12C1028,-201.78 1028,-220 1028,-220 1028,-220 1155.09,-220 1155.09,-220"/>
<polygon fill="black" stroke="black" points="1155.09,-223.5 1165.09,-220 1155.09,-216.5 1155.09,-223.5"/>
</g>
<!-- NoteComponent -->
<g id="node12" class="node">
<title>NoteComponent</title>
<polygon fill="#ffffb3" stroke="black" points="952.05,-187 843.95,-187 843.95,-151 952.05,-151 952.05,-187"/>
<text text-anchor="middle" x="898" y="-164.8" font-family="Times,serif" font-size="14.00">NoteComponent</text>
</g>
<!-- NoteComponent&#45;&gt;MixerModule -->
<g id="edge13" class="edge">
<title>NoteComponent&#45;&gt;MixerModule</title>
<path fill="none" stroke="black" d="M898,-187.01C898,-203.05 898,-224 898,-224 898,-224 1154.99,-224 1154.99,-224"/>
<polygon fill="black" stroke="black" points="1154.99,-227.5 1164.99,-224 1154.99,-220.5 1154.99,-227.5"/>
</g>
<!-- ParameterComponent -->
<g id="node13" class="node">
<title>ParameterComponent</title>
<polygon fill="#ffffb3" stroke="black" points="826.08,-187 687.92,-187 687.92,-151 826.08,-151 826.08,-187"/>
<text text-anchor="middle" x="757" y="-164.8" font-family="Times,serif" font-size="14.00">ParameterComponent</text>
</g>
<!-- ParameterComponent&#45;&gt;MixerModule -->
<g id="edge14" class="edge">
<title>ParameterComponent&#45;&gt;MixerModule</title>
<path fill="none" stroke="black" d="M757,-187.02C757,-204.37 757,-228 757,-228 757,-228 1155.02,-228 1155.02,-228"/>
<polygon fill="black" stroke="black" points="1155.02,-231.5 1165.02,-228 1155.02,-224.5 1155.02,-231.5"/>
</g>
<!-- InletComponent -->
<g id="node14" class="node">
<title>InletComponent</title>
<polygon fill="#ffffb3" stroke="black" points="669.49,-187 562.51,-187 562.51,-151 669.49,-151 669.49,-187"/>
<text text-anchor="middle" x="616" y="-164.8" font-family="Times,serif" font-size="14.00">InletComponent</text>
</g>
<!-- InletComponent&#45;&gt;MixerModule -->
<g id="edge15" class="edge">
<title>InletComponent&#45;&gt;MixerModule</title>
<path fill="none" stroke="black" d="M616,-187.22C616,-205.83 616,-232 616,-232 616,-232 1155.23,-232 1155.23,-232"/>
<polygon fill="black" stroke="black" points="1155.23,-235.5 1165.23,-232 1155.23,-228.5 1155.23,-235.5"/>
</g>
<!-- DesignComponent -->
<g id="node15" class="node">
<title>DesignComponent</title>
<polygon fill="#ffffb3" stroke="black" points="544.49,-187 423.51,-187 423.51,-151 544.49,-151 544.49,-187"/>
<text text-anchor="middle" x="484" y="-164.8" font-family="Times,serif" font-size="14.00">DesignComponent</text>
</g>
<!-- DesignComponent&#45;&gt;MixerModule -->
<g id="edge16" class="edge">
<title>DesignComponent&#45;&gt;MixerModule</title>
<path fill="none" stroke="black" d="M484,-187.31C484,-207.15 484,-236 484,-236 484,-236 1155.07,-236 1155.07,-236"/>
<polygon fill="black" stroke="black" points="1155.07,-239.5 1165.07,-236 1155.07,-232.5 1155.07,-239.5"/>
</g>
<!-- QuickopComponent -->
<g id="node16" class="node">
<title>QuickopComponent</title>
<polygon fill="#ffffb3" stroke="black" points="405.54,-187 276.46,-187 276.46,-151 405.54,-151 405.54,-187"/>
<text text-anchor="middle" x="341" y="-164.8" font-family="Times,serif" font-size="14.00">QuickopComponent</text>
</g>
<!-- QuickopComponent&#45;&gt;MixerModule -->
<g id="edge17" class="edge">
<title>QuickopComponent&#45;&gt;MixerModule</title>
<path fill="none" stroke="black" d="M341,-187.28C341,-208.32 341,-240 341,-240 341,-240 1155.17,-240 1155.17,-240"/>
<polygon fill="black" stroke="black" points="1155.17,-243.5 1165.17,-240 1155.17,-236.5 1155.17,-243.5"/>
</g>
<!-- { provide: MAT_TOOLTIP_DEFAULT_OPTIONS, useValue: myCustomTooltipDefaults } -->
<g id="node18" class="node">
<title>{ provide: MAT_TOOLTIP_DEFAULT_OPTIONS, useValue: myCustomTooltipDefaults }</title>
<ellipse fill="#fdb462" stroke="black" cx="2785" cy="-104" rx="370.06" ry="18"/>
<text text-anchor="middle" x="2785" y="-99.8" font-family="Times,serif" font-size="14.00">{ provide: MAT_TOOLTIP_DEFAULT_OPTIONS, useValue: myCustomTooltipDefaults }</text>
</g>
<!-- { provide: MAT_TOOLTIP_DEFAULT_OPTIONS, useValue: myCustomTooltipDefaults }&#45;&gt;MixerComponent -->
<g id="edge2" class="edge">
<title>{ provide: MAT_TOOLTIP_DEFAULT_OPTIONS, useValue: myCustomTooltipDefaults }&#45;&gt;MixerComponent</title>
<path fill="none" stroke="black" d="M2629,-120.4C2629,-120.4 2629,-140.54 2629,-140.54"/>
<polygon fill="black" stroke="black" points="2625.5,-140.54 2629,-150.54 2632.5,-140.54 2625.5,-140.54"/>
</g>
<!-- CoreModule -->
<g id="node19" class="node">
<title>CoreModule</title>
<polygon fill="#8dd3c7" stroke="black" points="252.26,-187 249.26,-191 228.26,-191 225.26,-187 165.74,-187 165.74,-151 252.26,-151 252.26,-187"/>
<text text-anchor="middle" x="209" y="-164.8" font-family="Times,serif" font-size="14.00">CoreModule</text>
</g>
<!-- CoreModule&#45;&gt;MixerModule -->
<g id="edge18" class="edge">
<title>CoreModule&#45;&gt;MixerModule</title>
<path fill="none" stroke="black" d="M209,-187.16C209,-209.35 209,-244 209,-244 209,-244 1154.97,-244 1154.97,-244"/>
<polygon fill="black" stroke="black" points="1154.97,-247.5 1164.97,-244 1154.97,-240.5 1154.97,-247.5"/>
</g>
<!-- DraftDetailModule -->
<g id="node20" class="node">
<title>DraftDetailModule</title>
<polygon fill="#8dd3c7" stroke="black" points="147.79,-187 144.79,-191 123.79,-191 120.79,-187 24.21,-187 24.21,-151 147.79,-151 147.79,-187"/>
<text text-anchor="middle" x="86" y="-164.8" font-family="Times,serif" font-size="14.00">DraftDetailModule</text>
</g>
<!-- DraftDetailModule&#45;&gt;MixerModule -->
<g id="edge19" class="edge">
<title>DraftDetailModule&#45;&gt;MixerModule</title>
<path fill="none" stroke="black" d="M86,-187.32C86,-210.66 86,-248 86,-248 86,-248 1155.05,-248 1155.05,-248"/>
<polygon fill="black" stroke="black" points="1155.05,-251.5 1165.05,-248 1155.05,-244.5 1155.05,-251.5"/>
</g>
</g>
</svg>
