<?xml version="1.0" encoding="UTF-8" standalone="no"?>
<!DOCTYPE svg PUBLIC "-//W3C//DTD SVG 1.1//EN"
 "http://www.w3.org/Graphics/SVG/1.1/DTD/svg11.dtd">
<!-- Generated by graphviz version 2.47.0 (20210316.0004)
 -->
<!-- Title: dependencies Pages: 1 -->
<svg width="1579pt" height="284pt"
 viewBox="0.00 0.00 1579.00 284.00" xmlns="http://www.w3.org/2000/svg" xmlns:xlink="http://www.w3.org/1999/xlink">
<g id="graph0" class="graph" transform="scale(1 1) rotate(0) translate(4 280)">
<title>dependencies</title>
<polygon fill="white" stroke="transparent" points="-4,4 -4,-280 1575,-280 1575,4 -4,4"/>
<text text-anchor="start" x="764.51" y="-42.4" font-family="Times-12" font-weight="bold" font-size="14.00">Legend</text>
<polygon fill="#ffffb3" stroke="transparent" points="551.5,-10 551.5,-30 571.5,-30 571.5,-10 551.5,-10"/>
<text text-anchor="start" x="575.13" y="-15.4" font-family="Times-12" font-size="14.00"> &#160;Declarations</text>
<polygon fill="#8dd3c7" stroke="transparent" points="664.5,-10 664.5,-30 684.5,-30 684.5,-10 664.5,-10"/>
<text text-anchor="start" x="688.23" y="-15.4" font-family="Times-12" font-size="14.00"> &#160;Module</text>
<polygon fill="#80b1d3" stroke="transparent" points="750.5,-10 750.5,-30 770.5,-30 770.5,-10 750.5,-10"/>
<text text-anchor="start" x="774.28" y="-15.4" font-family="Times-12" font-size="14.00"> &#160;Bootstrap</text>
<polygon fill="#fdb462" stroke="transparent" points="847.5,-10 847.5,-30 867.5,-30 867.5,-10 847.5,-10"/>
<text text-anchor="start" x="871.17" y="-15.4" font-family="Times-12" font-size="14.00"> &#160;Providers</text>
<polygon fill="#fb8072" stroke="transparent" points="943.5,-10 943.5,-30 963.5,-30 963.5,-10 943.5,-10"/>
<text text-anchor="start" x="967.23" y="-15.4" font-family="Times-12" font-size="14.00"> &#160;Exports</text>
<g id="clust1" class="cluster">
<title>cluster_DraftDetailModule</title>
<polygon fill="none" stroke="black" stroke-dasharray="1,5" points="8,-70 8,-268 1563,-268 1563,-70 8,-70"/>
</g>
<g id="clust12" class="cluster">
<title>cluster_DraftDetailModule_exports</title>
<polygon fill="none" stroke="black" points="726,-208 726,-260 890,-260 890,-208 726,-208"/>
</g>
<g id="clust11" class="cluster">
<title>cluster_DraftDetailModule_imports</title>
<polygon fill="none" stroke="black" points="1453,-78 1453,-130 1555,-130 1555,-78 1453,-78"/>
</g>
<g id="clust14" class="cluster">
<title>cluster_DraftDetailModule_providers</title>
<polygon fill="none" stroke="black" points="1293,-78 1293,-130 1445,-130 1445,-78 1293,-78"/>
</g>
<g id="clust2" class="cluster">
<title>cluster_DraftDetailModule_declarations</title>
<polygon fill="none" stroke="black" points="16,-78 16,-130 1285,-130 1285,-78 16,-78"/>
</g>
<!-- ActionsComponent -->
<g id="node1" class="node">
<title>ActionsComponent</title>
<polygon fill="#ffffb3" stroke="black" points="1277.38,-122 1152.62,-122 1152.62,-86 1277.38,-86 1277.38,-122"/>
<text text-anchor="middle" x="1215" y="-99.8" font-family="Times,serif" font-size="14.00">ActionsComponent</text>
</g>
<!-- DraftDetailModule -->
<g id="node9" class="node">
<title>DraftDetailModule</title>
<polygon fill="#8dd3c7" stroke="black" points="869.79,-187 866.79,-191 845.79,-191 842.79,-187 746.21,-187 746.21,-151 869.79,-151 869.79,-187"/>
<text text-anchor="middle" x="808" y="-164.8" font-family="Times,serif" font-size="14.00">DraftDetailModule</text>
</g>
<!-- ActionsComponent&#45;&gt;DraftDetailModule -->
<g id="edge1" class="edge">
<title>ActionsComponent&#45;&gt;DraftDetailModule</title>
<path fill="none" stroke="black" d="M1215,-122.27C1215,-140.56 1215,-166 1215,-166 1215,-166 879.81,-166 879.81,-166"/>
<polygon fill="black" stroke="black" points="879.81,-162.5 869.81,-166 879.81,-169.5 879.81,-162.5"/>
</g>
<!-- CrosssectionComponent -->
<g id="node2" class="node">
<title>CrosssectionComponent</title>
<polygon fill="#ffffb3" stroke="black" points="1134.37,-122 981.63,-122 981.63,-86 1134.37,-86 1134.37,-122"/>
<text text-anchor="middle" x="1058" y="-99.8" font-family="Times,serif" font-size="14.00">CrosssectionComponent</text>
</g>
<!-- CrosssectionComponent&#45;&gt;DraftDetailModule -->
<g id="edge2" class="edge">
<title>CrosssectionComponent&#45;&gt;DraftDetailModule</title>
<path fill="none" stroke="black" d="M1058,-122.01C1058,-138.05 1058,-159 1058,-159 1058,-159 879.8,-159 879.8,-159"/>
<polygon fill="black" stroke="black" points="879.8,-155.5 869.8,-159 879.8,-162.5 879.8,-155.5"/>
</g>
<!-- DraftDetailComponent -->
<g id="node3" class="node">
<title>DraftDetailComponent</title>
<polygon fill="#ffffb3" stroke="black" points="963.57,-122 818.43,-122 818.43,-86 963.57,-86 963.57,-122"/>
<text text-anchor="middle" x="891" y="-99.8" font-family="Times,serif" font-size="14.00">DraftDetailComponent</text>
</g>
<!-- DraftDetailComponent&#45;&gt;DraftDetailModule -->
<g id="edge3" class="edge">
<title>DraftDetailComponent&#45;&gt;DraftDetailModule</title>
<path fill="none" stroke="black" d="M844.05,-122.11C844.05,-122.11 844.05,-140.99 844.05,-140.99"/>
<polygon fill="black" stroke="black" points="840.55,-140.99 844.05,-150.99 847.55,-140.99 840.55,-140.99"/>
</g>
<!-- DraftviewerComponent -->
<g id="node4" class="node">
<title>DraftviewerComponent</title>
<polygon fill="#ffffb3" stroke="black" points="800.45,-122 651.55,-122 651.55,-86 800.45,-86 800.45,-122"/>
<text text-anchor="middle" x="726" y="-99.8" font-family="Times,serif" font-size="14.00">DraftviewerComponent</text>
</g>
<!-- DraftviewerComponent&#45;&gt;DraftDetailModule -->
<g id="edge4" class="edge">
<title>DraftviewerComponent&#45;&gt;DraftDetailModule</title>
<path fill="none" stroke="black" d="M773.42,-122.11C773.42,-122.11 773.42,-140.99 773.42,-140.99"/>
<polygon fill="black" stroke="black" points="769.92,-140.99 773.42,-150.99 776.92,-140.99 769.92,-140.99"/>
</g>
<!-- SelectionComponent -->
<g id="node5" class="node">
<title>SelectionComponent</title>
<polygon fill="#ffffb3" stroke="black" points="633.93,-122 500.07,-122 500.07,-86 633.93,-86 633.93,-122"/>
<text text-anchor="middle" x="567" y="-99.8" font-family="Times,serif" font-size="14.00">SelectionComponent</text>
</g>
<!-- SelectionComponent&#45;&gt;DraftDetailModule -->
<g id="edge5" class="edge">
<title>SelectionComponent&#45;&gt;DraftDetailModule</title>
<path fill="none" stroke="black" d="M567,-122.01C567,-138.05 567,-159 567,-159 567,-159 736.25,-159 736.25,-159"/>
<polygon fill="black" stroke="black" points="736.25,-162.5 746.25,-159 736.25,-155.5 736.25,-162.5"/>
</g>
<!-- SidebarComponent -->
<g id="node6" class="node">
<title>SidebarComponent</title>
<polygon fill="#ffffb3" stroke="black" points="482.1,-122 357.9,-122 357.9,-86 482.1,-86 482.1,-122"/>
<text text-anchor="middle" x="420" y="-99.8" font-family="Times,serif" font-size="14.00">SidebarComponent</text>
</g>
<!-- SidebarComponent&#45;&gt;DraftDetailModule -->
<g id="edge6" class="edge">
<title>SidebarComponent&#45;&gt;DraftDetailModule</title>
<path fill="none" stroke="black" d="M420,-122.27C420,-140.56 420,-166 420,-166 420,-166 736.09,-166 736.09,-166"/>
<polygon fill="black" stroke="black" points="736.09,-169.5 746.09,-166 736.09,-162.5 736.09,-169.5"/>
</g>
<!-- SimulationComponent -->
<g id="node7" class="node">
<title>SimulationComponent</title>
<polygon fill="#ffffb3" stroke="black" points="340.28,-122 197.72,-122 197.72,-86 340.28,-86 340.28,-122"/>
<text text-anchor="middle" x="269" y="-99.8" font-family="Times,serif" font-size="14.00">SimulationComponent</text>
</g>
<!-- SimulationComponent&#45;&gt;DraftDetailModule -->
<g id="edge7" class="edge">
<title>SimulationComponent&#45;&gt;DraftDetailModule</title>
<path fill="none" stroke="black" d="M269,-122.13C269,-142.57 269,-173 269,-173 269,-173 736.17,-173 736.17,-173"/>
<polygon fill="black" stroke="black" points="736.17,-176.5 746.17,-173 736.17,-169.5 736.17,-176.5"/>
</g>
<!-- WeaverViewComponent -->
<g id="node8" class="node">
<title>WeaverViewComponent</title>
<polygon fill="#ffffb3" stroke="black" points="179.67,-122 24.33,-122 24.33,-86 179.67,-86 179.67,-122"/>
<text text-anchor="middle" x="102" y="-99.8" font-family="Times,serif" font-size="14.00">WeaverViewComponent</text>
</g>
<!-- WeaverViewComponent&#45;&gt;DraftDetailModule -->
<g id="edge8" class="edge">
<title>WeaverViewComponent&#45;&gt;DraftDetailModule</title>
<path fill="none" stroke="black" d="M102,-122.01C102,-144.49 102,-180 102,-180 102,-180 736.27,-180 736.27,-180"/>
<polygon fill="black" stroke="black" points="736.27,-183.5 746.27,-180 736.27,-176.5 736.27,-183.5"/>
</g>
<!-- DraftDetailComponent  -->
<g id="node11" class="node">
<title>DraftDetailComponent </title>
<polygon fill="#fb8072" stroke="black" points="882.07,-252 733.93,-252 733.93,-216 882.07,-216 882.07,-252"/>
<text text-anchor="middle" x="808" y="-229.8" font-family="Times,serif" font-size="14.00">DraftDetailComponent </text>
</g>
<!-- DraftDetailModule&#45;&gt;DraftDetailComponent  -->
<g id="edge10" class="edge">
<title>DraftDetailModule&#45;&gt;DraftDetailComponent </title>
<path fill="none" stroke="black" stroke-dasharray="5,2" d="M808,-187.11C808,-187.11 808,-205.99 808,-205.99"/>
<polygon fill="black" stroke="black" points="804.5,-205.99 808,-215.99 811.5,-205.99 804.5,-205.99"/>
</g>
<!-- CoreModule -->
<g id="node10" class="node">
<title>CoreModule</title>
<polygon fill="#8dd3c7" stroke="black" points="1547.26,-122 1544.26,-126 1523.26,-126 1520.26,-122 1460.74,-122 1460.74,-86 1547.26,-86 1547.26,-122"/>
<text text-anchor="middle" x="1504" y="-99.8" font-family="Times,serif" font-size="14.00">CoreModule</text>
</g>
<!-- CoreModule&#45;&gt;DraftDetailModule -->
<g id="edge9" class="edge">
<title>CoreModule&#45;&gt;DraftDetailModule</title>
<path fill="none" stroke="black" d="M1504,-122.01C1504,-144.49 1504,-180 1504,-180 1504,-180 879.77,-180 879.77,-180"/>
<polygon fill="black" stroke="black" points="879.77,-176.5 869.77,-180 879.77,-183.5 879.77,-176.5"/>
</g>
<!-- RenderService -->
<g id="node12" class="node">
<title>RenderService</title>
<ellipse fill="#fdb462" stroke="black" cx="1369" cy="-104" rx="67.75" ry="18"/>
<text text-anchor="middle" x="1369" y="-99.8" font-family="Times,serif" font-size="14.00">RenderService</text>
</g>
<!-- RenderService&#45;&gt;DraftDetailModule -->
<g id="edge11" class="edge">
<title>RenderService&#45;&gt;DraftDetailModule</title>
<path fill="none" stroke="black" d="M1369,-122.13C1369,-142.57 1369,-173 1369,-173 1369,-173 879.91,-173 879.91,-173"/>
<polygon fill="black" stroke="black" points="879.91,-169.5 869.91,-173 879.91,-176.5 879.91,-169.5"/>
</g>
</g>
</svg>
