<?xml version="1.0" encoding="utf-8"?>
<!-- Generator: Adobe Illustrator 28.1.0, SVG Export Plug-In . SVG Version: 6.00 Build 0)  -->
<svg version="1.1" id="Layer_1" xmlns="http://www.w3.org/2000/svg" xmlns:xlink="http://www.w3.org/1999/xlink" x="0px" y="0px"
	 viewBox="0 0 200 200" style="enable-background:new 0 0 200 200;" xml:space="preserve">
<style type="text/css">
	.st0{fill:none;stroke:#ffffff;stroke-width:2;stroke-miterlimit:10;}
	.st1{fill:none;stroke:#ffffff;stroke-miterlimit:10;}
</style>
<path class="st0" d="M93.6,338"/>
<path class="st0" d="M117.1,130.7"/>
<path class="st0" d="M78.1,72.7"/>
<path class="st0" d="M61.2,81.9"/>
<g>
	<path class="st0" d="M66.2,11.6"/>
	<path class="st0" d="M140.6,19.5"/>
	<path class="st0" d="M123.7,28.7"/>
	<polyline class="st0" points="146,27.6 126.7,38 134,38.7 155.8,28.2 	"/>
	<polyline class="st0" points="156.2,36.9 136.2,48.3 143.5,49.5 165.9,36.8 	"/>
	<line class="st0" x1="30.7" y1="30.6" x2="41.3" y2="24.8"/>
	<polyline class="st0" points="51.4,10.1 124.2,28.7 144.6,19.4 	"/>
	<line class="st0" x1="41.3" y1="20.9" x2="51.4" y2="15.5"/>
	<path class="st0" d="M41.3,30.1l16.9-9.2c-0.2-4.5,0-4.5,0-4.5"/>
	<line class="st0" x1="51.4" y1="20.1" x2="63.8" y2="13.3"/>
	<line class="st0" x1="124.2" y1="28.7" x2="124.2" y2="38.7"/>
	<line class="st0" x1="134" y1="38.7" x2="134.1" y2="49"/>
	<line class="st0" x1="55.9" y1="78.6" x2="55.9" y2="23.3"/>
	<path class="st0" d="M30.7,100.1"/>
	<path class="st0" d="M144.1,118.3"/>
	<path class="st0" d="M160.4,106.7"/>
	<polyline class="st0" points="143.5,49.5 144.8,198.1 166.2,182.4 166,37.6 165.9,36.8 156.2,36.9 155.8,28.2 144.7,27.8 
		144.6,19.4 73.2,3 51.4,10.1 51.4,20 41,20 41,30.6 30.7,30.6 30.7,180.4 55.9,164 55.9,93 	"/>
	<path class="st0" d="M66.8,81.3"/>
	<path class="st0" d="M141.2,89.2"/>
	<path class="st0" d="M124.3,98.4"/>
	<polyline class="st0" points="141.8,99.2 124.8,108.4 132.1,109.2 144.1,102.2 	"/>
	<path class="st0" d="M161,110"/>
	<polyline class="st0" points="144.2,113.6 133.8,119.2 144.1,122.2 	"/>
	<line class="st0" x1="31.2" y1="100.4" x2="41.9" y2="94.6"/>
	<polyline class="st0" points="52,79.9 121.3,100.6 140.3,89.3 	"/>
	<line class="st0" x1="41.9" y1="90.7" x2="52" y2="85.2"/>
	<path class="st0" d="M41.6,100.4l17.2-9.1c0-4.6,0-5.1,0-5.1"/>
	<line class="st0" x1="52.3" y1="89.6" x2="63.9" y2="83.3"/>
	<line class="st0" x1="121.8" y1="99.4" x2="121.8" y2="109.4"/>
	<line class="st0" x1="132.1" y1="109.2" x2="132.1" y2="119.5"/>
	<path class="st0" d="M56.5,93"/>
	<path class="st0" d="M56.5,157.9"/>
	<path class="st1" d="M32.8,259"/>
	<polyline class="st0" points="144.2,99.2 140.3,99.3 140.3,89.3 73.8,72.7 52,79.9 52,89.8 41.6,89.7 41.6,100.4 31.2,100.4 	"/>
	<path class="st0" d="M150.7,110"/>
	<path class="st0" d="M161,110"/>
	<path class="st1" d="M186.9,245.8"/>
	<path class="st1" d="M171,259"/>
	<path class="st0" d="M144.1,119.2"/>
</g>
<path class="st0" d="M143.3,108.1"/>
<path class="st0" d="M166.1,122.2"/>
<path class="st0" d="M40.8,94.6"/>
<path class="st0" d="M82.5,84.6"/>
</svg>
