<?xml version="1.0" encoding="utf-8"?>
<!-- Generator: Adobe Illustrator 27.2.0, SVG Export Plug-In . SVG Version: 6.00 Build 0)  -->
<svg version="1.1" id="Layer_1" xmlns="http://www.w3.org/2000/svg" xmlns:xlink="http://www.w3.org/1999/xlink" x="0px" y="0px"
	 viewBox="0 0 200 200" style="enable-background:new 0 0 200 200;" xml:space="preserve">
<style type="text/css">
	.st0{fill:#FFFFFF;}
	.st1{fill:#FFFFFF;stroke:#000000;stroke-miterlimit:10;}
	.st2{fill-rule:evenodd;clip-rule:evenodd;}
</style>
<g>
	<circle class="st0" cx="100.28" cy="100.42" r="99.72"/>
</g>
<path class="st1" d="M127.35,67.66"/>
<path class="st1" d="M70.63,21.99"/>
<g>
	<path d="M136.32,69.55"/>
	
		<rect x="95.73" y="110.16" transform="matrix(-1 -1.224647e-16 1.224647e-16 -1 272.7327 235.1963)" class="st2" width="81.27" height="14.88"/>
	
		<rect x="30.17" y="124.82" transform="matrix(3.272933e-07 -1 1 3.272933e-07 -58.6909 207.4277)" class="st2" width="88.4" height="16.47"/>
	
		<rect x="20.17" y="66.21" transform="matrix(-1 -1.224647e-16 1.224647e-16 -1 123.0299 147.3047)" class="st2" width="82.69" height="14.88"/>
	
		<rect x="67.02" y="19" transform="matrix(-1 -1.224647e-16 1.224647e-16 -1 149.6231 75.7822)" class="st2" width="15.59" height="37.78"/>
	
		<rect x="20.17" y="110.16" transform="matrix(-1 -1.224647e-16 1.224647e-16 -1 71.6448 235.1963)" class="st2" width="31.31" height="14.88"/>
	
		<rect x="80.46" y="51.96" transform="matrix(3.511295e-07 -1 1 3.511295e-07 61.4578 181.8532)" class="st2" width="82.4" height="16.47"/>
	
		<rect x="141.45" y="65.5" transform="matrix(-1 -1.224647e-16 1.224647e-16 -1 318.4471 145.8789)" class="st2" width="35.55" height="14.88"/>
	
		<rect x="113.42" y="135.91" transform="matrix(-1 -1.224647e-16 1.224647e-16 -1 242.4249 313.1681)" class="st2" width="15.59" height="41.35"/>
</g>
</svg>
