<?xml version="1.0" encoding="utf-8"?>
<!-- Generator: Adobe Illustrator 27.2.0, SVG Export Plug-In . SVG Version: 6.00 Build 0)  -->
<svg version="1.1" id="Layer_1" xmlns="http://www.w3.org/2000/svg" xmlns:xlink="http://www.w3.org/1999/xlink" x="0px" y="0px"
	 viewBox="0 0 200 200" style="enable-background:new 0 0 200 200;" xml:space="preserve">
<style type="text/css">
	.st0{fill:#FFFFFF;}
	.st1{fill:#FFFFFF;stroke:#000000;stroke-miterlimit:10;}
	.st2{fill-rule:evenodd;clip-rule:evenodd;}
</style>
<g>
	<circle class="st0" cx="100.28" cy="100.42" r="99.72"/>
</g>
<path class="st1" d="M127.35,67.66"/>
<path class="st1" d="M70.63,21.99"/>
<g>
	<path d="M130.56,80.69"/>
	
		<rect x="100.29" y="110.97" transform="matrix(-1 -1.224647e-16 1.224647e-16 -1 261.1837 233.0337)" class="st2" width="60.59" height="11.09"/>
	
		<rect x="51.41" y="121.9" transform="matrix(3.272933e-07 -1 1 3.272933e-07 -43.6802 212.4099)" class="st2" width="65.91" height="12.28"/>
	
		<rect x="43.95" y="78.2" transform="matrix(-1 -1.224647e-16 1.224647e-16 -1 149.5621 167.4999)" class="st2" width="61.66" height="11.09"/>
	
		<rect x="78.88" y="43" transform="matrix(-1 -1.224647e-16 1.224647e-16 -1 169.3905 114.1712)" class="st2" width="11.62" height="28.17"/>
	
		<rect x="43.95" y="110.97" transform="matrix(-1 -1.224647e-16 1.224647e-16 -1 111.2483 233.0337)" class="st2" width="23.34" height="11.09"/>
	
		<rect x="88.91" y="67.58" transform="matrix(3.511295e-07 -1 1 3.511295e-07 45.9053 193.341)" class="st2" width="61.44" height="12.28"/>
	
		<rect x="134.38" y="77.67" transform="matrix(-1 -1.224647e-16 1.224647e-16 -1 295.2693 166.4368)" class="st2" width="26.51" height="11.09"/>
	
		<rect x="113.48" y="130.17" transform="matrix(-1 -1.224647e-16 1.224647e-16 -1 238.5855 291.1712)" class="st2" width="11.62" height="30.83"/>
</g>
</svg>
