<?xml version="1.0" encoding="utf-8"?>
<!-- Generator: Adobe Illustrator 27.7.0, SVG Export Plug-In . SVG Version: 6.00 Build 0)  -->
<svg version="1.1" id="Layer_1" xmlns="http://www.w3.org/2000/svg" xmlns:xlink="http://www.w3.org/1999/xlink" x="0px" y="0px"
	 viewBox="0 0 200 200" style="enable-background:new 0 0 200 200;" xml:space="preserve">
<style type="text/css">
	.st0{fill:none;stroke:#000000;stroke-miterlimit:10;}
	.st1{fill:none;stroke:#FFFFFF;stroke-miterlimit:10;}
	.st2{fill:none;stroke:#FFFFFF;stroke-width:0.25;stroke-miterlimit:10;}
	.st3{fill:#FFFFFF;}
	.st4{fill:none;stroke:#000000;stroke-width:2;stroke-miterlimit:10;}
</style>
<path d="M340.03,29.23V19h-10.64V8.76h-97.57v9.84h-10.37v10.64h-10.37v149.73h48.95v-79.9h29.85h10.75v79.9h48.7V29.23H340.03z
	 M299.64,78.74h-39.98V39.24h39.98V78.74z"/>
<path d="M299.64,111.63"/>
<polyline class="st0" points="349.34,178.97 365.27,165.69 364.99,25.76 364.99,21.16 354.67,21.16 355.52,10.36 345.71,10.36 
	345.71,0.38 253.66,1.61 231.83,8.76 "/>
<path class="st0" d="M345.2,0.38"/>
<path class="st0" d="M328.26,9.58"/>
<line class="st0" x1="338.58" y1="19.56" x2="355.52" y2="10.36"/>
<line class="st0" x1="328.77" y1="19.56" x2="345.71" y2="10.36"/>
<line class="st0" x1="328.77" y1="9.58" x2="345.71" y2="0.38"/>
<line class="st0" x1="338.64" y1="29.86" x2="355.58" y2="20.67"/>
<line class="st0" x1="348.05" y1="30.36" x2="364.99" y2="21.16"/>
<path class="st1" d="M-111.53,118.32"/>
<path class="st1" d="M-152.63,78.03"/>
<path class="st1" d="M-169.57,87.22"/>
<g>
	<path class="st1" d="M-164.5,16.91"/>
	<path class="st1" d="M-87.93,7.07"/>
	<path class="st1" d="M-104.87,16.27"/>
	<polyline class="st1" points="-87.42,17.06 -104.36,26.25 -94.55,26.25 -77.61,17.06 	"/>
	<polyline class="st1" points="-77.55,27.36 -94.49,36.55 -85.08,37.05 -68.14,27.85 	"/>
	<line class="st1" x1="-200.08" y1="35.93" x2="-189.44" y2="30.15"/>
	<polyline class="st1" points="-179.34,15.45 -104.36,16.27 -87.42,7.07 	"/>
	<line class="st1" x1="-189.44" y1="26.25" x2="-179.34" y2="20.77"/>
	<path class="st1" d="M-189.44,35.45l16.94-9.2c-0.17-4.51,0-4.51,0-4.51"/>
	<line class="st1" x1="-179.34" y1="25.37" x2="-162.4" y2="16.17"/>
	<line class="st1" x1="-104.36" y1="16.27" x2="-104.36" y2="26.25"/>
	<line class="st1" x1="-94.55" y1="26.25" x2="-94.49" y2="36.55"/>
	<line class="st1" x1="-174.87" y1="83.92" x2="-174.87" y2="28.6"/>
	<path class="st1" d="M-200.08,105.42"/>
	<path class="st1" d="M-84.45,105.86"/>
	<path class="st1" d="M-68.14,94.28"/>
	<polyline class="st1" points="-85.08,37.05 -83.79,185.66 -67.86,172.38 -68.14,32.45 -68.14,27.85 -78.46,27.85 -77.61,17.06 
		-87.42,17.06 -87.42,7.07 -157.5,8.3 -179.34,15.45 -179.34,25.29 -189.71,25.29 -189.71,35.93 -200.08,35.93 -200.08,185.66 
		-174.87,169.35 -174.87,98.34 	"/>
	<path class="st1" d="M-163.9,86.65"/>
	<path class="st1" d="M-87.34,76.81"/>
	<path class="st1" d="M-104.28,86.01"/>
	<polyline class="st1" points="-86.83,86.79 -103.77,95.99 -93.96,95.99 -84.41,90.81 	"/>
	<path class="st1" d="M-67.55,97.59"/>
	<polyline class="st1" points="-84.41,101.14 -93.9,106.29 -84.49,106.79 	"/>
	<line class="st1" x1="-199.49" y1="105.66" x2="-188.85" y2="99.89"/>
	<polyline class="st1" points="-178.75,85.19 -103.77,86.01 -86.83,76.81 	"/>
	<line class="st1" x1="-188.85" y1="95.99" x2="-178.75" y2="90.51"/>
	<path class="st1" d="M-188.85,105.19l16.94-9.2c-0.17-4.51,0-4.51,0-4.51"/>
	<line class="st1" x1="-178.75" y1="95.11" x2="-161.81" y2="85.91"/>
	<line class="st1" x1="-103.77" y1="86.01" x2="-103.77" y2="95.99"/>
	<line class="st1" x1="-93.96" y1="95.99" x2="-93.9" y2="106.29"/>
	<path class="st1" d="M-174.28,98.34"/>
	<path class="st1" d="M-174.28,163.16"/>
	<path class="st0" d="M-199.49,255.4"/>
	<polyline class="st1" points="-84.41,86.79 -86.83,86.79 -86.83,76.81 -156.91,78.04 -178.75,85.19 -178.75,95.03 -189.12,95.03 
		-189.12,105.66 -199.49,105.66 	"/>
	<path class="st1" d="M-77.87,97.59"/>
	<path class="st1" d="M-67.55,97.59"/>
	<path class="st0" d="M-45.3,242.12"/>
	<path class="st0" d="M-61.23,255.4"/>
	<path class="st1" d="M-84.49,106.79"/>
</g>
<path class="st1" d="M-85.25,95.69"/>
<path class="st1" d="M-62.48,109.79"/>
<path class="st1" d="M-189.97,99.91"/>
<path class="st1" d="M-148.21,89.93"/>
<path class="st1" d="M-113.09-80.3"/>
<path class="st1" d="M-152.04-138.31"/>
<path class="st1" d="M-168.97-129.11"/>
<path class="st1" d="M-163.9-199.42"/>
<path class="st1" d="M-89.49-191.55"/>
<path class="st1" d="M-106.43-182.36"/>
<polyline class="st1" points="-88.98,-183.4 -105.1,-172.81 -96.11,-172.37 -74.36,-182.78 "/>
<polyline class="st1" points="-73.92,-174.13 -95.09,-162.59 -86.64,-161.58 -64.19,-175.22 "/>
<line class="st1" x1="-199.49" y1="-180.41" x2="-188.85" y2="-186.19"/>
<polyline class="st1" points="-178.75,-200.89 -105.92,-182.36 -88.98,-191.55 "/>
<line class="st1" x1="-188.85" y1="-190.08" x2="-178.75" y2="-195.57"/>
<path class="st1" d="M-188.85-180.89l16.94-9.2c-0.17-4.51,0-4.51,0-4.51"/>
<line class="st1" x1="-178.75" y1="-190.97" x2="-166.31" y2="-197.72"/>
<line class="st1" x1="-105.92" y1="-182.36" x2="-105.92" y2="-172.37"/>
<line class="st1" x1="-96.11" y1="-172.37" x2="-96.05" y2="-162.07"/>
<line class="st1" x1="-174.28" y1="-132.42" x2="-174.28" y2="-187.74"/>
<path class="st1" d="M-199.49-110.92"/>
<path class="st1" d="M-86.01-92.77"/>
<path class="st1" d="M-69.7-104.34"/>
<polyline class="st1" points="-86.64,-161.58 -85.71,-4.65 -64.25,-20.36 -64.19,-175.22 -64.19,-175.22 -73.92,-174.13 
	-74.36,-182.78 -88.98,-183.4 -88.98,-191.55 -156.91,-208.04 -178.75,-200.89 -178.75,-191.05 -189.12,-191.05 -189.12,-180.41 
	-199.49,-180.41 -199.49,-30.68 -174.28,-46.99 -174.28,-118 "/>
<path class="st1" d="M-163.31-129.68"/>
<path class="st1" d="M-88.9-121.81"/>
<path class="st1" d="M-105.84-112.62"/>
<polyline class="st1" points="-88.39,-111.83 -105.33,-102.63 -95.52,-102.63 -85.97,-107.81 "/>
<path class="st1" d="M-69.11-101.03"/>
<polyline class="st1" points="-85.97,-97.48 -95.46,-92.33 -86.05,-91.84 "/>
<line class="st1" x1="-198.9" y1="-110.67" x2="-188.25" y2="-116.45"/>
<polyline class="st1" points="-178.15,-131.15 -105.33,-112.62 -88.39,-121.81 "/>
<line class="st1" x1="-188.25" y1="-120.34" x2="-178.15" y2="-125.83"/>
<path class="st1" d="M-188.25-111.15l16.94-9.2c-0.17-4.51,0-4.51,0-4.51"/>
<line class="st1" x1="-178.15" y1="-121.23" x2="-166.59" y2="-127.51"/>
<line class="st1" x1="-95.52" y1="-102.63" x2="-95.46" y2="-92.33"/>
<path class="st1" d="M-173.69-118"/>
<path class="st1" d="M-173.69-53.17"/>
<polyline class="st1" points="-85.97,-111.83 -88.39,-111.83 -88.39,-121.81 -156.32,-138.3 -178.15,-131.15 -178.15,-121.31 
	-188.53,-121.31 -188.53,-110.67 -198.9,-110.67 "/>
<path class="st1" d="M-79.43-101.03"/>
<path class="st1" d="M-69.11-101.03"/>
<path class="st1" d="M-86.05-91.84"/>
<path class="st1" d="M-86.81-102.94"/>
<path class="st1" d="M-64.04-88.83"/>
<path class="st1" d="M-189.37-116.43"/>
<path class="st1" d="M-147.62-126.41"/>
<polyline class="st1" points="-105.33,-102.63 -105.33,-112.62 -88.39,-121.81 -152.04,-138.31 -178.15,-131.15 "/>
<path class="st1" d="M77.92-320.1"/>
<path class="st1" d="M38.97-378.11"/>
<path class="st1" d="M22.03-368.91"/>
<path class="st1" d="M27.1-439.22"/>
<path class="st1" d="M101.51-431.35"/>
<path class="st1" d="M84.57-422.15"/>
<polyline class="st1" points="102.02,-423.19 85.9,-412.61 94.9,-412.17 116.65,-422.58 "/>
<polyline class="st1" points="117.09,-413.92 95.91,-402.39 104.36,-401.37 126.81,-415.02 "/>
<line class="st1" x1="-8.49" y1="-420.21" x2="2.16" y2="-425.99"/>
<polyline class="st1" points="12.26,-440.69 85.08,-422.15 102.02,-431.35 "/>
<line class="st1" x1="2.16" y1="-429.88" x2="12.26" y2="-435.36"/>
<path class="st1" d="M2.16-420.68l16.94-9.2c-0.17-4.51,0-4.51,0-4.51"/>
<line class="st1" x1="12.26" y1="-430.77" x2="24.7" y2="-437.52"/>
<line class="st1" x1="85.08" y1="-422.15" x2="85.08" y2="-412.17"/>
<line class="st1" x1="94.9" y1="-412.17" x2="94.95" y2="-401.87"/>
<line class="st1" x1="16.72" y1="-372.21" x2="16.72" y2="-427.54"/>
<path class="st1" d="M-8.49-350.72"/>
<path class="st1" d="M105-332.56"/>
<path class="st1" d="M121.3-344.14"/>
<polyline class="st1" points="104.36,-401.37 105.3,-244.45 126.75,-260.16 126.81,-415.02 126.81,-415.02 117.09,-413.92 
	116.65,-422.58 102.02,-423.19 102.02,-431.35 34.1,-447.83 12.26,-440.69 12.26,-430.85 1.89,-430.85 1.89,-420.21 -8.49,-420.21 
	-8.49,-270.47 16.72,-286.79 16.72,-357.8 "/>
<path class="st1" d="M27.69-369.48"/>
<path class="st1" d="M102.1-361.61"/>
<path class="st1" d="M85.16-352.41"/>
<polyline class="st1" points="102.61,-351.62 85.68,-342.43 95.49,-342.43 105.03,-347.61 "/>
<path class="st1" d="M121.89-340.83"/>
<polyline class="st1" points="105.03,-337.28 95.55,-332.13 104.95,-331.63 "/>
<line class="st1" x1="-7.89" y1="-350.47" x2="2.75" y2="-356.25"/>
<polyline class="st1" points="12.85,-370.95 85.68,-352.41 102.61,-361.61 "/>
<line class="st1" x1="2.75" y1="-360.14" x2="12.85" y2="-365.63"/>
<path class="st1" d="M2.75-350.94l16.94-9.2c-0.17-4.51,0-4.51,0-4.51"/>
<line class="st1" x1="12.85" y1="-361.03" x2="24.41" y2="-367.3"/>
<line class="st1" x1="95.49" y1="-342.43" x2="95.55" y2="-332.13"/>
<path class="st1" d="M17.32-357.8"/>
<path class="st1" d="M17.32-292.97"/>
<polyline class="st1" points="105.03,-351.62 102.61,-351.62 102.61,-361.61 34.69,-378.09 12.85,-370.95 12.85,-361.11 
	2.48,-361.11 2.48,-350.47 -7.89,-350.47 "/>
<path class="st1" d="M111.58-340.83"/>
<path class="st1" d="M121.89-340.83"/>
<path class="st1" d="M104.95-331.63"/>
<path class="st1" d="M104.2-342.73"/>
<path class="st1" d="M126.96-328.63"/>
<path class="st1" d="M1.63-356.22"/>
<path class="st1" d="M43.39-366.21"/>
<polyline class="st1" points="85.68,-342.43 85.68,-352.41 102.61,-361.61 38.97,-378.11 12.85,-370.95 "/>
<path class="st2" d="M-8.49-270.47"/>
<g>
	<g>
		<path class="st3" d="M-8.78-268.9c-0.01,1.32-0.02,2.64-0.03,3.97c-0.01,1.05-0.01,1.93,0.92,2.57c0.48,0.33,0.91,0.6,1.18,1.15
			c0.25,0.51,0.34,1.08,0.31,1.64c-0.07,1.29-0.78,2.45-1.42,3.53c-0.25,0.42,0.4,0.79,0.65,0.38c1.07-1.82,2.29-4.24,0.92-6.25
			c-0.27-0.4-0.62-0.68-1.02-0.94c-0.69-0.45-0.8-0.9-0.8-1.71c0.01-1.45,0.02-2.89,0.04-4.34C-8.02-269.38-8.77-269.38-8.78-268.9
			L-8.78-268.9z"/>
	</g>
</g>
<g>
	<g>
		<path class="st3" d="M-4.65-272.54c-0.08,0.85-0.12,1.69-0.11,2.54c0,0.57-0.03,1.21,0.39,1.65c0.79,0.82,2.16,0.57,3.17,0.73
			c1.83,0.3,1.23,2.39,0.93,3.69c-0.38,1.61-0.99,3.14-1.79,4.58c-0.24,0.42,0.41,0.8,0.65,0.38c0.78-1.39,1.39-2.87,1.78-4.41
			c0.3-1.19,0.86-2.98,0.11-4.1c-0.62-0.94-1.84-0.9-2.84-0.97c-0.32-0.02-0.66-0.05-0.97-0.15c-0.63-0.2-0.67-0.67-0.68-1.26
			c-0.01-0.89,0.03-1.78,0.11-2.67C-3.85-273.03-4.6-273.02-4.65-272.54L-4.65-272.54z"/>
	</g>
</g>
<g>
	<g>
		<path class="st3" d="M0.57-275.94c-0.11,1.08,0.64,1.96,1.53,2.47c1.11,0.63,2.42,0.6,3.59,1.03c1.27,0.47,1.97,1.65,2.1,2.97
			c0.15,1.47-0.37,2.92-0.85,4.29c-0.16,0.46,0.56,0.65,0.72,0.2c0.81-2.31,1.65-5.32-0.34-7.3c-0.91-0.91-2.18-1.08-3.38-1.34
			c-1.14-0.24-2.77-0.87-2.62-2.31C1.37-276.42,0.62-276.41,0.57-275.94L0.57-275.94z"/>
	</g>
</g>
<g>
	<g>
		<path class="st3" d="M6.77-279.34c-0.02,2.1,0.14,4.64,2.22,5.77c0.56,0.31,1.19,0.49,1.69,0.9c0.42,0.34,0.75,0.79,0.98,1.28
			c0.49,1.05,0.5,2.29-0.05,3.31c-0.23,0.43,0.42,0.8,0.65,0.38c1.01-1.87,0.48-4.37-1.24-5.65c-0.56-0.42-1.24-0.61-1.83-0.97
			c-0.54-0.33-0.93-0.82-1.18-1.39c-0.5-1.13-0.5-2.43-0.49-3.64C7.53-279.83,6.78-279.83,6.77-279.34L6.77-279.34z"/>
	</g>
</g>
<g>
	<g>
		<path class="st3" d="M10.18-282.24c-0.29,1.06,0.31,2.06,1.17,2.66c1.18,0.81,2.6,1.02,3.66,2.05c2.27,2.2,2.44,5.57,1.95,8.51
			c-0.08,0.47,0.64,0.68,0.72,0.2c0.45-2.74,0.42-5.72-1.19-8.1c-0.68-1-1.58-1.83-2.68-2.33c-1.1-0.51-3.36-1.12-2.91-2.79
			C11.03-282.51,10.31-282.71,10.18-282.24L10.18-282.24z"/>
	</g>
</g>
<g>
	<g>
		<path class="st3" d="M14.46-285.09c-0.1,2.2,0.94,4.12,2.66,5.44c1.6,1.23,4.48,2.62,4.03,5.09c-0.09,0.47,0.64,0.67,0.72,0.2
			c0.41-2.28-1.44-3.89-3.12-5.05c-0.97-0.67-1.96-1.33-2.63-2.32c-0.67-1-0.97-2.17-0.91-3.36
			C15.23-285.58,14.48-285.58,14.46-285.09L14.46-285.09z"/>
	</g>
</g>
<g>
	<g>
		<path class="st3" d="M16.35-286.15c0.99,1.38,1.97,2.77,2.96,4.15c0.71,0.99,1.62,2.12,2.96,2.09c0.48-0.01,0.48-0.76,0-0.75
			c-1.21,0.03-1.98-1.25-2.59-2.11c-0.89-1.25-1.79-2.51-2.68-3.76C16.72-286.92,16.07-286.55,16.35-286.15L16.35-286.15z"/>
	</g>
</g>
<g>
	<g>
		<path class="st3" d="M102.55-246.47c0,6.67,0,13.34,0,20.01c0,1.93,3,1.93,3,0c0-6.67,0-13.34,0-20.01
			C105.55-248.4,102.55-248.41,102.55-246.47L102.55-246.47z"/>
	</g>
</g>
<g>
	<g>
		<path class="st3" d="M108.71-251.09c0,5.39,0,10.78,0,16.16c0,1.93,3,1.93,3,0c0-5.39,0-10.78,0-16.16
			C111.71-253.02,108.71-253.02,108.71-251.09L108.71-251.09z"/>
	</g>
</g>
<g>
	<g>
		<path class="st3" d="M113.47-259.17c-0.82,6.01-0.13,12.11,2.22,17.72c0.31,0.75,0.99,1.28,1.85,1.05
			c0.7-0.19,1.36-1.09,1.05-1.85c-2.12-5.07-2.96-10.66-2.22-16.12c0.11-0.8-0.19-1.61-1.05-1.85
			C114.62-260.41,113.58-259.98,113.47-259.17L113.47-259.17z"/>
	</g>
</g>
<g>
	<g>
		<path class="st3" d="M117.17-257.25c0,4.11,0,8.21,0,12.32c0,1.93,3,1.93,3,0c0-4.11,0-8.21,0-12.32
			C120.17-259.18,117.17-259.18,117.17-257.25L117.17-257.25z"/>
	</g>
</g>
<g>
	<g>
		<path class="st3" d="M120.27-261.09c-0.49,4.75,0.44,9.54,2.55,13.81c0.36,0.73,1.39,0.93,2.05,0.54c0.74-0.43,0.9-1.32,0.54-2.05
			c-1.88-3.81-2.58-8.08-2.14-12.3c0.08-0.81-0.75-1.5-1.5-1.5C120.89-262.59,120.35-261.9,120.27-261.09L120.27-261.09z"/>
	</g>
</g>
<path class="st4" d="M-125.12,348.49"/>
<path class="st4" d="M-164.07,290.48"/>
<path class="st4" d="M-181.01,299.68"/>
<g>
	<path class="st4" d="M-175.94,229.37"/>
	<path class="st4" d="M-101.52,237.24"/>
	<path class="st4" d="M-118.46,246.44"/>
	<polyline class="st4" points="-96.22,245.39 -115.49,255.72 -108.14,256.42 -86.39,246.01 	"/>
	<polyline class="st4" points="-85.95,254.67 -106.02,266.1 -98.67,267.22 -76.22,254.61 	"/>
	<line class="st4" x1="-211.52" y1="248.38" x2="-200.88" y2="242.6"/>
	<polyline class="st4" points="-190.78,227.9 -117.95,246.44 -97.59,237.17 	"/>
	<line class="st4" x1="-200.88" y1="238.71" x2="-190.78" y2="233.22"/>
	<path class="st4" d="M-200.88,247.91l16.94-9.2c-0.17-4.51,0-4.51,0-4.51"/>
	<line class="st4" x1="-190.78" y1="237.82" x2="-178.34" y2="231.07"/>
	<line class="st4" x1="-117.95" y1="246.44" x2="-117.95" y2="256.42"/>
	<line class="st4" x1="-108.14" y1="256.42" x2="-108.08" y2="266.72"/>
	<line class="st4" x1="-186.31" y1="296.37" x2="-186.31" y2="241.05"/>
	<path class="st4" d="M-211.52,317.87"/>
	<path class="st4" d="M-98.04,336.03"/>
	<path class="st4" d="M-81.74,324.45"/>
	<polyline class="st4" points="-98.67,267.22 -97.38,415.83 -75.93,400.11 -76.22,255.32 -76.22,254.61 -85.95,254.67 
		-86.39,246.01 -97.44,245.54 -97.59,237.17 -168.94,220.76 -190.78,227.9 -190.78,237.74 -201.15,237.74 -201.15,248.38 
		-211.52,248.38 -211.52,398.12 -186.31,381.8 -186.31,310.79 	"/>
	<path class="st4" d="M-175.34,299.11"/>
	<path class="st4" d="M-100.93,306.98"/>
	<path class="st4" d="M-117.87,316.18"/>
	<polyline class="st4" points="-100.42,316.96 -117.36,326.16 -110.08,326.97 -98.08,319.92 	"/>
	<path class="st4" d="M-81.14,327.76"/>
	<polyline class="st4" points="-98,331.31 -108.4,336.96 -98.08,339.96 	"/>
	<line class="st4" x1="-210.93" y1="318.12" x2="-200.29" y2="312.34"/>
	<polyline class="st4" points="-190.18,297.64 -120.92,318.38 -101.83,307.08 	"/>
	<line class="st4" x1="-200.29" y1="308.45" x2="-190.18" y2="302.96"/>
	<path class="st4" d="M-200.56,318.12l17.21-9.12c-0.05-4.58,0-5.06,0-5.06"/>
	<line class="st4" x1="-189.84" y1="307.38" x2="-178.29" y2="301.1"/>
	<line class="st4" x1="-120.39" y1="317.19" x2="-120.39" y2="327.17"/>
	<line class="st4" x1="-110.08" y1="326.97" x2="-110.02" y2="337.27"/>
	<path class="st4" d="M-185.72,310.79"/>
	<path class="st4" d="M-185.72,375.62"/>
	<path class="st0" d="M-209.42,476.79"/>
	<polyline class="st4" points="-98,316.96 -101.83,317.07 -101.83,307.08 -168.35,290.49 -190.18,297.64 -190.18,307.56 
		-200.56,307.48 -200.56,318.12 -210.93,318.12 	"/>
	<path class="st4" d="M-91.46,327.76"/>
	<path class="st4" d="M-81.14,327.76"/>
	<path class="st0" d="M-55.24,463.51"/>
	<path class="st0" d="M-71.17,476.79"/>
	<path class="st4" d="M-98.08,336.96"/>
</g>
<path class="st4" d="M-98.84,325.86"/>
<path class="st4" d="M-76.07,339.96"/>
<path class="st4" d="M-201.41,312.37"/>
<path class="st4" d="M-159.65,302.38"/>
<polygon points="-97.48,404.61 -90.68,399.21 -90.68,410.92 -97.38,415.83 "/>
<polygon points="-82.72,393.96 -75.93,388.56 -75.93,400.28 -82.62,405.18 "/>
<polygon points="-90.68,387.99 -82.72,382.59 -82.72,394.3 -90.57,399.21 "/>
<polygon points="-97.48,381.85 -90.68,376.45 -90.68,388.17 -97.38,393.07 "/>
<polygon points="-83.65,373.54 -76.85,368.14 -76.85,379.86 -83.55,384.76 "/>
<path class="st4" d="M132.59,395.97"/>
<path class="st4" d="M93.64,337.96"/>
<path class="st4" d="M76.7,347.16"/>
<g>
	<path class="st4" d="M81.77,276.85"/>
	<path class="st4" d="M156.19,284.72"/>
	<path class="st4" d="M139.25,293.92"/>
	<polyline class="st4" points="161.49,292.87 142.22,303.2 149.57,303.9 171.32,293.49 	"/>
	<polyline class="st4" points="171.76,302.15 151.69,313.58 159.04,314.7 181.49,302.09 	"/>
	<line class="st4" x1="46.19" y1="295.86" x2="56.83" y2="290.08"/>
	<polyline class="st4" points="66.93,275.38 139.76,293.92 160.12,284.65 	"/>
	<line class="st4" x1="56.83" y1="286.19" x2="66.93" y2="280.7"/>
	<path class="st4" d="M56.83,295.39l16.94-9.2c-0.17-4.51,0-4.51,0-4.51"/>
	<line class="st4" x1="66.93" y1="285.3" x2="79.37" y2="278.55"/>
	<line class="st4" x1="139.76" y1="293.92" x2="139.76" y2="303.9"/>
	<line class="st4" x1="149.57" y1="303.9" x2="149.63" y2="314.2"/>
	<line class="st4" x1="71.4" y1="343.85" x2="71.4" y2="288.53"/>
	<path class="st4" d="M46.19,365.35"/>
	<path class="st4" d="M159.67,383.51"/>
	<path class="st4" d="M175.98,371.93"/>
	<polyline class="st4" points="159.04,314.7 160.33,463.31 181.78,447.59 181.49,302.8 181.49,302.09 171.76,302.15 171.32,293.49 
		160.27,293.02 160.12,284.65 88.77,268.23 66.93,275.38 66.93,285.22 56.56,285.22 56.56,295.86 46.19,295.86 46.19,445.6 
		71.4,429.28 71.4,358.27 	"/>
	<path class="st4" d="M82.37,346.59"/>
	<path class="st4" d="M156.78,354.46"/>
	<path class="st4" d="M139.84,363.66"/>
	<polyline class="st4" points="157.29,364.44 140.35,373.64 147.63,374.45 159.63,367.4 	"/>
	<path class="st4" d="M176.57,375.24"/>
	<polyline class="st4" points="159.71,378.79 149.31,384.43 159.63,387.44 	"/>
	<line class="st4" x1="46.78" y1="365.6" x2="57.42" y2="359.82"/>
	<polyline class="st4" points="67.53,345.12 136.79,365.86 155.88,354.56 	"/>
	<line class="st4" x1="57.42" y1="355.93" x2="67.53" y2="350.44"/>
	<path class="st4" d="M57.15,365.6l17.21-9.12c-0.05-4.58,0-5.06,0-5.06"/>
	<line class="st4" x1="67.87" y1="354.86" x2="79.42" y2="348.58"/>
	<line class="st4" x1="137.32" y1="364.67" x2="137.32" y2="374.65"/>
	<line class="st4" x1="147.63" y1="374.45" x2="147.69" y2="384.75"/>
	<path class="st4" d="M71.99,358.27"/>
	<path class="st4" d="M71.99,423.1"/>
	<path class="st0" d="M48.29,524.27"/>
	<polyline class="st4" points="159.71,364.44 155.88,364.54 155.88,354.56 89.36,337.97 67.53,345.12 67.53,355.04 57.15,354.96 
		57.15,365.6 46.78,365.6 	"/>
	<path class="st4" d="M166.25,375.24"/>
	<path class="st4" d="M176.57,375.24"/>
	<path class="st0" d="M202.47,510.99"/>
	<path class="st0" d="M186.54,524.27"/>
	<path class="st4" d="M159.63,384.43"/>
</g>
<path class="st4" d="M158.87,373.33"/>
<path class="st4" d="M56.3,359.84"/>
<path class="st4" d="M98.06,349.86"/>
<polygon points="160.23,452.09 167.03,446.69 167.03,458.4 160.33,463.31 "/>
<polygon points="167.03,435.47 174.99,430.07 174.99,441.78 167.14,446.69 "/>
<polygon points="160.23,429.33 167.03,423.93 167.03,435.65 160.33,440.55 "/>
<polygon points="174.06,421.02 180.86,415.62 180.86,427.34 174.16,432.24 "/>
<polygon points="166.42,415.32 174.38,409.92 174.38,421.63 166.54,426.54 "/>
<polygon points="159.63,409.18 166.42,403.78 166.42,415.5 159.73,420.4 "/>
<polygon points="173.46,400.87 180.25,395.47 180.25,407.19 173.56,412.09 "/>
<polygon points="165.89,394.3 173.85,388.9 173.85,400.61 166,405.52 "/>
<polygon points="160.09,387.16 166.89,381.76 166.89,393.48 160.19,398.38 "/>
<polygon points="173.92,378.85 180.71,373.45 180.71,385.17 174.02,390.07 "/>
<polygon points="166.89,372.98 174.85,367.58 174.85,379.29 167,384.2 "/>
<polygon points="160.09,366.84 166.89,361.44 166.89,373.16 160.19,378.06 "/>
<polygon points="173.92,358.53 180.71,353.13 180.71,364.85 174.02,369.75 "/>
<polygon points="166.89,354.17 174.85,348.77 174.85,360.49 167,365.4 "/>
<polygon points="160.09,348.04 166.89,342.64 166.89,354.35 160.19,359.26 "/>
<polygon points="173.92,339.73 180.71,334.33 180.71,346.04 174.02,350.95 "/>
<polygon points="166.35,333.9 174.31,328.5 174.31,340.22 166.46,345.12 "/>
<polygon points="159.55,327.76 166.35,322.37 166.35,334.08 159.65,338.99 "/>
<polygon points="173.38,319.45 180.18,314.05 180.18,325.77 173.48,330.68 "/>
<polygon points="165.42,312.8 173.38,307.4 173.38,319.12 165.54,324.02 "/>
<polygon points="158.05,310.29 151.69,313.58 159.04,314.7 164.41,311.68 "/>
<polygon points="174.06,301.7 167.7,304.99 175.05,306.1 180.42,303.08 "/>
<polygon points="46.36,434.16 53.15,428.76 53.15,440.48 46.46,445.38 "/>
<polygon points="61.12,423.52 71.99,418.12 71.99,429.83 61.27,434.74 "/>
<polygon points="53.15,417.54 61.12,412.14 61.12,423.86 53.27,428.76 "/>
<polygon points="46.36,411.41 53.15,406.01 53.15,417.72 46.46,422.63 "/>
<polygon points="52.55,397.39 60.51,391.99 60.51,403.71 52.66,408.62 "/>
<polygon points="45.76,391.26 52.55,385.86 52.55,397.57 45.85,402.48 "/>
<polygon points="59.87,402.61 70.74,397.21 70.74,408.92 60.02,413.83 "/>
<polygon points="59.87,382.95 70.74,377.55 70.74,389.26 60.02,394.17 "/>
<path class="st4" d="M117.06,130.73"/>
<path class="st4" d="M78.11,72.72"/>
<path class="st4" d="M61.17,81.91"/>
<g>
	<path class="st4" d="M66.24,11.6"/>
	<path class="st4" d="M140.65,19.47"/>
	<path class="st4" d="M123.71,28.67"/>
	<polyline class="st4" points="145.96,27.63 126.69,37.95 134.04,38.66 155.79,28.25 	"/>
	<polyline class="st4" points="156.23,36.9 136.16,48.34 143.5,49.45 165.95,36.85 	"/>
	<line class="st4" x1="30.66" y1="30.62" x2="41.3" y2="24.84"/>
	<polyline class="st4" points="51.4,10.14 124.22,28.67 144.59,19.4 	"/>
	<line class="st4" x1="41.3" y1="20.94" x2="51.4" y2="15.46"/>
	<path class="st4" d="M41.3,30.14l16.94-9.2c-0.17-4.51,0-4.51,0-4.51"/>
	<line class="st4" x1="51.4" y1="20.06" x2="63.84" y2="13.3"/>
	<line class="st4" x1="124.22" y1="28.67" x2="124.22" y2="38.66"/>
	<line class="st4" x1="134.04" y1="38.66" x2="134.09" y2="48.96"/>
	<line class="st4" x1="55.86" y1="78.61" x2="55.86" y2="23.29"/>
	<path class="st4" d="M30.66,100.11"/>
	<path class="st4" d="M144.14,118.26"/>
	<path class="st4" d="M160.44,106.68"/>
	<polyline class="st4" points="143.5,49.45 144.8,198.06 166.25,182.35 165.96,37.56 165.95,36.85 156.23,36.9 155.79,28.25 
		144.73,27.78 144.59,19.4 73.24,2.99 51.4,10.14 51.4,19.98 41.03,19.98 41.03,30.62 30.66,30.62 30.66,180.35 55.86,164.04 
		55.86,93.03 	"/>
	<path class="st4" d="M66.83,81.34"/>
	<path class="st4" d="M141.24,89.21"/>
	<path class="st4" d="M124.31,98.41"/>
	<polyline class="st4" points="141.75,99.2 124.82,108.4 132.1,109.21 144.09,102.15 	"/>
	<path class="st4" d="M161.03,109.99"/>
	<polyline class="st4" points="144.17,113.55 133.78,119.19 144.09,122.2 	"/>
	<line class="st4" x1="31.25" y1="100.36" x2="41.89" y2="94.58"/>
	<polyline class="st4" points="51.99,79.88 121.26,100.62 140.34,89.31 	"/>
	<line class="st4" x1="41.89" y1="90.68" x2="51.99" y2="85.2"/>
	<path class="st4" d="M41.62,100.36l17.21-9.12c-0.05-4.58,0-5.06,0-5.06"/>
	<line class="st4" x1="52.33" y1="89.61" x2="63.89" y2="83.34"/>
	<line class="st4" x1="121.79" y1="99.42" x2="121.79" y2="109.41"/>
	<line class="st4" x1="132.1" y1="109.21" x2="132.15" y2="119.51"/>
	<path class="st4" d="M56.46,93.03"/>
	<path class="st4" d="M56.46,157.85"/>
	<path class="st0" d="M32.75,259.03"/>
	<polyline class="st4" points="144.17,99.2 140.34,99.3 140.34,89.31 73.83,72.73 51.99,79.88 51.99,89.8 41.62,89.72 41.62,100.36 
		31.25,100.36 	"/>
	<path class="st4" d="M150.72,109.99"/>
	<path class="st4" d="M161.03,109.99"/>
	<path class="st0" d="M186.94,245.75"/>
	<path class="st0" d="M171.01,259.03"/>
	<path class="st4" d="M144.09,119.19"/>
</g>
<path class="st4" d="M143.34,108.09"/>
<path class="st4" d="M166.1,122.2"/>
<path class="st4" d="M40.77,94.6"/>
<path class="st4" d="M82.53,84.62"/>
</svg>
