<?xml version="1.0" encoding="UTF-8" standalone="no"?>
<!DOCTYPE svg PUBLIC "-//W3C//DTD SVG 1.1//EN"
 "http://www.w3.org/Graphics/SVG/1.1/DTD/svg11.dtd">
<!-- Generated by graphviz version 2.47.0 (20210316.0004)
 -->
<!-- Title: dependencies Pages: 1 -->
<svg width="3300pt" height="284pt"
 viewBox="0.00 0.00 3300.00 284.00" xmlns="http://www.w3.org/2000/svg" xmlns:xlink="http://www.w3.org/1999/xlink">
<g id="graph0" class="graph" transform="scale(1 1) rotate(0) translate(4 280)">
<title>dependencies</title>
<polygon fill="white" stroke="transparent" points="-4,4 -4,-280 3296,-280 3296,4 -4,4"/>
<text text-anchor="start" x="1625.01" y="-42.4" font-family="Times-12" font-weight="bold" font-size="14.00">Legend</text>
<polygon fill="#ffffb3" stroke="transparent" points="1412,-10 1412,-30 1432,-30 1432,-10 1412,-10"/>
<text text-anchor="start" x="1435.63" y="-15.4" font-family="Times-12" font-size="14.00"> &#160;Declarations</text>
<polygon fill="#8dd3c7" stroke="transparent" points="1525,-10 1525,-30 1545,-30 1545,-10 1525,-10"/>
<text text-anchor="start" x="1548.73" y="-15.4" font-family="Times-12" font-size="14.00"> &#160;Module</text>
<polygon fill="#80b1d3" stroke="transparent" points="1611,-10 1611,-30 1631,-30 1631,-10 1611,-10"/>
<text text-anchor="start" x="1634.78" y="-15.4" font-family="Times-12" font-size="14.00"> &#160;Bootstrap</text>
<polygon fill="#fdb462" stroke="transparent" points="1708,-10 1708,-30 1728,-30 1728,-10 1708,-10"/>
<text text-anchor="start" x="1731.67" y="-15.4" font-family="Times-12" font-size="14.00"> &#160;Providers</text>
<polygon fill="#fb8072" stroke="transparent" points="1804,-10 1804,-30 1824,-30 1824,-10 1804,-10"/>
<text text-anchor="start" x="1827.73" y="-15.4" font-family="Times-12" font-size="14.00"> &#160;Exports</text>
<g id="clust1" class="cluster">
<title>cluster_AppModule</title>
<polygon fill="none" stroke="black" stroke-dasharray="1,5" points="8,-70 8,-268 3284,-268 3284,-70 8,-70"/>
</g>
<g id="clust6" class="cluster">
<title>cluster_AppModule_bootstrap</title>
<polygon fill="none" stroke="black" points="1859,-208 1859,-260 1983,-260 1983,-208 1859,-208"/>
</g>
<g id="clust2" class="cluster">
<title>cluster_AppModule_declarations</title>
<polygon fill="none" stroke="black" points="3154,-78 3154,-130 3276,-130 3276,-78 3154,-78"/>
</g>
<g id="clust4" class="cluster">
<title>cluster_AppModule_imports</title>
<polygon fill="none" stroke="black" points="16,-78 16,-130 3146,-130 3146,-78 16,-78"/>
</g>
<!-- AppComponent -->
<g id="node1" class="node">
<title>AppComponent</title>
<polygon fill="#ffffb3" stroke="black" points="3267.94,-122 3162.06,-122 3162.06,-86 3267.94,-86 3267.94,-122"/>
<text text-anchor="middle" x="3215" y="-99.8" font-family="Times,serif" font-size="14.00">AppComponent</text>
</g>
<!-- AppModule -->
<g id="node2" class="node">
<title>AppModule</title>
<polygon fill="#8dd3c7" stroke="black" points="1962.66,-187 1959.66,-191 1938.66,-191 1935.66,-187 1879.34,-187 1879.34,-151 1962.66,-151 1962.66,-187"/>
<text text-anchor="middle" x="1921" y="-164.8" font-family="Times,serif" font-size="14.00">AppModule</text>
</g>
<!-- AppComponent&#45;&gt;AppModule -->
<g id="edge1" class="edge">
<title>AppComponent&#45;&gt;AppModule</title>
<path fill="none" stroke="black" d="M3215,-122.32C3215,-145.66 3215,-183 3215,-183 3215,-183 1972.95,-183 1972.95,-183"/>
<polygon fill="black" stroke="black" points="1972.95,-179.5 1962.95,-183 1972.95,-186.5 1972.95,-179.5"/>
</g>
<!-- AppComponent  -->
<g id="node17" class="node">
<title>AppComponent </title>
<polygon fill="#80b1d3" stroke="black" points="1975.44,-252 1866.56,-252 1866.56,-216 1975.44,-216 1975.44,-252"/>
<text text-anchor="middle" x="1921" y="-229.8" font-family="Times,serif" font-size="14.00">AppComponent </text>
</g>
<!-- AppModule&#45;&gt;AppComponent  -->
<g id="edge17" class="edge">
<title>AppModule&#45;&gt;AppComponent </title>
<path fill="none" stroke="black" stroke-dasharray="1,5" d="M1921,-187.11C1921,-187.11 1921,-205.99 1921,-205.99"/>
<polygon fill="black" stroke="black" points="1917.5,-205.99 1921,-215.99 1924.5,-205.99 1917.5,-205.99"/>
</g>
<!-- AppRoutingModule -->
<g id="node3" class="node">
<title>AppRoutingModule</title>
<polygon fill="#8dd3c7" stroke="black" points="3138.27,-122 3135.27,-126 3114.27,-126 3111.27,-122 3009.73,-122 3009.73,-86 3138.27,-86 3138.27,-122"/>
<text text-anchor="middle" x="3074" y="-99.8" font-family="Times,serif" font-size="14.00">AppRoutingModule</text>
</g>
<!-- AppRoutingModule&#45;&gt;AppModule -->
<g id="edge2" class="edge">
<title>AppRoutingModule&#45;&gt;AppModule</title>
<path fill="none" stroke="black" d="M3074,-122.29C3074,-144.21 3074,-178 3074,-178 3074,-178 1972.72,-178 1972.72,-178"/>
<polygon fill="black" stroke="black" points="1972.72,-174.5 1962.72,-178 1972.72,-181.5 1972.72,-174.5"/>
</g>
<!-- CoreModule -->
<g id="node4" class="node">
<title>CoreModule</title>
<polygon fill="#8dd3c7" stroke="black" points="2991.26,-122 2988.26,-126 2967.26,-126 2964.26,-122 2904.74,-122 2904.74,-86 2991.26,-86 2991.26,-122"/>
<text text-anchor="middle" x="2948" y="-99.8" font-family="Times,serif" font-size="14.00">CoreModule</text>
</g>
<!-- CoreModule&#45;&gt;AppModule -->
<g id="edge3" class="edge">
<title>CoreModule&#45;&gt;AppModule</title>
<path fill="none" stroke="black" d="M2948,-122.03C2948,-142.77 2948,-174 2948,-174 2948,-174 1972.85,-174 1972.85,-174"/>
<polygon fill="black" stroke="black" points="1972.85,-170.5 1962.85,-174 1972.85,-177.5 1972.85,-170.5"/>
</g>
<!-- DraftDetailModule -->
<g id="node5" class="node">
<title>DraftDetailModule</title>
<polygon fill="#8dd3c7" stroke="black" points="2886.79,-122 2883.79,-126 2862.79,-126 2859.79,-122 2763.21,-122 2763.21,-86 2886.79,-86 2886.79,-122"/>
<text text-anchor="middle" x="2825" y="-99.8" font-family="Times,serif" font-size="14.00">DraftDetailModule</text>
</g>
<!-- DraftDetailModule&#45;&gt;AppModule -->
<g id="edge4" class="edge">
<title>DraftDetailModule&#45;&gt;AppModule</title>
<path fill="none" stroke="black" d="M2825,-122.11C2825,-141.34 2825,-169 2825,-169 2825,-169 1972.79,-169 1972.79,-169"/>
<polygon fill="black" stroke="black" points="1972.79,-165.5 1962.79,-169 1972.79,-172.5 1972.79,-165.5"/>
</g>
<!-- MixerModule -->
<g id="node6" class="node">
<title>MixerModule</title>
<polygon fill="#8dd3c7" stroke="black" points="2744.76,-122 2741.76,-126 2720.76,-126 2717.76,-122 2651.24,-122 2651.24,-86 2744.76,-86 2744.76,-122"/>
<text text-anchor="middle" x="2698" y="-99.8" font-family="Times,serif" font-size="14.00">MixerModule</text>
</g>
<!-- MixerModule&#45;&gt;AppModule -->
<g id="edge5" class="edge">
<title>MixerModule&#45;&gt;AppModule</title>
<path fill="none" stroke="black" d="M2698,-122.3C2698,-140.27 2698,-165 2698,-165 2698,-165 1972.77,-165 1972.77,-165"/>
<polygon fill="black" stroke="black" points="1972.77,-161.5 1962.77,-165 1972.77,-168.5 1972.77,-161.5"/>
</g>
<!-- provideAnalytics(() =&gt; getAnalytics()) -->
<g id="node7" class="node">
<title>provideAnalytics(() =&gt; getAnalytics())</title>
<polygon fill="#8dd3c7" stroke="black" points="2632.93,-122 2629.93,-126 2608.93,-126 2605.93,-122 2399.07,-122 2399.07,-86 2632.93,-86 2632.93,-122"/>
<text text-anchor="middle" x="2516" y="-99.8" font-family="Times,serif" font-size="14.00">provideAnalytics(() =&gt; getAnalytics())</text>
</g>
<!-- provideAnalytics(() =&gt; getAnalytics())&#45;&gt;AppModule -->
<g id="edge6" class="edge">
<title>provideAnalytics(() =&gt; getAnalytics())&#45;&gt;AppModule</title>
<path fill="none" stroke="black" d="M2516,-122.03C2516,-138.4 2516,-160 2516,-160 2516,-160 1972.84,-160 1972.84,-160"/>
<polygon fill="black" stroke="black" points="1972.84,-156.5 1962.84,-160 1972.84,-163.5 1972.84,-156.5"/>
</g>
<!-- provideAuth(() =&gt; getAuth()) -->
<g id="node8" class="node">
<title>provideAuth(() =&gt; getAuth())</title>
<polygon fill="#8dd3c7" stroke="black" points="2381.12,-122 2378.12,-126 2357.12,-126 2354.12,-122 2198.88,-122 2198.88,-86 2381.12,-86 2381.12,-122"/>
<text text-anchor="middle" x="2290" y="-99.8" font-family="Times,serif" font-size="14.00">provideAuth(() =&gt; getAuth())</text>
</g>
<!-- provideAuth(() =&gt; getAuth())&#45;&gt;AppModule -->
<g id="edge7" class="edge">
<title>provideAuth(() =&gt; getAuth())&#45;&gt;AppModule</title>
<path fill="none" stroke="black" d="M2290,-122.19C2290,-137.18 2290,-156 2290,-156 2290,-156 1972.97,-156 1972.97,-156"/>
<polygon fill="black" stroke="black" points="1972.97,-152.5 1962.97,-156 1972.97,-159.5 1972.97,-152.5"/>
</g>
<!-- provideDatabase(() =&gt; getDatabase()) -->
<g id="node9" class="node">
<title>provideDatabase(() =&gt; getDatabase())</title>
<polygon fill="#8dd3c7" stroke="black" points="2180.72,-122 2177.72,-126 2156.72,-126 2153.72,-122 1951.28,-122 1951.28,-86 2180.72,-86 2180.72,-122"/>
<text text-anchor="middle" x="2066" y="-99.8" font-family="Times,serif" font-size="14.00">provideDatabase(() =&gt; getDatabase())</text>
</g>
<!-- provideDatabase(() =&gt; getDatabase())&#45;&gt;AppModule -->
<g id="edge8" class="edge">
<title>provideDatabase(() =&gt; getDatabase())&#45;&gt;AppModule</title>
<path fill="none" stroke="black" d="M1957.11,-122.11C1957.11,-122.11 1957.11,-140.99 1957.11,-140.99"/>
<polygon fill="black" stroke="black" points="1953.61,-140.99 1957.11,-150.99 1960.61,-140.99 1953.61,-140.99"/>
</g>
<!-- provideFirebaseApp(() =&gt; initializeApp(environment -->
<g id="node10" class="node">
<title>provideFirebaseApp(() =&gt; initializeApp(environment</title>
<polygon fill="#8dd3c7" stroke="black" points="1933.58,-122 1930.58,-126 1909.58,-126 1906.58,-122 1618.42,-122 1618.42,-86 1933.58,-86 1933.58,-122"/>
<text text-anchor="middle" x="1776" y="-99.8" font-family="Times,serif" font-size="14.00">provideFirebaseApp(() =&gt; initializeApp(environment</text>
</g>
<!-- provideFirebaseApp(() =&gt; initializeApp(environment&#45;&gt;AppModule -->
<g id="edge9" class="edge">
<title>provideFirebaseApp(() =&gt; initializeApp(environment&#45;&gt;AppModule</title>
<path fill="none" stroke="black" d="M1906.48,-122.11C1906.48,-122.11 1906.48,-140.99 1906.48,-140.99"/>
<polygon fill="black" stroke="black" points="1902.98,-140.99 1906.48,-150.99 1909.98,-140.99 1902.98,-140.99"/>
</g>
<!-- provideFirestore(() =&gt; getFirestore()) -->
<g id="node11" class="node">
<title>provideFirestore(() =&gt; getFirestore())</title>
<polygon fill="#8dd3c7" stroke="black" points="1600.14,-122 1597.14,-126 1576.14,-126 1573.14,-122 1373.86,-122 1373.86,-86 1600.14,-86 1600.14,-122"/>
<text text-anchor="middle" x="1487" y="-99.8" font-family="Times,serif" font-size="14.00">provideFirestore(() =&gt; getFirestore())</text>
</g>
<!-- provideFirestore(() =&gt; getFirestore())&#45;&gt;AppModule -->
<g id="edge10" class="edge">
<title>provideFirestore(() =&gt; getFirestore())&#45;&gt;AppModule</title>
<path fill="none" stroke="black" d="M1449.31,-122.03C1449.31,-138.4 1449.31,-160 1449.31,-160 1449.31,-160 1869.14,-160 1869.14,-160"/>
<polygon fill="black" stroke="black" points="1869.14,-163.5 1879.14,-160 1869.14,-156.5 1869.14,-163.5"/>
</g>
<!-- provideFirestore(() =&gt; getFirestore())&#45;&gt;AppModule -->
<g id="edge11" class="edge">
<title>provideFirestore(() =&gt; getFirestore())&#45;&gt;AppModule</title>
<path fill="none" stroke="black" d="M1524.69,-122.19C1524.69,-137.18 1524.69,-156 1524.69,-156 1524.69,-156 1869.34,-156 1869.34,-156"/>
<polygon fill="black" stroke="black" points="1869.34,-159.5 1879.34,-156 1869.34,-152.5 1869.34,-159.5"/>
</g>
<!-- provideFunctions(() =&gt; getFunctions()) -->
<g id="node12" class="node">
<title>provideFunctions(() =&gt; getFunctions())</title>
<polygon fill="#8dd3c7" stroke="black" points="1355.57,-122 1352.57,-126 1331.57,-126 1328.57,-122 1118.43,-122 1118.43,-86 1355.57,-86 1355.57,-122"/>
<text text-anchor="middle" x="1237" y="-99.8" font-family="Times,serif" font-size="14.00">provideFunctions(() =&gt; getFunctions())</text>
</g>
<!-- provideFunctions(() =&gt; getFunctions())&#45;&gt;AppModule -->
<g id="edge12" class="edge">
<title>provideFunctions(() =&gt; getFunctions())&#45;&gt;AppModule</title>
<path fill="none" stroke="black" d="M1237,-122.3C1237,-140.27 1237,-165 1237,-165 1237,-165 1869.24,-165 1869.24,-165"/>
<polygon fill="black" stroke="black" points="1869.24,-168.5 1879.24,-165 1869.24,-161.5 1869.24,-168.5"/>
</g>
<!-- provideMessaging(() =&gt; getMessaging()) -->
<g id="node13" class="node">
<title>provideMessaging(() =&gt; getMessaging())</title>
<polygon fill="#8dd3c7" stroke="black" points="1099.93,-122 1096.93,-126 1075.93,-126 1072.93,-122 852.07,-122 852.07,-86 1099.93,-86 1099.93,-122"/>
<text text-anchor="middle" x="976" y="-99.8" font-family="Times,serif" font-size="14.00">provideMessaging(() =&gt; getMessaging())</text>
</g>
<!-- provideMessaging(() =&gt; getMessaging())&#45;&gt;AppModule -->
<g id="edge13" class="edge">
<title>provideMessaging(() =&gt; getMessaging())&#45;&gt;AppModule</title>
<path fill="none" stroke="black" d="M976,-122.11C976,-141.34 976,-169 976,-169 976,-169 1869.18,-169 1869.18,-169"/>
<polygon fill="black" stroke="black" points="1869.18,-172.5 1879.18,-169 1869.18,-165.5 1869.18,-172.5"/>
</g>
<!-- providePerformance(() =&gt; getPerformance()) -->
<g id="node14" class="node">
<title>providePerformance(() =&gt; getPerformance())</title>
<polygon fill="#8dd3c7" stroke="black" points="833.65,-122 830.65,-126 809.65,-126 806.65,-122 564.35,-122 564.35,-86 833.65,-86 833.65,-122"/>
<text text-anchor="middle" x="699" y="-99.8" font-family="Times,serif" font-size="14.00">providePerformance(() =&gt; getPerformance())</text>
</g>
<!-- providePerformance(() =&gt; getPerformance())&#45;&gt;AppModule -->
<g id="edge14" class="edge">
<title>providePerformance(() =&gt; getPerformance())&#45;&gt;AppModule</title>
<path fill="none" stroke="black" d="M699,-122.03C699,-142.77 699,-174 699,-174 699,-174 1869.29,-174 1869.29,-174"/>
<polygon fill="black" stroke="black" points="1869.29,-177.5 1879.29,-174 1869.29,-170.5 1869.29,-177.5"/>
</g>
<!-- provideRemoteConfig(() =&gt; getRemoteConfig()) -->
<g id="node15" class="node">
<title>provideRemoteConfig(() =&gt; getRemoteConfig())</title>
<polygon fill="#8dd3c7" stroke="black" points="545.99,-122 542.99,-126 521.99,-126 518.99,-122 254.01,-122 254.01,-86 545.99,-86 545.99,-122"/>
<text text-anchor="middle" x="400" y="-99.8" font-family="Times,serif" font-size="14.00">provideRemoteConfig(() =&gt; getRemoteConfig())</text>
</g>
<!-- provideRemoteConfig(() =&gt; getRemoteConfig())&#45;&gt;AppModule -->
<g id="edge15" class="edge">
<title>provideRemoteConfig(() =&gt; getRemoteConfig())&#45;&gt;AppModule</title>
<path fill="none" stroke="black" d="M400,-122.29C400,-144.21 400,-178 400,-178 400,-178 1869.13,-178 1869.13,-178"/>
<polygon fill="black" stroke="black" points="1869.13,-181.5 1879.13,-178 1869.13,-174.5 1869.13,-181.5"/>
</g>
<!-- provideStorage(() =&gt; getStorage()) -->
<g id="node16" class="node">
<title>provideStorage(() =&gt; getStorage())</title>
<polygon fill="#8dd3c7" stroke="black" points="236.15,-122 233.15,-126 212.15,-126 209.15,-122 23.85,-122 23.85,-86 236.15,-86 236.15,-122"/>
<text text-anchor="middle" x="130" y="-99.8" font-family="Times,serif" font-size="14.00">provideStorage(() =&gt; getStorage())</text>
</g>
<!-- provideStorage(() =&gt; getStorage())&#45;&gt;AppModule -->
<g id="edge16" class="edge">
<title>provideStorage(() =&gt; getStorage())&#45;&gt;AppModule</title>
<path fill="none" stroke="black" d="M130,-122.32C130,-145.66 130,-183 130,-183 130,-183 1868.93,-183 1868.93,-183"/>
<polygon fill="black" stroke="black" points="1868.93,-186.5 1878.93,-183 1868.93,-179.5 1868.93,-186.5"/>
</g>
</g>
</svg>
