<?xml version="1.0" encoding="UTF-8" standalone="no"?>
<!DOCTYPE svg PUBLIC "-//W3C//DTD SVG 1.1//EN"
 "http://www.w3.org/Graphics/SVG/1.1/DTD/svg11.dtd">
<!-- Generated by graphviz version 2.47.0 (20210316.0004)
 -->
<!-- Title: dependencies Pages: 1 -->
<svg width="2492pt" height="284pt"
 viewBox="0.00 0.00 2492.00 284.00" xmlns="http://www.w3.org/2000/svg" xmlns:xlink="http://www.w3.org/1999/xlink">
<g id="graph0" class="graph" transform="scale(1 1) rotate(0) translate(4 280)">
<title>dependencies</title>
<polygon fill="white" stroke="transparent" points="-4,4 -4,-280 2488,-280 2488,4 -4,4"/>
<text text-anchor="start" x="1221.01" y="-42.4" font-family="sans-serif" font-weight="bold" font-size="14.00">Legend</text>
<polygon fill="#ffffb3" stroke="transparent" points="1008,-10 1008,-30 1028,-30 1028,-10 1008,-10"/>
<text text-anchor="start" x="1031.63" y="-15.4" font-family="sans-serif" font-size="14.00"> &#160;Declarations</text>
<polygon fill="#8dd3c7" stroke="transparent" points="1121,-10 1121,-30 1141,-30 1141,-10 1121,-10"/>
<text text-anchor="start" x="1144.73" y="-15.4" font-family="sans-serif" font-size="14.00"> &#160;Module</text>
<polygon fill="#80b1d3" stroke="transparent" points="1207,-10 1207,-30 1227,-30 1227,-10 1207,-10"/>
<text text-anchor="start" x="1230.78" y="-15.4" font-family="sans-serif" font-size="14.00"> &#160;Bootstrap</text>
<polygon fill="#fdb462" stroke="transparent" points="1304,-10 1304,-30 1324,-30 1324,-10 1304,-10"/>
<text text-anchor="start" x="1327.67" y="-15.4" font-family="sans-serif" font-size="14.00"> &#160;Providers</text>
<polygon fill="#fb8072" stroke="transparent" points="1400,-10 1400,-30 1420,-30 1420,-10 1400,-10"/>
<text text-anchor="start" x="1423.73" y="-15.4" font-family="sans-serif" font-size="14.00"> &#160;Exports</text>
<g id="clust1" class="cluster">
<title>cluster_AppModule</title>
<polygon fill="none" stroke="black" stroke-dasharray="1,5" points="8,-70 8,-268 2476,-268 2476,-70 8,-70"/>
</g>
<g id="clust2" class="cluster">
<title>cluster_AppModule_declarations</title>
<polygon fill="none" stroke="black" points="2346,-78 2346,-130 2468,-130 2468,-78 2346,-78"/>
</g>
<g id="clust7" class="cluster">
<title>cluster_AppModule_providers</title>
<polygon fill="none" stroke="black" points="1668,-78 1668,-130 2338,-130 2338,-78 1668,-78"/>
</g>
<g id="clust6" class="cluster">
<title>cluster_AppModule_bootstrap</title>
<polygon fill="none" stroke="black" points="1072,-208 1072,-260 1196,-260 1196,-208 1072,-208"/>
</g>
<g id="clust4" class="cluster">
<title>cluster_AppModule_imports</title>
<polygon fill="none" stroke="black" points="16,-78 16,-130 1660,-130 1660,-78 16,-78"/>
</g>
<!-- AppComponent -->
<g id="node1" class="node">
<title>AppComponent</title>
<polygon fill="#ffffb3" stroke="black" points="2459.94,-122 2354.06,-122 2354.06,-86 2459.94,-86 2459.94,-122"/>
<text text-anchor="middle" x="2407" y="-99.8" font-family="Times,serif" font-size="14.00">AppComponent</text>
</g>
<!-- AppModule -->
<g id="node2" class="node">
<title>AppModule</title>
<polygon fill="#8dd3c7" stroke="black" points="1175.66,-187 1172.66,-191 1151.66,-191 1148.66,-187 1092.34,-187 1092.34,-151 1175.66,-151 1175.66,-187"/>
<text text-anchor="middle" x="1134" y="-164.8" font-family="Times,serif" font-size="14.00">AppModule</text>
</g>
<!-- AppComponent&#45;&gt;AppModule -->
<g id="edge1" class="edge">
<title>AppComponent&#45;&gt;AppModule</title>
<path fill="none" stroke="black" d="M2407,-122.25C2407,-145.02 2407,-181 2407,-181 2407,-181 1185.99,-181 1185.99,-181"/>
<polygon fill="black" stroke="black" points="1185.99,-177.5 1175.99,-181 1185.99,-184.5 1185.99,-177.5"/>
</g>
<!-- AppComponent  -->
<g id="node13" class="node">
<title>AppComponent </title>
<polygon fill="#80b1d3" stroke="black" points="1188.44,-252 1079.56,-252 1079.56,-216 1188.44,-216 1188.44,-252"/>
<text text-anchor="middle" x="1134" y="-229.8" font-family="Times,serif" font-size="14.00">AppComponent </text>
</g>
<!-- AppModule&#45;&gt;AppComponent  -->
<g id="edge12" class="edge">
<title>AppModule&#45;&gt;AppComponent </title>
<path fill="none" stroke="black" stroke-dasharray="1,5" d="M1134,-187.11C1134,-187.11 1134,-205.99 1134,-205.99"/>
<polygon fill="black" stroke="black" points="1130.5,-205.99 1134,-215.99 1137.5,-205.99 1130.5,-205.99"/>
</g>
<!-- BrowserModule -->
<g id="node3" class="node">
<title>BrowserModule</title>
<polygon fill="#8dd3c7" stroke="black" points="1652.47,-122 1649.47,-126 1628.47,-126 1625.47,-122 1545.53,-122 1545.53,-86 1652.47,-86 1652.47,-122"/>
<text text-anchor="middle" x="1599" y="-99.8" font-family="Times,serif" font-size="14.00">BrowserModule</text>
</g>
<!-- BrowserModule&#45;&gt;AppModule -->
<g id="edge2" class="edge">
<title>BrowserModule&#45;&gt;AppModule</title>
<path fill="none" stroke="black" d="M1599,-122.11C1599,-141.34 1599,-169 1599,-169 1599,-169 1185.67,-169 1185.67,-169"/>
<polygon fill="black" stroke="black" points="1185.67,-165.5 1175.67,-169 1185.67,-172.5 1185.67,-165.5"/>
</g>
<!-- AppRoutingModule -->
<g id="node4" class="node">
<title>AppRoutingModule</title>
<polygon fill="#8dd3c7" stroke="black" points="1527.27,-122 1524.27,-126 1503.27,-126 1500.27,-122 1398.73,-122 1398.73,-86 1527.27,-86 1527.27,-122"/>
<text text-anchor="middle" x="1463" y="-99.8" font-family="Times,serif" font-size="14.00">AppRoutingModule</text>
</g>
<!-- AppRoutingModule&#45;&gt;AppModule -->
<g id="edge3" class="edge">
<title>AppRoutingModule&#45;&gt;AppModule</title>
<path fill="none" stroke="black" d="M1463,-122.02C1463,-139.37 1463,-163 1463,-163 1463,-163 1185.67,-163 1185.67,-163"/>
<polygon fill="black" stroke="black" points="1185.67,-159.5 1175.67,-163 1185.67,-166.5 1185.67,-159.5"/>
</g>
<!-- HttpClientModule -->
<g id="node5" class="node">
<title>HttpClientModule</title>
<polygon fill="#8dd3c7" stroke="black" points="1380.16,-122 1377.16,-126 1356.16,-126 1353.16,-122 1261.84,-122 1261.84,-86 1380.16,-86 1380.16,-122"/>
<text text-anchor="middle" x="1321" y="-99.8" font-family="Times,serif" font-size="14.00">HttpClientModule</text>
</g>
<!-- HttpClientModule&#45;&gt;AppModule -->
<g id="edge4" class="edge">
<title>HttpClientModule&#45;&gt;AppModule</title>
<path fill="none" stroke="black" d="M1321,-122.24C1321,-137.57 1321,-157 1321,-157 1321,-157 1185.97,-157 1185.97,-157"/>
<polygon fill="black" stroke="black" points="1185.97,-153.5 1175.97,-157 1185.97,-160.5 1185.97,-153.5"/>
</g>
<!-- WeaverModule -->
<g id="node6" class="node">
<title>WeaverModule</title>
<polygon fill="#8dd3c7" stroke="black" points="1243.57,-122 1240.57,-126 1219.57,-126 1216.57,-122 1140.43,-122 1140.43,-86 1243.57,-86 1243.57,-122"/>
<text text-anchor="middle" x="1192" y="-99.8" font-family="Times,serif" font-size="14.00">WeaverModule</text>
</g>
<!-- WeaverModule&#45;&gt;AppModule -->
<g id="edge5" class="edge">
<title>WeaverModule&#45;&gt;AppModule</title>
<path fill="none" stroke="black" d="M1158.15,-122.11C1158.15,-122.11 1158.15,-140.99 1158.15,-140.99"/>
<polygon fill="black" stroke="black" points="1154.65,-140.99 1158.15,-150.99 1161.65,-140.99 1154.65,-140.99"/>
</g>
<!-- MixerModule -->
<g id="node7" class="node">
<title>MixerModule</title>
<polygon fill="#8dd3c7" stroke="black" points="1122.76,-122 1119.76,-126 1098.76,-126 1095.76,-122 1029.24,-122 1029.24,-86 1122.76,-86 1122.76,-122"/>
<text text-anchor="middle" x="1076" y="-99.8" font-family="Times,serif" font-size="14.00">MixerModule</text>
</g>
<!-- MixerModule&#45;&gt;AppModule -->
<g id="edge6" class="edge">
<title>MixerModule&#45;&gt;AppModule</title>
<path fill="none" stroke="black" d="M1107.53,-122.11C1107.53,-122.11 1107.53,-140.99 1107.53,-140.99"/>
<polygon fill="black" stroke="black" points="1104.03,-140.99 1107.53,-150.99 1111.03,-140.99 1104.03,-140.99"/>
</g>
<!-- BrowserAnimationsModule -->
<g id="node8" class="node">
<title>BrowserAnimationsModule</title>
<polygon fill="#8dd3c7" stroke="black" points="1011.3,-122 1008.3,-126 987.3,-126 984.3,-122 838.7,-122 838.7,-86 1011.3,-86 1011.3,-122"/>
<text text-anchor="middle" x="925" y="-99.8" font-family="Times,serif" font-size="14.00">BrowserAnimationsModule</text>
</g>
<!-- BrowserAnimationsModule&#45;&gt;AppModule -->
<g id="edge7" class="edge">
<title>BrowserAnimationsModule&#45;&gt;AppModule</title>
<path fill="none" stroke="black" d="M925,-122.24C925,-137.57 925,-157 925,-157 925,-157 1082.21,-157 1082.21,-157"/>
<polygon fill="black" stroke="black" points="1082.21,-160.5 1092.21,-157 1082.21,-153.5 1082.21,-160.5"/>
</g>
<!-- AngularFireModule.initializeApp(args) -->
<g id="node9" class="node">
<title>AngularFireModule.initializeApp(args)</title>
<polygon fill="#8dd3c7" stroke="black" points="820.71,-122 817.71,-126 796.71,-126 793.71,-122 583.29,-122 583.29,-86 820.71,-86 820.71,-122"/>
<text text-anchor="middle" x="702" y="-99.8" font-family="Times,serif" font-size="14.00">AngularFireModule.initializeApp(args)</text>
</g>
<!-- AngularFireModule.initializeApp(args)&#45;&gt;AppModule -->
<g id="edge8" class="edge">
<title>AngularFireModule.initializeApp(args)&#45;&gt;AppModule</title>
<path fill="none" stroke="black" d="M702,-122.02C702,-139.37 702,-163 702,-163 702,-163 1082.19,-163 1082.19,-163"/>
<polygon fill="black" stroke="black" points="1082.19,-166.5 1092.19,-163 1082.19,-159.5 1082.19,-166.5"/>
</g>
<!-- AngularFireDatabaseModule -->
<g id="node10" class="node">
<title>AngularFireDatabaseModule</title>
<polygon fill="#8dd3c7" stroke="black" points="565.77,-122 562.77,-126 541.77,-126 538.77,-122 386.23,-122 386.23,-86 565.77,-86 565.77,-122"/>
<text text-anchor="middle" x="476" y="-99.8" font-family="Times,serif" font-size="14.00">AngularFireDatabaseModule</text>
</g>
<!-- AngularFireDatabaseModule&#45;&gt;AppModule -->
<g id="edge9" class="edge">
<title>AngularFireDatabaseModule&#45;&gt;AppModule</title>
<path fill="none" stroke="black" d="M476,-122.11C476,-141.34 476,-169 476,-169 476,-169 1082.34,-169 1082.34,-169"/>
<polygon fill="black" stroke="black" points="1082.34,-172.5 1092.34,-169 1082.34,-165.5 1082.34,-172.5"/>
</g>
<!-- AngularFireAuthModule -->
<g id="node11" class="node">
<title>AngularFireAuthModule</title>
<polygon fill="#8dd3c7" stroke="black" points="367.97,-122 364.97,-126 343.97,-126 340.97,-122 212.03,-122 212.03,-86 367.97,-86 367.97,-122"/>
<text text-anchor="middle" x="290" y="-99.8" font-family="Times,serif" font-size="14.00">AngularFireAuthModule</text>
</g>
<!-- AngularFireAuthModule&#45;&gt;AppModule -->
<g id="edge10" class="edge">
<title>AngularFireAuthModule&#45;&gt;AppModule</title>
<path fill="none" stroke="black" d="M290,-122.28C290,-143.32 290,-175 290,-175 290,-175 1082.15,-175 1082.15,-175"/>
<polygon fill="black" stroke="black" points="1082.15,-178.5 1092.15,-175 1082.15,-171.5 1082.15,-178.5"/>
</g>
<!-- AngularFireStorageModule -->
<g id="node12" class="node">
<title>AngularFireStorageModule</title>
<polygon fill="#8dd3c7" stroke="black" points="194.23,-122 191.23,-126 170.23,-126 167.23,-122 23.77,-122 23.77,-86 194.23,-86 194.23,-122"/>
<text text-anchor="middle" x="109" y="-99.8" font-family="Times,serif" font-size="14.00">AngularFireStorageModule</text>
</g>
<!-- AngularFireStorageModule&#45;&gt;AppModule -->
<g id="edge11" class="edge">
<title>AngularFireStorageModule&#45;&gt;AppModule</title>
<path fill="none" stroke="black" d="M109,-122.25C109,-145.02 109,-181 109,-181 109,-181 1082.23,-181 1082.23,-181"/>
<polygon fill="black" stroke="black" points="1082.23,-184.5 1092.23,-181 1082.23,-177.5 1082.23,-184.5"/>
</g>
<!-- { provide: HAMMER_GESTURE_CONFIG, useClass: HammerGestureConfig } -->
<g id="node14" class="node">
<title>{ provide: HAMMER_GESTURE_CONFIG, useClass: HammerGestureConfig }</title>
<ellipse fill="#fdb462" stroke="black" cx="2003" cy="-104" rx="326.66" ry="18"/>
<text text-anchor="middle" x="2003" y="-99.8" font-family="Times,serif" font-size="14.00">{ provide: HAMMER_GESTURE_CONFIG, useClass: HammerGestureConfig }</text>
</g>
<!-- { provide: HAMMER_GESTURE_CONFIG, useClass: HammerGestureConfig }&#45;&gt;AppModule -->
<g id="edge13" class="edge">
<title>{ provide: HAMMER_GESTURE_CONFIG, useClass: HammerGestureConfig }&#45;&gt;AppModule</title>
<path fill="none" stroke="black" d="M2003,-122.28C2003,-143.32 2003,-175 2003,-175 2003,-175 1185.91,-175 1185.91,-175"/>
<polygon fill="black" stroke="black" points="1185.91,-171.5 1175.91,-175 1185.91,-178.5 1185.91,-171.5"/>
</g>
</g>
</svg>
