<?xml version="1.0" encoding="UTF-8" standalone="no"?>
<!DOCTYPE svg PUBLIC "-//W3C//DTD SVG 1.1//EN"
 "http://www.w3.org/Graphics/SVG/1.1/DTD/svg11.dtd">
<!-- Generated by graphviz version 2.47.0 (20210316.0004)
 -->
<!-- Title: dependencies Pages: 1 -->
<svg width="2492pt" height="284pt"
 viewBox="0.00 0.00 2492.00 284.00" xmlns="http://www.w3.org/2000/svg" xmlns:xlink="http://www.w3.org/1999/xlink">
<g id="graph0" class="graph" transform="scale(1 1) rotate(0) translate(4 280)">
<title>dependencies</title>
<polygon fill="white" stroke="transparent" points="-4,4 -4,-280 2488,-280 2488,4 -4,4"/>
<text text-anchor="start" x="1221.01" y="-42.4" font-family="sans-serif" font-weight="bold" font-size="14.00">Legend</text>
<polygon fill="#ffffb3" stroke="transparent" points="1008,-10 1008,-30 1028,-30 1028,-10 1008,-10"/>
<text text-anchor="start" x="1031.63" y="-15.4" font-family="sans-serif" font-size="14.00"> &#160;Declarations</text>
<polygon fill="#8dd3c7" stroke="transparent" points="1121,-10 1121,-30 1141,-30 1141,-10 1121,-10"/>
<text text-anchor="start" x="1144.73" y="-15.4" font-family="sans-serif" font-size="14.00"> &#160;Module</text>
<polygon fill="#80b1d3" stroke="transparent" points="1207,-10 1207,-30 1227,-30 1227,-10 1207,-10"/>
<text text-anchor="start" x="1230.78" y="-15.4" font-family="sans-serif" font-size="14.00"> &#160;Bootstrap</text>
<polygon fill="#fdb462" stroke="transparent" points="1304,-10 1304,-30 1324,-30 1324,-10 1304,-10"/>
<text text-anchor="start" x="1327.67" y="-15.4" font-family="sans-serif" font-size="14.00"> &#160;Providers</text>
<polygon fill="#fb8072" stroke="transparent" points="1400,-10 1400,-30 1420,-30 1420,-10 1400,-10"/>
<text text-anchor="start" x="1423.73" y="-15.4" font-family="sans-serif" font-size="14.00"> &#160;Exports</text>
<g id="clust1" class="cluster">
<title>cluster_AppModule</title>
<polygon fill="none" stroke="black" stroke-dasharray="1,5" points="8,-70 8,-268 2476,-268 2476,-70 8,-70"/>
</g>
<g id="clust2" class="cluster">
<title>cluster_AppModule_declarations</title>
<polygon fill="none" stroke="black" points="2346,-78 2346,-130 2468,-130 2468,-78 2346,-78"/>
</g>
<g id="clust4" class="cluster">
<title>cluster_AppModule_imports</title>
<polygon fill="none" stroke="black" points="694,-78 694,-130 2338,-130 2338,-78 694,-78"/>
</g>
<g id="clust6" class="cluster">
<title>cluster_AppModule_bootstrap</title>
<polygon fill="none" stroke="black" points="1616,-208 1616,-260 1740,-260 1740,-208 1616,-208"/>
</g>
<g id="clust7" class="cluster">
<title>cluster_AppModule_providers</title>
<polygon fill="none" stroke="black" points="16,-78 16,-130 686,-130 686,-78 16,-78"/>
</g>
<!-- AppComponent -->
<g id="node1" class="node">
<title>AppComponent</title>
<polygon fill="#ffffb3" stroke="black" points="2459.94,-122 2354.06,-122 2354.06,-86 2459.94,-86 2459.94,-122"/>
<text text-anchor="middle" x="2407" y="-99.8" font-family="Times,serif" font-size="14.00">AppComponent</text>
</g>
<!-- AppModule -->
<g id="node2" class="node">
<title>AppModule</title>
<polygon fill="#8dd3c7" stroke="black" points="1719.66,-187 1716.66,-191 1695.66,-191 1692.66,-187 1636.34,-187 1636.34,-151 1719.66,-151 1719.66,-187"/>
<text text-anchor="middle" x="1678" y="-164.8" font-family="Times,serif" font-size="14.00">AppModule</text>
</g>
<!-- AppComponent&#45;&gt;AppModule -->
<g id="edge1" class="edge">
<title>AppComponent&#45;&gt;AppModule</title>
<path fill="none" stroke="black" d="M2407,-122.25C2407,-145.02 2407,-181 2407,-181 2407,-181 1729.81,-181 1729.81,-181"/>
<polygon fill="black" stroke="black" points="1729.81,-177.5 1719.81,-181 1729.81,-184.5 1729.81,-177.5"/>
</g>
<!-- AppComponent  -->
<g id="node13" class="node">
<title>AppComponent </title>
<polygon fill="#80b1d3" stroke="black" points="1732.44,-252 1623.56,-252 1623.56,-216 1732.44,-216 1732.44,-252"/>
<text text-anchor="middle" x="1678" y="-229.8" font-family="Times,serif" font-size="14.00">AppComponent </text>
</g>
<!-- AppModule&#45;&gt;AppComponent  -->
<g id="edge12" class="edge">
<title>AppModule&#45;&gt;AppComponent </title>
<path fill="none" stroke="black" stroke-dasharray="1,5" d="M1678,-187.11C1678,-187.11 1678,-205.99 1678,-205.99"/>
<polygon fill="black" stroke="black" points="1674.5,-205.99 1678,-215.99 1681.5,-205.99 1674.5,-205.99"/>
</g>
<!-- BrowserModule -->
<g id="node3" class="node">
<title>BrowserModule</title>
<polygon fill="#8dd3c7" stroke="black" points="2330.47,-122 2327.47,-126 2306.47,-126 2303.47,-122 2223.53,-122 2223.53,-86 2330.47,-86 2330.47,-122"/>
<text text-anchor="middle" x="2277" y="-99.8" font-family="Times,serif" font-size="14.00">BrowserModule</text>
</g>
<!-- BrowserModule&#45;&gt;AppModule -->
<g id="edge2" class="edge">
<title>BrowserModule&#45;&gt;AppModule</title>
<path fill="none" stroke="black" d="M2277,-122.28C2277,-143.32 2277,-175 2277,-175 2277,-175 1730.12,-175 1730.12,-175"/>
<polygon fill="black" stroke="black" points="1730.12,-171.5 1720.12,-175 1730.12,-178.5 1730.12,-171.5"/>
</g>
<!-- AppRoutingModule -->
<g id="node4" class="node">
<title>AppRoutingModule</title>
<polygon fill="#8dd3c7" stroke="black" points="2205.27,-122 2202.27,-126 2181.27,-126 2178.27,-122 2076.73,-122 2076.73,-86 2205.27,-86 2205.27,-122"/>
<text text-anchor="middle" x="2141" y="-99.8" font-family="Times,serif" font-size="14.00">AppRoutingModule</text>
</g>
<!-- AppRoutingModule&#45;&gt;AppModule -->
<g id="edge3" class="edge">
<title>AppRoutingModule&#45;&gt;AppModule</title>
<path fill="none" stroke="black" d="M2141,-122.11C2141,-141.34 2141,-169 2141,-169 2141,-169 1729.9,-169 1729.9,-169"/>
<polygon fill="black" stroke="black" points="1729.9,-165.5 1719.9,-169 1729.9,-172.5 1729.9,-165.5"/>
</g>
<!-- HttpClientModule -->
<g id="node5" class="node">
<title>HttpClientModule</title>
<polygon fill="#8dd3c7" stroke="black" points="2058.16,-122 2055.16,-126 2034.16,-126 2031.16,-122 1939.84,-122 1939.84,-86 2058.16,-86 2058.16,-122"/>
<text text-anchor="middle" x="1999" y="-99.8" font-family="Times,serif" font-size="14.00">HttpClientModule</text>
</g>
<!-- HttpClientModule&#45;&gt;AppModule -->
<g id="edge4" class="edge">
<title>HttpClientModule&#45;&gt;AppModule</title>
<path fill="none" stroke="black" d="M1999,-122.02C1999,-139.37 1999,-163 1999,-163 1999,-163 1729.97,-163 1729.97,-163"/>
<polygon fill="black" stroke="black" points="1729.97,-159.5 1719.97,-163 1729.97,-166.5 1729.97,-159.5"/>
</g>
<!-- WeaverModule -->
<g id="node6" class="node">
<title>WeaverModule</title>
<polygon fill="#8dd3c7" stroke="black" points="1921.57,-122 1918.57,-126 1897.57,-126 1894.57,-122 1818.43,-122 1818.43,-86 1921.57,-86 1921.57,-122"/>
<text text-anchor="middle" x="1870" y="-99.8" font-family="Times,serif" font-size="14.00">WeaverModule</text>
</g>
<!-- WeaverModule&#45;&gt;AppModule -->
<g id="edge5" class="edge">
<title>WeaverModule&#45;&gt;AppModule</title>
<path fill="none" stroke="black" d="M1870,-122.24C1870,-137.57 1870,-157 1870,-157 1870,-157 1729.66,-157 1729.66,-157"/>
<polygon fill="black" stroke="black" points="1729.66,-153.5 1719.66,-157 1729.66,-160.5 1729.66,-153.5"/>
</g>
<!-- MixerModule -->
<g id="node7" class="node">
<title>MixerModule</title>
<polygon fill="#8dd3c7" stroke="black" points="1800.76,-122 1797.76,-126 1776.76,-126 1773.76,-122 1707.24,-122 1707.24,-86 1800.76,-86 1800.76,-122"/>
<text text-anchor="middle" x="1754" y="-99.8" font-family="Times,serif" font-size="14.00">MixerModule</text>
</g>
<!-- MixerModule&#45;&gt;AppModule -->
<g id="edge6" class="edge">
<title>MixerModule&#45;&gt;AppModule</title>
<path fill="none" stroke="black" d="M1713.47,-122.11C1713.47,-122.11 1713.47,-140.99 1713.47,-140.99"/>
<polygon fill="black" stroke="black" points="1709.97,-140.99 1713.47,-150.99 1716.97,-140.99 1709.97,-140.99"/>
</g>
<!-- BrowserAnimationsModule -->
<g id="node8" class="node">
<title>BrowserAnimationsModule</title>
<polygon fill="#8dd3c7" stroke="black" points="1689.3,-122 1686.3,-126 1665.3,-126 1662.3,-122 1516.7,-122 1516.7,-86 1689.3,-86 1689.3,-122"/>
<text text-anchor="middle" x="1603" y="-99.8" font-family="Times,serif" font-size="14.00">BrowserAnimationsModule</text>
</g>
<!-- BrowserAnimationsModule&#45;&gt;AppModule -->
<g id="edge7" class="edge">
<title>BrowserAnimationsModule&#45;&gt;AppModule</title>
<path fill="none" stroke="black" d="M1662.66,-122.11C1662.66,-122.11 1662.66,-140.99 1662.66,-140.99"/>
<polygon fill="black" stroke="black" points="1659.16,-140.99 1662.66,-150.99 1666.16,-140.99 1659.16,-140.99"/>
</g>
<!-- AngularFireModule.initializeApp(args) -->
<g id="node9" class="node">
<title>AngularFireModule.initializeApp(args)</title>
<polygon fill="#8dd3c7" stroke="black" points="1498.71,-122 1495.71,-126 1474.71,-126 1471.71,-122 1261.29,-122 1261.29,-86 1498.71,-86 1498.71,-122"/>
<text text-anchor="middle" x="1380" y="-99.8" font-family="Times,serif" font-size="14.00">AngularFireModule.initializeApp(args)</text>
</g>
<!-- AngularFireModule.initializeApp(args)&#45;&gt;AppModule -->
<g id="edge8" class="edge">
<title>AngularFireModule.initializeApp(args)&#45;&gt;AppModule</title>
<path fill="none" stroke="black" d="M1380,-122.24C1380,-137.57 1380,-157 1380,-157 1380,-157 1626.25,-157 1626.25,-157"/>
<polygon fill="black" stroke="black" points="1626.25,-160.5 1636.25,-157 1626.25,-153.5 1626.25,-160.5"/>
</g>
<!-- AngularFireDatabaseModule -->
<g id="node10" class="node">
<title>AngularFireDatabaseModule</title>
<polygon fill="#8dd3c7" stroke="black" points="1243.77,-122 1240.77,-126 1219.77,-126 1216.77,-122 1064.23,-122 1064.23,-86 1243.77,-86 1243.77,-122"/>
<text text-anchor="middle" x="1154" y="-99.8" font-family="Times,serif" font-size="14.00">AngularFireDatabaseModule</text>
</g>
<!-- AngularFireDatabaseModule&#45;&gt;AppModule -->
<g id="edge9" class="edge">
<title>AngularFireDatabaseModule&#45;&gt;AppModule</title>
<path fill="none" stroke="black" d="M1154,-122.02C1154,-139.37 1154,-163 1154,-163 1154,-163 1626,-163 1626,-163"/>
<polygon fill="black" stroke="black" points="1626,-166.5 1636,-163 1626,-159.5 1626,-166.5"/>
</g>
<!-- AngularFireAuthModule -->
<g id="node11" class="node">
<title>AngularFireAuthModule</title>
<polygon fill="#8dd3c7" stroke="black" points="1045.97,-122 1042.97,-126 1021.97,-126 1018.97,-122 890.03,-122 890.03,-86 1045.97,-86 1045.97,-122"/>
<text text-anchor="middle" x="968" y="-99.8" font-family="Times,serif" font-size="14.00">AngularFireAuthModule</text>
</g>
<!-- AngularFireAuthModule&#45;&gt;AppModule -->
<g id="edge10" class="edge">
<title>AngularFireAuthModule&#45;&gt;AppModule</title>
<path fill="none" stroke="black" d="M968,-122.11C968,-141.34 968,-169 968,-169 968,-169 1626.24,-169 1626.24,-169"/>
<polygon fill="black" stroke="black" points="1626.24,-172.5 1636.24,-169 1626.24,-165.5 1626.24,-172.5"/>
</g>
<!-- AngularFireStorageModule -->
<g id="node12" class="node">
<title>AngularFireStorageModule</title>
<polygon fill="#8dd3c7" stroke="black" points="872.23,-122 869.23,-126 848.23,-126 845.23,-122 701.77,-122 701.77,-86 872.23,-86 872.23,-122"/>
<text text-anchor="middle" x="787" y="-99.8" font-family="Times,serif" font-size="14.00">AngularFireStorageModule</text>
</g>
<!-- AngularFireStorageModule&#45;&gt;AppModule -->
<g id="edge11" class="edge">
<title>AngularFireStorageModule&#45;&gt;AppModule</title>
<path fill="none" stroke="black" d="M787,-122.28C787,-143.32 787,-175 787,-175 787,-175 1626.22,-175 1626.22,-175"/>
<polygon fill="black" stroke="black" points="1626.22,-178.5 1636.22,-175 1626.22,-171.5 1626.22,-178.5"/>
</g>
<!-- { provide: HAMMER_GESTURE_CONFIG, useClass: HammerGestureConfig } -->
<g id="node14" class="node">
<title>{ provide: HAMMER_GESTURE_CONFIG, useClass: HammerGestureConfig }</title>
<ellipse fill="#fdb462" stroke="black" cx="351" cy="-104" rx="326.66" ry="18"/>
<text text-anchor="middle" x="351" y="-99.8" font-family="Times,serif" font-size="14.00">{ provide: HAMMER_GESTURE_CONFIG, useClass: HammerGestureConfig }</text>
</g>
<!-- { provide: HAMMER_GESTURE_CONFIG, useClass: HammerGestureConfig }&#45;&gt;AppModule -->
<g id="edge13" class="edge">
<title>{ provide: HAMMER_GESTURE_CONFIG, useClass: HammerGestureConfig }&#45;&gt;AppModule</title>
<path fill="none" stroke="black" d="M351,-122.25C351,-145.02 351,-181 351,-181 351,-181 1626.09,-181 1626.09,-181"/>
<polygon fill="black" stroke="black" points="1626.09,-184.5 1636.09,-181 1626.09,-177.5 1626.09,-184.5"/>
</g>
</g>
</svg>
