<?xml version="1.0" encoding="UTF-8" standalone="no"?>
<!DOCTYPE svg PUBLIC "-//W3C//DTD SVG 1.1//EN"
 "http://www.w3.org/Graphics/SVG/1.1/DTD/svg11.dtd">
<!-- Generated by graphviz version 2.47.0 (20210316.0004)
 -->
<!-- Title: dependencies Pages: 1 -->
<svg width="3501pt" height="284pt"
 viewBox="0.00 0.00 3501.00 284.00" xmlns="http://www.w3.org/2000/svg" xmlns:xlink="http://www.w3.org/1999/xlink">
<g id="graph0" class="graph" transform="scale(1 1) rotate(0) translate(4 280)">
<title>dependencies</title>
<polygon fill="white" stroke="transparent" points="-4,4 -4,-280 3497,-280 3497,4 -4,4"/>
<text text-anchor="start" x="1725.51" y="-42.4" font-family="Times-12" font-weight="bold" font-size="14.00">Legend</text>
<polygon fill="#ffffb3" stroke="transparent" points="1512.5,-10 1512.5,-30 1532.5,-30 1532.5,-10 1512.5,-10"/>
<text text-anchor="start" x="1536.13" y="-15.4" font-family="Times-12" font-size="14.00"> &#160;Declarations</text>
<polygon fill="#8dd3c7" stroke="transparent" points="1625.5,-10 1625.5,-30 1645.5,-30 1645.5,-10 1625.5,-10"/>
<text text-anchor="start" x="1649.23" y="-15.4" font-family="Times-12" font-size="14.00"> &#160;Module</text>
<polygon fill="#80b1d3" stroke="transparent" points="1711.5,-10 1711.5,-30 1731.5,-30 1731.5,-10 1711.5,-10"/>
<text text-anchor="start" x="1735.28" y="-15.4" font-family="Times-12" font-size="14.00"> &#160;Bootstrap</text>
<polygon fill="#fdb462" stroke="transparent" points="1808.5,-10 1808.5,-30 1828.5,-30 1828.5,-10 1808.5,-10"/>
<text text-anchor="start" x="1832.17" y="-15.4" font-family="Times-12" font-size="14.00"> &#160;Providers</text>
<polygon fill="#fb8072" stroke="transparent" points="1904.5,-10 1904.5,-30 1924.5,-30 1924.5,-10 1904.5,-10"/>
<text text-anchor="start" x="1928.23" y="-15.4" font-family="Times-12" font-size="14.00"> &#160;Exports</text>
<g id="clust1" class="cluster">
<title>cluster_AppModule</title>
<polygon fill="none" stroke="black" stroke-dasharray="1,5" points="8,-70 8,-268 3485,-268 3485,-70 8,-70"/>
</g>
<g id="clust2" class="cluster">
<title>cluster_AppModule_declarations</title>
<polygon fill="none" stroke="black" points="3355,-78 3355,-130 3477,-130 3477,-78 3355,-78"/>
</g>
<g id="clust4" class="cluster">
<title>cluster_AppModule_imports</title>
<polygon fill="none" stroke="black" points="694,-78 694,-130 3347,-130 3347,-78 694,-78"/>
</g>
<g id="clust6" class="cluster">
<title>cluster_AppModule_bootstrap</title>
<polygon fill="none" stroke="black" points="2063,-208 2063,-260 2187,-260 2187,-208 2063,-208"/>
</g>
<g id="clust7" class="cluster">
<title>cluster_AppModule_providers</title>
<polygon fill="none" stroke="black" points="16,-78 16,-130 686,-130 686,-78 16,-78"/>
</g>
<!-- AppComponent -->
<g id="node1" class="node">
<title>AppComponent</title>
<polygon fill="#ffffb3" stroke="black" points="3468.94,-122 3363.06,-122 3363.06,-86 3468.94,-86 3468.94,-122"/>
<text text-anchor="middle" x="3416" y="-99.8" font-family="Times,serif" font-size="14.00">AppComponent</text>
</g>
<!-- AppModule -->
<g id="node2" class="node">
<title>AppModule</title>
<polygon fill="#8dd3c7" stroke="black" points="2166.66,-187 2163.66,-191 2142.66,-191 2139.66,-187 2083.34,-187 2083.34,-151 2166.66,-151 2166.66,-187"/>
<text text-anchor="middle" x="2125" y="-164.8" font-family="Times,serif" font-size="14.00">AppModule</text>
</g>
<!-- AppComponent&#45;&gt;AppModule -->
<g id="edge1" class="edge">
<title>AppComponent&#45;&gt;AppModule</title>
<path fill="none" stroke="black" d="M3416,-122.15C3416,-145.76 3416,-184 3416,-184 3416,-184 2176.86,-184 2176.86,-184"/>
<polygon fill="black" stroke="black" points="2176.86,-180.5 2166.86,-184 2176.86,-187.5 2176.86,-180.5"/>
</g>
<!-- AppComponent  -->
<g id="node20" class="node">
<title>AppComponent </title>
<polygon fill="#80b1d3" stroke="black" points="2179.44,-252 2070.56,-252 2070.56,-216 2179.44,-216 2179.44,-252"/>
<text text-anchor="middle" x="2125" y="-229.8" font-family="Times,serif" font-size="14.00">AppComponent </text>
</g>
<!-- AppModule&#45;&gt;AppComponent  -->
<g id="edge20" class="edge">
<title>AppModule&#45;&gt;AppComponent </title>
<path fill="none" stroke="black" stroke-dasharray="1,5" d="M2125,-187.11C2125,-187.11 2125,-205.99 2125,-205.99"/>
<polygon fill="black" stroke="black" points="2121.5,-205.99 2125,-215.99 2128.5,-205.99 2121.5,-205.99"/>
</g>
<!-- BrowserModule -->
<g id="node3" class="node">
<title>BrowserModule</title>
<polygon fill="#8dd3c7" stroke="black" points="3339.47,-122 3336.47,-126 3315.47,-126 3312.47,-122 3232.53,-122 3232.53,-86 3339.47,-86 3339.47,-122"/>
<text text-anchor="middle" x="3286" y="-99.8" font-family="Times,serif" font-size="14.00">BrowserModule</text>
</g>
<!-- BrowserModule&#45;&gt;AppModule -->
<g id="edge2" class="edge">
<title>BrowserModule&#45;&gt;AppModule</title>
<path fill="none" stroke="black" d="M3286,-122.01C3286,-144.49 3286,-180 3286,-180 3286,-180 2176.66,-180 2176.66,-180"/>
<polygon fill="black" stroke="black" points="2176.66,-176.5 2166.66,-180 2176.66,-183.5 2176.66,-176.5"/>
</g>
<!-- AppRoutingModule -->
<g id="node4" class="node">
<title>AppRoutingModule</title>
<polygon fill="#8dd3c7" stroke="black" points="3214.27,-122 3211.27,-126 3190.27,-126 3187.27,-122 3085.73,-122 3085.73,-86 3214.27,-86 3214.27,-122"/>
<text text-anchor="middle" x="3150" y="-99.8" font-family="Times,serif" font-size="14.00">AppRoutingModule</text>
</g>
<!-- AppRoutingModule&#45;&gt;AppModule -->
<g id="edge3" class="edge">
<title>AppRoutingModule&#45;&gt;AppModule</title>
<path fill="none" stroke="black" d="M3150,-122.04C3150,-143.66 3150,-177 3150,-177 3150,-177 2176.77,-177 2176.77,-177"/>
<polygon fill="black" stroke="black" points="2176.77,-173.5 2166.77,-177 2176.77,-180.5 2176.77,-173.5"/>
</g>
<!-- HttpClientModule -->
<g id="node5" class="node">
<title>HttpClientModule</title>
<polygon fill="#8dd3c7" stroke="black" points="3067.16,-122 3064.16,-126 3043.16,-126 3040.16,-122 2948.84,-122 2948.84,-86 3067.16,-86 3067.16,-122"/>
<text text-anchor="middle" x="3008" y="-99.8" font-family="Times,serif" font-size="14.00">HttpClientModule</text>
</g>
<!-- HttpClientModule&#45;&gt;AppModule -->
<g id="edge4" class="edge">
<title>HttpClientModule&#45;&gt;AppModule</title>
<path fill="none" stroke="black" d="M3008,-122.13C3008,-142.57 3008,-173 3008,-173 3008,-173 2176.7,-173 2176.7,-173"/>
<polygon fill="black" stroke="black" points="2176.7,-169.5 2166.7,-173 2176.7,-176.5 2176.7,-169.5"/>
</g>
<!-- CoreModule -->
<g id="node6" class="node">
<title>CoreModule</title>
<polygon fill="#8dd3c7" stroke="black" points="2930.26,-122 2927.26,-126 2906.26,-126 2903.26,-122 2843.74,-122 2843.74,-86 2930.26,-86 2930.26,-122"/>
<text text-anchor="middle" x="2887" y="-99.8" font-family="Times,serif" font-size="14.00">CoreModule</text>
</g>
<!-- CoreModule&#45;&gt;AppModule -->
<g id="edge5" class="edge">
<title>CoreModule&#45;&gt;AppModule</title>
<path fill="none" stroke="black" d="M2887,-122.11C2887,-141.34 2887,-169 2887,-169 2887,-169 2176.78,-169 2176.78,-169"/>
<polygon fill="black" stroke="black" points="2176.78,-165.5 2166.78,-169 2176.78,-172.5 2176.78,-165.5"/>
</g>
<!-- DraftDetailModule -->
<g id="node7" class="node">
<title>DraftDetailModule</title>
<polygon fill="#8dd3c7" stroke="black" points="2825.79,-122 2822.79,-126 2801.79,-126 2798.79,-122 2702.21,-122 2702.21,-86 2825.79,-86 2825.79,-122"/>
<text text-anchor="middle" x="2764" y="-99.8" font-family="Times,serif" font-size="14.00">DraftDetailModule</text>
</g>
<!-- DraftDetailModule&#45;&gt;AppModule -->
<g id="edge6" class="edge">
<title>DraftDetailModule&#45;&gt;AppModule</title>
<path fill="none" stroke="black" d="M2764,-122.27C2764,-140.56 2764,-166 2764,-166 2764,-166 2176.93,-166 2176.93,-166"/>
<polygon fill="black" stroke="black" points="2176.93,-162.5 2166.93,-166 2176.93,-169.5 2176.93,-162.5"/>
</g>
<!-- MixerModule -->
<g id="node8" class="node">
<title>MixerModule</title>
<polygon fill="#8dd3c7" stroke="black" points="2683.76,-122 2680.76,-126 2659.76,-126 2656.76,-122 2590.24,-122 2590.24,-86 2683.76,-86 2683.76,-122"/>
<text text-anchor="middle" x="2637" y="-99.8" font-family="Times,serif" font-size="14.00">MixerModule</text>
</g>
<!-- MixerModule&#45;&gt;AppModule -->
<g id="edge7" class="edge">
<title>MixerModule&#45;&gt;AppModule</title>
<path fill="none" stroke="black" d="M2637,-122.03C2637,-139.06 2637,-162 2637,-162 2637,-162 2176.9,-162 2176.9,-162"/>
<polygon fill="black" stroke="black" points="2176.9,-158.5 2166.9,-162 2176.9,-165.5 2176.9,-158.5"/>
</g>
<!-- BrowserAnimationsModule -->
<g id="node9" class="node">
<title>BrowserAnimationsModule</title>
<polygon fill="#8dd3c7" stroke="black" points="2572.3,-122 2569.3,-126 2548.3,-126 2545.3,-122 2399.7,-122 2399.7,-86 2572.3,-86 2572.3,-122"/>
<text text-anchor="middle" x="2486" y="-99.8" font-family="Times,serif" font-size="14.00">BrowserAnimationsModule</text>
</g>
<!-- BrowserAnimationsModule&#45;&gt;AppModule -->
<g id="edge8" class="edge">
<title>BrowserAnimationsModule&#45;&gt;AppModule</title>
<path fill="none" stroke="black" d="M2486,-122.01C2486,-138.05 2486,-159 2486,-159 2486,-159 2176.76,-159 2176.76,-159"/>
<polygon fill="black" stroke="black" points="2176.76,-155.5 2166.76,-159 2176.76,-162.5 2176.76,-155.5"/>
</g>
<!-- provideFirebaseApp.(args) -->
<g id="node10" class="node">
<title>provideFirebaseApp.(args)</title>
<polygon fill="#8dd3c7" stroke="black" points="2382.44,-122 2379.44,-126 2358.44,-126 2355.44,-122 2215.56,-122 2215.56,-86 2382.44,-86 2382.44,-122"/>
<text text-anchor="middle" x="2299" y="-99.8" font-family="Times,serif" font-size="14.00">provideFirebaseApp.(args)</text>
</g>
<!-- provideFirebaseApp.(args)&#45;&gt;AppModule -->
<g id="edge9" class="edge">
<title>provideFirebaseApp.(args)&#45;&gt;AppModule</title>
<path fill="none" stroke="black" d="M2299,-122.12C2299,-136.78 2299,-155 2299,-155 2299,-155 2176.68,-155 2176.68,-155"/>
<polygon fill="black" stroke="black" points="2176.68,-151.5 2166.68,-155 2176.68,-158.5 2176.68,-151.5"/>
</g>
<!-- provideFirestore.(args) -->
<g id="node11" class="node">
<title>provideFirestore.(args)</title>
<polygon fill="#8dd3c7" stroke="black" points="2197.17,-122 2194.17,-126 2173.17,-126 2170.17,-122 2052.83,-122 2052.83,-86 2197.17,-86 2197.17,-122"/>
<text text-anchor="middle" x="2125" y="-99.8" font-family="Times,serif" font-size="14.00">provideFirestore.(args)</text>
</g>
<!-- provideFirestore.(args)&#45;&gt;AppModule -->
<g id="edge10" class="edge">
<title>provideFirestore.(args)&#45;&gt;AppModule</title>
<path fill="none" stroke="black" d="M2111.06,-122.11C2111.06,-122.11 2111.06,-140.99 2111.06,-140.99"/>
<polygon fill="black" stroke="black" points="2107.56,-140.99 2111.06,-150.99 2114.56,-140.99 2107.56,-140.99"/>
</g>
<!-- provideFirestore.(args)&#45;&gt;AppModule -->
<g id="edge14" class="edge">
<title>provideFirestore.(args)&#45;&gt;AppModule</title>
<path fill="none" stroke="black" d="M2138.94,-122.11C2138.94,-122.11 2138.94,-140.99 2138.94,-140.99"/>
<polygon fill="black" stroke="black" points="2135.44,-140.99 2138.94,-150.99 2142.44,-140.99 2135.44,-140.99"/>
</g>
<!-- provideAnalytics.(args) -->
<g id="node12" class="node">
<title>provideAnalytics.(args)</title>
<polygon fill="#8dd3c7" stroke="black" points="2034.06,-122 2031.06,-126 2010.06,-126 2007.06,-122 1885.94,-122 1885.94,-86 2034.06,-86 2034.06,-122"/>
<text text-anchor="middle" x="1960" y="-99.8" font-family="Times,serif" font-size="14.00">provideAnalytics.(args)</text>
</g>
<!-- provideAnalytics.(args)&#45;&gt;AppModule -->
<g id="edge11" class="edge">
<title>provideAnalytics.(args)&#45;&gt;AppModule</title>
<path fill="none" stroke="black" d="M1960,-122.12C1960,-136.78 1960,-155 1960,-155 1960,-155 2072.94,-155 2072.94,-155"/>
<polygon fill="black" stroke="black" points="2072.94,-158.5 2082.94,-155 2072.94,-151.5 2072.94,-158.5"/>
</g>
<!-- provideAuth.(args) -->
<g id="node13" class="node">
<title>provideAuth.(args)</title>
<polygon fill="#8dd3c7" stroke="black" points="1867.4,-122 1864.4,-126 1843.4,-126 1840.4,-122 1744.6,-122 1744.6,-86 1867.4,-86 1867.4,-122"/>
<text text-anchor="middle" x="1806" y="-99.8" font-family="Times,serif" font-size="14.00">provideAuth.(args)</text>
</g>
<!-- provideAuth.(args)&#45;&gt;AppModule -->
<g id="edge12" class="edge">
<title>provideAuth.(args)&#45;&gt;AppModule</title>
<path fill="none" stroke="black" d="M1806,-122.01C1806,-138.05 1806,-159 1806,-159 1806,-159 2073.3,-159 2073.3,-159"/>
<polygon fill="black" stroke="black" points="2073.3,-162.5 2083.3,-159 2073.3,-155.5 2073.3,-162.5"/>
</g>
<!-- provideDatabase.(args) -->
<g id="node14" class="node">
<title>provideDatabase.(args)</title>
<polygon fill="#8dd3c7" stroke="black" points="1726.21,-122 1723.21,-126 1702.21,-126 1699.21,-122 1579.79,-122 1579.79,-86 1726.21,-86 1726.21,-122"/>
<text text-anchor="middle" x="1653" y="-99.8" font-family="Times,serif" font-size="14.00">provideDatabase.(args)</text>
</g>
<!-- provideDatabase.(args)&#45;&gt;AppModule -->
<g id="edge13" class="edge">
<title>provideDatabase.(args)&#45;&gt;AppModule</title>
<path fill="none" stroke="black" d="M1653,-122.03C1653,-139.06 1653,-162 1653,-162 1653,-162 2073.11,-162 2073.11,-162"/>
<polygon fill="black" stroke="black" points="2073.11,-165.5 2083.11,-162 2073.11,-158.5 2073.11,-165.5"/>
</g>
<!-- provideFunctions.(args) -->
<g id="node15" class="node">
<title>provideFunctions.(args)</title>
<polygon fill="#8dd3c7" stroke="black" points="1562.13,-122 1559.13,-126 1538.13,-126 1535.13,-122 1411.87,-122 1411.87,-86 1562.13,-86 1562.13,-122"/>
<text text-anchor="middle" x="1487" y="-99.8" font-family="Times,serif" font-size="14.00">provideFunctions.(args)</text>
</g>
<!-- provideFunctions.(args)&#45;&gt;AppModule -->
<g id="edge15" class="edge">
<title>provideFunctions.(args)&#45;&gt;AppModule</title>
<path fill="none" stroke="black" d="M1487,-122.27C1487,-140.56 1487,-166 1487,-166 1487,-166 2073.14,-166 2073.14,-166"/>
<polygon fill="black" stroke="black" points="2073.14,-169.5 2083.14,-166 2073.14,-162.5 2073.14,-169.5"/>
</g>
<!-- provideMessaging.(args) -->
<g id="node16" class="node">
<title>provideMessaging.(args)</title>
<polygon fill="#8dd3c7" stroke="black" points="1393.56,-122 1390.56,-126 1369.56,-126 1366.56,-122 1238.44,-122 1238.44,-86 1393.56,-86 1393.56,-122"/>
<text text-anchor="middle" x="1316" y="-99.8" font-family="Times,serif" font-size="14.00">provideMessaging.(args)</text>
</g>
<!-- provideMessaging.(args)&#45;&gt;AppModule -->
<g id="edge16" class="edge">
<title>provideMessaging.(args)&#45;&gt;AppModule</title>
<path fill="none" stroke="black" d="M1316,-122.11C1316,-141.34 1316,-169 1316,-169 1316,-169 2073.21,-169 2073.21,-169"/>
<polygon fill="black" stroke="black" points="2073.21,-172.5 2083.21,-169 2073.21,-165.5 2073.21,-172.5"/>
</g>
<!-- providePerformance.(args) -->
<g id="node17" class="node">
<title>providePerformance.(args)</title>
<polygon fill="#8dd3c7" stroke="black" points="1220.42,-122 1217.42,-126 1196.42,-126 1193.42,-122 1053.58,-122 1053.58,-86 1220.42,-86 1220.42,-122"/>
<text text-anchor="middle" x="1137" y="-99.8" font-family="Times,serif" font-size="14.00">providePerformance.(args)</text>
</g>
<!-- providePerformance.(args)&#45;&gt;AppModule -->
<g id="edge17" class="edge">
<title>providePerformance.(args)&#45;&gt;AppModule</title>
<path fill="none" stroke="black" d="M1137,-122.13C1137,-142.57 1137,-173 1137,-173 1137,-173 2073.18,-173 2073.18,-173"/>
<polygon fill="black" stroke="black" points="2073.18,-176.5 2083.18,-173 2073.18,-169.5 2073.18,-176.5"/>
</g>
<!-- provideRemoteConfig.(args) -->
<g id="node18" class="node">
<title>provideRemoteConfig.(args)</title>
<polygon fill="#8dd3c7" stroke="black" points="1035.84,-122 1032.84,-126 1011.84,-126 1008.84,-122 858.16,-122 858.16,-86 1035.84,-86 1035.84,-122"/>
<text text-anchor="middle" x="947" y="-99.8" font-family="Times,serif" font-size="14.00">provideRemoteConfig.(args)</text>
</g>
<!-- provideRemoteConfig.(args)&#45;&gt;AppModule -->
<g id="edge18" class="edge">
<title>provideRemoteConfig.(args)&#45;&gt;AppModule</title>
<path fill="none" stroke="black" d="M947,-122.04C947,-143.66 947,-177 947,-177 947,-177 2073.07,-177 2073.07,-177"/>
<polygon fill="black" stroke="black" points="2073.07,-180.5 2083.07,-177 2073.07,-173.5 2073.07,-180.5"/>
</g>
<!-- provideStorage.(args) -->
<g id="node19" class="node">
<title>provideStorage.(args)</title>
<polygon fill="#8dd3c7" stroke="black" points="839.67,-122 836.67,-126 815.67,-126 812.67,-122 702.33,-122 702.33,-86 839.67,-86 839.67,-122"/>
<text text-anchor="middle" x="771" y="-99.8" font-family="Times,serif" font-size="14.00">provideStorage.(args)</text>
</g>
<!-- provideStorage.(args)&#45;&gt;AppModule -->
<g id="edge19" class="edge">
<title>provideStorage.(args)&#45;&gt;AppModule</title>
<path fill="none" stroke="black" d="M771,-122.01C771,-144.49 771,-180 771,-180 771,-180 2072.99,-180 2072.99,-180"/>
<polygon fill="black" stroke="black" points="2072.99,-183.5 2082.99,-180 2072.99,-176.5 2072.99,-183.5"/>
</g>
<!-- { provide: HAMMER_GESTURE_CONFIG, useClass: HammerGestureConfig } -->
<g id="node21" class="node">
<title>{ provide: HAMMER_GESTURE_CONFIG, useClass: HammerGestureConfig }</title>
<ellipse fill="#fdb462" stroke="black" cx="351" cy="-104" rx="326.66" ry="18"/>
<text text-anchor="middle" x="351" y="-99.8" font-family="Times,serif" font-size="14.00">{ provide: HAMMER_GESTURE_CONFIG, useClass: HammerGestureConfig }</text>
</g>
<!-- { provide: HAMMER_GESTURE_CONFIG, useClass: HammerGestureConfig }&#45;&gt;AppModule -->
<g id="edge21" class="edge">
<title>{ provide: HAMMER_GESTURE_CONFIG, useClass: HammerGestureConfig }&#45;&gt;AppModule</title>
<path fill="none" stroke="black" d="M351,-122.15C351,-145.76 351,-184 351,-184 351,-184 2073.33,-184 2073.33,-184"/>
<polygon fill="black" stroke="black" points="2073.33,-187.5 2083.33,-184 2073.33,-180.5 2073.33,-187.5"/>
</g>
</g>
</svg>
