<?xml version="1.0" encoding="UTF-8" standalone="no"?>
<!DOCTYPE svg PUBLIC "-//W3C//DTD SVG 1.1//EN"
 "http://www.w3.org/Graphics/SVG/1.1/DTD/svg11.dtd">
<!-- Generated by graphviz version 2.47.0 (20210316.0004)
 -->
<!-- Title: dependencies Pages: 1 -->
<svg width="6306pt" height="211pt"
 viewBox="0.00 0.00 6306.00 211.00" xmlns="http://www.w3.org/2000/svg" xmlns:xlink="http://www.w3.org/1999/xlink">
<g id="graph0" class="graph" transform="scale(1 1) rotate(0) translate(4 207)">
<title>dependencies</title>
<polygon fill="white" stroke="transparent" points="-4,4 -4,-207 6302,-207 6302,4 -4,4"/>
<text text-anchor="start" x="3128.01" y="-42.4" font-family="sans-serif" font-weight="bold" font-size="14.00">Legend</text>
<polygon fill="#ffffb3" stroke="transparent" points="2915,-10 2915,-30 2935,-30 2935,-10 2915,-10"/>
<text text-anchor="start" x="2938.63" y="-15.4" font-family="sans-serif" font-size="14.00"> &#160;Declarations</text>
<polygon fill="#8dd3c7" stroke="transparent" points="3028,-10 3028,-30 3048,-30 3048,-10 3028,-10"/>
<text text-anchor="start" x="3051.73" y="-15.4" font-family="sans-serif" font-size="14.00"> &#160;Module</text>
<polygon fill="#80b1d3" stroke="transparent" points="3114,-10 3114,-30 3134,-30 3134,-10 3114,-10"/>
<text text-anchor="start" x="3137.78" y="-15.4" font-family="sans-serif" font-size="14.00"> &#160;Bootstrap</text>
<polygon fill="#fdb462" stroke="transparent" points="3211,-10 3211,-30 3231,-30 3231,-10 3211,-10"/>
<text text-anchor="start" x="3234.67" y="-15.4" font-family="sans-serif" font-size="14.00"> &#160;Providers</text>
<polygon fill="#fb8072" stroke="transparent" points="3307,-10 3307,-30 3327,-30 3327,-10 3307,-10"/>
<text text-anchor="start" x="3330.73" y="-15.4" font-family="sans-serif" font-size="14.00"> &#160;Exports</text>
<g id="clust1" class="cluster">
<title>cluster_WeaverModule</title>
<polygon fill="none" stroke="black" stroke-dasharray="1,5" points="8,-70 8,-195 6290,-195 6290,-70 8,-70"/>
</g>
<g id="clust2" class="cluster">
<title>cluster_WeaverModule_declarations</title>
<polygon fill="none" stroke="black" points="3955,-78 3955,-130 6282,-130 6282,-78 3955,-78"/>
</g>
<g id="clust21" class="cluster">
<title>cluster_WeaverModule_imports</title>
<polygon fill="none" stroke="black" points="16,-78 16,-130 3947,-130 3947,-78 16,-78"/>
</g>
<!-- WeaverComponent -->
<g id="node1" class="node">
<title>WeaverComponent</title>
<polygon fill="#ffffb3" stroke="black" points="6274.35,-122 6149.65,-122 6149.65,-86 6274.35,-86 6274.35,-122"/>
<text text-anchor="middle" x="6212" y="-99.8" font-family="Times,serif" font-size="14.00">WeaverComponent</text>
</g>
<!-- WeaverModule -->
<g id="node19" class="node">
<title>WeaverModule</title>
<polygon fill="#8dd3c7" stroke="black" points="3319.57,-187 3316.57,-191 3295.57,-191 3292.57,-187 3216.43,-187 3216.43,-151 3319.57,-151 3319.57,-187"/>
<text text-anchor="middle" x="3268" y="-164.8" font-family="Times,serif" font-size="14.00">WeaverModule</text>
</g>
<!-- WeaverComponent&#45;&gt;WeaverModule -->
<g id="edge1" class="edge">
<title>WeaverComponent&#45;&gt;WeaverModule</title>
<path fill="none" stroke="black" d="M6212,-122.2C6212,-146.36 6212,-186 6212,-186 6212,-186 3329.72,-186 3329.72,-186"/>
<polygon fill="black" stroke="black" points="3329.72,-182.5 3319.72,-186 3329.72,-189.5 3329.72,-182.5"/>
</g>
<!-- TopbarComponent -->
<g id="node2" class="node">
<title>TopbarComponent</title>
<polygon fill="#ffffb3" stroke="black" points="6131.76,-122 6010.24,-122 6010.24,-86 6131.76,-86 6131.76,-122"/>
<text text-anchor="middle" x="6071" y="-99.8" font-family="Times,serif" font-size="14.00">TopbarComponent</text>
</g>
<!-- TopbarComponent&#45;&gt;WeaverModule -->
<g id="edge2" class="edge">
<title>TopbarComponent&#45;&gt;WeaverModule</title>
<path fill="none" stroke="black" d="M6071,-122.15C6071,-145.76 6071,-184 6071,-184 6071,-184 3329.65,-184 3329.65,-184"/>
<polygon fill="black" stroke="black" points="3329.65,-180.5 3319.65,-184 3329.65,-187.5 3329.65,-180.5"/>
</g>
<!-- DesignComponent -->
<g id="node3" class="node">
<title>DesignComponent</title>
<polygon fill="#ffffb3" stroke="black" points="5992.49,-122 5871.51,-122 5871.51,-86 5992.49,-86 5992.49,-122"/>
<text text-anchor="middle" x="5932" y="-99.8" font-family="Times,serif" font-size="14.00">DesignComponent</text>
</g>
<!-- DesignComponent&#45;&gt;WeaverModule -->
<g id="edge3" class="edge">
<title>DesignComponent&#45;&gt;WeaverModule</title>
<path fill="none" stroke="black" d="M5932,-122.32C5932,-145.66 5932,-183 5932,-183 5932,-183 3329.72,-183 3329.72,-183"/>
<polygon fill="black" stroke="black" points="3329.72,-179.5 3319.72,-183 3329.72,-186.5 3329.72,-179.5"/>
</g>
<!-- PatternsComponent -->
<g id="node4" class="node">
<title>PatternsComponent</title>
<polygon fill="#ffffb3" stroke="black" points="5853.43,-122 5726.57,-122 5726.57,-86 5853.43,-86 5853.43,-122"/>
<text text-anchor="middle" x="5790" y="-99.8" font-family="Times,serif" font-size="14.00">PatternsComponent</text>
</g>
<!-- PatternsComponent&#45;&gt;WeaverModule -->
<g id="edge4" class="edge">
<title>PatternsComponent&#45;&gt;WeaverModule</title>
<path fill="none" stroke="black" d="M5790,-122.25C5790,-145.02 5790,-181 5790,-181 5790,-181 3329.81,-181 3329.81,-181"/>
<polygon fill="black" stroke="black" points="3329.81,-177.5 3319.81,-181 3329.81,-184.5 3329.81,-177.5"/>
</g>
<!-- ShuttlesModal -->
<g id="node5" class="node">
<title>ShuttlesModal</title>
<polygon fill="#ffffb3" stroke="black" points="5708.66,-122 5611.34,-122 5611.34,-86 5708.66,-86 5708.66,-122"/>
<text text-anchor="middle" x="5660" y="-99.8" font-family="Times,serif" font-size="14.00">ShuttlesModal</text>
</g>
<!-- ShuttlesModal&#45;&gt;WeaverModule -->
<g id="edge5" class="edge">
<title>ShuttlesModal&#45;&gt;WeaverModule</title>
<path fill="none" stroke="black" d="M5660,-122.01C5660,-144.49 5660,-180 5660,-180 5660,-180 3329.62,-180 3329.62,-180"/>
<polygon fill="black" stroke="black" points="3329.62,-176.5 3319.62,-180 3329.62,-183.5 3329.62,-176.5"/>
</g>
<!-- AboutModal -->
<g id="node6" class="node">
<title>AboutModal</title>
<polygon fill="#ffffb3" stroke="black" points="5592.55,-122 5505.45,-122 5505.45,-86 5592.55,-86 5592.55,-122"/>
<text text-anchor="middle" x="5549" y="-99.8" font-family="Times,serif" font-size="14.00">AboutModal</text>
</g>
<!-- AboutModal&#45;&gt;WeaverModule -->
<g id="edge6" class="edge">
<title>AboutModal&#45;&gt;WeaverModule</title>
<path fill="none" stroke="black" d="M5549,-122.29C5549,-144.21 5549,-178 5549,-178 5549,-178 3329.65,-178 3329.65,-178"/>
<polygon fill="black" stroke="black" points="3329.65,-174.5 3319.65,-178 3329.65,-181.5 3329.65,-174.5"/>
</g>
<!-- PatternModal -->
<g id="node7" class="node">
<title>PatternModal</title>
<polygon fill="#ffffb3" stroke="black" points="5487.2,-122 5394.8,-122 5394.8,-86 5487.2,-86 5487.2,-122"/>
<text text-anchor="middle" x="5441" y="-99.8" font-family="Times,serif" font-size="14.00">PatternModal</text>
</g>
<!-- PatternModal&#45;&gt;WeaverModule -->
<g id="edge7" class="edge">
<title>PatternModal&#45;&gt;WeaverModule</title>
<path fill="none" stroke="black" d="M5441,-122.04C5441,-143.66 5441,-177 5441,-177 5441,-177 3329.57,-177 3329.57,-177"/>
<polygon fill="black" stroke="black" points="3329.57,-173.5 3319.57,-177 3329.57,-180.5 3329.57,-173.5"/>
</g>
<!-- ConnectionModal -->
<g id="node8" class="node">
<title>ConnectionModal</title>
<polygon fill="#ffffb3" stroke="black" points="5376.6,-122 5259.4,-122 5259.4,-86 5376.6,-86 5376.6,-122"/>
<text text-anchor="middle" x="5318" y="-99.8" font-family="Times,serif" font-size="14.00">ConnectionModal</text>
</g>
<!-- ConnectionModal&#45;&gt;WeaverModule -->
<g id="edge8" class="edge">
<title>ConnectionModal&#45;&gt;WeaverModule</title>
<path fill="none" stroke="black" d="M5318,-122.28C5318,-143.32 5318,-175 5318,-175 5318,-175 3329.7,-175 3329.7,-175"/>
<polygon fill="black" stroke="black" points="3329.7,-171.5 3319.7,-175 3329.7,-178.5 3329.7,-171.5"/>
</g>
<!-- InitModal -->
<g id="node9" class="node">
<title>InitModal</title>
<polygon fill="#ffffb3" stroke="black" points="5240.99,-122 5169.01,-122 5169.01,-86 5240.99,-86 5240.99,-122"/>
<text text-anchor="middle" x="5205" y="-99.8" font-family="Times,serif" font-size="14.00">InitModal</text>
</g>
<!-- InitModal&#45;&gt;WeaverModule -->
<g id="edge9" class="edge">
<title>InitModal&#45;&gt;WeaverModule</title>
<path fill="none" stroke="black" d="M5205,-122.13C5205,-142.57 5205,-173 5205,-173 5205,-173 3329.81,-173 3329.81,-173"/>
<polygon fill="black" stroke="black" points="3329.81,-169.5 3319.81,-173 3329.81,-176.5 3329.81,-169.5"/>
</g>
<!-- LabelModal -->
<g id="node10" class="node">
<title>LabelModal</title>
<polygon fill="#ffffb3" stroke="black" points="5151.42,-122 5066.58,-122 5066.58,-86 5151.42,-86 5151.42,-122"/>
<text text-anchor="middle" x="5109" y="-99.8" font-family="Times,serif" font-size="14.00">LabelModal</text>
</g>
<!-- LabelModal&#45;&gt;WeaverModule -->
<g id="edge10" class="edge">
<title>LabelModal&#45;&gt;WeaverModule</title>
<path fill="none" stroke="black" d="M5109,-122.22C5109,-142.37 5109,-172 5109,-172 5109,-172 3329.65,-172 3329.65,-172"/>
<polygon fill="black" stroke="black" points="3329.65,-168.5 3319.65,-172 3329.65,-175.5 3329.65,-168.5"/>
</g>
<!-- MaterialModal -->
<g id="node11" class="node">
<title>MaterialModal</title>
<polygon fill="#ffffb3" stroke="black" points="5048.97,-122 4949.03,-122 4949.03,-86 5048.97,-86 5048.97,-122"/>
<text text-anchor="middle" x="4999" y="-99.8" font-family="Times,serif" font-size="14.00">MaterialModal</text>
</g>
<!-- MaterialModal&#45;&gt;WeaverModule -->
<g id="edge11" class="edge">
<title>MaterialModal&#45;&gt;WeaverModule</title>
<path fill="none" stroke="black" d="M4999,-122.03C4999,-141.58 4999,-170 4999,-170 4999,-170 3329.81,-170 3329.81,-170"/>
<polygon fill="black" stroke="black" points="3329.81,-166.5 3319.81,-170 3329.81,-173.5 3329.81,-166.5"/>
</g>
<!-- SystemsComponent -->
<g id="node12" class="node">
<title>SystemsComponent</title>
<polygon fill="#ffffb3" stroke="black" points="4931,-122 4803,-122 4803,-86 4931,-86 4931,-122"/>
<text text-anchor="middle" x="4867" y="-99.8" font-family="Times,serif" font-size="14.00">SystemsComponent</text>
</g>
<!-- SystemsComponent&#45;&gt;WeaverModule -->
<g id="edge12" class="edge">
<title>SystemsComponent&#45;&gt;WeaverModule</title>
<path fill="none" stroke="black" d="M4867,-122.11C4867,-141.34 4867,-169 4867,-169 4867,-169 3329.84,-169 3329.84,-169"/>
<polygon fill="black" stroke="black" points="3329.84,-165.5 3319.84,-169 3329.84,-172.5 3329.84,-165.5"/>
</g>
<!-- LoomComponent -->
<g id="node13" class="node">
<title>LoomComponent</title>
<polygon fill="#ffffb3" stroke="black" points="4785.28,-122 4670.72,-122 4670.72,-86 4785.28,-86 4785.28,-122"/>
<text text-anchor="middle" x="4728" y="-99.8" font-family="Times,serif" font-size="14.00">LoomComponent</text>
</g>
<!-- LoomComponent&#45;&gt;WeaverModule -->
<g id="edge13" class="edge">
<title>LoomComponent&#45;&gt;WeaverModule</title>
<path fill="none" stroke="black" d="M4728,-122.22C4728,-140.83 4728,-167 4728,-167 4728,-167 3329.96,-167 3329.96,-167"/>
<polygon fill="black" stroke="black" points="3329.96,-163.5 3319.96,-167 3329.96,-170.5 3329.96,-163.5"/>
</g>
<!-- MaterialsComponent -->
<g id="node14" class="node">
<title>MaterialsComponent</title>
<polygon fill="#ffffb3" stroke="black" points="4653.2,-122 4518.8,-122 4518.8,-86 4653.2,-86 4653.2,-122"/>
<text text-anchor="middle" x="4586" y="-99.8" font-family="Times,serif" font-size="14.00">MaterialsComponent</text>
</g>
<!-- MaterialsComponent&#45;&gt;WeaverModule -->
<g id="edge14" class="edge">
<title>MaterialsComponent&#45;&gt;WeaverModule</title>
<path fill="none" stroke="black" d="M4586,-122.27C4586,-140.56 4586,-166 4586,-166 4586,-166 3329.67,-166 3329.67,-166"/>
<polygon fill="black" stroke="black" points="3329.67,-162.5 3319.67,-166 3329.67,-169.5 3329.67,-162.5"/>
</g>
<!-- MasksComponent -->
<g id="node15" class="node">
<title>MasksComponent</title>
<polygon fill="#ffffb3" stroke="black" points="4500.88,-122 4383.12,-122 4383.12,-86 4500.88,-86 4500.88,-122"/>
<text text-anchor="middle" x="4442" y="-99.8" font-family="Times,serif" font-size="14.00">MasksComponent</text>
</g>
<!-- MasksComponent&#45;&gt;WeaverModule -->
<g id="edge15" class="edge">
<title>MasksComponent&#45;&gt;WeaverModule</title>
<path fill="none" stroke="black" d="M4442,-122C4442,-139.68 4442,-164 4442,-164 4442,-164 3329.58,-164 3329.58,-164"/>
<polygon fill="black" stroke="black" points="3329.58,-160.5 3319.58,-164 3329.58,-167.5 3329.58,-160.5"/>
</g>
<!-- SchematicComponent -->
<g id="node16" class="node">
<title>SchematicComponent</title>
<polygon fill="#ffffb3" stroke="black" points="4364.65,-122 4225.35,-122 4225.35,-86 4364.65,-86 4364.65,-122"/>
<text text-anchor="middle" x="4295" y="-99.8" font-family="Times,serif" font-size="14.00">SchematicComponent</text>
</g>
<!-- SchematicComponent&#45;&gt;WeaverModule -->
<g id="edge16" class="edge">
<title>SchematicComponent&#45;&gt;WeaverModule</title>
<path fill="none" stroke="black" d="M4295,-122.03C4295,-139.06 4295,-162 4295,-162 4295,-162 3329.63,-162 3329.63,-162"/>
<polygon fill="black" stroke="black" points="3329.63,-158.5 3319.63,-162 3329.63,-165.5 3329.63,-158.5"/>
</g>
<!-- ViewComponent -->
<g id="node17" class="node">
<title>ViewComponent</title>
<polygon fill="#ffffb3" stroke="black" points="4206.65,-122 4095.35,-122 4095.35,-86 4206.65,-86 4206.65,-122"/>
<text text-anchor="middle" x="4151" y="-99.8" font-family="Times,serif" font-size="14.00">ViewComponent</text>
</g>
<!-- ViewComponent&#45;&gt;WeaverModule -->
<g id="edge17" class="edge">
<title>ViewComponent&#45;&gt;WeaverModule</title>
<path fill="none" stroke="black" d="M4151,-122.04C4151,-138.73 4151,-161 4151,-161 4151,-161 3329.61,-161 3329.61,-161"/>
<polygon fill="black" stroke="black" points="3329.61,-157.5 3319.61,-161 3329.61,-164.5 3329.61,-157.5"/>
</g>
<!-- NotesComponent -->
<g id="node18" class="node">
<title>NotesComponent</title>
<polygon fill="#ffffb3" stroke="black" points="4076.99,-122 3963.01,-122 3963.01,-86 4076.99,-86 4076.99,-122"/>
<text text-anchor="middle" x="4020" y="-99.8" font-family="Times,serif" font-size="14.00">NotesComponent</text>
</g>
<!-- NotesComponent&#45;&gt;WeaverModule -->
<g id="edge18" class="edge">
<title>NotesComponent&#45;&gt;WeaverModule</title>
<path fill="none" stroke="black" d="M4020,-122.01C4020,-138.05 4020,-159 4020,-159 4020,-159 3329.69,-159 3329.69,-159"/>
<polygon fill="black" stroke="black" points="3329.69,-155.5 3319.69,-159 3329.69,-162.5 3329.69,-155.5"/>
</g>
<!-- CommonModule -->
<g id="node20" class="node">
<title>CommonModule</title>
<polygon fill="#8dd3c7" stroke="black" points="3938.67,-122 3935.67,-126 3914.67,-126 3911.67,-122 3827.33,-122 3827.33,-86 3938.67,-86 3938.67,-122"/>
<text text-anchor="middle" x="3883" y="-99.8" font-family="Times,serif" font-size="14.00">CommonModule</text>
</g>
<!-- CommonModule&#45;&gt;WeaverModule -->
<g id="edge19" class="edge">
<title>CommonModule&#45;&gt;WeaverModule</title>
<path fill="none" stroke="black" d="M3883,-122.28C3883,-137.95 3883,-158 3883,-158 3883,-158 3329.64,-158 3329.64,-158"/>
<polygon fill="black" stroke="black" points="3329.64,-154.5 3319.64,-158 3329.64,-161.5 3329.64,-154.5"/>
</g>
<!-- CoreModule -->
<g id="node21" class="node">
<title>CoreModule</title>
<polygon fill="#8dd3c7" stroke="black" points="3809.26,-122 3806.26,-126 3785.26,-126 3782.26,-122 3722.74,-122 3722.74,-86 3809.26,-86 3809.26,-122"/>
<text text-anchor="middle" x="3766" y="-99.8" font-family="Times,serif" font-size="14.00">CoreModule</text>
</g>
<!-- CoreModule&#45;&gt;WeaverModule -->
<g id="edge20" class="edge">
<title>CoreModule&#45;&gt;WeaverModule</title>
<path fill="none" stroke="black" d="M3766,-122.19C3766,-137.18 3766,-156 3766,-156 3766,-156 3329.89,-156 3329.89,-156"/>
<polygon fill="black" stroke="black" points="3329.89,-152.5 3319.89,-156 3329.89,-159.5 3329.89,-152.5"/>
</g>
<!-- FormsModule -->
<g id="node22" class="node">
<title>FormsModule</title>
<polygon fill="#8dd3c7" stroke="black" points="3704.83,-122 3701.83,-126 3680.83,-126 3677.83,-122 3609.17,-122 3609.17,-86 3704.83,-86 3704.83,-122"/>
<text text-anchor="middle" x="3657" y="-99.8" font-family="Times,serif" font-size="14.00">FormsModule</text>
</g>
<!-- FormsModule&#45;&gt;WeaverModule -->
<g id="edge21" class="edge">
<title>FormsModule&#45;&gt;WeaverModule</title>
<path fill="none" stroke="black" d="M3657,-122.12C3657,-136.78 3657,-155 3657,-155 3657,-155 3329.66,-155 3329.66,-155"/>
<polygon fill="black" stroke="black" points="3329.66,-151.5 3319.66,-155 3329.66,-158.5 3329.66,-151.5"/>
</g>
<!-- ReactiveFormsModule -->
<g id="node23" class="node">
<title>ReactiveFormsModule</title>
<polygon fill="#8dd3c7" stroke="black" points="3591.3,-122 3588.3,-126 3567.3,-126 3564.3,-122 3446.7,-122 3446.7,-86 3591.3,-86 3591.3,-122"/>
<text text-anchor="middle" x="3519" y="-99.8" font-family="Times,serif" font-size="14.00">ReactiveFormsModule</text>
</g>
<!-- ReactiveFormsModule&#45;&gt;WeaverModule -->
<g id="edge22" class="edge">
<title>ReactiveFormsModule&#45;&gt;WeaverModule</title>
<path fill="none" stroke="black" d="M3519,-122.25C3519,-136.18 3519,-153 3519,-153 3519,-153 3329.7,-153 3329.7,-153"/>
<polygon fill="black" stroke="black" points="3329.7,-149.5 3319.7,-153 3329.7,-156.5 3329.7,-149.5"/>
</g>
<!-- MatAutocompleteModule -->
<g id="node24" class="node">
<title>MatAutocompleteModule</title>
<polygon fill="#8dd3c7" stroke="black" points="3428.91,-122 3425.91,-126 3404.91,-126 3401.91,-122 3267.09,-122 3267.09,-86 3428.91,-86 3428.91,-122"/>
<text text-anchor="middle" x="3348" y="-99.8" font-family="Times,serif" font-size="14.00">MatAutocompleteModule</text>
</g>
<!-- MatAutocompleteModule&#45;&gt;WeaverModule -->
<g id="edge23" class="edge">
<title>MatAutocompleteModule&#45;&gt;WeaverModule</title>
<path fill="none" stroke="black" d="M3293.41,-122.11C3293.41,-122.11 3293.41,-140.99 3293.41,-140.99"/>
<polygon fill="black" stroke="black" points="3289.91,-140.99 3293.41,-150.99 3296.91,-140.99 3289.91,-140.99"/>
</g>
<!-- MatButtonModule -->
<g id="node25" class="node">
<title>MatButtonModule</title>
<polygon fill="#8dd3c7" stroke="black" points="3249.22,-122 3246.22,-126 3225.22,-126 3222.22,-122 3128.78,-122 3128.78,-86 3249.22,-86 3249.22,-122"/>
<text text-anchor="middle" x="3189" y="-99.8" font-family="Times,serif" font-size="14.00">MatButtonModule</text>
</g>
<!-- MatButtonModule&#45;&gt;WeaverModule -->
<g id="edge24" class="edge">
<title>MatButtonModule&#45;&gt;WeaverModule</title>
<path fill="none" stroke="black" d="M3232.79,-122.11C3232.79,-122.11 3232.79,-140.99 3232.79,-140.99"/>
<polygon fill="black" stroke="black" points="3229.29,-140.99 3232.79,-150.99 3236.29,-140.99 3229.29,-140.99"/>
</g>
<!-- MatButtonToggleModule -->
<g id="node26" class="node">
<title>MatButtonToggleModule</title>
<polygon fill="#8dd3c7" stroke="black" points="3110.88,-122 3107.88,-126 3086.88,-126 3083.88,-122 2951.12,-122 2951.12,-86 3110.88,-86 3110.88,-122"/>
<text text-anchor="middle" x="3031" y="-99.8" font-family="Times,serif" font-size="14.00">MatButtonToggleModule</text>
</g>
<!-- MatButtonToggleModule&#45;&gt;WeaverModule -->
<g id="edge25" class="edge">
<title>MatButtonToggleModule&#45;&gt;WeaverModule</title>
<path fill="none" stroke="black" d="M3031,-122.25C3031,-136.18 3031,-153 3031,-153 3031,-153 3206.28,-153 3206.28,-153"/>
<polygon fill="black" stroke="black" points="3206.28,-156.5 3216.28,-153 3206.28,-149.5 3206.28,-156.5"/>
</g>
<!-- MatSlideToggleModule -->
<g id="node27" class="node">
<title>MatSlideToggleModule</title>
<polygon fill="#8dd3c7" stroke="black" points="2933.04,-122 2930.04,-126 2909.04,-126 2906.04,-122 2782.96,-122 2782.96,-86 2933.04,-86 2933.04,-122"/>
<text text-anchor="middle" x="2858" y="-99.8" font-family="Times,serif" font-size="14.00">MatSlideToggleModule</text>
</g>
<!-- MatSlideToggleModule&#45;&gt;WeaverModule -->
<g id="edge26" class="edge">
<title>MatSlideToggleModule&#45;&gt;WeaverModule</title>
<path fill="none" stroke="black" d="M2858,-122.12C2858,-136.78 2858,-155 2858,-155 2858,-155 3206.07,-155 3206.07,-155"/>
<polygon fill="black" stroke="black" points="3206.07,-158.5 3216.07,-155 3206.07,-151.5 3206.07,-158.5"/>
</g>
<!-- MatCardModule -->
<g id="node28" class="node">
<title>MatCardModule</title>
<polygon fill="#8dd3c7" stroke="black" points="2764.81,-122 2761.81,-126 2740.81,-126 2737.81,-122 2655.19,-122 2655.19,-86 2764.81,-86 2764.81,-122"/>
<text text-anchor="middle" x="2710" y="-99.8" font-family="Times,serif" font-size="14.00">MatCardModule</text>
</g>
<!-- MatCardModule&#45;&gt;WeaverModule -->
<g id="edge27" class="edge">
<title>MatCardModule&#45;&gt;WeaverModule</title>
<path fill="none" stroke="black" d="M2710,-122.19C2710,-137.18 2710,-156 2710,-156 2710,-156 3206.26,-156 3206.26,-156"/>
<polygon fill="black" stroke="black" points="3206.26,-159.5 3216.26,-156 3206.26,-152.5 3206.26,-159.5"/>
</g>
<!-- MatCheckboxModule -->
<g id="node29" class="node">
<title>MatCheckboxModule</title>
<polygon fill="#8dd3c7" stroke="black" points="2637.37,-122 2634.37,-126 2613.37,-126 2610.37,-122 2498.63,-122 2498.63,-86 2637.37,-86 2637.37,-122"/>
<text text-anchor="middle" x="2568" y="-99.8" font-family="Times,serif" font-size="14.00">MatCheckboxModule</text>
</g>
<!-- MatCheckboxModule&#45;&gt;WeaverModule -->
<g id="edge28" class="edge">
<title>MatCheckboxModule&#45;&gt;WeaverModule</title>
<path fill="none" stroke="black" d="M2568,-122.28C2568,-137.95 2568,-158 2568,-158 2568,-158 3206.24,-158 3206.24,-158"/>
<polygon fill="black" stroke="black" points="3206.24,-161.5 3216.24,-158 3206.24,-154.5 3206.24,-161.5"/>
</g>
<!-- MatDialogModule -->
<g id="node30" class="node">
<title>MatDialogModule</title>
<polygon fill="#8dd3c7" stroke="black" points="2480.2,-122 2477.2,-126 2456.2,-126 2453.2,-122 2359.8,-122 2359.8,-86 2480.2,-86 2480.2,-122"/>
<text text-anchor="middle" x="2420" y="-99.8" font-family="Times,serif" font-size="14.00">MatDialogModule</text>
</g>
<!-- MatDialogModule&#45;&gt;WeaverModule -->
<g id="edge29" class="edge">
<title>MatDialogModule&#45;&gt;WeaverModule</title>
<path fill="none" stroke="black" d="M2420,-122.01C2420,-138.05 2420,-159 2420,-159 2420,-159 3206.23,-159 3206.23,-159"/>
<polygon fill="black" stroke="black" points="3206.23,-162.5 3216.23,-159 3206.23,-155.5 3206.23,-162.5"/>
</g>
<!-- MatDividerModule -->
<g id="node31" class="node">
<title>MatDividerModule</title>
<polygon fill="#8dd3c7" stroke="black" points="2341.36,-122 2338.36,-126 2317.36,-126 2314.36,-122 2216.64,-122 2216.64,-86 2341.36,-86 2341.36,-122"/>
<text text-anchor="middle" x="2279" y="-99.8" font-family="Times,serif" font-size="14.00">MatDividerModule</text>
</g>
<!-- MatDividerModule&#45;&gt;WeaverModule -->
<g id="edge30" class="edge">
<title>MatDividerModule&#45;&gt;WeaverModule</title>
<path fill="none" stroke="black" d="M2279,-122.04C2279,-138.73 2279,-161 2279,-161 2279,-161 3206.22,-161 3206.22,-161"/>
<polygon fill="black" stroke="black" points="3206.22,-164.5 3216.22,-161 3206.22,-157.5 3206.22,-164.5"/>
</g>
<!-- MatExpansionModule -->
<g id="node32" class="node">
<title>MatExpansionModule</title>
<polygon fill="#8dd3c7" stroke="black" points="2198.7,-122 2195.7,-126 2174.7,-126 2171.7,-122 2057.3,-122 2057.3,-86 2198.7,-86 2198.7,-122"/>
<text text-anchor="middle" x="2128" y="-99.8" font-family="Times,serif" font-size="14.00">MatExpansionModule</text>
</g>
<!-- MatExpansionModule&#45;&gt;WeaverModule -->
<g id="edge31" class="edge">
<title>MatExpansionModule&#45;&gt;WeaverModule</title>
<path fill="none" stroke="black" d="M2128,-122.03C2128,-139.06 2128,-162 2128,-162 2128,-162 3206.43,-162 3206.43,-162"/>
<polygon fill="black" stroke="black" points="3206.43,-165.5 3216.43,-162 3206.43,-158.5 3206.43,-165.5"/>
</g>
<!-- MatFormFieldModule -->
<g id="node33" class="node">
<title>MatFormFieldModule</title>
<polygon fill="#8dd3c7" stroke="black" points="2039.71,-122 2036.71,-126 2015.71,-126 2012.71,-122 1898.29,-122 1898.29,-86 2039.71,-86 2039.71,-122"/>
<text text-anchor="middle" x="1969" y="-99.8" font-family="Times,serif" font-size="14.00">MatFormFieldModule</text>
</g>
<!-- MatFormFieldModule&#45;&gt;WeaverModule -->
<g id="edge32" class="edge">
<title>MatFormFieldModule&#45;&gt;WeaverModule</title>
<path fill="none" stroke="black" d="M1969,-122C1969,-139.68 1969,-164 1969,-164 1969,-164 3206.28,-164 3206.28,-164"/>
<polygon fill="black" stroke="black" points="3206.28,-167.5 3216.28,-164 3206.28,-160.5 3206.28,-167.5"/>
</g>
<!-- MatIconModule -->
<g id="node34" class="node">
<title>MatIconModule</title>
<polygon fill="#8dd3c7" stroke="black" points="1880.47,-122 1877.47,-126 1856.47,-126 1853.47,-122 1773.53,-122 1773.53,-86 1880.47,-86 1880.47,-122"/>
<text text-anchor="middle" x="1827" y="-99.8" font-family="Times,serif" font-size="14.00">MatIconModule</text>
</g>
<!-- MatIconModule&#45;&gt;WeaverModule -->
<g id="edge33" class="edge">
<title>MatIconModule&#45;&gt;WeaverModule</title>
<path fill="none" stroke="black" d="M1827,-122.27C1827,-140.56 1827,-166 1827,-166 1827,-166 3206.29,-166 3206.29,-166"/>
<polygon fill="black" stroke="black" points="3206.29,-169.5 3216.29,-166 3206.29,-162.5 3206.29,-169.5"/>
</g>
<!-- MatInputModule -->
<g id="node35" class="node">
<title>MatInputModule</title>
<polygon fill="#8dd3c7" stroke="black" points="1755.65,-122 1752.65,-126 1731.65,-126 1728.65,-122 1644.35,-122 1644.35,-86 1755.65,-86 1755.65,-122"/>
<text text-anchor="middle" x="1700" y="-99.8" font-family="Times,serif" font-size="14.00">MatInputModule</text>
</g>
<!-- MatInputModule&#45;&gt;WeaverModule -->
<g id="edge34" class="edge">
<title>MatInputModule&#45;&gt;WeaverModule</title>
<path fill="none" stroke="black" d="M1700,-122.22C1700,-140.83 1700,-167 1700,-167 1700,-167 3206.28,-167 3206.28,-167"/>
<polygon fill="black" stroke="black" points="3206.28,-170.5 3216.28,-167 3206.28,-163.5 3206.28,-170.5"/>
</g>
<!-- MatListModule -->
<g id="node36" class="node">
<title>MatListModule</title>
<polygon fill="#8dd3c7" stroke="black" points="1625.88,-122 1622.88,-126 1601.88,-126 1598.88,-122 1522.12,-122 1522.12,-86 1625.88,-86 1625.88,-122"/>
<text text-anchor="middle" x="1574" y="-99.8" font-family="Times,serif" font-size="14.00">MatListModule</text>
</g>
<!-- MatListModule&#45;&gt;WeaverModule -->
<g id="edge35" class="edge">
<title>MatListModule&#45;&gt;WeaverModule</title>
<path fill="none" stroke="black" d="M1574,-122.11C1574,-141.34 1574,-169 1574,-169 1574,-169 3206.38,-169 3206.38,-169"/>
<polygon fill="black" stroke="black" points="3206.38,-172.5 3216.38,-169 3206.38,-165.5 3206.38,-172.5"/>
</g>
<!-- MatMenuModule -->
<g id="node37" class="node">
<title>MatMenuModule</title>
<polygon fill="#8dd3c7" stroke="black" points="1504.26,-122 1501.26,-126 1480.26,-126 1477.26,-122 1389.74,-122 1389.74,-86 1504.26,-86 1504.26,-122"/>
<text text-anchor="middle" x="1447" y="-99.8" font-family="Times,serif" font-size="14.00">MatMenuModule</text>
</g>
<!-- MatMenuModule&#45;&gt;WeaverModule -->
<g id="edge36" class="edge">
<title>MatMenuModule&#45;&gt;WeaverModule</title>
<path fill="none" stroke="black" d="M1447,-122.03C1447,-141.58 1447,-170 1447,-170 1447,-170 3206.43,-170 3206.43,-170"/>
<polygon fill="black" stroke="black" points="3206.43,-173.5 3216.43,-170 3206.43,-166.5 3206.43,-173.5"/>
</g>
<!-- MatRadioModule -->
<g id="node38" class="node">
<title>MatRadioModule</title>
<polygon fill="#8dd3c7" stroke="black" points="1371.54,-122 1368.54,-126 1347.54,-126 1344.54,-122 1256.46,-122 1256.46,-86 1371.54,-86 1371.54,-122"/>
<text text-anchor="middle" x="1314" y="-99.8" font-family="Times,serif" font-size="14.00">MatRadioModule</text>
</g>
<!-- MatRadioModule&#45;&gt;WeaverModule -->
<g id="edge37" class="edge">
<title>MatRadioModule&#45;&gt;WeaverModule</title>
<path fill="none" stroke="black" d="M1314,-122.22C1314,-142.37 1314,-172 1314,-172 1314,-172 3206.24,-172 3206.24,-172"/>
<polygon fill="black" stroke="black" points="3206.24,-175.5 3216.24,-172 3206.24,-168.5 3206.24,-175.5"/>
</g>
<!-- MatSelectModule -->
<g id="node39" class="node">
<title>MatSelectModule</title>
<polygon fill="#8dd3c7" stroke="black" points="1238.31,-122 1235.31,-126 1214.31,-126 1211.31,-122 1121.69,-122 1121.69,-86 1238.31,-86 1238.31,-122"/>
<text text-anchor="middle" x="1180" y="-99.8" font-family="Times,serif" font-size="14.00">MatSelectModule</text>
</g>
<!-- MatSelectModule&#45;&gt;WeaverModule -->
<g id="edge38" class="edge">
<title>MatSelectModule&#45;&gt;WeaverModule</title>
<path fill="none" stroke="black" d="M1180,-122.13C1180,-142.57 1180,-173 1180,-173 1180,-173 3206.39,-173 3206.39,-173"/>
<polygon fill="black" stroke="black" points="3206.39,-176.5 3216.39,-173 3206.39,-169.5 3206.39,-176.5"/>
</g>
<!-- MatSidenavModule -->
<g id="node40" class="node">
<title>MatSidenavModule</title>
<polygon fill="#8dd3c7" stroke="black" points="1103.7,-122 1100.7,-126 1079.7,-126 1076.7,-122 976.3,-122 976.3,-86 1103.7,-86 1103.7,-122"/>
<text text-anchor="middle" x="1040" y="-99.8" font-family="Times,serif" font-size="14.00">MatSidenavModule</text>
</g>
<!-- MatSidenavModule&#45;&gt;WeaverModule -->
<g id="edge39" class="edge">
<title>MatSidenavModule&#45;&gt;WeaverModule</title>
<path fill="none" stroke="black" d="M1040,-122.28C1040,-143.32 1040,-175 1040,-175 1040,-175 3206.21,-175 3206.21,-175"/>
<polygon fill="black" stroke="black" points="3206.21,-178.5 3216.21,-175 3206.21,-171.5 3206.21,-178.5"/>
</g>
<!-- MatSliderModule -->
<g id="node41" class="node">
<title>MatSliderModule</title>
<polygon fill="#8dd3c7" stroke="black" points="958.54,-122 955.54,-126 934.54,-126 931.54,-122 843.46,-122 843.46,-86 958.54,-86 958.54,-122"/>
<text text-anchor="middle" x="901" y="-99.8" font-family="Times,serif" font-size="14.00">MatSliderModule</text>
</g>
<!-- MatSliderModule&#45;&gt;WeaverModule -->
<g id="edge40" class="edge">
<title>MatSliderModule&#45;&gt;WeaverModule</title>
<path fill="none" stroke="black" d="M901,-122.04C901,-143.66 901,-177 901,-177 901,-177 3206.36,-177 3206.36,-177"/>
<polygon fill="black" stroke="black" points="3206.36,-180.5 3216.36,-177 3206.36,-173.5 3206.36,-180.5"/>
</g>
<!-- MatTabsModule -->
<g id="node42" class="node">
<title>MatTabsModule</title>
<polygon fill="#8dd3c7" stroke="black" points="825.81,-122 822.81,-126 801.81,-126 798.81,-122 716.19,-122 716.19,-86 825.81,-86 825.81,-122"/>
<text text-anchor="middle" x="771" y="-99.8" font-family="Times,serif" font-size="14.00">MatTabsModule</text>
</g>
<!-- MatTabsModule&#45;&gt;WeaverModule -->
<g id="edge41" class="edge">
<title>MatTabsModule&#45;&gt;WeaverModule</title>
<path fill="none" stroke="black" d="M771,-122.29C771,-144.21 771,-178 771,-178 771,-178 3206.42,-178 3206.42,-178"/>
<polygon fill="black" stroke="black" points="3206.42,-181.5 3216.42,-178 3206.42,-174.5 3206.42,-181.5"/>
</g>
<!-- MatToolbarModule -->
<g id="node43" class="node">
<title>MatToolbarModule</title>
<polygon fill="#8dd3c7" stroke="black" points="698.42,-122 695.42,-126 674.42,-126 671.42,-122 571.58,-122 571.58,-86 698.42,-86 698.42,-122"/>
<text text-anchor="middle" x="635" y="-99.8" font-family="Times,serif" font-size="14.00">MatToolbarModule</text>
</g>
<!-- MatToolbarModule&#45;&gt;WeaverModule -->
<g id="edge42" class="edge">
<title>MatToolbarModule&#45;&gt;WeaverModule</title>
<path fill="none" stroke="black" d="M635,-122.01C635,-144.49 635,-180 635,-180 635,-180 3206.29,-180 3206.29,-180"/>
<polygon fill="black" stroke="black" points="3206.29,-183.5 3216.29,-180 3206.29,-176.5 3206.29,-183.5"/>
</g>
<!-- MatTooltipModule -->
<g id="node44" class="node">
<title>MatTooltipModule</title>
<polygon fill="#8dd3c7" stroke="black" points="553.82,-122 550.82,-126 529.82,-126 526.82,-122 430.18,-122 430.18,-86 553.82,-86 553.82,-122"/>
<text text-anchor="middle" x="492" y="-99.8" font-family="Times,serif" font-size="14.00">MatTooltipModule</text>
</g>
<!-- MatTooltipModule&#45;&gt;WeaverModule -->
<g id="edge43" class="edge">
<title>MatTooltipModule&#45;&gt;WeaverModule</title>
<path fill="none" stroke="black" d="M492,-122.25C492,-145.02 492,-181 492,-181 492,-181 3206.24,-181 3206.24,-181"/>
<polygon fill="black" stroke="black" points="3206.24,-184.5 3216.24,-181 3206.24,-177.5 3206.24,-184.5"/>
</g>
<!-- ColorPickerModule -->
<g id="node45" class="node">
<title>ColorPickerModule</title>
<polygon fill="#8dd3c7" stroke="black" points="412.7,-122 409.7,-126 388.7,-126 385.7,-122 285.3,-122 285.3,-86 412.7,-86 412.7,-122"/>
<text text-anchor="middle" x="349" y="-99.8" font-family="Times,serif" font-size="14.00">ColorPickerModule</text>
</g>
<!-- ColorPickerModule&#45;&gt;WeaverModule -->
<g id="edge44" class="edge">
<title>ColorPickerModule&#45;&gt;WeaverModule</title>
<path fill="none" stroke="black" d="M349,-122.32C349,-145.66 349,-183 349,-183 349,-183 3206.41,-183 3206.41,-183"/>
<polygon fill="black" stroke="black" points="3206.41,-186.5 3216.41,-183 3206.41,-179.5 3206.41,-186.5"/>
</g>
<!-- MatChipsModule -->
<g id="node46" class="node">
<title>MatChipsModule</title>
<polygon fill="#8dd3c7" stroke="black" points="267.27,-122 264.27,-126 243.27,-126 240.27,-122 152.73,-122 152.73,-86 267.27,-86 267.27,-122"/>
<text text-anchor="middle" x="210" y="-99.8" font-family="Times,serif" font-size="14.00">MatChipsModule</text>
</g>
<!-- MatChipsModule&#45;&gt;WeaverModule -->
<g id="edge45" class="edge">
<title>MatChipsModule&#45;&gt;WeaverModule</title>
<path fill="none" stroke="black" d="M210,-122.15C210,-145.76 210,-184 210,-184 210,-184 3206.21,-184 3206.21,-184"/>
<polygon fill="black" stroke="black" points="3206.21,-187.5 3216.21,-184 3206.21,-180.5 3206.21,-187.5"/>
</g>
<!-- ScrollingModule -->
<g id="node47" class="node">
<title>ScrollingModule</title>
<polygon fill="#8dd3c7" stroke="black" points="134.38,-122 131.38,-126 110.38,-126 107.38,-122 23.62,-122 23.62,-86 134.38,-86 134.38,-122"/>
<text text-anchor="middle" x="79" y="-99.8" font-family="Times,serif" font-size="14.00">ScrollingModule</text>
</g>
<!-- ScrollingModule&#45;&gt;WeaverModule -->
<g id="edge46" class="edge">
<title>ScrollingModule&#45;&gt;WeaverModule</title>
<path fill="none" stroke="black" d="M79,-122.2C79,-146.36 79,-186 79,-186 79,-186 3206.29,-186 3206.29,-186"/>
<polygon fill="black" stroke="black" points="3206.29,-189.5 3216.29,-186 3206.29,-182.5 3206.29,-189.5"/>
</g>
</g>
</svg>
