<?xml version="1.0" encoding="UTF-8" standalone="no"?>
<!DOCTYPE svg PUBLIC "-//W3C//DTD SVG 1.1//EN"
 "http://www.w3.org/Graphics/SVG/1.1/DTD/svg11.dtd">
<!-- Generated by graphviz version 2.47.0 (20210316.0004)
 -->
<!-- Title: dependencies Pages: 1 -->
<svg width="2476pt" height="211pt"
 viewBox="0.00 0.00 2476.00 211.00" xmlns="http://www.w3.org/2000/svg" xmlns:xlink="http://www.w3.org/1999/xlink">
<g id="graph0" class="graph" transform="scale(1 1) rotate(0) translate(4 207)">
<title>dependencies</title>
<polygon fill="white" stroke="transparent" points="-4,4 -4,-207 2472,-207 2472,4 -4,4"/>
<text text-anchor="start" x="1213.01" y="-42.4" font-family="sans-serif" font-weight="bold" font-size="14.00">Legend</text>
<polygon fill="#ffffb3" stroke="transparent" points="1000,-10 1000,-30 1020,-30 1020,-10 1000,-10"/>
<text text-anchor="start" x="1023.63" y="-15.4" font-family="sans-serif" font-size="14.00"> &#160;Declarations</text>
<polygon fill="#8dd3c7" stroke="transparent" points="1113,-10 1113,-30 1133,-30 1133,-10 1113,-10"/>
<text text-anchor="start" x="1136.73" y="-15.4" font-family="sans-serif" font-size="14.00"> &#160;Module</text>
<polygon fill="#80b1d3" stroke="transparent" points="1199,-10 1199,-30 1219,-30 1219,-10 1199,-10"/>
<text text-anchor="start" x="1222.78" y="-15.4" font-family="sans-serif" font-size="14.00"> &#160;Bootstrap</text>
<polygon fill="#fdb462" stroke="transparent" points="1296,-10 1296,-30 1316,-30 1316,-10 1296,-10"/>
<text text-anchor="start" x="1319.67" y="-15.4" font-family="sans-serif" font-size="14.00"> &#160;Providers</text>
<polygon fill="#fb8072" stroke="transparent" points="1392,-10 1392,-30 1412,-30 1412,-10 1392,-10"/>
<text text-anchor="start" x="1415.73" y="-15.4" font-family="sans-serif" font-size="14.00"> &#160;Exports</text>
<g id="clust1" class="cluster">
<title>cluster_WeaverModule</title>
<polygon fill="none" stroke="black" stroke-dasharray="1,5" points="8,-70 8,-195 2460,-195 2460,-70 8,-70"/>
</g>
<g id="clust2" class="cluster">
<title>cluster_WeaverModule_declarations</title>
<polygon fill="none" stroke="black" points="126,-78 126,-130 2452,-130 2452,-78 126,-78"/>
</g>
<g id="clust21" class="cluster">
<title>cluster_WeaverModule_imports</title>
<polygon fill="none" stroke="black" points="16,-78 16,-130 118,-130 118,-78 16,-78"/>
</g>
<!-- AboutModal -->
<g id="node1" class="node">
<title>AboutModal</title>
<polygon fill="#ffffb3" stroke="black" points="2443.55,-122 2356.45,-122 2356.45,-86 2443.55,-86 2443.55,-122"/>
<text text-anchor="middle" x="2400" y="-99.8" font-family="Times,serif" font-size="14.00">AboutModal</text>
</g>
<!-- WeaverModule -->
<g id="node19" class="node">
<title>WeaverModule</title>
<polygon fill="#8dd3c7" stroke="black" points="1328.57,-187 1325.57,-191 1304.57,-191 1301.57,-187 1225.43,-187 1225.43,-151 1328.57,-151 1328.57,-187"/>
<text text-anchor="middle" x="1277" y="-164.8" font-family="Times,serif" font-size="14.00">WeaverModule</text>
</g>
<!-- AboutModal&#45;&gt;WeaverModule -->
<g id="edge1" class="edge">
<title>AboutModal&#45;&gt;WeaverModule</title>
<path fill="none" stroke="black" d="M2400,-122.15C2400,-145.76 2400,-184 2400,-184 2400,-184 1338.54,-184 1338.54,-184"/>
<polygon fill="black" stroke="black" points="1338.54,-180.5 1328.54,-184 1338.54,-187.5 1338.54,-180.5"/>
</g>
<!-- ConnectionModal -->
<g id="node2" class="node">
<title>ConnectionModal</title>
<polygon fill="#ffffb3" stroke="black" points="2338.6,-122 2221.4,-122 2221.4,-86 2338.6,-86 2338.6,-122"/>
<text text-anchor="middle" x="2280" y="-99.8" font-family="Times,serif" font-size="14.00">ConnectionModal</text>
</g>
<!-- ConnectionModal&#45;&gt;WeaverModule -->
<g id="edge2" class="edge">
<title>ConnectionModal&#45;&gt;WeaverModule</title>
<path fill="none" stroke="black" d="M2280,-122.01C2280,-144.49 2280,-180 2280,-180 2280,-180 1338.81,-180 1338.81,-180"/>
<polygon fill="black" stroke="black" points="1338.81,-176.5 1328.81,-180 1338.81,-183.5 1338.81,-176.5"/>
</g>
<!-- DesignComponent -->
<g id="node3" class="node">
<title>DesignComponent</title>
<polygon fill="#ffffb3" stroke="black" points="2203.49,-122 2082.51,-122 2082.51,-86 2203.49,-86 2203.49,-122"/>
<text text-anchor="middle" x="2143" y="-99.8" font-family="Times,serif" font-size="14.00">DesignComponent</text>
</g>
<!-- DesignComponent&#45;&gt;WeaverModule -->
<g id="edge3" class="edge">
<title>DesignComponent&#45;&gt;WeaverModule</title>
<path fill="none" stroke="black" d="M2143,-122.04C2143,-143.66 2143,-177 2143,-177 2143,-177 1338.58,-177 1338.58,-177"/>
<polygon fill="black" stroke="black" points="1338.58,-173.5 1328.58,-177 1338.58,-180.5 1338.58,-173.5"/>
</g>
<!-- InitModal -->
<g id="node4" class="node">
<title>InitModal</title>
<polygon fill="#ffffb3" stroke="black" points="2064.99,-122 1993.01,-122 1993.01,-86 2064.99,-86 2064.99,-122"/>
<text text-anchor="middle" x="2029" y="-99.8" font-family="Times,serif" font-size="14.00">InitModal</text>
</g>
<!-- InitModal&#45;&gt;WeaverModule -->
<g id="edge4" class="edge">
<title>InitModal&#45;&gt;WeaverModule</title>
<path fill="none" stroke="black" d="M2029,-122.13C2029,-142.57 2029,-173 2029,-173 2029,-173 1338.69,-173 1338.69,-173"/>
<polygon fill="black" stroke="black" points="1338.69,-169.5 1328.69,-173 1338.69,-176.5 1338.69,-169.5"/>
</g>
<!-- LabelModal -->
<g id="node5" class="node">
<title>LabelModal</title>
<polygon fill="#ffffb3" stroke="black" points="1975.42,-122 1890.58,-122 1890.58,-86 1975.42,-86 1975.42,-122"/>
<text text-anchor="middle" x="1933" y="-99.8" font-family="Times,serif" font-size="14.00">LabelModal</text>
</g>
<!-- LabelModal&#45;&gt;WeaverModule -->
<g id="edge5" class="edge">
<title>LabelModal&#45;&gt;WeaverModule</title>
<path fill="none" stroke="black" d="M1933,-122.11C1933,-141.34 1933,-169 1933,-169 1933,-169 1338.75,-169 1338.75,-169"/>
<polygon fill="black" stroke="black" points="1338.75,-165.5 1328.75,-169 1338.75,-172.5 1338.75,-165.5"/>
</g>
<!-- LoomComponent -->
<g id="node6" class="node">
<title>LoomComponent</title>
<polygon fill="#ffffb3" stroke="black" points="1872.28,-122 1757.72,-122 1757.72,-86 1872.28,-86 1872.28,-122"/>
<text text-anchor="middle" x="1815" y="-99.8" font-family="Times,serif" font-size="14.00">LoomComponent</text>
</g>
<!-- LoomComponent&#45;&gt;WeaverModule -->
<g id="edge6" class="edge">
<title>LoomComponent&#45;&gt;WeaverModule</title>
<path fill="none" stroke="black" d="M1815,-122.27C1815,-140.56 1815,-166 1815,-166 1815,-166 1338.59,-166 1338.59,-166"/>
<polygon fill="black" stroke="black" points="1338.59,-162.5 1328.59,-166 1338.59,-169.5 1338.59,-162.5"/>
</g>
<!-- MasksComponent -->
<g id="node7" class="node">
<title>MasksComponent</title>
<polygon fill="#ffffb3" stroke="black" points="1739.88,-122 1622.12,-122 1622.12,-86 1739.88,-86 1739.88,-122"/>
<text text-anchor="middle" x="1681" y="-99.8" font-family="Times,serif" font-size="14.00">MasksComponent</text>
</g>
<!-- MasksComponent&#45;&gt;WeaverModule -->
<g id="edge7" class="edge">
<title>MasksComponent&#45;&gt;WeaverModule</title>
<path fill="none" stroke="black" d="M1681,-122.03C1681,-139.06 1681,-162 1681,-162 1681,-162 1338.58,-162 1338.58,-162"/>
<polygon fill="black" stroke="black" points="1338.58,-158.5 1328.58,-162 1338.58,-165.5 1338.58,-158.5"/>
</g>
<!-- MaterialModal -->
<g id="node8" class="node">
<title>MaterialModal</title>
<polygon fill="#ffffb3" stroke="black" points="1603.97,-122 1504.03,-122 1504.03,-86 1603.97,-86 1603.97,-122"/>
<text text-anchor="middle" x="1554" y="-99.8" font-family="Times,serif" font-size="14.00">MaterialModal</text>
</g>
<!-- MaterialModal&#45;&gt;WeaverModule -->
<g id="edge8" class="edge">
<title>MaterialModal&#45;&gt;WeaverModule</title>
<path fill="none" stroke="black" d="M1554,-122.01C1554,-138.05 1554,-159 1554,-159 1554,-159 1338.78,-159 1338.78,-159"/>
<polygon fill="black" stroke="black" points="1338.78,-155.5 1328.78,-159 1338.78,-162.5 1338.78,-155.5"/>
</g>
<!-- MaterialsComponent -->
<g id="node9" class="node">
<title>MaterialsComponent</title>
<polygon fill="#ffffb3" stroke="black" points="1486.2,-122 1351.8,-122 1351.8,-86 1486.2,-86 1486.2,-122"/>
<text text-anchor="middle" x="1419" y="-99.8" font-family="Times,serif" font-size="14.00">MaterialsComponent</text>
</g>
<!-- MaterialsComponent&#45;&gt;WeaverModule -->
<g id="edge9" class="edge">
<title>MaterialsComponent&#45;&gt;WeaverModule</title>
<path fill="none" stroke="black" d="M1419,-122.12C1419,-136.78 1419,-155 1419,-155 1419,-155 1338.67,-155 1338.67,-155"/>
<polygon fill="black" stroke="black" points="1338.67,-151.5 1328.67,-155 1338.67,-158.5 1338.67,-151.5"/>
</g>
<!-- NotesComponent -->
<g id="node10" class="node">
<title>NotesComponent</title>
<polygon fill="#ffffb3" stroke="black" points="1333.99,-122 1220.01,-122 1220.01,-86 1333.99,-86 1333.99,-122"/>
<text text-anchor="middle" x="1277" y="-99.8" font-family="Times,serif" font-size="14.00">NotesComponent</text>
</g>
<!-- NotesComponent&#45;&gt;WeaverModule -->
<g id="edge10" class="edge">
<title>NotesComponent&#45;&gt;WeaverModule</title>
<path fill="none" stroke="black" d="M1277,-122.11C1277,-122.11 1277,-140.99 1277,-140.99"/>
<polygon fill="black" stroke="black" points="1273.5,-140.99 1277,-150.99 1280.5,-140.99 1273.5,-140.99"/>
</g>
<!-- PatternModal -->
<g id="node11" class="node">
<title>PatternModal</title>
<polygon fill="#ffffb3" stroke="black" points="1202.2,-122 1109.8,-122 1109.8,-86 1202.2,-86 1202.2,-122"/>
<text text-anchor="middle" x="1156" y="-99.8" font-family="Times,serif" font-size="14.00">PatternModal</text>
</g>
<!-- PatternModal&#45;&gt;WeaverModule -->
<g id="edge11" class="edge">
<title>PatternModal&#45;&gt;WeaverModule</title>
<path fill="none" stroke="black" d="M1156,-122.12C1156,-136.78 1156,-155 1156,-155 1156,-155 1215.33,-155 1215.33,-155"/>
<polygon fill="black" stroke="black" points="1215.33,-158.5 1225.33,-155 1215.33,-151.5 1215.33,-158.5"/>
</g>
<!-- PatternsComponent -->
<g id="node12" class="node">
<title>PatternsComponent</title>
<polygon fill="#ffffb3" stroke="black" points="1092.43,-122 965.57,-122 965.57,-86 1092.43,-86 1092.43,-122"/>
<text text-anchor="middle" x="1029" y="-99.8" font-family="Times,serif" font-size="14.00">PatternsComponent</text>
</g>
<!-- PatternsComponent&#45;&gt;WeaverModule -->
<g id="edge12" class="edge">
<title>PatternsComponent&#45;&gt;WeaverModule</title>
<path fill="none" stroke="black" d="M1029,-122.01C1029,-138.05 1029,-159 1029,-159 1029,-159 1215.31,-159 1215.31,-159"/>
<polygon fill="black" stroke="black" points="1215.31,-162.5 1225.31,-159 1215.31,-155.5 1215.31,-162.5"/>
</g>
<!-- SchematicComponent -->
<g id="node13" class="node">
<title>SchematicComponent</title>
<polygon fill="#ffffb3" stroke="black" points="947.65,-122 808.35,-122 808.35,-86 947.65,-86 947.65,-122"/>
<text text-anchor="middle" x="878" y="-99.8" font-family="Times,serif" font-size="14.00">SchematicComponent</text>
</g>
<!-- SchematicComponent&#45;&gt;WeaverModule -->
<g id="edge13" class="edge">
<title>SchematicComponent&#45;&gt;WeaverModule</title>
<path fill="none" stroke="black" d="M878,-122.03C878,-139.06 878,-162 878,-162 878,-162 1215.25,-162 1215.25,-162"/>
<polygon fill="black" stroke="black" points="1215.25,-165.5 1225.25,-162 1215.25,-158.5 1215.25,-165.5"/>
</g>
<!-- ShuttlesModal -->
<g id="node14" class="node">
<title>ShuttlesModal</title>
<polygon fill="#ffffb3" stroke="black" points="789.66,-122 692.34,-122 692.34,-86 789.66,-86 789.66,-122"/>
<text text-anchor="middle" x="741" y="-99.8" font-family="Times,serif" font-size="14.00">ShuttlesModal</text>
</g>
<!-- ShuttlesModal&#45;&gt;WeaverModule -->
<g id="edge14" class="edge">
<title>ShuttlesModal&#45;&gt;WeaverModule</title>
<path fill="none" stroke="black" d="M741,-122.27C741,-140.56 741,-166 741,-166 741,-166 1215.12,-166 1215.12,-166"/>
<polygon fill="black" stroke="black" points="1215.12,-169.5 1225.12,-166 1215.12,-162.5 1215.12,-169.5"/>
</g>
<!-- SystemsComponent -->
<g id="node15" class="node">
<title>SystemsComponent</title>
<polygon fill="#ffffb3" stroke="black" points="674,-122 546,-122 546,-86 674,-86 674,-122"/>
<text text-anchor="middle" x="610" y="-99.8" font-family="Times,serif" font-size="14.00">SystemsComponent</text>
</g>
<!-- SystemsComponent&#45;&gt;WeaverModule -->
<g id="edge15" class="edge">
<title>SystemsComponent&#45;&gt;WeaverModule</title>
<path fill="none" stroke="black" d="M610,-122.11C610,-141.34 610,-169 610,-169 610,-169 1215.22,-169 1215.22,-169"/>
<polygon fill="black" stroke="black" points="1215.22,-172.5 1225.22,-169 1215.22,-165.5 1215.22,-172.5"/>
</g>
<!-- TopbarComponent -->
<g id="node16" class="node">
<title>TopbarComponent</title>
<polygon fill="#ffffb3" stroke="black" points="527.76,-122 406.24,-122 406.24,-86 527.76,-86 527.76,-122"/>
<text text-anchor="middle" x="467" y="-99.8" font-family="Times,serif" font-size="14.00">TopbarComponent</text>
</g>
<!-- TopbarComponent&#45;&gt;WeaverModule -->
<g id="edge16" class="edge">
<title>TopbarComponent&#45;&gt;WeaverModule</title>
<path fill="none" stroke="black" d="M467,-122.13C467,-142.57 467,-173 467,-173 467,-173 1215.41,-173 1215.41,-173"/>
<polygon fill="black" stroke="black" points="1215.41,-176.5 1225.41,-173 1215.41,-169.5 1215.41,-176.5"/>
</g>
<!-- ViewComponent -->
<g id="node17" class="node">
<title>ViewComponent</title>
<polygon fill="#ffffb3" stroke="black" points="387.65,-122 276.35,-122 276.35,-86 387.65,-86 387.65,-122"/>
<text text-anchor="middle" x="332" y="-99.8" font-family="Times,serif" font-size="14.00">ViewComponent</text>
</g>
<!-- ViewComponent&#45;&gt;WeaverModule -->
<g id="edge17" class="edge">
<title>ViewComponent&#45;&gt;WeaverModule</title>
<path fill="none" stroke="black" d="M332,-122.04C332,-143.66 332,-177 332,-177 332,-177 1215.18,-177 1215.18,-177"/>
<polygon fill="black" stroke="black" points="1215.18,-180.5 1225.18,-177 1215.18,-173.5 1215.18,-180.5"/>
</g>
<!-- WeaverComponent -->
<g id="node18" class="node">
<title>WeaverComponent</title>
<polygon fill="#ffffb3" stroke="black" points="258.35,-122 133.65,-122 133.65,-86 258.35,-86 258.35,-122"/>
<text text-anchor="middle" x="196" y="-99.8" font-family="Times,serif" font-size="14.00">WeaverComponent</text>
</g>
<!-- WeaverComponent&#45;&gt;WeaverModule -->
<g id="edge18" class="edge">
<title>WeaverComponent&#45;&gt;WeaverModule</title>
<path fill="none" stroke="black" d="M196,-122.01C196,-144.49 196,-180 196,-180 196,-180 1215.23,-180 1215.23,-180"/>
<polygon fill="black" stroke="black" points="1215.23,-183.5 1225.23,-180 1215.23,-176.5 1215.23,-183.5"/>
</g>
<!-- CoreModule -->
<g id="node20" class="node">
<title>CoreModule</title>
<polygon fill="#8dd3c7" stroke="black" points="110.26,-122 107.26,-126 86.26,-126 83.26,-122 23.74,-122 23.74,-86 110.26,-86 110.26,-122"/>
<text text-anchor="middle" x="67" y="-99.8" font-family="Times,serif" font-size="14.00">CoreModule</text>
</g>
<!-- CoreModule&#45;&gt;WeaverModule -->
<g id="edge19" class="edge">
<title>CoreModule&#45;&gt;WeaverModule</title>
<path fill="none" stroke="black" d="M67,-122.15C67,-145.76 67,-184 67,-184 67,-184 1215.39,-184 1215.39,-184"/>
<polygon fill="black" stroke="black" points="1215.39,-187.5 1225.39,-184 1215.39,-180.5 1215.39,-187.5"/>
</g>
</g>
</svg>
