<?xml version="1.0" encoding="UTF-8" standalone="no"?>
<!DOCTYPE svg PUBLIC "-//W3C//DTD SVG 1.1//EN"
 "http://www.w3.org/Graphics/SVG/1.1/DTD/svg11.dtd">
<!-- Generated by graphviz version 2.47.0 (20210316.0004)
 -->
<!-- Title: dependencies Pages: 1 -->
<svg width="3086pt" height="428pt"
 viewBox="0.00 0.00 3086.00 428.00" xmlns="http://www.w3.org/2000/svg" xmlns:xlink="http://www.w3.org/1999/xlink">
<g id="graph0" class="graph" transform="scale(1 1) rotate(0) translate(4 424)">
<title>dependencies</title>
<polygon fill="white" stroke="transparent" points="-4,4 -4,-424 3082,-424 3082,4 -4,4"/>
<text text-anchor="start" x="1518.01" y="-42.4" font-family="sans-serif" font-weight="bold" font-size="14.00">Legend</text>
<polygon fill="#ffffb3" stroke="transparent" points="1305,-10 1305,-30 1325,-30 1325,-10 1305,-10"/>
<text text-anchor="start" x="1328.63" y="-15.4" font-family="sans-serif" font-size="14.00"> &#160;Declarations</text>
<polygon fill="#8dd3c7" stroke="transparent" points="1418,-10 1418,-30 1438,-30 1438,-10 1418,-10"/>
<text text-anchor="start" x="1441.73" y="-15.4" font-family="sans-serif" font-size="14.00"> &#160;Module</text>
<polygon fill="#80b1d3" stroke="transparent" points="1504,-10 1504,-30 1524,-30 1524,-10 1504,-10"/>
<text text-anchor="start" x="1527.78" y="-15.4" font-family="sans-serif" font-size="14.00"> &#160;Bootstrap</text>
<polygon fill="#fdb462" stroke="transparent" points="1601,-10 1601,-30 1621,-30 1621,-10 1601,-10"/>
<text text-anchor="start" x="1624.67" y="-15.4" font-family="sans-serif" font-size="14.00"> &#160;Providers</text>
<polygon fill="#fb8072" stroke="transparent" points="1697,-10 1697,-30 1717,-30 1717,-10 1697,-10"/>
<text text-anchor="start" x="1720.73" y="-15.4" font-family="sans-serif" font-size="14.00"> &#160;Exports</text>
<g id="clust1" class="cluster">
<title>cluster_AppModule</title>
<polygon fill="none" stroke="black" stroke-dasharray="1,5" points="1819,-214 1819,-412 2231,-412 2231,-214 1819,-214"/>
</g>
<g id="clust2" class="cluster">
<title>cluster_AppModule_declarations</title>
<polygon fill="none" stroke="black" points="2101,-222 2101,-274 2223,-274 2223,-222 2101,-222"/>
</g>
<g id="clust4" class="cluster">
<title>cluster_AppModule_imports</title>
<polygon fill="none" stroke="black" points="1827,-222 1827,-274 2093,-274 2093,-222 1827,-222"/>
</g>
<g id="clust6" class="cluster">
<title>cluster_AppModule_bootstrap</title>
<polygon fill="none" stroke="black" points="1959,-352 1959,-404 2083,-404 2083,-352 1959,-352"/>
</g>
<g id="clust14" class="cluster">
<title>cluster_CoreModule</title>
<polygon fill="none" stroke="black" stroke-dasharray="1,5" points="8,-70 8,-282 720,-282 720,-70 8,-70"/>
</g>
<g id="clust15" class="cluster">
<title>cluster_CoreModule_declarations</title>
<polygon fill="none" stroke="black" points="329,-78 329,-130 712,-130 712,-78 329,-78"/>
</g>
<g id="clust20" class="cluster">
<title>cluster_CoreModule_exports</title>
<polygon fill="none" stroke="black" points="247,-222 247,-274 640,-274 640,-222 247,-222"/>
</g>
<g id="clust22" class="cluster">
<title>cluster_CoreModule_providers</title>
<polygon fill="none" stroke="black" points="16,-78 16,-130 321,-130 321,-78 16,-78"/>
</g>
<g id="clust23" class="cluster">
<title>cluster_WeaverModule</title>
<polygon fill="none" stroke="black" stroke-dasharray="1,5" points="728,-138 728,-206 3070,-206 3070,-138 728,-138"/>
</g>
<g id="clust24" class="cluster">
<title>cluster_WeaverModule_declarations</title>
<polygon fill="none" stroke="black" points="736,-146 736,-198 3062,-198 3062,-146 736,-146"/>
</g>
<!-- AppComponent -->
<g id="node1" class="node">
<title>AppComponent</title>
<polygon fill="#ffffb3" stroke="black" points="2214.94,-266 2109.06,-266 2109.06,-230 2214.94,-230 2214.94,-266"/>
<text text-anchor="middle" x="2162" y="-243.8" font-family="Times,serif" font-size="14.00">AppComponent</text>
</g>
<!-- AppModule -->
<g id="node2" class="node">
<title>AppModule</title>
<polygon fill="#8dd3c7" stroke="black" points="2062.66,-331 2059.66,-335 2038.66,-335 2035.66,-331 1979.34,-331 1979.34,-295 2062.66,-295 2062.66,-331"/>
<text text-anchor="middle" x="2021" y="-308.8" font-family="Times,serif" font-size="14.00">AppModule</text>
</g>
<!-- AppComponent&#45;&gt;AppModule -->
<g id="edge1" class="edge">
<title>AppComponent&#45;&gt;AppModule</title>
<path fill="none" stroke="black" d="M2162,-266.11C2162,-285.34 2162,-313 2162,-313 2162,-313 2072.92,-313 2072.92,-313"/>
<polygon fill="black" stroke="black" points="2072.92,-309.5 2062.92,-313 2072.92,-316.5 2072.92,-309.5"/>
</g>
<!-- AppComponent  -->
<g id="node5" class="node">
<title>AppComponent </title>
<polygon fill="#80b1d3" stroke="black" points="2075.44,-396 1966.56,-396 1966.56,-360 2075.44,-360 2075.44,-396"/>
<text text-anchor="middle" x="2021" y="-373.8" font-family="Times,serif" font-size="14.00">AppComponent </text>
</g>
<!-- AppModule&#45;&gt;AppComponent  -->
<g id="edge4" class="edge">
<title>AppModule&#45;&gt;AppComponent </title>
<path fill="none" stroke="black" stroke-dasharray="1,5" d="M2021,-331.11C2021,-331.11 2021,-349.99 2021,-349.99"/>
<polygon fill="black" stroke="black" points="2017.5,-349.99 2021,-359.99 2024.5,-349.99 2017.5,-349.99"/>
</g>
<!-- AppRoutingModule -->
<g id="node3" class="node">
<title>AppRoutingModule</title>
<polygon fill="#8dd3c7" stroke="black" points="2085.27,-266 2082.27,-270 2061.27,-270 2058.27,-266 1956.73,-266 1956.73,-230 2085.27,-230 2085.27,-266"/>
<text text-anchor="middle" x="2021" y="-243.8" font-family="Times,serif" font-size="14.00">AppRoutingModule</text>
</g>
<!-- AppRoutingModule&#45;&gt;AppModule -->
<g id="edge2" class="edge">
<title>AppRoutingModule&#45;&gt;AppModule</title>
<path fill="none" stroke="black" d="M2021,-266.11C2021,-266.11 2021,-284.99 2021,-284.99"/>
<polygon fill="black" stroke="black" points="2017.5,-284.99 2021,-294.99 2024.5,-284.99 2017.5,-284.99"/>
</g>
<!-- WeaverModule -->
<g id="node4" class="node">
<title>WeaverModule</title>
<polygon fill="#8dd3c7" stroke="black" points="1938.57,-266 1935.57,-270 1914.57,-270 1911.57,-266 1835.43,-266 1835.43,-230 1938.57,-230 1938.57,-266"/>
<text text-anchor="middle" x="1887" y="-243.8" font-family="Times,serif" font-size="14.00">WeaverModule</text>
</g>
<!-- WeaverModule&#45;&gt;AppModule -->
<g id="edge3" class="edge">
<title>WeaverModule&#45;&gt;AppModule</title>
<path fill="none" stroke="black" d="M1887,-266.11C1887,-285.34 1887,-313 1887,-313 1887,-313 1969.34,-313 1969.34,-313"/>
<polygon fill="black" stroke="black" points="1969.34,-316.5 1979.34,-313 1969.34,-309.5 1969.34,-316.5"/>
</g>
<!-- FilterPipe -->
<g id="node6" class="node">
<title>FilterPipe</title>
<polygon fill="#ffffb3" stroke="black" points="703.72,-122 632.28,-122 632.28,-86 703.72,-86 703.72,-122"/>
<text text-anchor="middle" x="668" y="-99.8" font-family="Times,serif" font-size="14.00">FilterPipe</text>
</g>
<!-- CoreModule -->
<g id="node9" class="node">
<title>CoreModule</title>
<polygon fill="#8dd3c7" stroke="black" points="504.26,-190 501.26,-194 480.26,-194 477.26,-190 417.74,-190 417.74,-154 504.26,-154 504.26,-190"/>
<text text-anchor="middle" x="461" y="-167.8" font-family="Times,serif" font-size="14.00">CoreModule</text>
</g>
<!-- FilterPipe&#45;&gt;CoreModule -->
<g id="edge5" class="edge">
<title>FilterPipe&#45;&gt;CoreModule</title>
<path fill="none" stroke="black" d="M679.87,-122.02C679.87,-139.37 679.87,-163 679.87,-163 679.87,-163 514.5,-163 514.5,-163"/>
<polygon fill="black" stroke="black" points="514.5,-159.5 504.5,-163 514.5,-166.5 514.5,-159.5"/>
</g>
<!-- UploadFormComponent -->
<g id="node7" class="node">
<title>UploadFormComponent</title>
<polygon fill="#ffffb3" stroke="black" points="614.38,-122 461.62,-122 461.62,-86 614.38,-86 614.38,-122"/>
<text text-anchor="middle" x="538" y="-99.8" font-family="Times,serif" font-size="14.00">UploadFormComponent</text>
</g>
<!-- UploadFormComponent&#45;&gt;CoreModule -->
<g id="edge6" class="edge">
<title>UploadFormComponent&#45;&gt;CoreModule</title>
<path fill="none" stroke="black" d="M482.97,-122.22C482.97,-122.22 482.97,-143.73 482.97,-143.73"/>
<polygon fill="black" stroke="black" points="479.47,-143.73 482.97,-153.73 486.47,-143.73 479.47,-143.73"/>
</g>
<!-- WeaveDirective -->
<g id="node8" class="node">
<title>WeaveDirective</title>
<polygon fill="#ffffb3" stroke="black" points="443.44,-122 336.56,-122 336.56,-86 443.44,-86 443.44,-122"/>
<text text-anchor="middle" x="390" y="-99.8" font-family="Times,serif" font-size="14.00">WeaveDirective</text>
</g>
<!-- WeaveDirective&#45;&gt;CoreModule -->
<g id="edge7" class="edge">
<title>WeaveDirective&#45;&gt;CoreModule</title>
<path fill="none" stroke="black" d="M430.54,-122.22C430.54,-122.22 430.54,-143.73 430.54,-143.73"/>
<polygon fill="black" stroke="black" points="427.04,-143.73 430.54,-153.73 434.04,-143.73 427.04,-143.73"/>
</g>
<!-- CoreModule&#45;&gt;WeaverModule -->
<g id="edge31" class="edge">
<title>CoreModule&#45;&gt;WeaverModule</title>
<path fill="none" stroke="black" d="M504.31,-172C561.79,-172 656.13,-172 656.13,-172 656.13,-172 656.13,-263 656.13,-263 656.13,-263 1825.29,-263 1825.29,-263"/>
<polygon fill="black" stroke="black" points="1825.29,-266.5 1835.29,-263 1825.29,-259.5 1825.29,-266.5"/>
</g>
<!-- FilterPipe  -->
<g id="node10" class="node">
<title>FilterPipe </title>
<polygon fill="#fb8072" stroke="black" points="632.22,-266 557.78,-266 557.78,-230 632.22,-230 632.22,-266"/>
<text text-anchor="middle" x="595" y="-243.8" font-family="Times,serif" font-size="14.00">FilterPipe </text>
</g>
<!-- CoreModule&#45;&gt;FilterPipe  -->
<g id="edge8" class="edge">
<title>CoreModule&#45;&gt;FilterPipe </title>
<path fill="none" stroke="black" stroke-dasharray="5,2" d="M504.38,-181C540.5,-181 586.04,-181 586.04,-181 586.04,-181 586.04,-219.69 586.04,-219.69"/>
<polygon fill="black" stroke="black" points="582.54,-219.69 586.04,-229.69 589.54,-219.69 582.54,-219.69"/>
</g>
<!-- UploadFormComponent  -->
<g id="node11" class="node">
<title>UploadFormComponent </title>
<polygon fill="#fb8072" stroke="black" points="539.38,-266 382.62,-266 382.62,-230 539.38,-230 539.38,-266"/>
<text text-anchor="middle" x="461" y="-243.8" font-family="Times,serif" font-size="14.00">UploadFormComponent </text>
</g>
<!-- CoreModule&#45;&gt;UploadFormComponent  -->
<g id="edge9" class="edge">
<title>CoreModule&#45;&gt;UploadFormComponent </title>
<path fill="none" stroke="black" stroke-dasharray="5,2" d="M461,-190.01C461,-190.01 461,-219.85 461,-219.85"/>
<polygon fill="black" stroke="black" points="457.5,-219.85 461,-229.85 464.5,-219.85 457.5,-219.85"/>
</g>
<!-- WeaveDirective  -->
<g id="node12" class="node">
<title>WeaveDirective </title>
<polygon fill="#fb8072" stroke="black" points="365.44,-266 254.56,-266 254.56,-230 365.44,-230 365.44,-266"/>
<text text-anchor="middle" x="310" y="-243.8" font-family="Times,serif" font-size="14.00">WeaveDirective </text>
</g>
<!-- CoreModule&#45;&gt;WeaveDirective  -->
<g id="edge10" class="edge">
<title>CoreModule&#45;&gt;WeaveDirective </title>
<path fill="none" stroke="black" stroke-dasharray="5,2" d="M417.48,-181C386.69,-181 350.88,-181 350.88,-181 350.88,-181 350.88,-219.69 350.88,-219.69"/>
<polygon fill="black" stroke="black" points="347.38,-219.69 350.88,-229.69 354.38,-219.69 347.38,-219.69"/>
</g>
<!-- PatternService -->
<g id="node13" class="node">
<title>PatternService</title>
<ellipse fill="#fdb462" stroke="black" cx="246" cy="-104" rx="67.19" ry="18"/>
<text text-anchor="middle" x="246" y="-99.8" font-family="Times,serif" font-size="14.00">PatternService</text>
</g>
<!-- PatternService&#45;&gt;CoreModule -->
<g id="edge11" class="edge">
<title>PatternService&#45;&gt;CoreModule</title>
<path fill="none" stroke="black" d="M284.06,-118.89C284.06,-136.37 284.06,-163 284.06,-163 284.06,-163 407.72,-163 407.72,-163"/>
<polygon fill="black" stroke="black" points="407.72,-166.5 417.72,-163 407.72,-159.5 407.72,-166.5"/>
</g>
<!-- UploadService -->
<g id="node14" class="node">
<title>UploadService</title>
<ellipse fill="#fdb462" stroke="black" cx="92" cy="-104" rx="68.34" ry="18"/>
<text text-anchor="middle" x="92" y="-99.8" font-family="Times,serif" font-size="14.00">UploadService</text>
</g>
<!-- UploadService&#45;&gt;CoreModule -->
<g id="edge12" class="edge">
<title>UploadService&#45;&gt;CoreModule</title>
<path fill="none" stroke="black" d="M92,-122.22C92,-142.37 92,-172 92,-172 92,-172 407.59,-172 407.59,-172"/>
<polygon fill="black" stroke="black" points="407.59,-175.5 417.59,-172 407.59,-168.5 407.59,-175.5"/>
</g>
<!-- AboutModal -->
<g id="node15" class="node">
<title>AboutModal</title>
<polygon fill="#ffffb3" stroke="black" points="3053.55,-190 2966.45,-190 2966.45,-154 3053.55,-154 3053.55,-190"/>
<text text-anchor="middle" x="3010" y="-167.8" font-family="Times,serif" font-size="14.00">AboutModal</text>
</g>
<!-- AboutModal&#45;&gt;WeaverModule -->
<g id="edge13" class="edge">
<title>AboutModal&#45;&gt;WeaverModule</title>
<path fill="none" stroke="black" d="M3010,-190.28C3010,-205.95 3010,-226 3010,-226 3010,-226 1928.23,-226 1928.23,-226 1928.23,-226 1928.23,-226.38 1928.23,-226.38"/>
<polygon fill="black" stroke="black" points="1924.73,-219.83 1928.23,-229.83 1931.73,-219.83 1924.73,-219.83"/>
</g>
<!-- ConnectionModal -->
<g id="node16" class="node">
<title>ConnectionModal</title>
<polygon fill="#ffffb3" stroke="black" points="2948.6,-190 2831.4,-190 2831.4,-154 2948.6,-154 2948.6,-190"/>
<text text-anchor="middle" x="2890" y="-167.8" font-family="Times,serif" font-size="14.00">ConnectionModal</text>
</g>
<!-- ConnectionModal&#45;&gt;WeaverModule -->
<g id="edge14" class="edge">
<title>ConnectionModal&#45;&gt;WeaverModule</title>
<path fill="none" stroke="black" d="M2890,-190.05C2890,-204.37 2890,-222 2890,-222 2890,-222 1917.92,-222 1917.92,-222 1917.92,-222 1917.92,-222.79 1917.92,-222.79"/>
<polygon fill="black" stroke="black" points="1914.42,-219.94 1917.92,-229.94 1921.42,-219.94 1914.42,-219.94"/>
</g>
<!-- DesignComponent -->
<g id="node17" class="node">
<title>DesignComponent</title>
<polygon fill="#ffffb3" stroke="black" points="2813.49,-190 2692.51,-190 2692.51,-154 2813.49,-154 2813.49,-190"/>
<text text-anchor="middle" x="2753" y="-167.8" font-family="Times,serif" font-size="14.00">DesignComponent</text>
</g>
<!-- DesignComponent&#45;&gt;WeaverModule -->
<g id="edge15" class="edge">
<title>DesignComponent&#45;&gt;WeaverModule</title>
<path fill="none" stroke="black" d="M2753,-190.04C2753,-202.56 2753,-217 2753,-217 2753,-217 1907.61,-217 1907.61,-217 1907.61,-217 1907.61,-219.97 1907.61,-219.97"/>
<polygon fill="black" stroke="black" points="1904.11,-219.97 1907.61,-229.97 1911.11,-219.97 1904.11,-219.97"/>
</g>
<!-- InitModal -->
<g id="node18" class="node">
<title>InitModal</title>
<polygon fill="#ffffb3" stroke="black" points="2674.99,-190 2603.01,-190 2603.01,-154 2674.99,-154 2674.99,-190"/>
<text text-anchor="middle" x="2639" y="-167.8" font-family="Times,serif" font-size="14.00">InitModal</text>
</g>
<!-- InitModal&#45;&gt;WeaverModule -->
<g id="edge16" class="edge">
<title>InitModal&#45;&gt;WeaverModule</title>
<path fill="none" stroke="black" d="M2639,-190.1C2639,-201.09 2639,-213 2639,-213 2639,-213 1897.31,-213 1897.31,-213 1897.31,-213 1897.31,-219.68 1897.31,-219.68"/>
<polygon fill="black" stroke="black" points="1893.81,-219.68 1897.31,-229.68 1900.81,-219.68 1893.81,-219.68"/>
</g>
<!-- LabelModal -->
<g id="node19" class="node">
<title>LabelModal</title>
<polygon fill="#ffffb3" stroke="black" points="2585.42,-190 2500.58,-190 2500.58,-154 2585.42,-154 2585.42,-190"/>
<text text-anchor="middle" x="2543" y="-167.8" font-family="Times,serif" font-size="14.00">LabelModal</text>
</g>
<!-- LabelModal&#45;&gt;WeaverModule -->
<g id="edge17" class="edge">
<title>LabelModal&#45;&gt;WeaverModule</title>
<path fill="none" stroke="black" d="M2543,-190.42C2543,-199.28 2543,-208 2543,-208 2543,-208 1887,-208 1887,-208 1887,-208 1887,-219.87 1887,-219.87"/>
<polygon fill="black" stroke="black" points="1883.5,-219.87 1887,-229.87 1890.5,-219.87 1883.5,-219.87"/>
</g>
<!-- LoomComponent -->
<g id="node20" class="node">
<title>LoomComponent</title>
<polygon fill="#ffffb3" stroke="black" points="2482.28,-190 2367.72,-190 2367.72,-154 2482.28,-154 2482.28,-190"/>
<text text-anchor="middle" x="2425" y="-167.8" font-family="Times,serif" font-size="14.00">LoomComponent</text>
</g>
<!-- LoomComponent&#45;&gt;WeaverModule -->
<g id="edge18" class="edge">
<title>LoomComponent&#45;&gt;WeaverModule</title>
<path fill="none" stroke="black" d="M2425,-190.24C2425,-197.43 2425,-204 2425,-204 2425,-204 1876.69,-204 1876.69,-204 1876.69,-204 1876.69,-219.85 1876.69,-219.85"/>
<polygon fill="black" stroke="black" points="1873.19,-219.85 1876.69,-229.85 1880.19,-219.85 1873.19,-219.85"/>
</g>
<!-- MasksComponent -->
<g id="node21" class="node">
<title>MasksComponent</title>
<polygon fill="#ffffb3" stroke="black" points="2349.88,-190 2232.12,-190 2232.12,-154 2349.88,-154 2349.88,-190"/>
<text text-anchor="middle" x="2291" y="-167.8" font-family="Times,serif" font-size="14.00">MasksComponent</text>
</g>
<!-- MasksComponent&#45;&gt;WeaverModule -->
<g id="edge19" class="edge">
<title>MasksComponent&#45;&gt;WeaverModule</title>
<path fill="none" stroke="black" d="M2291,-190.16C2291,-195.04 2291,-199 2291,-199 2291,-199 1866.39,-199 1866.39,-199 1866.39,-199 1866.39,-219.75 1866.39,-219.75"/>
<polygon fill="black" stroke="black" points="1862.89,-219.75 1866.39,-229.75 1869.89,-219.75 1862.89,-219.75"/>
</g>
<!-- MaterialModal -->
<g id="node22" class="node">
<title>MaterialModal</title>
<polygon fill="#ffffb3" stroke="black" points="2213.97,-190 2114.03,-190 2114.03,-154 2213.97,-154 2213.97,-190"/>
<text text-anchor="middle" x="2164" y="-167.8" font-family="Times,serif" font-size="14.00">MaterialModal</text>
</g>
<!-- MaterialModal&#45;&gt;WeaverModule -->
<g id="edge20" class="edge">
<title>MaterialModal&#45;&gt;WeaverModule</title>
<path fill="none" stroke="black" d="M2164,-190.12C2164,-192.97 2164,-195 2164,-195 2164,-195 1856.08,-195 1856.08,-195 1856.08,-195 1856.08,-219.76 1856.08,-219.76"/>
<polygon fill="black" stroke="black" points="1852.58,-219.76 1856.08,-229.76 1859.58,-219.76 1852.58,-219.76"/>
</g>
<!-- MaterialsComponent -->
<g id="node23" class="node">
<title>MaterialsComponent</title>
<polygon fill="#ffffb3" stroke="black" points="2096.2,-190 1961.8,-190 1961.8,-154 2096.2,-154 2096.2,-190"/>
<text text-anchor="middle" x="2029" y="-167.8" font-family="Times,serif" font-size="14.00">MaterialsComponent</text>
</g>
<!-- MaterialsComponent&#45;&gt;WeaverModule -->
<g id="edge21" class="edge">
<title>MaterialsComponent&#45;&gt;WeaverModule</title>
<path fill="none" stroke="black" d="M1961.58,-172C1954.77,-172 1950.3,-172 1950.3,-172 1950.3,-172 1950.3,-248 1950.3,-248 1950.3,-248 1948.69,-248 1948.69,-248"/>
<polygon fill="black" stroke="black" points="1948.69,-244.5 1938.69,-248 1948.69,-251.5 1948.69,-244.5"/>
</g>
<!-- NotesComponent -->
<g id="node24" class="node">
<title>NotesComponent</title>
<polygon fill="#ffffb3" stroke="black" points="1943.99,-190 1830.01,-190 1830.01,-154 1943.99,-154 1943.99,-190"/>
<text text-anchor="middle" x="1887" y="-167.8" font-family="Times,serif" font-size="14.00">NotesComponent</text>
</g>
<!-- NotesComponent&#45;&gt;WeaverModule -->
<g id="edge22" class="edge">
<title>NotesComponent&#45;&gt;WeaverModule</title>
<path fill="none" stroke="black" d="M1845.77,-190.01C1845.77,-190.01 1845.77,-219.85 1845.77,-219.85"/>
<polygon fill="black" stroke="black" points="1842.27,-219.85 1845.77,-229.85 1849.27,-219.85 1842.27,-219.85"/>
</g>
<!-- PatternModal -->
<g id="node25" class="node">
<title>PatternModal</title>
<polygon fill="#ffffb3" stroke="black" points="1812.2,-190 1719.8,-190 1719.8,-154 1812.2,-154 1812.2,-190"/>
<text text-anchor="middle" x="1766" y="-167.8" font-family="Times,serif" font-size="14.00">PatternModal</text>
</g>
<!-- PatternModal&#45;&gt;WeaverModule -->
<g id="edge23" class="edge">
<title>PatternModal&#45;&gt;WeaverModule</title>
<path fill="none" stroke="black" d="M1766,-190.27C1766,-208.56 1766,-234 1766,-234 1766,-234 1825.33,-234 1825.33,-234"/>
<polygon fill="black" stroke="black" points="1825.33,-237.5 1835.33,-234 1825.33,-230.5 1825.33,-237.5"/>
</g>
<!-- PatternsComponent -->
<g id="node26" class="node">
<title>PatternsComponent</title>
<polygon fill="#ffffb3" stroke="black" points="1702.43,-190 1575.57,-190 1575.57,-154 1702.43,-154 1702.43,-190"/>
<text text-anchor="middle" x="1639" y="-167.8" font-family="Times,serif" font-size="14.00">PatternsComponent</text>
</g>
<!-- PatternsComponent&#45;&gt;WeaverModule -->
<g id="edge24" class="edge">
<title>PatternsComponent&#45;&gt;WeaverModule</title>
<path fill="none" stroke="black" d="M1639,-190.03C1639,-209.58 1639,-238 1639,-238 1639,-238 1825.31,-238 1825.31,-238"/>
<polygon fill="black" stroke="black" points="1825.31,-241.5 1835.31,-238 1825.31,-234.5 1825.31,-241.5"/>
</g>
<!-- SchematicComponent -->
<g id="node27" class="node">
<title>SchematicComponent</title>
<polygon fill="#ffffb3" stroke="black" points="1557.65,-190 1418.35,-190 1418.35,-154 1557.65,-154 1557.65,-190"/>
<text text-anchor="middle" x="1488" y="-167.8" font-family="Times,serif" font-size="14.00">SchematicComponent</text>
</g>
<!-- SchematicComponent&#45;&gt;WeaverModule -->
<g id="edge25" class="edge">
<title>SchematicComponent&#45;&gt;WeaverModule</title>
<path fill="none" stroke="black" d="M1488,-190.13C1488,-210.57 1488,-241 1488,-241 1488,-241 1825.25,-241 1825.25,-241"/>
<polygon fill="black" stroke="black" points="1825.25,-244.5 1835.25,-241 1825.25,-237.5 1825.25,-244.5"/>
</g>
<!-- ShuttlesModal -->
<g id="node28" class="node">
<title>ShuttlesModal</title>
<polygon fill="#ffffb3" stroke="black" points="1399.66,-190 1302.34,-190 1302.34,-154 1399.66,-154 1399.66,-190"/>
<text text-anchor="middle" x="1351" y="-167.8" font-family="Times,serif" font-size="14.00">ShuttlesModal</text>
</g>
<!-- ShuttlesModal&#45;&gt;WeaverModule -->
<g id="edge26" class="edge">
<title>ShuttlesModal&#45;&gt;WeaverModule</title>
<path fill="none" stroke="black" d="M1351,-190.04C1351,-211.66 1351,-245 1351,-245 1351,-245 1825.12,-245 1825.12,-245"/>
<polygon fill="black" stroke="black" points="1825.12,-248.5 1835.12,-245 1825.12,-241.5 1825.12,-248.5"/>
</g>
<!-- SystemsComponent -->
<g id="node29" class="node">
<title>SystemsComponent</title>
<polygon fill="#ffffb3" stroke="black" points="1284,-190 1156,-190 1156,-154 1284,-154 1284,-190"/>
<text text-anchor="middle" x="1220" y="-167.8" font-family="Times,serif" font-size="14.00">SystemsComponent</text>
</g>
<!-- SystemsComponent&#45;&gt;WeaverModule -->
<g id="edge27" class="edge">
<title>SystemsComponent&#45;&gt;WeaverModule</title>
<path fill="none" stroke="black" d="M1220,-190.01C1220,-212.49 1220,-248 1220,-248 1220,-248 1825.22,-248 1825.22,-248"/>
<polygon fill="black" stroke="black" points="1825.22,-251.5 1835.22,-248 1825.22,-244.5 1825.22,-251.5"/>
</g>
<!-- TopbarComponent -->
<g id="node30" class="node">
<title>TopbarComponent</title>
<polygon fill="#ffffb3" stroke="black" points="1137.76,-190 1016.24,-190 1016.24,-154 1137.76,-154 1137.76,-190"/>
<text text-anchor="middle" x="1077" y="-167.8" font-family="Times,serif" font-size="14.00">TopbarComponent</text>
</g>
<!-- TopbarComponent&#45;&gt;WeaverModule -->
<g id="edge28" class="edge">
<title>TopbarComponent&#45;&gt;WeaverModule</title>
<path fill="none" stroke="black" d="M1077,-190.15C1077,-213.76 1077,-252 1077,-252 1077,-252 1825.41,-252 1825.41,-252"/>
<polygon fill="black" stroke="black" points="1825.41,-255.5 1835.41,-252 1825.41,-248.5 1825.41,-255.5"/>
</g>
<!-- ViewComponent -->
<g id="node31" class="node">
<title>ViewComponent</title>
<polygon fill="#ffffb3" stroke="black" points="997.65,-190 886.35,-190 886.35,-154 997.65,-154 997.65,-190"/>
<text text-anchor="middle" x="942" y="-167.8" font-family="Times,serif" font-size="14.00">ViewComponent</text>
</g>
<!-- ViewComponent&#45;&gt;WeaverModule -->
<g id="edge29" class="edge">
<title>ViewComponent&#45;&gt;WeaverModule</title>
<path fill="none" stroke="black" d="M942,-190.23C942,-214.93 942,-256 942,-256 942,-256 1825.18,-256 1825.18,-256"/>
<polygon fill="black" stroke="black" points="1825.18,-259.5 1835.18,-256 1825.18,-252.5 1825.18,-259.5"/>
</g>
<!-- WeaverComponent -->
<g id="node32" class="node">
<title>WeaverComponent</title>
<polygon fill="#ffffb3" stroke="black" points="868.35,-190 743.65,-190 743.65,-154 868.35,-154 868.35,-190"/>
<text text-anchor="middle" x="806" y="-167.8" font-family="Times,serif" font-size="14.00">WeaverComponent</text>
</g>
<!-- WeaverComponent&#45;&gt;WeaverModule -->
<g id="edge30" class="edge">
<title>WeaverComponent&#45;&gt;WeaverModule</title>
<path fill="none" stroke="black" d="M806,-190.03C806,-215.51 806,-259 806,-259 806,-259 1825.23,-259 1825.23,-259"/>
<polygon fill="black" stroke="black" points="1825.23,-262.5 1835.23,-259 1825.23,-255.5 1825.23,-262.5"/>
</g>
</g>
</svg>
